<svg width="18" height="17" viewBox="0 0 18 17" fill="none" xmlns="http://www.w3.org/2000/svg">
<path d="M5.95856 16.3568L4.47866 13.8254L1.53832 13.2218L1.86935 10.3593L0 8.17842L1.86935 6.01698L1.53832 3.15453L4.47866 2.55089L5.95856 0L8.56787 1.20729L11.1772 0L12.6766 2.55089L15.5974 3.15453L15.2664 6.01698L17.1357 8.17842L15.2664 10.3593L15.5974 13.2218L12.6766 13.8254L11.1772 16.3568L8.56787 15.1496L5.95856 16.3568Z" fill="#FE9A9A"/>
<path d="M8.475 9.55L6.125 11.825L5 10.7L7.325 8.425L5 6.125L6.125 5L8.475 7.275L10.825 5L11.95 6.125L9.625 8.425L11.95 10.7L10.825 11.825L8.475 9.55Z" fill="white"/>
</svg>
