<svg width="17" height="17" viewBox="0 0 17 17" fill="none" xmlns="http://www.w3.org/2000/svg">
<path d="M17 8.5C17 13.1944 13.1944 17 8.5 17C3.80558 17 0 13.1944 0 8.5C0 3.80558 3.80558 0 8.5 0C13.1944 0 17 3.80558 17 8.5Z" fill="#F15A22"/>
<path d="M6.70625 12.325H10.2937V10.8963C10.2937 10.3713 10.1206 9.91938 9.77422 9.54063C9.42786 9.16188 9.00312 8.9725 8.5 8.9725C7.99688 8.9725 7.57214 9.16188 7.22578 9.54063C6.87943 9.91938 6.70625 10.3713 6.70625 10.8963V12.325ZM5 13V12.325H6.05V10.8963C6.05 10.3713 6.18307 9.88938 6.44922 9.45063C6.71536 9.01188 7.08542 8.695 7.55938 8.5C7.08542 8.305 6.71536 7.98625 6.44922 7.54375C6.18307 7.10125 6.05 6.6175 6.05 6.0925V4.675H5V4H12V4.675H10.95V6.0925C10.95 6.6175 10.8169 7.10125 10.5508 7.54375C10.2846 7.98625 9.91458 8.305 9.44062 8.5C9.91458 8.695 10.2846 9.01188 10.5508 9.45063C10.8169 9.88938 10.95 10.3713 10.95 10.8963V12.325H12V13H5Z" fill="white"/>
</svg>
