<svg width="45" height="45" viewBox="0 0 45 45" fill="none" xmlns="http://www.w3.org/2000/svg">
<path d="M43.6981 44.998H1.29994C1.25594 44.886 1.14595 44.884 1.05395 44.86C0.591974 44.74 0.305986 44.438 0.143994 44.002C0.105995 43.898 0.103995 43.7721 0 43.6981V40.9982C0.0879961 40.9422 0.089996 40.8482 0.109995 40.7582C0.307986 39.8582 1.00396 39.2043 1.91991 39.0563C2.2839 38.9963 2.2819 38.9963 2.2699 38.6203C2.2399 37.6763 2.51389 36.8564 3.36585 36.3624C3.71384 36.1604 3.77583 35.9424 3.77383 35.5804C3.76183 30.5906 3.76183 25.6009 3.76583 20.6111C3.76583 19.2451 3.72983 17.8792 3.79383 16.5133C3.79983 16.3733 3.73183 16.3253 3.62584 16.2773C3.19786 16.0853 2.85387 15.7993 2.61188 15.3873C2.3279 14.9013 2.2499 14.3754 2.2559 13.8274C2.2599 13.4774 2.2579 13.4774 1.92391 13.4834C1.81592 13.4854 1.70792 13.4914 1.59993 13.4914C0.89196 13.4854 0.333985 13.0854 0.109995 12.4194C0.0839963 12.3415 0.067997 12.2595 0 12.2015C0 11.4515 0 10.7015 0 9.95156C0.0319986 9.90556 0.0839963 9.86156 0.0939958 9.80956C0.21599 9.19959 0.643971 8.8936 1.17795 8.67361C2.97587 7.93565 4.77179 7.19168 6.56771 6.44771C10.4895 4.82579 14.4074 3.19386 18.3372 1.58793C19.6191 1.06395 20.8551 0.419981 22.209 0.0799964C22.243 0.0719968 22.269 0.0279988 22.299 0C22.433 0 22.565 0 22.699 0C22.895 0.141994 23.139 0.139994 23.357 0.21999C24.1289 0.503978 24.8809 0.839963 25.6409 1.15395C30.3087 3.08586 34.9744 5.01778 39.6422 6.94969C41.0542 7.53367 42.4681 8.11564 43.8841 8.69561C44.406 8.9096 44.79 9.24359 44.91 9.82556C44.922 9.88756 44.968 9.94156 45 9.99956V12.1495C44.866 12.3774 44.846 12.6554 44.676 12.8674C44.31 13.3274 43.8261 13.5074 43.2481 13.4914C42.7461 13.4774 42.7461 13.4854 42.7401 13.9934C42.7281 15.0393 42.3261 15.8473 41.3342 16.2913C41.2162 16.3433 41.2062 16.4213 41.2062 16.5273C41.2102 19.0752 41.2162 21.623 41.2162 24.1729C41.2162 28.0628 41.2162 31.9506 41.2042 35.8404C41.2042 36.0584 41.2722 36.1644 41.4582 36.2644C42.1261 36.6224 42.5681 37.1583 42.6841 37.9263C42.7261 38.1983 42.7561 38.4723 42.7321 38.7483C42.7141 38.9623 42.7881 39.0323 43.0041 39.0563C43.958 39.1583 44.686 39.8362 44.888 40.7882C44.906 40.8722 44.92 40.9522 44.998 41.0022V43.7021C44.924 43.7321 44.92 43.8061 44.904 43.866C44.758 44.4 44.426 44.75 43.8881 44.894C43.8141 44.914 43.7461 44.94 43.6981 45.002V44.998ZM22.483 11.9995C29.3727 11.9995 36.2644 11.9995 43.1541 11.9995C43.2121 11.9995 43.2721 11.9935 43.3281 11.9995C43.4861 12.0195 43.5261 11.9455 43.5261 11.7995C43.5241 11.3075 43.5241 10.8155 43.5441 10.3255C43.5521 10.1495 43.4861 10.0696 43.3361 10.0116C43.0101 9.88556 42.6901 9.74957 42.3661 9.61557C39.4782 8.41963 36.5904 7.22368 33.7005 6.02773C31.0506 4.93178 28.3987 3.83583 25.7469 2.74188C24.7549 2.3339 23.7609 1.93191 22.769 1.52593C22.577 1.44794 22.397 1.44594 22.195 1.53193C21.3911 1.87392 20.5791 2.1919 19.7731 2.52589C15.4253 4.32581 11.0815 6.13173 6.7337 7.93165C5.08177 8.61562 3.42785 9.28959 1.76992 9.95956C1.52993 10.0576 1.42394 10.1755 1.44794 10.4515C1.48393 10.8575 1.47193 11.2675 1.47393 11.6755C1.47593 11.9975 1.47393 11.9995 1.80992 11.9995C8.69961 11.9995 15.5913 11.9995 22.481 11.9995H22.483ZM22.479 43.5181V43.5221C29.4347 43.5221 36.3924 43.5221 43.3481 43.5261C43.5001 43.5261 43.5321 43.4841 43.5301 43.3441C43.5281 42.7021 43.5341 42.0621 43.5361 41.4202C43.5401 40.7702 43.2301 40.4542 42.5701 40.4562C42.1041 40.4562 41.6382 40.4802 41.1702 40.4802C34.3465 40.4802 27.5248 40.4882 20.7011 40.4802C14.6354 40.4742 8.57162 40.5122 2.50589 40.4582C1.74392 40.4522 1.44394 40.7462 1.44994 41.4842C1.45394 42.0181 1.46793 42.5501 1.46993 43.0841C1.47193 43.5181 1.46993 43.5181 1.90592 43.5181C8.76161 43.5181 15.6193 43.5181 22.475 43.5181H22.479ZM39.7722 26.2208H39.7602C39.7602 23.039 39.7602 19.8571 39.7642 16.6753C39.7642 16.5233 39.7342 16.4813 39.5722 16.4813C37.2643 16.4893 34.9564 16.4873 32.6506 16.4873C32.2226 16.4873 32.2206 16.4913 32.2206 16.9272C32.2206 22.801 32.2206 28.6727 32.2206 34.5465C32.2206 34.9624 32.2366 35.3804 32.2146 35.7964C32.2066 35.9784 32.2646 36.0004 32.4186 36.0004C34.8005 35.9964 37.1843 35.9964 39.5662 36.0004C39.7302 36.0004 39.7762 35.9564 39.7742 35.7904C39.7682 32.6006 39.7702 29.4107 39.7702 26.2188L39.7722 26.2208ZM12.7714 26.2448C12.7714 24.8369 12.7714 23.429 12.7714 22.023C12.7714 20.2331 12.7734 18.4412 12.7834 16.6513C12.7834 16.4593 12.6734 16.4853 12.5554 16.4853C10.2815 16.4853 8.00764 16.4853 5.73375 16.4873C5.22577 16.4873 5.22377 16.4913 5.22377 17.0072C5.22577 23.255 5.22977 29.5027 5.22377 35.7504C5.22377 35.9704 5.28777 36.0044 5.48576 36.0044C7.73566 35.9984 9.98356 36.0004 12.2335 36.0004C12.5974 36.0004 12.7761 35.8224 12.7694 35.4664C12.7694 35.4244 12.7694 35.3824 12.7694 35.3424C12.7694 32.3106 12.7694 29.2787 12.7694 26.2468L12.7714 26.2448ZM28.5347 26.3908C28.5827 23.235 26.2448 20.3971 22.761 20.2191C19.4231 20.0471 16.5633 22.703 16.4713 26.0448C16.3773 29.4427 18.9592 32.1966 22.379 32.2786C25.7089 32.3586 28.4187 29.7727 28.5367 26.3908H28.5347ZM22.501 38.9983C28.5247 38.9983 34.5505 38.9983 40.5742 38.9983C41.0835 38.9983 41.3148 38.7403 41.2682 38.2243C41.2262 37.7503 40.9242 37.4643 40.4482 37.4643C40.0402 37.4643 39.6322 37.4863 39.2243 37.4863C34.6325 37.4863 30.0407 37.4923 25.4509 37.4863C18.5272 37.4763 11.6015 37.5183 4.67779 37.4643C4.5778 37.4643 4.4778 37.4703 4.37981 37.4863C4.01382 37.5463 3.76583 37.8083 3.73783 38.1763C3.72383 38.3663 3.74183 38.5603 3.72783 38.7503C3.71384 38.9423 3.77183 39.0043 3.97782 39.0043C10.1515 38.9983 16.3273 39.0003 22.501 38.9983ZM22.525 13.4874C16.4513 13.4874 10.3775 13.4874 4.30381 13.4874C3.92249 13.4874 3.73517 13.6787 3.74183 14.0614C3.75383 14.7753 3.97982 14.9973 4.69579 14.9973C16.4933 14.9973 28.2927 14.9973 40.0902 14.9973C40.2482 14.9973 40.4062 14.9993 40.5642 14.9973C40.9322 14.9893 41.1882 14.7693 41.2522 14.4014C41.2982 14.1454 41.2762 13.8854 41.2742 13.6274C41.2742 13.4774 41.2062 13.4554 41.0702 13.4614C40.7382 13.4794 40.4042 13.4834 40.0722 13.4834C34.2225 13.4834 28.3747 13.4834 22.525 13.4834V13.4874ZM14.2254 26.2488H14.2234C14.2234 29.3987 14.2274 32.5466 14.2154 35.6964C14.2154 35.9584 14.2734 36.0104 14.5194 36.0044C15.3513 35.9904 16.1853 35.9924 17.0192 36.0044C17.2272 36.0084 17.2672 35.9304 17.2652 35.7464C17.2552 34.4465 17.2392 33.1465 17.2852 31.8486C17.2912 31.6586 17.2132 31.5206 17.0892 31.3826C15.5273 29.6427 14.7893 27.6328 15.0973 25.2829C15.2913 23.8089 15.8633 22.493 16.8593 21.389C17.1532 21.0631 17.2812 20.7551 17.2672 20.3091C17.2292 19.1112 17.2512 17.9092 17.2572 16.7113C17.2572 16.5313 17.2232 16.4733 17.0252 16.4773C16.1753 16.4933 15.3253 16.4893 14.4754 16.4833C14.2934 16.4833 14.2174 16.5093 14.2174 16.7253C14.2254 19.8991 14.2234 23.073 14.2234 26.2468L14.2254 26.2488ZM30.7706 26.2528C30.7706 24.8449 30.7706 23.439 30.7706 22.031C30.7706 20.2651 30.7666 18.5012 30.7786 16.7353C30.7786 16.5333 30.7406 16.4793 30.5386 16.4813C29.6727 16.4913 28.8067 16.4893 27.9408 16.4773C27.7568 16.4753 27.7408 16.5433 27.7428 16.6953C27.7468 17.9272 27.7628 19.1611 27.7288 20.3931C27.7188 20.7871 27.8348 21.0551 28.0928 21.3391C29.4107 22.797 30.0327 24.5429 29.9767 26.4828C29.9227 28.3787 29.1907 30.0387 27.8768 31.4246C27.7668 31.5406 27.7108 31.6646 27.7168 31.8266C27.7688 33.1425 27.7388 34.4585 27.7388 35.7744C27.7388 35.9724 27.8048 36.0064 27.9828 36.0044C28.7147 35.9944 29.4487 36.0024 30.1807 36.0004C30.3707 36.0004 30.6206 36.0624 30.7386 35.9664C30.8806 35.8504 30.7546 35.5944 30.7726 35.3984C30.7726 35.3824 30.7726 35.3644 30.7726 35.3484C30.7726 32.3166 30.7726 29.2867 30.7726 26.2548L30.7706 26.2528ZM22.501 16.4893C22.501 16.4893 22.501 16.4893 22.501 16.4873C21.3271 16.4873 20.1511 16.4913 18.9772 16.4833C18.7772 16.4833 18.7352 16.5333 18.7352 16.7353C18.7352 17.6852 18.7612 18.6352 18.7152 19.5851C18.7112 19.6491 18.6852 19.7271 18.7452 19.7731C18.8152 19.8231 18.8652 19.7491 18.9212 19.7211C21.2991 18.4592 23.681 18.4592 26.0628 19.7071C26.2748 19.8171 26.3068 19.8091 26.2908 19.5751C26.2268 18.6252 26.2708 17.6752 26.2628 16.7273C26.2628 16.5393 26.2128 16.4893 26.0248 16.4913C24.8509 16.5013 23.6749 16.4953 22.501 16.4953V16.4893ZM22.495 35.9984C23.619 35.9984 24.7449 36.0004 25.8689 35.9984C26.3048 35.9984 26.2548 36.0824 26.2588 35.5964C26.2648 34.7885 26.2588 33.9805 26.2728 33.1725C26.2828 32.6885 26.2968 32.6885 25.8589 32.9025C23.543 34.0345 21.2411 33.9945 18.9572 32.8085C18.7132 32.6825 18.6972 32.6885 18.7112 32.9665C18.7572 33.8905 18.7372 34.8165 18.7372 35.7404C18.7372 35.9444 18.7832 36.0084 18.9952 36.0064C20.1611 35.9964 21.3271 36.0004 22.495 36.0004V35.9984Z" fill="#ED7D31"/>
<path d="M22.525 8.99961C27.4068 8.99961 32.2906 8.99961 37.1724 8.99961C37.3404 8.99961 37.5043 9.0096 37.6663 9.0556C38.0043 9.1556 38.2323 9.45359 38.2143 9.77157C38.1943 10.1236 37.9603 10.3895 37.5963 10.4515C37.4503 10.4775 37.2984 10.4875 37.1504 10.4875C27.3528 10.4895 17.5532 10.4915 7.75567 10.4895C7.62367 10.4895 7.48768 10.4775 7.35969 10.4475C7.0517 10.3815 6.82371 10.1196 6.79771 9.82157C6.76771 9.49758 6.91771 9.24159 7.21969 9.0996C7.40568 9.0116 7.60168 8.99561 7.80367 8.99561C12.7114 8.99561 17.6192 8.99561 22.527 8.99561L22.525 8.99961Z" fill="#ED7D31"/>
<path d="M36.7261 26.2528C36.7261 28.6667 36.7261 31.0826 36.7261 33.4965C36.7261 33.6045 36.7261 33.7125 36.7121 33.8205C36.6701 34.1965 36.3802 34.4604 36.0102 34.4664C35.6462 34.4724 35.3402 34.2105 35.2922 33.8385C35.2722 33.6905 35.2622 33.5405 35.2622 33.3905C35.2622 28.7847 35.2622 24.1809 35.2642 19.5751C35.2642 19.2751 35.2742 18.9751 35.2982 18.6771C35.3302 18.2932 35.6442 18.0112 36.0122 18.0152C36.3622 18.0192 36.6661 18.3072 36.6961 18.6811C36.7161 18.9211 36.7181 19.1631 36.7201 19.4051C36.7201 21.687 36.7201 23.9689 36.7201 26.2508H36.7261V26.2528Z" fill="#ED7D31"/>
<path d="M8.28753 26.2292C8.28753 23.7734 8.28753 21.3155 8.28753 18.8596C8.28753 18.5296 8.37353 18.2516 8.70151 18.0996C9.13549 17.8976 9.63547 18.1556 9.69547 18.6316C9.72747 18.8776 9.72947 19.1296 9.72947 19.3796C9.73147 23.8854 9.73347 28.3912 9.73147 32.897C9.73147 33.2289 9.77146 33.5649 9.70947 33.8949C9.65547 34.1829 9.47748 34.3709 9.19749 34.4509C8.9075 34.5349 8.65551 34.4629 8.45352 34.2329C8.36353 34.1309 8.30353 34.0129 8.29353 33.8749C8.28353 33.7169 8.27153 33.5589 8.26953 33.4009C8.26953 31.011 8.26953 28.6211 8.26953 26.2292C8.27553 26.2292 8.28153 26.2292 8.28753 26.2292Z" fill="#ED7D31"/>
<path d="M23.2575 27.7945C23.2535 27.2965 23.0135 27.0305 22.5755 26.9985C21.6975 26.9326 20.9796 26.5886 20.5496 25.7886C19.9436 24.6607 20.4076 23.3027 21.5755 22.7547C21.7315 22.6807 21.7995 22.6047 21.8035 22.4268C21.8095 22.0768 22.1195 21.7948 22.4735 21.7808C22.8295 21.7668 23.1775 22.0428 23.1955 22.4028C23.2055 22.6167 23.2995 22.7027 23.4735 22.7827C23.8854 22.9707 24.2154 23.2547 24.4214 23.6687C24.6234 24.0747 24.5334 24.4467 24.1874 24.6407C23.8074 24.8506 23.4095 24.7506 23.1815 24.3607C23.0355 24.1087 22.8295 23.9967 22.5495 23.9907C22.0855 23.9807 21.7975 24.2107 21.7495 24.6327C21.6955 25.1026 21.9115 25.4106 22.3675 25.5086C22.4815 25.5326 22.5975 25.5426 22.7135 25.5506C23.6134 25.6246 24.4474 26.3206 24.6414 27.1585C24.9054 28.3025 24.4034 29.3164 23.3235 29.7944C23.2075 29.8464 23.2095 29.9084 23.2095 30.0044C23.2155 30.4044 22.9355 30.6884 22.5295 30.7004C22.1015 30.7124 21.8075 30.4504 21.8035 30.0324C21.8035 29.8964 21.7595 29.8324 21.6315 29.7724C21.2256 29.5824 20.8796 29.3064 20.6356 28.9265C20.3516 28.4845 20.5376 27.9825 21.0276 27.8265C21.2855 27.7445 21.5035 27.8185 21.6895 28.0005C21.7915 28.0985 21.8735 28.2165 21.9795 28.3105C22.2115 28.5205 22.4715 28.6145 22.7795 28.4745C23.1015 28.3285 23.2735 28.0905 23.2595 27.7925L23.2575 27.7945Z" fill="#ED7D31"/>
</svg>
