<svg width="38" height="38" viewBox="0 0 38 38" fill="none" xmlns="http://www.w3.org/2000/svg">
<path d="M36.9022 38H1.09778C1.06062 37.9054 0.967733 37.9037 0.890045 37.8835C0.499911 37.7821 0.2584 37.5271 0.1216 37.1589C0.0895111 37.0711 0.0878222 36.9647 0 36.9022V34.6222C0.0743111 34.5749 0.076 34.4956 0.0928889 34.4196C0.260089 33.6596 0.847822 33.1073 1.62133 32.9823C1.92871 32.9316 1.92702 32.9316 1.91689 32.6141C1.89156 31.817 2.12293 31.1245 2.8424 30.7074C3.13627 30.5368 3.18862 30.3527 3.18693 30.047C3.1768 25.8332 3.1768 21.6195 3.18018 17.4057C3.18018 16.2522 3.14978 15.0987 3.20382 13.9452C3.20889 13.8269 3.15147 13.7864 3.06196 13.7459C2.70053 13.5837 2.41004 13.3422 2.20569 12.9943C1.96587 12.5839 1.9 12.1397 1.90507 11.677C1.90844 11.3814 1.90676 11.3814 1.62471 11.3865C1.53351 11.3882 1.44231 11.3932 1.35111 11.3932C0.753244 11.3882 0.282044 11.0504 0.0928889 10.488C0.0709333 10.4221 0.0574222 10.3529 0 10.3039C0 9.67058 0 9.03724 0 8.40391C0.0270222 8.36507 0.0709333 8.32791 0.0793778 8.284C0.1824 7.76889 0.543822 7.51049 0.994756 7.32471C2.51307 6.70151 4.02969 6.07325 5.54631 5.44498C8.85822 4.07529 12.1668 2.69716 15.4854 1.34098C16.568 0.898489 17.6117 0.354667 18.7551 0.0675556C18.7838 0.0608 18.8058 0.0236444 18.8311 0C18.9443 0 19.0557 0 19.1689 0C19.3344 0.119911 19.5404 0.118222 19.7245 0.185778C20.3764 0.4256 21.0115 0.709333 21.6532 0.974489C25.5951 2.60596 29.5353 4.23742 33.4772 5.86889C34.6695 6.36204 35.8636 6.85351 37.0593 7.34329C37.5001 7.524 37.8244 7.80605 37.9257 8.29751C37.9358 8.34987 37.9747 8.39547 38.0017 8.44444V10.26C37.8885 10.4525 37.8716 10.6873 37.7281 10.8663C37.419 11.2548 37.0103 11.4068 36.5222 11.3932C36.0983 11.3814 36.0983 11.3882 36.0932 11.8172C36.0831 12.7004 35.7436 13.3828 34.906 13.7577C34.8063 13.8016 34.7979 13.8675 34.7979 13.957C34.8012 16.1086 34.8063 18.2603 34.8063 20.4136C34.8063 23.6985 34.8063 26.9817 34.7962 30.2666C34.7962 30.4507 34.8536 30.5402 35.0107 30.6246C35.5748 30.9269 35.948 31.3796 36.046 32.0281C36.0814 32.2578 36.1068 32.4892 36.0865 32.7222C36.0713 32.9029 36.1338 32.962 36.3162 32.9823C37.1218 33.0684 37.7365 33.641 37.9071 34.4449C37.9223 34.5158 37.9341 34.5834 38 34.6256V36.9056C37.9375 36.9309 37.9341 36.9934 37.9206 37.0441C37.7973 37.495 37.517 37.7906 37.0627 37.9122C37.0002 37.9291 36.9428 37.951 36.9022 38.0034V38ZM18.9865 10.1333C24.8047 10.1333 30.6246 10.1333 36.4428 10.1333C36.4918 10.1333 36.5425 10.1283 36.5898 10.1333C36.7232 10.1502 36.757 10.0877 36.757 9.96445C36.7553 9.54898 36.7553 9.13351 36.7722 8.71973C36.7789 8.57111 36.7232 8.50356 36.5965 8.45458C36.3212 8.34818 36.051 8.23333 35.7774 8.12018C33.3387 7.11022 30.8999 6.10027 28.4595 5.09031C26.2217 4.1648 23.9822 3.23929 21.7428 2.31547C20.9051 1.97093 20.0657 1.63147 19.228 1.28862C19.0659 1.22276 18.9139 1.22107 18.7433 1.29369C18.0644 1.58249 17.3787 1.85102 16.698 2.13307C13.0264 3.65307 9.35813 5.17813 5.68649 6.69813C4.29147 7.27573 2.89476 7.84489 1.49467 8.41067C1.292 8.49342 1.20249 8.59307 1.22276 8.82613C1.25316 9.16898 1.24302 9.5152 1.24471 9.85973C1.2464 10.1316 1.24471 10.1333 1.52844 10.1333C7.34667 10.1333 13.1666 10.1333 18.9848 10.1333H18.9865ZM18.9831 36.7502V36.7536C24.8571 36.7536 30.7327 36.7536 36.6067 36.757C36.735 36.757 36.762 36.7215 36.7604 36.6033C36.7587 36.0612 36.7637 35.5207 36.7654 34.9786C36.7688 34.4297 36.507 34.1628 35.9497 34.1645C35.5562 34.1645 35.1627 34.1848 34.7675 34.1848C29.005 34.1848 23.2442 34.1916 17.4817 34.1848C12.3593 34.1797 7.23858 34.2118 2.11618 34.1662C1.47271 34.1612 1.21938 34.4094 1.22444 35.0326C1.22782 35.4836 1.23964 35.9328 1.24133 36.3837C1.24302 36.7502 1.24133 36.7502 1.60951 36.7502C7.39902 36.7502 13.1902 36.7502 18.9797 36.7502H18.9831ZM33.5869 22.143H33.5768C33.5768 19.456 33.5768 16.769 33.5802 14.082C33.5802 13.9536 33.5548 13.9181 33.418 13.9181C31.4691 13.9249 29.5201 13.9232 27.5728 13.9232C27.2114 13.9232 27.2097 13.9266 27.2097 14.2948C27.2097 19.255 27.2097 24.2136 27.2097 29.1739C27.2097 29.5252 27.2232 29.8781 27.2046 30.2294C27.1979 30.3831 27.2468 30.4017 27.3769 30.4017C29.3884 30.3983 31.4015 30.3983 33.413 30.4017C33.5515 30.4017 33.5903 30.3645 33.5886 30.2244C33.5836 27.5306 33.5852 24.8368 33.5852 22.1413L33.5869 22.143ZM10.7852 22.1633C10.7852 20.9743 10.7852 19.7853 10.7852 18.598C10.7852 17.0865 10.7869 15.5732 10.7954 14.0617C10.7954 13.8996 10.7025 13.9215 10.6028 13.9215C8.68258 13.9215 6.76231 13.9215 4.84204 13.9232C4.41307 13.9232 4.41138 13.9266 4.41138 14.3623C4.41307 19.6384 4.41644 24.9145 4.41138 30.1906C4.41138 30.3764 4.46542 30.4051 4.63262 30.4051C6.53262 30.4 8.43093 30.4017 10.3309 30.4017C10.6383 30.4017 10.7892 30.2514 10.7836 29.9508C10.7836 29.9153 10.7836 29.8798 10.7836 29.846C10.7836 27.2857 10.7836 24.7253 10.7836 22.165L10.7852 22.1633ZM24.0971 22.2866C24.1376 19.6215 22.1633 17.225 19.2212 17.0747C16.4025 16.9294 13.9874 19.1723 13.9097 21.9944C13.8303 24.8638 16.0107 27.1894 18.8987 27.2587C21.7107 27.3262 23.9991 25.1425 24.0988 22.2866H24.0971ZM19.0017 32.9333C24.0886 32.9333 29.1772 32.9333 34.2642 32.9333C34.6943 32.9333 34.8896 32.7155 34.8502 32.2797C34.8148 31.8795 34.5597 31.638 34.1578 31.638C33.8132 31.638 33.4687 31.6565 33.1242 31.6565C29.2465 31.6565 25.3688 31.6616 21.4928 31.6565C15.6459 31.6481 9.79725 31.6836 3.95031 31.638C3.86587 31.638 3.78142 31.643 3.69867 31.6565C3.3896 31.7072 3.18018 31.9284 3.15653 32.2392C3.14471 32.3996 3.15991 32.5635 3.14809 32.7239C3.13627 32.886 3.18524 32.9384 3.3592 32.9384C8.5728 32.9333 13.7881 32.935 19.0017 32.9333ZM19.022 11.3899C13.8928 11.3899 8.76365 11.3899 3.63449 11.3899C3.31247 11.3899 3.15428 11.5514 3.15991 11.8746C3.17004 12.4775 3.36089 12.665 3.96551 12.665C13.9283 12.665 23.8927 12.665 33.8555 12.665C33.9889 12.665 34.1223 12.6667 34.2557 12.665C34.5665 12.6582 34.7827 12.4724 34.8367 12.1617C34.8756 11.9455 34.857 11.726 34.8553 11.5081C34.8553 11.3814 34.7979 11.3628 34.683 11.3679C34.4027 11.3831 34.1206 11.3865 33.8403 11.3865C28.9003 11.3865 23.962 11.3865 19.022 11.3865V11.3899ZM12.0131 22.1667H12.0114C12.0114 24.8267 12.0148 27.485 12.0046 30.145C12.0046 30.3662 12.0536 30.4101 12.2613 30.4051C12.9639 30.3932 13.6682 30.3949 14.3724 30.4051C14.5481 30.4084 14.5819 30.3426 14.5802 30.1872C14.5717 29.0894 14.5582 27.9916 14.5971 26.8956C14.6021 26.7351 14.5363 26.6186 14.4316 26.502C13.1125 25.0327 12.4893 23.3354 12.7494 21.3509C12.9132 20.1062 13.3963 18.9949 14.2373 18.0627C14.4856 17.7874 14.5937 17.5273 14.5819 17.1507C14.5498 16.139 14.5684 15.124 14.5734 14.1124C14.5734 13.9604 14.5447 13.9114 14.3775 13.9148C13.6597 13.9283 12.942 13.9249 12.2242 13.9198C12.0705 13.9198 12.0063 13.9418 12.0063 14.1242C12.0131 16.8044 12.0114 19.4847 12.0114 22.165L12.0131 22.1667ZM25.9852 22.17C25.9852 20.9811 25.9852 19.7938 25.9852 18.6048C25.9852 17.1135 25.9819 15.6239 25.992 14.1326C25.992 13.962 25.9599 13.9164 25.7893 13.9181C25.058 13.9266 24.3268 13.9249 23.5955 13.9148C23.4401 13.9131 23.4266 13.9705 23.4283 14.0988C23.4316 15.1392 23.4452 16.1812 23.4164 17.2216C23.408 17.5543 23.506 17.7806 23.7238 18.0204C24.8368 19.2516 25.362 20.726 25.3148 22.3643C25.2692 23.9653 24.651 25.3671 23.5414 26.5375C23.4485 26.6355 23.4012 26.7402 23.4063 26.877C23.4502 27.9883 23.4249 29.0996 23.4249 30.2108C23.4249 30.378 23.4806 30.4068 23.6309 30.4051C24.2491 30.3966 24.8689 30.4034 25.487 30.4017C25.6475 30.4017 25.8586 30.454 25.9582 30.373C26.0781 30.275 25.9717 30.0588 25.9869 29.8933C25.9869 29.8798 25.9869 29.8646 25.9869 29.8511C25.9869 27.2908 25.9869 24.7321 25.9869 22.1717L25.9852 22.17ZM19.0017 13.9249C19.0017 13.9249 19.0017 13.9249 19.0017 13.9232C18.0103 13.9232 17.0172 13.9266 16.0259 13.9198C15.857 13.9198 15.8215 13.962 15.8215 14.1326C15.8215 14.9348 15.8435 15.7371 15.8046 16.5393C15.8012 16.5933 15.7793 16.6592 15.83 16.698C15.8891 16.7403 15.9313 16.6778 15.9786 16.6541C17.9867 15.5884 19.9981 15.5884 22.0096 16.6423C22.1886 16.7352 22.2156 16.7284 22.2021 16.5308C22.1481 15.7286 22.1852 14.9264 22.1785 14.1259C22.1785 13.9671 22.1363 13.9249 21.9775 13.9266C20.9861 13.935 19.9931 13.93 19.0017 13.93V13.9249ZM18.9966 30.4C19.9458 30.4 20.8966 30.4017 21.8458 30.4C22.214 30.4 22.1717 30.4709 22.1751 30.0605C22.1802 29.3782 22.1751 28.6959 22.1869 28.0136C22.1954 27.6049 22.2072 27.6049 21.8373 27.7856C19.8816 28.7415 17.9377 28.7077 16.009 27.7062C15.8029 27.5998 15.7894 27.6049 15.8012 27.8396C15.8401 28.6199 15.8232 29.4019 15.8232 30.1821C15.8232 30.3544 15.862 30.4084 16.0411 30.4068C17.0257 30.3983 18.0103 30.4017 18.9966 30.4017V30.4Z" fill="#808080"/>
<path d="M19.0219 7.60006C23.1445 7.60006 27.2687 7.60006 31.3913 7.60006C31.5332 7.60006 31.6717 7.6085 31.8085 7.64735C32.0939 7.73179 32.2864 7.98344 32.2712 8.25197C32.2543 8.54921 32.0568 8.77383 31.7494 8.82619C31.6261 8.84815 31.4977 8.85659 31.3727 8.85659C23.0989 8.85828 14.8233 8.85997 6.54946 8.85828C6.438 8.85828 6.32315 8.84815 6.21506 8.82281C5.95497 8.76708 5.76244 8.54584 5.74049 8.29419C5.71515 8.02059 5.84182 7.80441 6.09684 7.6845C6.25391 7.61019 6.41942 7.59668 6.59 7.59668C10.7345 7.59668 14.8791 7.59668 19.0236 7.59668L19.0219 7.60006Z" fill="#808080"/>
<path d="M31.0146 22.1699C31.0146 24.2084 31.0146 26.2486 31.0146 28.2871C31.0146 28.3783 31.0146 28.4695 31.0028 28.5607C30.9673 28.8782 30.7224 29.1011 30.41 29.1062C30.1026 29.1113 29.8442 28.89 29.8037 28.5759C29.7868 28.4509 29.7783 28.3243 29.7783 28.1976C29.7783 24.3081 29.7783 20.4203 29.78 16.5307C29.78 16.2774 29.7885 16.0241 29.8087 15.7724C29.8357 15.4482 30.1009 15.21 30.4117 15.2134C30.7072 15.2168 30.9639 15.46 30.9893 15.7758C31.0061 15.9785 31.0078 16.1828 31.0095 16.3872C31.0095 18.3142 31.0095 20.2412 31.0095 22.1683H31.0146V22.1699Z" fill="#808080"/>
<path d="M6.9986 22.15C6.9986 20.076 6.9986 18.0004 6.9986 15.9264C6.9986 15.6477 7.07122 15.413 7.3482 15.2846C7.71469 15.1141 8.13691 15.3319 8.18758 15.7339C8.2146 15.9416 8.21629 16.1544 8.21629 16.3655C8.21798 20.1706 8.21967 23.9757 8.21798 27.7807C8.21798 28.0611 8.25175 28.3448 8.1994 28.6235C8.1538 28.8667 8.00349 29.0254 7.76704 29.093C7.52215 29.1639 7.30935 29.1031 7.13878 28.9089C7.06278 28.8228 7.01211 28.7231 7.00367 28.6066C6.99522 28.4732 6.98509 28.3397 6.9834 28.2063C6.9834 26.1881 6.9834 24.1699 6.9834 22.15C6.98847 22.15 6.99353 22.15 6.9986 22.15Z" fill="#808080"/>
<path d="M19.6401 23.472C19.6367 23.0515 19.4341 22.8268 19.0642 22.7998C18.3228 22.7441 17.7165 22.4536 17.3534 21.778C16.8416 20.8255 17.2335 19.6787 18.2198 19.216C18.3515 19.1535 18.4089 19.0893 18.4123 18.939C18.4174 18.6435 18.6791 18.4053 18.9781 18.3935C19.2787 18.3817 19.5726 18.6147 19.5878 18.9187C19.5962 19.0995 19.6756 19.1721 19.8225 19.2396C20.1704 19.3984 20.4491 19.6382 20.6231 19.9878C20.7936 20.3307 20.7176 20.6448 20.4255 20.8086C20.1046 20.9859 19.7685 20.9015 19.5759 20.5722C19.4527 20.3594 19.2787 20.2648 19.0423 20.2597C18.6504 20.2513 18.4072 20.4455 18.3667 20.8019C18.3211 21.1987 18.5035 21.4588 18.8886 21.5416C18.9848 21.5619 19.0828 21.5703 19.1807 21.5771C19.9407 21.6395 20.645 22.2273 20.8088 22.9349C21.0318 23.901 20.6079 24.7572 19.6959 25.1609C19.5979 25.2048 19.5996 25.2571 19.5996 25.3382C19.6047 25.676 19.3682 25.9158 19.0254 25.9259C18.6639 25.9361 18.4157 25.7148 18.4123 25.3619C18.4123 25.247 18.3751 25.193 18.2671 25.1423C17.9242 24.9819 17.632 24.7488 17.426 24.4279C17.1862 24.0547 17.3432 23.6307 17.757 23.499C17.9749 23.4298 18.159 23.4923 18.316 23.6459C18.4022 23.7287 18.4714 23.8283 18.5609 23.9077C18.7568 24.0851 18.9764 24.1644 19.2365 24.0462C19.5084 23.9229 19.6536 23.7219 19.6418 23.4703L19.6401 23.472Z" fill="#808080"/>
</svg>
