<svg width="17" height="15" viewBox="0 0 17 15" fill="none" xmlns="http://www.w3.org/2000/svg">
<path d="M0.0198219 11.0419C0.0212749 11.0082 0.0241811 10.9745 0.0241811 10.9407C0.0241811 8.09156 0.0241811 5.24208 0.0241811 2.3929C0.0241811 2.35919 0.0215656 2.32548 0.0198219 2.29176C0.0738761 1.07409 1.0515 0.0921037 2.28981 0.021775C2.32352 0.0232281 2.35723 0.0261342 2.39094 0.0261342C5.24013 0.0261342 8.0896 0.0261342 10.9388 0.0261342C10.9725 0.0261342 11.0062 0.0232281 11.0399 0.0214844C11.7261 0.0714701 12.3146 0.331279 12.7749 0.849154C13.08 1.19237 13.2588 1.60097 13.3346 2.05288C13.3544 2.17 13.3689 2.28944 13.3689 2.40772C13.3712 3.79773 13.3704 5.18774 13.3701 6.57775C13.3701 6.61058 13.3654 6.64342 13.3619 6.68614C12.9972 6.51672 12.6406 6.35078 12.2593 6.17379V4.11101H1.12764C1.12764 4.15344 1.12764 4.19907 1.12764 4.24469C1.12764 6.51119 1.12096 8.77799 1.13375 11.0445C1.13636 11.4978 1.36798 11.8541 1.76932 12.0898C1.98932 12.2189 2.21716 12.2671 2.47522 12.2648C3.65686 12.2537 4.83879 12.2616 6.02043 12.2569C6.13987 12.2564 6.18695 12.2918 6.23229 12.4049C6.34243 12.6801 6.47786 12.9454 6.60398 13.2142C6.62723 13.2639 6.65426 13.3119 6.68158 13.3648C6.65658 13.3682 6.64263 13.372 6.62839 13.372C5.12708 13.3703 3.62548 13.381 2.12445 13.3587C1.67923 13.352 1.28138 13.1404 0.930317 12.8632C0.486839 12.513 0.20349 12.057 0.0735855 11.5095C0.0375493 11.3581 0.0366775 11.1982 0.0195312 11.0422L0.0198219 11.0419ZM12.2349 2.23393C12.1553 1.67682 11.6976 1.22056 11.1262 1.15459C11.0783 1.06247 11.0146 1.09501 10.9507 1.13308C10.8926 1.13192 10.8347 1.12931 10.7766 1.12931C8.1082 1.12931 5.43978 1.12843 2.77136 1.13047C2.58973 1.13047 2.4078 1.14529 2.22675 1.15982C1.84895 1.19004 1.58071 1.39987 1.35781 1.68961C1.0547 2.08368 1.13723 2.53675 1.12939 2.97442H12.2521V2.29467L12.2349 2.23364V2.23393Z" fill="#868DAA"/>
<path d="M9.96084 14.876C9.79531 14.8491 9.63019 14.817 9.46384 14.7958C8.54997 14.6778 7.7158 14.3485 6.97478 13.8072C6.17438 13.2223 5.53137 12.4975 5.1149 11.5825C4.79929 10.889 4.62278 10.1739 4.58252 9.40708C4.5272 8.35294 4.73585 7.36595 5.23488 6.45019C5.46182 6.03382 5.76441 5.65205 6.07067 5.28656C6.564 4.69763 7.18302 4.26132 7.885 3.95159C8.42714 3.71268 8.99165 3.55435 9.58341 3.47458C10.2443 3.38545 10.8983 3.43876 11.536 3.57348C12.3572 3.74687 13.1063 4.11358 13.7754 4.63251C14.8511 5.46646 15.5149 6.56537 15.8484 7.87064C15.9248 8.16978 15.937 8.48562 15.981 8.79372C15.9838 8.81489 16.0066 8.8332 16.0196 8.85274V9.50394C15.9923 9.57354 15.9517 9.6411 15.9411 9.71314C15.9179 9.87106 15.926 10.0343 15.8931 10.1897C15.6552 11.3204 15.1598 12.3233 14.3452 13.1466C13.8067 13.6908 13.1848 14.1365 12.4637 14.4083C12.068 14.5573 11.6495 14.6481 11.2379 14.7523C11.0187 14.8076 10.7926 14.8361 10.5697 14.8764H9.95962L9.96084 14.876ZM10.7832 5.92149C10.7287 5.73101 10.6234 5.5731 10.4155 5.55966C10.2126 5.54623 9.97141 5.48722 9.85103 5.73508C9.801 5.83806 9.7705 5.96138 9.77009 6.07575C9.76481 7.42456 9.76643 8.77337 9.76684 10.1226C9.76684 10.1767 9.75139 10.2447 9.77701 10.2825C9.87177 10.4209 9.95596 10.6057 10.0918 10.6659C10.2415 10.7323 10.442 10.7107 10.5982 10.5658C10.756 10.4193 10.8052 10.2467 10.8052 10.0444C10.8052 8.68871 10.8064 7.33339 10.8072 5.97766C10.7991 5.95894 10.7913 5.94062 10.7832 5.9219V5.92149ZM10.2655 11.6607C9.85306 11.6594 9.63507 11.8617 9.63507 12.2455C9.63507 12.5988 9.8799 12.8678 10.1792 12.8886C10.6832 12.9236 10.9292 12.5634 10.9329 12.2504C10.9361 11.9679 10.7023 11.5919 10.2655 11.6603V11.6607Z" fill="#D93232"/>
</svg>
