<?xml version="1.0" encoding="utf-8"?>
<!-- Generator: Adobe Illustrator 27.3.1, SVG Export Plug-In . SVG Version: 6.00 Build 0)  -->
<svg version="1.1" id="Layer_1" xmlns="http://www.w3.org/2000/svg" xmlns:xlink="http://www.w3.org/1999/xlink" x="0px" y="0px"
	 viewBox="0 0 215.2 198" style="enable-background:new 0 0 215.2 198;" xml:space="preserve">
<style type="text/css">
	.st0{clip-path:url(#SVGID_00000121243639025973395180000005211032999624912558_);}
	.st1{fill:#F1F4F7;}
	.st2{clip-path:url(#SVGID_00000140700774660584352700000017349699968706723475_);}
	.st3{fill:#10123A;}
	.st4{fill:#F15B22;}
	.st5{fill:#F8951D;}
	.st6{fill:#FFFFFF;}
	.st7{fill:none;stroke:#000000;stroke-miterlimit:10;}
</style>
<g id="Group_37745" transform="translate(4721 15505.979)">
	<g id="Group_37568" transform="translate(-4721 -15475.513)">
		<g>
			<defs>
				<rect id="SVGID_1_" y="0" width="215.2" height="167.5"/>
			</defs>
			<clipPath id="SVGID_00000053531323260728035600000005087846538110867086_">
				<use xlink:href="#SVGID_1_"  style="overflow:visible;"/>
			</clipPath>
			<g id="Group_37567" style="clip-path:url(#SVGID_00000053531323260728035600000005087846538110867086_);">
				<path id="Path_253839" class="st1" d="M204.8,93.7c-5.2,0-10.3,0-15.5,0c-1.8,0-3.6-0.9-3.8-2c-0.5-2.9,0.8-4.7,3.5-4.6
					c4,0,8,0.4,11.9-0.3c1.3-0.3,2.3-1.5,2.4-2.9c0.1-1.5-0.9-3.1-2.1-3.4c-0.9-0.2-1.9-0.3-2.8-0.4c-4.5,0-8.9,0-13.4,0
					c-2.4,0-3.8-1.2-3.8-3.2c0-2.1,1.5-3.4,3.8-3.4c4.8,0,9.7,0,14.5,0c2.4,0,3.5-1.1,3.4-3.5c0-2.1-1.2-3.1-3.5-3.1
					c-7.2,0-14.4,0-21.6,0c-1.9,0.1-3.5-1.4-3.6-3.3c0-0.1,0-0.2,0-0.3c0-1.8,1.3-2.9,3.5-2.9c3.4,0,6.7,0,10.1,0
					c2,0,3.4-0.9,3.7-2.3c0.6-2.9-0.5-4.3-3.5-4.3c-6,0-12,0-18,0c-1.1,0-2.2-0.1-3.3-0.3c-1.3-0.3-2.2-1.4-2.3-2.7
					c-0.1-2.5,1.3-3.9,3.8-3.9c4.5,0,8.9,0,13.4,0c0.8,0.1,1.7-0.2,2.3-0.8c1-1,1.7-2.2,1-3.7c-0.5-1.4-1.8-2.3-3.3-2.2
					c-10.3,0-20.5,0-30.8,0c-2.4,0-3.6-1.2-3.5-3.4c0-2.1,1.2-3.2,3.6-3.2c3.9,0,7.9,0.1,11.8,0c1.4,0,2.9,0,3.8-1.4
					c1.1-1.7,0.6-3.9-1.1-5c-0.6-0.4-1.3-0.6-2.1-0.5c-10.6,0-21.2,0-31.9,0c-0.7,0.1-1.5,0-2.1-0.5c-1.1-1-1.8-2-1.3-3.6
					c0.4-1.5,1.8-2.6,3.4-2.6c1-0.1,2,0.1,3,0c1.9-0.2,3-1.7,2.9-3.8c-0.1-1.5-1.9-3.1-3.3-3c-3.6,0.4-7.2,0.1-10.9,0.2
					c-1.4,0.1-2.7-0.8-3.1-2.2c-0.7-2.5,0.7-4.4,3.4-4.4c1.8-0.1,3.3-1.6,3.2-3.5c0,0,0,0,0-0.1c0.1-1.6-1.1-3-2.7-3.1
					c-0.2,0-0.3,0-0.5,0c-6.8,0-13.7,0-20.5,0c-1.8,0-3.5,1.5-3.5,3c0.1,1.6,1.1,3.8,3.5,3.7c2.2-0.1,4.4,0,6.6,0
					c1.1-0.1,2.2,0.4,2.8,1.3c0.7,1.1,0.8,2.6,0.1,3.7c-0.7,1.1-1.9,1.7-3.2,1.6c-14.4,0-28.7,0-43.1,0c-0.4,0-0.8,0-1.3,0
					c-1.9,0.1-3.5,1.7-3.4,3.6c0.2,1.8,1.7,3.2,3.6,3c1.2,0,2.4,0,3.6,0c2.3,0,3.9,1.4,3.9,3.4c0,2.3-1.4,3.6-3.9,3.6
					c-5.9,0-11.9,0-17.8,0c-2.3,0-3.5,1-3.6,2.8c-0.1,2.4,1.2,3.7,3.6,3.8c0.9,0,1.9,0,2.8,0c1.7,0.1,3.2,1.4,3.4,3.1
					c0.1,1.8-1.3,3.4-3.1,3.5c-0.1,0-0.1,0-0.2,0c-4.2,0-8.3,0-12.5,0c-2,0-3.5,1.7-3.4,4c0.1,1.2,1.9,2.7,3.4,2.7
					c2.7,0,5.5,0,8.2,0c2.5,0,4,1.3,4.1,3.4c0.1,1.8-1.7,3.4-3.9,3.5c-0.9,0.1-1.9,0-2.8,0c-5.6,0-11.1,0-16.7,0
					c-1.4-0.2-2.7,0.7-3.2,2c-0.5,1.4,0,3.1,1.3,3.9c1,0.5,2.1,0.8,3.2,0.7c3.3,0,6.6,0,9.9,0c2.3,0,3.5,1.1,3.5,3.1
					c0.1,1.8-1.3,3.4-3.2,3.5c-0.1,0-0.3,0-0.4,0c-2.3,0-4.6,0-6.9,0c-3.6,0-7.2,0-10.7,0c-1.9,0-3.4,1.5-3.3,3.4c0,0,0,0,0,0
					c-0.1,1.7,1.2,3.1,2.9,3.2c0.1,0,0.3,0,0.4,0c1.2,0,2.3-0.1,3.5,0c2.5,0.2,3.7,2.2,3.1,4.6c-0.5,1.9-1.9,2-3.4,2
					c-5.5,0-10.9,0-16.4,0c-2.9,0-4.5,2.4-3.3,5c0.7,1.5,2,2,3.6,2c8.4,0,16.8,0,25.2,0c0.5-0.1,1.1,0,1.5,0.2c1.3,0.8,2,2.4,1.6,4
					c-0.4,1.6-1.9,2.7-3.5,2.5c-4.9,0-9.8,0-14.7,0c-0.6-0.1-1.2,0-1.7,0.3c-1.1,1-1.5,2.5-1.2,4c0.4,1.5,1.8,2.4,3.3,2.3
					c3.5,0,6.9,0,10.4,0c2.3,0,3.4,1.1,3.4,3.4c0,2.4-0.8,3.3-3.3,3.3c-4.8,0-9.7,0-14.5,0c-1.6,0-3.1,1.1-3.5,2.7
					c-0.4,1.8,0.7,3.7,2.5,4.1c0.6,0.1,1.1,0.2,1.7,0.1c10.8,0,21.7,0,32.5,0c2.7,0,4,2.5,2.9,4.8c-0.8,1.7-2.2,1.7-3.6,1.8
					c-2.1,0.1-4.2,0-6.3,0c-1.6-0.1-2.9,1.1-3,2.7c0,0.1,0,0.2,0,0.4c0,2.2,1,3.5,2.9,3.5c6.3,0,12.5-0.2,18.8,0.1
					c1.9,0.1,3.6,0.6,5.6-0.2c1.2-0.5,3.4,2.1,3.4,3.6c-0.1,1.9-1.6,3.3-3.5,3.2c-6,0-12,0-18,0c-2.9,0-4.5,2.4-3.4,4.9
					c0.7,1.4,2.1,2.2,3.6,2c8.1,0,16.3,0,24.4,0c1.8-0.1,3.3,1.3,3.4,3.1c0,0,0,0,0,0c0,1.9-1.6,3.5-3.5,3.5c-2.3,0-4.6,0-6.9,0
					c-1.4,0-2.6,0.4-3.1,1.9c-0.9,2.6,0.5,4.7,3.4,4.8c7.2,0,14.4,0,21.6,0c1.8-0.2,3.4,1.1,3.7,2.8c0.2,1.9-0.8,3.2-2.9,3.8
					c-0.8,0.1-1.6,0.3-2.4,0.8c-1.2,0.9-1.6,2.4-1.1,3.8c0.5,1.5,2.1,2.5,3.7,2.4c8.2,0,16.4,0,24.6,0c1.3,0,2.6-0.1,3.8-0.6
					c1.2-0.5,1.8-2.8,1.4-4.1c-0.7-1.3-2-2.2-3.4-2.3c-4.1,0-8.2,0-12.3,0c-2.3,0-3.5-1.1-3.5-3.1c0-2.4,1.1-3.5,3.6-3.5
					c18.8,0,37.6,0,56.5,0c0.6,0,1.2,0,1.7-0.1c1.5-0.5,2.5-2.1,2.3-3.7c-0.2-1.7-1.7-2.9-3.4-2.8c-9.1,0-18.2,0-27.3,0
					c-1.6,0.2-3.1-1-3.3-2.6c0-0.2,0-0.3,0-0.5c-7,0-14.1,0-21.1-0.1c7,0,14.1,0,21.1,0.1c3.7,0,7.4,0,11-0.1c2.7,0,4.4-1.2,4.8-3.5
					l0.2-0.2l0.1-0.1c11.9,0,23.8,0,35.6,0c0.6,0,1.1-0.1,1.6-0.5c1.5-1.2,1.7-3.4,0.4-4.9c-0.7-0.8-1.6-1.2-2.6-1.2
					c-7,0-14.1,0-21.1,0c-2.1,0-3.8-1.4-3.8-3.1c0-1.9,1.5-3.5,3.5-3.5c0.1,0,0.2,0,0.3,0c5.2,0,10.4,0,15.6,0
					c0.6,0,1.1-0.1,1.7-0.1c1.7-0.1,2.8-2.1,2.5-3.8c-0.4-1.5-1.7-2.5-3.3-2.6c-2.5,0-4.9,0-7.4,0c-2.4,0-3.5-1.1-3.5-3.4
					c0-2.5,0.8-3.2,3.5-3.2c5.3,0,10.5,0,15.8,0c1.4,0.1,2.7-0.1,3.9-0.7c1.2-0.7,1.8-2.3,1.2-3.6c-0.3-1.6-1.8-2.6-3.3-2.6
					c-3.1,0-6.2,0-9.3,0c-1.5,0-2.8-1-3.2-2.4c-0.5-1.4,0.1-2.8,1.3-3.6c0.8-0.5,1.8-0.7,2.7-0.7c8.5,0,16.9,0,25.4,0
					c1.8,0.2,3.4-1.2,3.6-3c0-0.2,0-0.4,0-0.6C208,95,206.5,93.7,204.8,93.7 M99.3,70.3L99.3,70.3c-0.3,0.3-1.2-0.4-1.5,0.2
					C98.1,69.9,99,70.6,99.3,70.3 M99.1,69.9c-0.1-0.2-0.1-0.4,0-0.6C99,69.5,99,69.7,99.1,69.9 M92,60.5c1-0.2,2-0.5,2.9-0.9
					C94,60,93,60.3,92,60.5 M90.4,73.2c5.8,0,11.7,0,17.5,0C102.1,73.2,96.2,73.2,90.4,73.2c-5.7,0-11.5,0-17.2,0
					C78.9,73.2,84.7,73.2,90.4,73.2 M95.5,111.1c0.1,0,0.3,0,0.4,0C95.7,111.1,95.6,111.1,95.5,111.1 M96.4,124.5
					C96.4,124.5,96.4,124.5,96.4,124.5C96.4,124.5,96.4,124.5,96.4,124.5 M100.7,124.5c0,0-0.1,0-0.1,0
					C100.6,124.5,100.6,124.5,100.7,124.5 M100.7,124.5C100.7,124.5,100.7,124.5,100.7,124.5C100.7,124.5,100.7,124.5,100.7,124.5
					 M101,123.9C101,123.9,100.9,123.9,101,123.9C100.9,123.9,101,123.9,101,123.9 M101.3,123.6
					C101.3,123.6,101.3,123.6,101.3,123.6C101.3,123.6,101.3,123.6,101.3,123.6 M101.8,123C101.8,123,101.8,123.1,101.8,123
					C101.8,123.1,101.8,123,101.8,123 M101.9,122.9C101.9,122.9,101.9,123,101.9,122.9C101.9,123,101.9,122.9,101.9,122.9
					 M102.2,122.8L102.2,122.8L102.2,122.8 M102.2,122.4C102.2,122.4,102.2,122.3,102.2,122.4C102.2,122.3,102.2,122.4,102.2,122.4
					 M102.4,119.1c0.4,0.7,0.5,1.5,0.2,2.3C102.9,120.6,102.9,119.7,102.4,119.1 M99.6,110.8c1.7,0,3.3,0.6,4.7,1.7
					C103,111.4,101.3,110.8,99.6,110.8 M105.8,114c0-0.1-0.1-0.1-0.2-0.2C105.7,113.8,105.8,113.9,105.8,114L105.8,114 M105.9,114
					L105.9,114L105.9,114 M106.1,114.3C106.1,114.3,106.1,114.2,106.1,114.3C106.1,114.2,106.1,114.3,106.1,114.3L106.1,114.3
					 M106.2,114.3L106.2,114.3L106.2,114.3 M106.4,114.6c0-0.1-0.1-0.1-0.2-0.2C106.3,114.5,106.4,114.5,106.4,114.6L106.4,114.6
					 M94,112.1l0.1-0.1L94,112.1l-1.1,0.5L94,112.1 M96,123.7C96,123.7,96,123.7,96,123.7C96,123.7,96,123.7,96,123.7 M106.7,115
					c0,0,0-0.1-0.1-0.1C106.7,114.9,106.7,114.9,106.7,115L106.7,115 M90.4,83.9c-5.8,0-11.5,0-17.3,0
					C78.8,83.9,84.6,83.9,90.4,83.9c5.8,0,11.7,0,17.5,0C102,83.9,96.2,83.9,90.4,83.9 M106.8,128.3c-0.2,0.4-0.5,0.7-0.9,1
					C106.3,129,106.6,128.7,106.8,128.3 M107,127.9c0,0.1-0.1,0.2-0.2,0.3C106.9,128.1,106.9,128,107,127.9 M107.2,126.9
					c0.1,0,0.2-0.1,0.2-0.2C107.4,126.8,107.3,126.9,107.2,126.9L107.2,126.9 M108.8,124.2c1-2.6,0.6-5.6-1-7.9
					C109.5,118.6,109.9,121.5,108.8,124.2c-0.1,0.3-0.2,0.5-0.3,0.8C108.6,124.7,108.7,124.4,108.8,124.2 M114.9,45.4
					c0,0,0-0.1,0-0.1C114.9,45.3,114.9,45.3,114.9,45.4 M118.2,54c0.7,1.1,1.4,2.3,2,3.5C119.6,56.3,118.9,55.1,118.2,54
					 M122.1,60.6c0,0.1,0,0.3,0,0.4C122.1,60.9,122.1,60.7,122.1,60.6 M127.1,60.7c0-0.2,0.1-0.3,0.3-0.4
					C127.2,60.4,127.1,60.5,127.1,60.7 M127.1,60.8c0,0,0-0.1,0-0.1C127.1,60.7,127.1,60.8,127.1,60.8 M126.9,61.2
					c-0.1,0-0.2,0-0.3,0.1C126.7,61.3,126.8,61.2,126.9,61.2 M126.6,61.8L126.6,61.8c-0.1,0-0.1,0-0.1,0.1
					C126.5,61.8,126.5,61.8,126.6,61.8 M127.2,61.2L127.2,61.2L127.2,61.2L127.2,61.2z M127.7,60.5c0-0.1,0-0.1-0.1-0.2l0.2-0.4l0,0
					l-0.2,0.4C127.6,60.3,127.7,60.4,127.7,60.5 M128.1,59.6L128.1,59.6l-0.1,0L128.1,59.6z M128.8,57.8c-0.4,0.4-0.6,0.9-0.7,1.4
					C128.2,58.7,128.4,58.2,128.8,57.8 M130.9,55L130.9,55L130.9,55c-0.3,0.2-0.5,0.5-0.7,0.8C130.4,55.5,130.6,55.2,130.9,55
					 M133.3,50.8l-0.2,0.4L133.3,50.8z M134.4,48.2c0.2-0.3,0.4-0.7,0.6-1C134.8,47.5,134.6,47.8,134.4,48.2 M114.9,44.9L114.9,44.9
					c-1.6,0.4-1.8,0.8-1.1,2.2l0,0C113.1,45.8,113.2,45.4,114.9,44.9 M122.2,61.3L122.2,61.3c0,0,0-0.1,0-0.1
					C122.2,61.3,122.2,61.3,122.2,61.3 M91.2,126.9c0.7,0.7,1.6,1.3,1.8,2.4l0,0C92.8,128.2,92,127.6,91.2,126.9 M92.4,129.4
					c0-0.2,0.1-0.3,0.2-0.3C92.4,129.1,92.4,129.2,92.4,129.4 M125.2,68.3c0,0,0.1-0.1,0.1-0.1c-1-0.4-2.1-0.5-3.2-0.9
					c1.1,0.4,2.2,0.5,3.2,0.9C125.3,68.2,125.2,68.3,125.2,68.3"/>
				<path id="Path_253840" class="st1" d="M10.9,93.7c-2.7-0.1-5.3-0.1-8,0c-2.1,0.1-3,1.5-2.9,3.9c0.1,1.6,1.6,2.8,3.2,2.7
					c1.2,0,2.4,0,3.6,0c1.4,0,2.7,0.1,4.1,0c1.8,0,3.3-1.6,3.2-3.4C14,95.2,12.7,93.8,10.9,93.7"/>
				<path id="Path_253841" class="st1" d="M31,120.5c-1.7-0.1-3.5-0.1-5.2,0c-1.3,0.1-2.4,0.9-2.8,2.2c-0.5,1.1-0.2,2.5,0.7,3.3
					c1.4,1.6,3.2,1,4.7,1.1c0.9,0,1.7,0,2.5,0c1.6,0.2,3.1-1.1,3.3-2.7c0-0.1,0-0.2,0-0.3C34.2,122.3,32.8,120.7,31,120.5
					C31,120.5,31,120.5,31,120.5"/>
				<path id="Path_253842" class="st1" d="M36,33c1.5,0.5,3.1,0.7,4.7,0.4c1.3-0.1,2.4-1,2.8-2.2c0.4-1.2,0.1-2.6-0.8-3.5
					c-1-1.2-2.4-0.8-3.5-0.8c-0.9,0-1.6,0-2.4,0c-1.4,0.1-2.4,1.2-2.7,2.5C33.8,31.2,34.5,32.4,36,33"/>
				<path id="Path_253843" class="st1" d="M39.1,134c-1.2-0.5-2.6-0.5-3.8,0.1c-1.5,0.8-2.3,2.6-1.8,4.3c0.3,1.1,2,2.3,3.8,2.3
					c0.6-0.1,1.7-0.2,2.8-0.4c0.9-0.2,2.2-2.4,2-3.4C41.8,134.9,41.2,134.6,39.1,134"/>
				<path id="Path_253844" class="st1" d="M213,80.3c-1.6-0.7-4.6,0-5.6,1.1c-0.9,0.9-1.1,2.3-0.6,3.5c0.8,1.3,2,2.5,3.7,2.1
					c2.8,0,4.4-1.1,4.6-3C215.4,82.5,214.5,80.9,213,80.3"/>
				<path id="Path_253845" class="st1" d="M144,20.2c1.5,0.1,3-0.7,3.6-2.2c0.6-1.9,0.3-3-1-4.1c-1-0.7-2.3-0.9-3.5-0.7
					c-3.1,0.2-4.4,2.9-2.6,5.5C141.3,19.9,142.7,20.4,144,20.2"/>
				<path id="Path_253846" class="st1" d="M13.8,73.5c2.6,0,4.2-1.2,4.2-3.2c0-2.1-1.5-3.4-3.8-3.5c-2.9-0.2-3.8,1.5-4,3.5
					C10,72,11.8,73.5,13.8,73.5"/>
			</g>
		</g>
	</g>
	<g id="Group_39068" transform="translate(-4698 -15505.979)">
		<g>
			<defs>
				<rect id="SVGID_00000090286308434226779920000009822318219064177564_" width="182.4" height="162.4"/>
			</defs>
			<clipPath id="SVGID_00000008862012070602733120000002457146234457940104_">
				<use xlink:href="#SVGID_00000090286308434226779920000009822318219064177564_"  style="overflow:visible;"/>
			</clipPath>
			<g id="Group_39065" style="clip-path:url(#SVGID_00000008862012070602733120000002457146234457940104_);">
				<path id="Path_254137" class="st3" d="M20.2,141.4V56.8c-0.2-4.6,3-8.7,7.6-9.6c0.7-0.1,1.4-0.2,2.1-0.2h121.9
					c5.4,0,9.2,3.1,10,8c0.1,0.5,0.1,1,0.1,1.6v84.8C114.7,141.4,67.4,141.4,20.2,141.4 M30.5,131.1h121V57.4h-121L30.5,131.1z"/>
				<path id="Path_254138" class="st3" d="M0,146.9h67.3c0.8,3.8,2.5,5.1,6.3,5.1h35.1c3.6,0,5.4-1.5,6.1-5.1h67.2
					c0.2,2-0.2,4-1.1,5.8c-2.8,6.2-7.7,9.6-14.6,9.6c-19.8,0.1-39.7,0-59.5,0H15.9c-7.3,0.1-13.7-4.8-15.4-11.9
					C0.2,149.3,0.2,148.1,0,146.9"/>
				<path id="Path_254139" class="st4" d="M55.5,101.7c1.6,0,3.3,0.3,4.8,0.9c1.5,0.6,2.8,1.4,3.9,2.5c3.6,3.7,4.7,9.1,2.7,13.9
					c-0.6,1.5-1.5,2.8-2.7,3.9c-1.1,1.1-2.5,2-3.9,2.5c-1.5,0.6-3.1,0.9-4.8,0.9c-1.6,0-3.3-0.3-4.8-0.9c-1.5-0.6-2.8-1.4-3.9-2.5
					c-3.6-3.7-4.7-9.1-2.7-13.9c0.6-1.5,1.5-2.8,2.7-3.9c1.1-1.1,2.5-2,3.9-2.5C52.2,102,53.9,101.7,55.5,101.7 M55.5,106.3
					c-2.7,0-5.2,1.4-6.4,3.8c-1.3,2.5-1.3,5.4,0,7.9c0.6,1.1,1.5,2.1,2.6,2.8c1.1,0.7,2.5,1,3.8,1c1.3,0,2.6-0.3,3.8-1
					c1.1-0.7,2-1.6,2.6-2.8c0.6-1.2,1-2.6,0.9-3.9c0-1.4-0.3-2.7-0.9-3.9C60.7,107.8,58.2,106.3,55.5,106.3"/>
				<path id="Path_254140" class="st4" d="M83.4,101.7c1.6,0,3.3,0.3,4.8,0.9c1.5,0.6,2.8,1.4,3.9,2.5c3.6,3.7,4.7,9.1,2.7,13.9
					c-0.6,1.5-1.5,2.8-2.7,3.9c-1.1,1.1-2.5,2-3.9,2.5c-1.5,0.6-3.1,0.9-4.8,0.9c-1.6,0-3.3-0.3-4.8-0.9c-1.5-0.6-2.8-1.4-3.9-2.5
					c-3.6-3.7-4.7-9.1-2.7-13.9c0.6-1.5,1.5-2.8,2.7-3.9c1.1-1.1,2.5-2,3.9-2.5C80.1,102,81.8,101.7,83.4,101.7 M83.4,106.3
					c-2.7,0-5.2,1.4-6.4,3.8c-1.3,2.5-1.3,5.4,0,7.9c0.6,1.1,1.5,2.1,2.6,2.8c1.1,0.7,2.5,1,3.8,1c1.3,0,2.6-0.3,3.8-1
					c1.1-0.7,2-1.6,2.6-2.8c0.6-1.2,1-2.6,0.9-3.9c0-1.4-0.3-2.7-0.9-3.9C88.5,107.8,86.1,106.3,83.4,106.3"/>
				<path id="Path_254141" class="st4" d="M110.4,102.2c1.1,0,2.2,0.2,3.2,0.5c1.1,0.4,2,0.9,2.9,1.7c0.9,0.7,1.6,1.6,2,2.6
					c1.2,2.5,1,5.4-0.4,7.8c-0.8,1.2-1.9,2.2-3.2,2.9c-1.4,0.7-2.8,1.1-4.4,1.1c-1,0-1.9-0.1-2.8-0.3c-0.7-0.2-1.4-0.4-2.1-0.7v8.1
					h-4.9v-23.6H110.4z M105.5,106.8v7c0.6,0.2,1.2,0.4,1.9,0.5c0.7,0.1,1.5,0.2,2.3,0.2c1.2,0.1,2.4-0.4,3.4-1.2
					c0.8-0.7,1.2-1.7,1.2-2.8c0.1-1.1-0.5-2.2-1.4-2.8c-1-0.6-2.1-1-3.3-0.9L105.5,106.8L105.5,106.8z"/>
				<path id="Path_254142" class="st4" d="M130.7,101.8c1.3,0,2.5,0.2,3.8,0.5c1,0.3,2,0.7,2.8,1.3v4.8c-0.8-0.5-1.7-1-2.7-1.5
					c-1-0.5-2.2-0.7-3.3-0.7c-0.6,0-1.2,0.1-1.8,0.3c-0.6,0.2-1.1,0.5-1.5,0.8c-0.8,0.8-0.8,2.1,0,2.9c0.1,0.1,0.3,0.2,0.4,0.3
					c0.8,0.5,1.6,0.9,2.5,1.2l2.9,1.2c1.4,0.5,2.7,1.4,3.6,2.6c0.8,1,1.2,2.2,1.2,3.5c0,1.3-0.4,2.6-1.2,3.7c-0.9,1.1-2,2-3.2,2.5
					c-1.4,0.6-2.9,0.9-4.5,0.9c-1.4,0-2.7-0.2-4-0.7c-1.2-0.4-2.3-1-3.3-1.7V119c1.1,0.8,2.2,1.4,3.4,1.9c1.3,0.5,2.6,0.8,4,0.8
					c0.9,0,1.8-0.2,2.5-0.6c0.7-0.3,1.1-1,1.1-1.7c0-0.6-0.3-1.2-0.9-1.5c-0.6-0.4-1.2-0.7-1.9-1l-3.6-1.4c-1.5-0.5-2.8-1.4-3.7-2.8
					c-0.7-1.2-1-2.5-1-3.8c0-1.3,0.4-2.7,1.2-3.8c0.8-1.1,1.9-1.9,3.1-2.5C127.9,102.1,129.3,101.8,130.7,101.8"/>
				<path id="Path_254143" class="st4" d="M132.8,82.9l-12.6,13.4l31.4-13.4"/>
				<path id="Path_254144" class="st4" d="M134.1,88.4c-11.9,0-23.8,0-35.7,0c-11,0-15-6.6-9.6-16.2c12.2-21.8,24.4-43.7,36.7-65.5
					c0.1-0.1,0.2-0.3,0.3-0.4c4.9-8.3,12.5-8.4,17.3,0c10.5,18.4,20.7,36.9,31,55.3c2.1,3.7,4.2,7.4,6.2,11.1c1.3,2.1,2,4.4,2.1,6.9
					c0,5-3.9,8.8-9.6,8.8c-10,0.1-20,0.1-29.9,0.1C140,88.4,137.1,88.4,134.1,88.4"/>
				<path id="Path_254145" class="st5" d="M134.4,83.7c-6.7,0-11.4-4.2-11.4-9.9c0-5.9,4.7-10,11.5-10s11.3,4.1,11.4,10
					c0,5.6-4.5,9.9-11.4,9.9H134.4z M127.1,60.4l-2.9-42.4h20.8L142,60.4H127.1z"/>
				<path id="Path_254146" class="st6" d="M121.6,70.2c-2-0.1-4.3,0.3-6.6-0.3c-7-1.5-11.5-8.4-10.1-15.4
					c1.2-5.9,6.4-10.2,12.5-10.3c3.3-0.1,6.6,0,9.9,0c1.6,0,2.4,0.7,2.4,2.3c0,0.9,0,1.7,0,2.6c0,3.9-1.2,4.8-5,3.9
					c-0.5-0.1-1.1-0.4-1.1-0.9c0.1-2.1-1.4-1.7-2.6-1.7c-1.2,0-2.4,0-3.6,0c-3.7,0.1-6.5,3.2-6.4,6.8c0,0.1,0,0.2,0,0.2
					c0,3.8,2.7,6.6,6.5,6.5c2.3-0.1,4.6,0.8,6.9-1.3c2.3-2,5.3,0.1,5.3,3.2c0,0.6,0,1.2,0,1.8c0.2,1.9-0.5,2.7-2.5,2.6
					C125.5,70.1,123.7,70.2,121.6,70.2"/>
				<path id="Path_254147" class="st7" d="M121.6,70.2c-2-0.1-4.3,0.3-6.6-0.3c-7-1.5-11.5-8.4-10.1-15.4
					c1.2-5.9,6.4-10.2,12.5-10.3c3.3-0.1,6.6,0,9.9,0c1.6,0,2.4,0.7,2.4,2.3c0,0.9,0,1.7,0,2.6c0,3.9-1.2,4.8-5,3.9
					c-0.5-0.1-1.1-0.4-1.1-0.9c0.1-2.1-1.4-1.7-2.6-1.7c-1.2,0-2.4,0-3.6,0c-3.7,0.1-6.5,3.2-6.4,6.8c0,0.1,0,0.2,0,0.2
					c0,3.8,2.7,6.6,6.5,6.5c2.3-0.1,4.6,0.8,6.9-1.3c2.3-2,5.3,0.1,5.3,3.2c0,0.6,0,1.2,0,1.8c0.2,1.9-0.5,2.7-2.5,2.6
					C125.5,70.1,123.7,70.2,121.6,70.2z"/>
				<path id="Path_254148" class="st6" d="M150.2,83.3c-2.4,0.2-5.4-1.2-7.8-3.5s-4.8-4.8-7.2-7.1c-1.1-1.1-1.2-2,0-3
					c0.7-0.6,1.2-1.2,1.9-1.8c3-3,4-2.9,6.4,0.6c0.3,0.5,0.7,0.9,0.1,1.3c-1.8,1.2-0.5,2,0.4,2.9c0.9,0.9,1.8,1.9,2.8,2.7
					c2.7,2.4,6.8,2.4,9.4-0.1c2.5-2.6,2.7-6.6,0.4-9.4c-1.1-1.2-2.3-2.4-3.5-3.5c-0.5-0.5-0.9-1.1-1.7-0.4c-0.7,0.6-1.3,0-1.8-0.5
					c-0.9-1.1-3-1.9-2.4-3.4c1-1.9,2.6-3.5,4.5-4.5c0.8-0.5,1.5,0.2,2,0.8c2.4,2.4,4.9,4.7,7.1,7.2c3.8,4.2,4.7,9.1,2.3,14.2
					C160.7,80.5,156.8,83.2,150.2,83.3"/>
				<path id="Path_254149" class="st7" d="M150.2,83.3c-2.4,0.2-5.4-1.2-7.8-3.5s-4.8-4.8-7.2-7.1c-1.1-1.1-1.2-2,0-3
					c0.7-0.6,1.2-1.2,1.9-1.8c3-3,4-2.9,6.4,0.6c0.3,0.5,0.7,0.9,0.1,1.3c-1.8,1.2-0.5,2,0.4,2.9c0.9,0.9,1.8,1.9,2.8,2.7
					c2.7,2.4,6.8,2.4,9.4-0.1c2.5-2.6,2.7-6.6,0.4-9.4c-1.1-1.2-2.3-2.4-3.5-3.5c-0.5-0.5-0.9-1.1-1.7-0.4c-0.7,0.6-1.3,0-1.8-0.5
					c-0.9-1.1-3-1.9-2.4-3.4c1-1.9,2.6-3.5,4.5-4.5c0.8-0.5,1.5,0.2,2,0.8c2.4,2.4,4.9,4.7,7.1,7.2c3.8,4.2,4.7,9.1,2.3,14.2
					C160.7,80.5,156.8,83.2,150.2,83.3z"/>
				<path id="Path_254150" class="st6" d="M147.3,51.9c-1.7,0.1-2.5-0.5-2.8-1.6c-0.3-1,0.3-2,1.2-2.3c0,0,0,0,0,0
					c2.5-0.9,5.1-1.6,7.6-2.3c0.9-0.3,2,0.2,2.3,1.1c0,0,0,0,0,0c0.5,0.9,0.1,2-0.8,2.5c-0.1,0-0.1,0.1-0.2,0.1
					C152.1,50.4,149.5,51.2,147.3,51.9"/>
				<path id="Path_254151" class="st7" d="M147.3,51.9c-1.7,0.1-2.5-0.5-2.8-1.6c-0.3-1,0.3-2,1.2-2.3c0,0,0,0,0,0
					c2.5-0.9,5.1-1.6,7.6-2.3c0.9-0.3,2,0.2,2.3,1.1c0,0,0,0,0,0c0.5,0.9,0.1,2-0.8,2.5c-0.1,0-0.1,0.1-0.2,0.1
					C152.1,50.4,149.4,51.2,147.3,51.9z"/>
				<path id="Path_254152" class="st6" d="M147,38.7c-1.4,2.6-2.5,5.6-4.6,8.1c-0.6,0.6-1.5,0.7-2.1,0.1c-0.8-0.6-1.5-1.4-0.9-2.4
					c1.2-2.5,2.5-4.9,3.9-7.3c0.5-0.8,1.4-1.1,2.3-0.8C146.4,36.8,147,37.7,147,38.7"/>
				<path id="Path_254153" class="st7" d="M147,38.7c-1.4,2.6-2.5,5.6-4.6,8.1c-0.6,0.6-1.5,0.7-2.1,0.1c-0.8-0.6-1.5-1.4-0.9-2.4
					c1.2-2.5,2.5-4.9,3.9-7.3c0.5-0.8,1.4-1.1,2.3-0.8C146.4,36.8,147,37.7,147,38.7z"/>
				<path id="Path_254154" class="st6" d="M136.5,42.8c0.2,1.9-0.5,2.6-1.6,2.8c-1,0.3-2-0.3-2.3-1.3c0,0,0,0,0,0
					c-0.9-2.4-1.6-4.9-2.3-7.4c-0.3-1.1,0.2-2.2,1.3-2.5c0.8-0.5,1.8-0.2,2.3,0.7c0,0.1,0.1,0.1,0.1,0.2
					C135,37.9,135.8,40.6,136.5,42.8"/>
				<path id="Path_254155" class="st7" d="M136.5,42.8c0.2,1.9-0.5,2.6-1.6,2.8c-1,0.3-2-0.3-2.3-1.3c0,0,0,0,0,0
					c-0.9-2.4-1.6-4.9-2.3-7.4c-0.3-1.1,0.2-2.2,1.3-2.5c0.8-0.5,1.8-0.2,2.3,0.7c0,0.1,0.1,0.1,0.1,0.2
					C135,37.9,135.8,40.6,136.5,42.8z"/>
			</g>
		</g>
	</g>
</g>
<g>
</g>
<g>
</g>
<g>
</g>
<g>
</g>
<g>
</g>
<g>
</g>
<g>
</g>
<g>
</g>
<g>
</g>
<g>
</g>
<g>
</g>
<g>
</g>
<g>
</g>
<g>
</g>
<g>
</g>
</svg>
