<svg width="107" height="21" viewBox="0 0 107 21" fill="none" xmlns="http://www.w3.org/2000/svg">
<path d="M9.48022 7.41413V10.1094H3.75285V15.4998H0.776855V1.06909H10.6594V3.76433H3.75285V7.41413H9.48022Z" fill="black"/>
<path d="M19.0819 4.38086C20.0926 4.38086 21.1033 4.66161 22.0017 5.16697C22.844 5.67233 23.6301 6.40229 24.1354 7.24455C24.6969 8.14296 24.9777 9.15367 24.9215 10.1644C24.9215 11.1751 24.6408 12.1858 24.1354 13.0842C23.6301 13.9265 22.9001 14.6564 22.0017 15.1618C21.1033 15.6672 20.0926 15.9479 19.0819 15.9479C18.0712 15.9479 17.0604 15.6672 16.162 15.1618C15.2636 14.6564 14.5337 13.9826 14.0283 13.0842C13.4668 12.1858 13.2422 11.1751 13.2422 10.1644C13.2422 9.15367 13.5229 8.14296 14.0283 7.24455C14.5337 6.40229 15.2636 5.67233 16.162 5.16697C17.0604 4.60546 18.0712 4.38086 19.0819 4.38086ZM19.0819 7.01994C18.5765 7.01994 18.0712 7.13225 17.6219 7.413C17.1727 7.6376 16.7797 8.03066 16.5551 8.47986C16.2743 8.98522 16.162 9.60288 16.162 10.1644C16.162 10.7259 16.2743 11.3436 16.5551 11.8489C16.7797 12.2981 17.1727 12.635 17.6219 12.9158C18.0712 13.1404 18.5765 13.2527 19.0819 13.2527C19.5872 13.2527 20.0926 13.1404 20.5418 12.9158C20.991 12.6912 21.384 12.2981 21.6086 11.8489C21.8894 11.3436 22.0579 10.7259 22.0017 10.1644C22.0017 9.60288 21.8894 8.98522 21.6086 8.47986C21.3279 8.03066 20.991 7.69375 20.5418 7.413C20.0926 7.13225 19.5872 7.01994 19.0819 7.01994Z" fill="black"/>
<path d="M34.4109 7.69498C33.9617 7.41422 33.4564 7.30192 32.951 7.30192C32.3895 7.30192 31.7719 7.52652 31.3788 7.91958C30.9296 8.36879 30.5365 8.87414 30.2558 9.43565V15.4999H27.5044V4.66284H30.2558V6.74041C30.5927 6.12276 31.0419 5.56125 31.6034 5.11204C32.1088 4.66284 32.7264 4.43823 33.3441 4.43823C33.681 4.43823 34.074 4.49438 34.4109 4.60668V7.69498Z" fill="black"/>
<path d="M51.6494 4.6626L47.8873 15.5558H45.9221L43.3953 8.48085L40.8685 15.5558H38.8471L35.0288 4.6626H38.0048L40.0262 11.1199L42.3846 4.6626H44.3498L46.7082 11.1199L48.7296 4.6626H51.6494Z" fill="black"/>
<path d="M57.4328 4.38086C58.0504 4.38086 58.6681 4.54931 59.2296 4.77391C59.7911 5.05467 60.2964 5.39157 60.7457 5.89693V4.66161H63.497V15.5549H60.7457V13.7019C60.4087 14.3195 59.9595 14.8249 59.3419 15.218C58.7242 15.6672 57.9943 15.8918 57.2082 15.8356C56.3659 15.8356 55.5236 15.611 54.7937 15.1618C54.0076 14.7126 53.3899 14.0388 52.9968 13.1965C52.5476 12.242 52.323 11.1751 52.323 10.1082C52.2669 9.04137 52.5476 7.97451 52.9968 7.01994C53.3899 6.17768 54.0637 5.50387 54.8498 4.99852C55.6359 4.60546 56.5343 4.38086 57.4328 4.38086ZM57.9943 7.01994C57.4889 7.01994 56.9274 7.1884 56.5343 7.46915C56.1413 7.7499 55.8044 8.14296 55.5798 8.64832C55.3552 9.15367 55.2429 9.65903 55.2429 10.1644C55.2429 10.9505 55.4675 11.6805 55.9728 12.242C56.4782 12.8035 57.2082 13.1404 57.9381 13.0842C58.4435 13.0842 58.8927 12.9719 59.2857 12.6912C59.7349 12.4104 60.0718 12.0735 60.2964 11.6243C60.5772 11.1189 60.6895 10.5013 60.6895 9.93978V8.42371C60.3526 8.03066 59.9034 7.69375 59.4542 7.413C59.005 7.1884 58.4996 7.01994 57.9943 7.01994Z" fill="black"/>
<path d="M73.7166 7.69498C73.2674 7.41422 72.762 7.30192 72.2567 7.30192C71.6952 7.30192 71.0775 7.52652 70.6845 7.91958C70.2353 8.36879 69.8422 8.87414 69.5614 9.43565V15.4999H66.8101V4.66284H69.5614V6.74041C69.8984 6.12276 70.3476 5.56125 70.9091 5.11204C71.4144 4.71899 72.0321 4.43823 72.6497 4.43823C72.9866 4.43823 73.3797 4.49438 73.7166 4.60668V7.69498Z" fill="black"/>
<path d="M86.1821 0.00195312V15.5557H83.4307V13.7027C83.0938 14.3204 82.6446 14.8258 82.0269 15.2188C81.4093 15.668 80.6793 15.8926 79.8932 15.8365C79.0509 15.8365 78.2087 15.6119 77.4787 15.1627C76.6926 14.7135 76.075 14.0396 75.6819 13.1974C75.2327 12.2428 75.0081 11.176 75.0081 10.1091C74.9519 9.04222 75.2327 7.97536 75.6819 7.0208C76.075 6.17854 76.7488 5.50473 77.5349 4.99937C78.321 4.55016 79.2194 4.26941 80.1178 4.32556C80.7355 4.32556 81.3531 4.49401 81.9146 4.71862C82.4761 4.99937 82.9815 5.33628 83.4307 5.84163V0.00195312H86.1821ZM80.7355 7.07695C80.2301 7.07695 79.6686 7.2454 79.2756 7.52615C78.8825 7.80691 78.5456 8.19996 78.321 8.64917C78.0964 9.09838 77.9841 9.65988 77.9841 10.1652C77.9841 10.9514 78.2087 11.6813 78.714 12.2428C79.2194 12.8043 79.9494 13.1412 80.6793 13.0851C81.1847 13.0851 81.6339 12.9728 82.0269 12.692C82.4761 12.4113 82.8131 12.0744 83.0377 11.6252C83.3184 11.1198 83.4307 10.5021 83.4307 9.94064V8.42457C83.0938 8.03151 82.6446 7.69461 82.1954 7.47C81.7462 7.18925 81.2408 7.07695 80.7355 7.07695Z" fill="black"/>
<path d="M92.3027 0.00195312V15.5557H89.5513V0.00195312H92.3027Z" fill="black"/>
<path d="M97.3564 4.6626L100.445 11.6253L103.533 4.6626H106.677L98.7601 20.7217H95.6718L98.9286 14.7697L94.2119 4.6626H97.3564Z" fill="black"/>
</svg>
