<svg width="34" height="29" viewBox="0 0 34 29" fill="none" xmlns="http://www.w3.org/2000/svg">
<path d="M31.8364 0H2.16448C1.59086 0.000632035 1.04092 0.224892 0.635313 0.62358C0.229703 1.02227 0.00154853 1.56282 0.000905516 2.12665V7.09949C0.000792701 7.10535 0 7.11114 0 7.11707C0 7.12301 0.000792701 7.12879 0.000905516 7.13465V21.5703C0.00154853 22.1341 0.229703 22.6747 0.635313 23.0734C1.04092 23.4721 1.59086 23.6963 2.16448 23.697H31.8364C32.41 23.6963 32.96 23.4721 33.3656 23.0734C33.7712 22.6747 33.9994 22.1341 34 21.5703V2.12665C33.9994 1.56282 33.7712 1.02227 33.3656 0.62358C32.96 0.224892 32.41 0.000632035 31.8364 0ZM2.16448 1.82284H31.8364C31.9184 1.82294 31.9969 1.85497 32.0549 1.91193C32.1128 1.96888 32.1454 2.0461 32.1455 2.12665V6.20565H1.8554V2.12665C1.8555 2.0461 1.88809 1.96888 1.94603 1.91193C2.00398 1.85497 2.08254 1.82294 2.16448 1.82284ZM31.8364 21.8741H2.16448C2.08254 21.874 2.00398 21.842 1.94603 21.785C1.88809 21.7281 1.8555 21.6509 1.8554 21.5703V8.02849H32.1455V21.5703C32.1454 21.6509 32.1128 21.7281 32.0549 21.785C31.9969 21.842 31.9184 21.874 31.8364 21.8741ZM29.0538 17.9246C29.0538 18.1664 28.9561 18.3982 28.7822 18.5691C28.6083 18.74 28.3724 18.836 28.1265 18.8361H23.1812C22.9353 18.8361 22.6994 18.74 22.5255 18.5691C22.3516 18.3982 22.254 18.1664 22.254 17.9246C22.254 17.6829 22.3516 17.4511 22.5255 17.2802C22.6994 17.1092 22.9353 17.0132 23.1812 17.0132H28.1265C28.3724 17.0132 28.6083 17.1093 28.7822 17.2802C28.9561 17.4511 29.0538 17.6829 29.0538 17.9246ZM19.1631 17.9246C19.1631 18.1664 19.0654 18.3982 18.8915 18.5691C18.7176 18.74 18.4818 18.836 18.2359 18.8361H15.7632C15.5173 18.8361 15.2814 18.74 15.1076 18.5691C14.9337 18.3982 14.836 18.1664 14.836 17.9246C14.836 17.6829 14.9337 17.4511 15.1076 17.2802C15.2814 17.1092 15.5173 17.0132 15.7632 17.0132H18.2359C18.4818 17.0132 18.7176 17.1093 18.8915 17.2802C19.0654 17.4511 19.1631 17.6829 19.1631 17.9246Z" fill="#808080"/>
<circle cx="15.9694" cy="18.0302" r="6.19697" stroke="#CFCFCF"/>
<line x1="11.6866" y1="23.0203" x2="6.53505" y2="28.1718" stroke="#CFCFCF"/>
</svg>
