<svg width="38" height="32" viewBox="0 0 38 32" fill="none" xmlns="http://www.w3.org/2000/svg">
<path d="M35.5819 0H2.41913C1.77803 0.000706393 1.16339 0.25135 0.710056 0.696942C0.256727 1.14253 0.00173071 1.74668 0.00101205 2.37685V7.93473C0.000885959 7.94128 0 7.94774 0 7.95437C0 7.96101 0.000885959 7.96747 0.00101205 7.97402V24.108C0.00173071 24.7382 0.256727 25.3423 0.710056 25.7879C1.16339 26.2335 1.77803 26.4841 2.41913 26.4848H35.5819C36.223 26.4841 36.8376 26.2335 37.291 25.7879C37.7443 25.3423 37.9993 24.7382 38 24.108V2.37685C37.9993 1.74668 37.7443 1.14253 37.291 0.696942C36.8376 0.25135 36.223 0.000706393 35.5819 0ZM2.41913 2.0373H35.5819C35.6735 2.0374 35.7613 2.07321 35.826 2.13686C35.8908 2.20052 35.9272 2.28682 35.9273 2.37685V6.93573H2.07368V2.37685C2.07379 2.28682 2.11022 2.20052 2.17498 2.13686C2.23974 2.07321 2.32754 2.0374 2.41913 2.0373ZM35.5819 24.4476H2.41913C2.32754 24.4475 2.23974 24.4116 2.17498 24.348C2.11022 24.2843 2.07379 24.198 2.07368 24.108V8.97302H35.9273V24.108C35.9272 24.198 35.8908 24.2843 35.826 24.348C35.7613 24.4116 35.6735 24.4475 35.5819 24.4476ZM32.4719 20.0334C32.4718 20.3036 32.3627 20.5627 32.1683 20.7537C31.974 20.9447 31.7104 21.052 31.4355 21.0521H25.9084C25.6335 21.0521 25.3699 20.9447 25.1756 20.7537C24.9812 20.5627 24.8721 20.3036 24.8721 20.0334C24.8721 19.7633 24.9812 19.5042 25.1756 19.3131C25.3699 19.1221 25.6335 19.0148 25.9084 19.0148H31.4355C31.7104 19.0148 31.974 19.1221 32.1683 19.3131C32.3627 19.5042 32.4718 19.7633 32.4719 20.0334ZM21.4176 20.0334C21.4176 20.3036 21.3084 20.5627 21.1141 20.7537C20.9197 20.9447 20.6561 21.052 20.3813 21.0521H17.6177C17.3429 21.0521 17.0793 20.9447 16.8849 20.7537C16.6906 20.5627 16.5814 20.3036 16.5814 20.0334C16.5814 19.7633 16.6906 19.5042 16.8849 19.3131C17.0793 19.1221 17.3429 19.0148 17.6177 19.0148H20.3813C20.6561 19.0148 20.9197 19.1221 21.1141 19.3131C21.3084 19.5042 21.4176 19.7633 21.4176 20.0334Z" fill="#ED7D31"/>
<circle cx="17.8486" cy="20.1515" r="6.98485" stroke="black"/>
<line x1="13.0201" y1="25.687" x2="7.26248" y2="31.4446" stroke="black"/>
</svg>
