<svg width="18" height="17" viewBox="0 0 18 17" fill="none" xmlns="http://www.w3.org/2000/svg">
<path d="M0.654731 13.2481C-0.117198 14.5814 0.844917 16.2502 2.38558 16.2502H15.6145C17.1551 16.2502 18.1172 14.5814 17.3453 13.2481L10.7309 1.82315C9.96054 0.492584 8.0395 0.492581 7.26917 1.82315L0.654731 13.2481ZM9.91669 12.5835C9.91669 13.0898 9.50628 13.5002 9.00002 13.5002C8.49376 13.5002 8.08335 13.0898 8.08335 12.5835C8.08335 12.0772 8.49376 11.6668 9.00002 11.6668C9.50628 11.6668 9.91669 12.0772 9.91669 12.5835ZM9.91669 8.91683C9.91669 9.42309 9.50628 9.8335 9.00002 9.8335C8.49376 9.8335 8.08335 9.42309 8.08335 8.91683V7.0835C8.08335 6.57724 8.49376 6.16683 9.00002 6.16683C9.50628 6.16683 9.91669 6.57723 9.91669 7.0835V8.91683Z" fill="#F15A22"/>
</svg>
