<svg width="24" height="24" viewBox="0 0 24 24" fill="none" xmlns="http://www.w3.org/2000/svg">
<path d="M22 12C22 17.5228 17.5228 22 12 22C6.47715 22 2 17.5228 2 12C2 6.47715 6.47715 2 12 2C17.5228 2 22 6.47715 22 12Z" fill="#F9BC16"/>
<path d="M13.85 5L13.525 15.3713H10.4751L10.1418 5H13.85ZM12.0001 20C11.4501 20 10.9779 19.8312 10.5834 19.4937C10.189 19.1514 9.99456 18.7416 10.0001 18.2642C9.99456 17.7917 10.189 17.3867 10.5834 17.0492C10.9779 16.7117 11.4501 16.5429 12.0001 16.5429C12.5278 16.5429 12.9917 16.7117 13.3917 17.0492C13.7917 17.3867 13.9944 17.7917 14 18.2642C13.9944 18.5824 13.8972 18.8742 13.7083 19.1393C13.525 19.3997 13.2834 19.6094 12.9834 19.7686C12.6834 19.9229 12.3556 20 12.0001 20Z" fill="white"/>
<circle cx="12" cy="12" r="11.5" stroke="#F9BC16"/>
</svg>
