<svg width="30" height="30" viewBox="0 0 30 30" fill="none" xmlns="http://www.w3.org/2000/svg">
<path d="M27.5 15.0027C27.5 21.9077 21.9036 27.5053 15 27.5053C8.09644 27.5053 2.5 21.9077 2.5 15.0027C2.5 8.09781 8.09644 2.50024 15 2.50024C21.9036 2.50024 27.5 8.09781 27.5 15.0027Z" fill="#F15A22"/>
<path d="M17.3125 6.25098L16.9063 19.2177H13.0939L12.6772 6.25098H17.3125ZM15.0001 25.0047C14.3126 25.0047 13.7223 24.7937 13.2293 24.3718C12.7362 23.9438 12.4932 23.4314 12.5001 22.8346C12.4932 22.2438 12.7362 21.7374 13.2293 21.3155C13.7223 20.8935 14.3126 20.6825 15.0001 20.6825C15.6598 20.6825 16.2396 20.8935 16.7396 21.3155C17.2396 21.7374 17.4931 22.2438 17.5 22.8346C17.4931 23.2324 17.3715 23.5971 17.1354 23.9287C16.9063 24.2542 16.6042 24.5164 16.2292 24.7154C15.8542 24.9083 15.4445 25.0047 15.0001 25.0047Z" fill="white"/>
<path d="M29.5 15.003C29.5 23.0129 23.008 29.506 15 29.506C6.99197 29.506 0.5 23.0129 0.5 15.003C0.5 6.99312 6.99197 0.5 15 0.5C23.008 0.5 29.5 6.99312 29.5 15.003Z" stroke="#F15A22"/>
</svg>
