<svg width="23" height="22" viewBox="0 0 23 22" fill="none" xmlns="http://www.w3.org/2000/svg">
<path d="M0.994293 8.42119C1.03298 8.20243 1.06621 7.98267 1.11084 7.76492C1.54927 5.62791 2.87595 4.35141 4.92028 3.77823C5.567 3.59702 6.2291 3.52243 6.90112 3.52293C9.64772 3.52543 12.3948 3.52393 15.1414 3.52393C15.359 3.52393 15.4678 3.41063 15.4678 3.18403C15.4678 2.5598 15.4697 1.93557 15.4673 1.31133C15.4653 0.843283 15.5164 0.392754 16.0034 0.172495C16.5093 -0.0562738 16.9665 0.0758815 17.3802 0.42329C18.6796 1.51457 19.981 2.60385 21.2818 3.69413C21.4153 3.80576 21.5521 3.91339 21.6796 4.03153C22.2028 4.5156 22.1959 5.14284 21.6543 5.60238C21.023 6.13801 20.3837 6.66362 19.7479 7.19375C18.9399 7.86654 18.131 8.53783 17.3251 9.21262C17.0732 9.42337 16.7885 9.5345 16.4612 9.52749C15.8943 9.51497 15.5119 9.18108 15.4881 8.61041C15.4573 7.87955 15.4722 7.14619 15.4688 6.41383C15.4673 6.06142 15.4688 6.06142 15.1285 6.06142C12.3239 6.06142 9.51927 6.06142 6.71464 6.06142C5.94194 6.06142 5.22479 6.24713 4.61526 6.74472C3.91597 7.31539 3.60847 8.08429 3.56929 8.97384C3.55739 9.24816 3.56929 9.52298 3.56681 9.79781C3.56136 10.5522 3.14525 11.0773 2.47274 11.1814C1.79625 11.2861 1.26062 10.9166 1.03 10.1863C1.02256 10.1627 1.00719 10.1422 0.995285 10.1202C0.995285 9.55402 0.995285 8.98836 0.995285 8.42219L0.994293 8.42119Z" fill="#41D8CC"/>
<path d="M11.992 15.3616C13.3772 15.3616 14.7629 15.3726 16.1481 15.3581C17.2204 15.3471 18.1334 14.9787 18.7589 14.0501C19.0678 13.591 19.2107 13.0724 19.2399 12.5238C19.2578 12.1919 19.2414 11.858 19.2508 11.5256C19.2732 10.7537 19.8207 10.2041 20.5507 10.2126C21.2773 10.2211 21.811 10.7907 21.8134 11.5606C21.8159 12.3341 21.8437 13.109 21.6577 13.8694C21.1756 15.8407 19.908 17.0361 18.0169 17.6078C17.326 17.8165 16.6143 17.9021 15.8932 17.9021C13.1387 17.9021 10.3846 17.9046 7.63011 17.8971C7.40891 17.8966 7.33601 17.9472 7.34146 18.1809C7.35733 18.8547 7.34692 19.5285 7.34692 20.2028C7.34692 20.6493 7.26409 21.0628 6.8088 21.2635C6.34509 21.4673 5.90071 21.3957 5.51188 21.0713C4.06915 19.8684 2.6279 18.6635 1.19261 17.4511C0.591508 16.9435 0.598451 16.3007 1.19856 15.7996C2.61501 14.6167 4.03493 13.4379 5.45187 12.2555C5.64728 12.0923 5.86203 11.9801 6.11248 11.9356C6.78996 11.8154 7.30575 12.1989 7.33303 12.8897C7.36179 13.6126 7.35436 14.3374 7.34196 15.0608C7.33799 15.2955 7.39205 15.3701 7.63755 15.3681C9.08871 15.3556 10.5404 15.3621 11.9915 15.3621L11.992 15.3616Z" fill="#41D8CC"/>
</svg>
