<svg width="24" height="21" viewBox="0 0 24 21" fill="none" xmlns="http://www.w3.org/2000/svg">
<path d="M1.81767 8.41972H4.09145V15.1075H2.5756C2.37458 15.1075 2.1818 15.1956 2.03966 15.3523C1.89752 15.5091 1.81767 15.7217 1.81767 15.9435C1.81767 16.1652 1.89752 16.3778 2.03966 16.5346C2.1818 16.6913 2.37458 16.7794 2.5756 16.7794H20.7658C20.9668 16.7794 21.1596 16.6913 21.3018 16.5346C21.4439 16.3778 21.5238 16.1652 21.5238 15.9435C21.5238 15.7217 21.4439 15.5091 21.3018 15.3523C21.1596 15.1956 20.9668 15.1075 20.7658 15.1075H19.25V8.41972H21.5238C21.6887 8.41954 21.849 8.36004 21.9805 8.25024C22.112 8.14045 22.2074 7.98635 22.2523 7.81133C22.2972 7.63631 22.2891 7.44992 22.2293 7.28042C22.1694 7.11093 22.0611 6.96758 21.9207 6.87214L12.0677 0.184377C11.9483 0.103412 11.8109 0.0605469 11.6707 0.0605469C11.5306 0.0605469 11.3931 0.103412 11.2737 0.184377L1.42071 6.87214C1.28033 6.96758 1.172 7.11093 1.11217 7.28042C1.05233 7.44992 1.04424 7.63631 1.08914 7.81133C1.13403 7.98635 1.22945 8.14045 1.36093 8.25024C1.49241 8.36004 1.65276 8.41954 1.81767 8.41972ZM5.6073 8.41972H8.63901V15.1075H5.6073V8.41972ZM13.1866 8.41972V15.1075H10.1549V8.41972H13.1866ZM17.7341 15.1075H14.7024V8.41972H17.7341V15.1075ZM11.6707 1.87722L18.8464 6.74779H4.49505L11.6707 1.87722ZM23.0396 19.2873C23.0396 19.509 22.9598 19.7217 22.8176 19.8785C22.6755 20.0352 22.4827 20.1233 22.2817 20.1233H1.05975C0.858731 20.1233 0.665949 20.0352 0.52381 19.8785C0.381672 19.7217 0.301819 19.509 0.301819 19.2873C0.301819 19.0656 0.381672 18.853 0.52381 18.6962C0.665949 18.5394 0.858731 18.4514 1.05975 18.4514H22.2817C22.4827 18.4514 22.6755 18.5394 22.8176 18.6962C22.9598 18.853 23.0396 19.0656 23.0396 19.2873Z" fill="#0077C5"/>
</svg>
