<svg width="35" height="35" viewBox="0 0 35 35" fill="none" xmlns="http://www.w3.org/2000/svg">
<g clip-path="url(#clip0_804_5966)">
<path d="M34.2218 34.3826C32.4154 33.007 30.7498 31.7391 29.0668 30.4585C27.7935 31.3956 26.5455 32.3137 25.2437 33.273C24.0036 32.3454 22.7619 31.4178 21.4854 30.4617C20.22 31.4035 18.9609 32.3422 17.6923 33.2856C16.4364 32.3406 15.1963 31.4083 13.9356 30.4601C12.2368 31.7264 10.5602 32.977 8.76961 34.3114V21.6162H0.223343C0.223343 21.2901 0.223343 21.0606 0.223343 20.8295C0.223343 16.0284 0.217016 11.2274 0.224925 6.42629C0.231252 3.64981 1.9269 1.44003 4.62065 0.810015C5.66777 0.564659 6.76235 0.411114 7.83637 0.406365C14.6095 0.369957 21.3842 0.385787 28.1589 0.388952C31.8048 0.388952 34.217 2.78236 34.2202 6.40888C34.2249 15.457 34.2218 24.5051 34.2218 33.5516C34.2218 33.7605 34.2218 33.9711 34.2218 34.3826ZM13.9325 26.9491C15.1947 27.8926 16.4491 28.8297 17.6987 29.7636C18.8344 28.9167 19.9258 28.1379 20.9745 27.3037C21.3573 26.9998 21.6056 27.0045 21.9805 27.3005C23.0514 28.1458 24.1538 28.9515 25.25 29.7778C26.5629 28.8138 27.8283 27.8831 29.1016 26.9475C29.8514 27.5127 30.5537 28.0429 31.3825 28.6682V27.6678C31.3825 20.5746 31.3825 13.483 31.3825 6.38988C31.3825 4.30832 30.3148 3.22717 28.2332 3.224C23.9909 3.21767 19.7502 3.22242 15.5079 3.22242C13.9815 3.22242 12.4551 3.22242 10.8212 3.22242C11.7718 5.00006 11.5662 6.8616 11.5693 8.69306C11.5757 15.0217 11.5693 21.3487 11.5693 27.6773C11.5693 27.9685 11.5693 28.2598 11.5693 28.6983C12.4646 28.0366 13.1811 27.5079 13.9341 26.9507L13.9325 26.9491ZM8.75537 18.7558V17.9644C8.75537 14.14 8.75696 10.3172 8.75537 6.49277C8.75537 4.69297 7.53267 3.39654 5.86707 3.41395C4.23153 3.43137 3.06419 4.70563 3.06261 6.48169C3.06103 10.3061 3.06261 14.1289 3.06261 17.9533C3.06261 18.2097 3.08317 18.4661 3.09583 18.7558H8.75379H8.75537Z" fill="#FFAAAA"/>
<path d="M24.2486 20.252V22.9667H14.4971V20.252H24.2486Z" fill="#FFAAAA"/>
<path d="M14.4656 17.2841V14.5947H24.2124V17.2841H14.4656Z" fill="#FFAAAA"/>
<path d="M24.2296 11.6253H14.4907V8.9707H24.2296V11.6253Z" fill="#FFAAAA"/>
<path d="M25.783 20.2373H28.4894V22.9679H25.783V20.2373Z" fill="#FFAAAA"/>
<path d="M28.4688 17.3032H25.7703V14.6201H28.4688V17.3032Z" fill="#FFAAAA"/>
<path d="M25.7544 11.6015V8.97852H28.4908V11.6015H25.7544Z" fill="#FFAAAA"/>
</g>
<defs>
<clipPath id="clip0_804_5966">
<rect width="34" height="34" fill="white" transform="translate(0.22168 0.382812)"/>
</clipPath>
</defs>
</svg>
