<svg width="38" height="34" viewBox="0 0 38 34" fill="none" xmlns="http://www.w3.org/2000/svg">
<g clip-path="url(#clip0_799_5933)">
<path d="M12.2561 13.7456C11.6926 14.102 11.5829 14.4522 11.5525 14.6837C11.4672 15.3203 11.8723 16.2157 12.6094 17.0198C13.8642 18.3904 15.2318 19.7306 16.5506 21.025C17.1902 21.6524 17.8329 22.2829 18.4664 22.9164C19.2979 23.751 20.0685 24.1743 20.7538 24.1743H20.7599C21.4787 24.1743 22.2919 23.7083 23.1813 22.8007C27.5215 18.3691 31.8343 14.0898 35.8486 10.1272C38.2061 7.79721 37.7614 6.96571 36.8781 6.04284C36.0223 5.15043 35.4618 5.15652 35.273 5.15957C34.5633 5.1687 33.6435 5.76568 32.6171 6.88652C30.3206 9.3871 28.0301 11.842 25.3803 14.6807C24.1894 15.9568 22.9346 17.3 21.5883 18.7468L20.3152 20.1143L19.2339 18.5914C18.6735 17.8026 18.2197 17.0503 17.8177 16.3863C17.1689 15.3111 16.6085 14.3822 16.0481 14.0898C15.311 13.6999 14.3028 13.5111 13.4835 13.5111C12.9535 13.5111 12.5028 13.5903 12.2561 13.7456Z" fill="#1E1E2C"/>
<path d="M25.362 24.9324C24.1223 26.1995 22.837 26.9426 21.5365 27.1558C19.9435 28.6544 18.0003 29.7996 15.7891 30.6707C15.3109 30.8595 14.6012 30.7194 14.0865 30.5123C7.68427 27.9356 4.47707 23.0136 3.98061 16.2824C3.77959 13.5686 3.94711 10.8244 3.94711 7.95832C8.03454 7.62328 11.8113 6.36842 15.0886 3.63941C18.3445 6.26182 22.0664 7.67506 26.4006 7.93091C26.4097 8.32077 26.4188 8.71063 26.428 9.09744C27.43 8.01923 28.3986 6.97453 29.358 5.93592C29.1265 5.14707 28.5478 4.86685 27.3813 4.84858C23.2299 4.77853 19.5141 3.56326 16.4561 0.660638C15.5424 -0.207409 14.7139 -0.225683 13.8154 0.639317C10.724 3.61199 6.95024 4.81203 2.74707 4.83335C1.3917 4.84249 0.831278 5.45469 0.849553 6.78874C0.892194 9.82843 0.81605 12.8712 0.910469 15.9108C1.1785 24.5304 5.99996 31.0027 14.1961 33.8017C14.6896 33.9692 15.3261 34.085 15.7891 33.9205C21.7223 31.825 26.3336 28.2645 28.1336 22.1181C27.2107 23.0501 26.2879 23.9882 25.3589 24.9324H25.362Z" fill="#1E1E2C"/>
</g>
<defs>
<clipPath id="clip0_799_5933">
<rect width="36.7442" height="34" fill="white" transform="translate(0.849609)"/>
</clipPath>
</defs>
</svg>
