<svg width="12" height="12" viewBox="0 0 12 12" fill="none" xmlns="http://www.w3.org/2000/svg">
<path d="M10.1374 4.69761C9.97751 4.44545 9.83801 4.21178 9.65917 4.0021C9.51821 3.83627 9.36449 3.68346 9.16853 3.57314C8.83234 3.38435 8.49469 3.39772 8.18253 3.61871C7.6959 3.96372 7.61577 4.44408 7.68935 4.96931C7.74653 5.37874 7.89004 5.76796 8.03137 6.15649C8.18654 6.58339 8.27213 7.01578 8.19491 7.46838C8.18107 7.54992 8.15375 7.62016 8.10677 7.68868C7.19106 9.0338 6.27645 10.38 5.36111 11.7258C5.15167 12.0338 4.96117 12.0739 4.6359 11.8782C3.1793 11.0028 1.72306 10.1274 0.266822 9.25103C-0.0307638 9.07218 -0.0755656 8.88202 0.113112 8.6045C2.0079 5.81695 3.90269 3.02872 5.79784 0.240823C5.97959 -0.0264203 6.18758 -0.0692478 6.47314 0.102405C7.93485 0.98088 9.39618 1.8597 10.8572 2.73886C11.174 2.9297 11.2163 3.11334 11.0145 3.40971C10.7271 3.83216 10.4397 4.25427 10.1374 4.69761ZM7.25335 6.00608C7.25845 5.1372 6.5092 4.42078 5.58548 4.41084C4.66687 4.40091 3.89176 5.11321 3.88375 5.97524C3.87537 6.86365 4.63299 7.58761 5.57055 7.58692C6.49427 7.58624 7.24825 6.8777 7.25335 6.00608Z" fill="white"/>
<path d="M3.11938 1.66895C3.43955 1.67991 3.73459 1.77824 4.02561 1.89542C4.11813 1.93276 4.1032 1.97182 4.05912 2.03555C3.83512 2.36035 3.61256 2.68584 3.39438 3.01407C3.34849 3.08294 3.3117 3.09219 3.23703 3.05107C3.01156 2.92704 2.79047 2.79856 2.60762 2.62074C2.44917 2.46622 2.33735 2.29902 2.43023 2.06981C2.52676 1.83237 2.71107 1.70732 2.97368 1.67614C3.0214 1.67032 3.07021 1.67134 3.11938 1.66895Z" fill="white"/>
<path d="M3.01493 3.57112C2.7636 3.9408 2.52466 4.28925 2.28972 4.64009C2.25148 4.69697 2.20959 4.69936 2.15313 4.67949C1.93095 4.60206 1.71604 4.51161 1.54084 4.35606C1.34379 4.18132 1.25965 3.96993 1.3518 3.72256C1.43849 3.48958 1.65267 3.42859 1.8876 3.4118C2.26823 3.38439 2.63211 3.46182 3.01529 3.57078L3.01493 3.57112Z" fill="white"/>
<path d="M1.92708 5.16895C1.70416 5.49786 1.49436 5.80793 1.2831 6.11732C1.22846 6.19749 1.19276 6.12828 1.15962 6.0971C0.939251 5.88742 0.988059 5.52801 1.2667 5.33854C1.45393 5.21109 1.66919 5.16963 1.92708 5.16929V5.16895Z" fill="white"/>
<path d="M4.50871 5.84831C4.51162 5.82878 4.51162 5.77568 4.52838 5.72805C4.56298 5.63006 4.53348 5.56188 4.4395 5.51357C4.34116 5.46286 4.31785 5.39537 4.3805 5.30183C4.43805 5.21584 4.50507 5.17849 4.60487 5.2429C4.69338 5.30012 4.76149 5.27408 4.82487 5.20179C4.86712 5.15348 4.91666 5.11065 4.96583 5.06851C5.07183 4.97806 5.14905 5.03219 5.22627 5.11237C5.30203 5.19117 5.33554 5.26209 5.22918 5.34226C5.11954 5.42518 5.02775 5.52419 4.9651 5.64377C4.9203 5.72976 4.89626 5.82022 4.98004 5.89696C5.06017 5.97063 5.15087 5.94185 5.23064 5.89422C5.35339 5.82124 5.47104 5.74073 5.59197 5.66467C5.83091 5.51391 6.0775 5.45293 6.33611 5.62115C6.58234 5.7815 6.64244 6.01071 6.57651 6.27042C6.54737 6.3852 6.5725 6.4568 6.67996 6.51059C6.77903 6.56027 6.79833 6.63051 6.7386 6.72336C6.68032 6.8145 6.60711 6.84156 6.51313 6.77818C6.41151 6.70966 6.33611 6.73501 6.26399 6.81929C6.22247 6.86795 6.17366 6.9118 6.12412 6.9536C5.96677 7.08585 5.92088 7.079 5.78283 6.93407C5.69796 6.84499 5.70306 6.77818 5.80432 6.70794C5.93727 6.61509 6.04873 6.50271 6.12267 6.36155C6.17293 6.26528 6.20207 6.16352 6.10846 6.0765C6.01267 5.98741 5.90776 6.0227 5.80796 6.07684C5.63968 6.16797 5.50345 6.30331 5.32461 6.37971C4.9112 6.55616 4.50252 6.30674 4.50907 5.84831H4.50871Z" fill="white"/>
<path fill-rule="evenodd" clip-rule="evenodd" d="M10.2951 9.47724C9.77599 10.5267 8.79249 11.5277 7.04607 11.8409C6.7392 11.8959 6.49126 11.9492 6.29541 12.0006C6.16877 11.8751 6.07707 11.7211 6.04192 11.5562C6.02941 11.4981 6.06021 11.4595 6.09061 11.4214C6.09914 11.4107 6.10764 11.4 6.11514 11.389C6.31482 11.0944 6.51332 10.799 6.71182 10.5036C7.24907 9.70418 7.78638 8.90463 8.34758 8.12006C8.65536 7.68973 8.69288 7.24466 8.64516 6.76877C8.61731 6.49041 8.52196 6.2278 8.4266 5.96518C8.3885 5.86026 8.35041 5.75535 8.31661 5.64943C8.31486 5.64394 8.31311 5.63844 8.31136 5.63295C8.19798 5.27734 8.08469 4.92202 8.11483 4.54311C8.13304 4.31664 8.22009 4.12237 8.41023 3.97608C8.60364 3.82738 8.78066 3.82018 8.99228 3.95792C9.20646 4.09702 9.35725 4.29129 9.49457 4.49377C9.85882 5.02997 10.1167 5.61414 10.3731 6.20036C10.5738 6.65878 10.7086 7.12578 10.7177 7.62497C10.7317 8.36956 10.7195 8.39777 10.3602 9.2318C10.3352 9.28966 10.3086 9.3514 10.2802 9.41753C10.2854 9.4374 10.2903 9.4573 10.2951 9.47724Z" fill="white"/>
</svg>
