<svg width="15" height="10" viewBox="0 0 15 10" fill="none" xmlns="http://www.w3.org/2000/svg">
<path d="M7.40625 4.75101C7.67708 4.40751 7.8776 4.05327 8.00781 3.68832C8.13802 3.32337 8.20313 2.89936 8.20313 2.41631C8.20313 1.93328 8.13802 1.50929 8.00781 1.14432C7.8776 0.779372 7.67708 0.425138 7.40625 0.0816381C8.19792 -0.100846 8.89323 0.0225991 9.49219 0.451958C10.0911 0.881332 10.3906 1.53611 10.3906 2.41631C10.3906 3.29652 10.0911 3.9513 9.49219 4.38067C8.89323 4.81005 8.19792 4.93348 7.40625 4.75101ZM10.7813 10V8.4865C10.7813 7.93905 10.6458 7.42917 10.375 6.95689C10.1042 6.48458 9.63542 6.0874 8.96875 5.76539C10.7708 6.00154 12.0026 6.34503 12.6641 6.79586C13.3255 7.2467 13.6563 7.81024 13.6563 8.4865V10H10.7813ZM12.5 5.34675V3.73663H10.9375V2.77055H12.5V1.16043H13.4375V2.77055H15V3.73663H13.4375V5.34675H12.5ZM4.92188 4.83152C4.23438 4.83152 3.67188 4.60609 3.23438 4.15525C2.79688 3.70441 2.57813 3.12478 2.57813 2.41631C2.57813 1.70786 2.79688 1.12822 3.23438 0.677379C3.67188 0.226536 4.23438 0.00114663 4.92188 0.00114663C5.60938 0.00114663 6.17188 0.226536 6.60938 0.677379C7.04688 1.12822 7.26563 1.70786 7.26563 2.41631C7.26563 3.12478 7.04688 3.70441 6.60938 4.15525C6.17188 4.60609 5.60938 4.83152 4.92188 4.83152ZM0 10V8.4865C0 8.1108 0.0963542 7.76998 0.289062 7.46407C0.481771 7.15814 0.739583 6.93004 1.0625 6.77977C1.8125 6.43627 2.48177 6.18938 3.07031 6.0391C3.65885 5.88882 4.27604 5.81368 4.92188 5.81368C5.56771 5.81368 6.18229 5.88882 6.76563 6.0391C7.34896 6.18938 8.01562 6.43627 8.76562 6.77977C9.08854 6.93004 9.34896 7.15814 9.54688 7.46407C9.74479 7.76998 9.84375 8.1108 9.84375 8.4865V10H0ZM4.92188 3.86544C5.32813 3.86544 5.66406 3.72857 5.92969 3.45485C6.19531 3.18112 6.32813 2.83495 6.32813 2.41631C6.32813 1.99769 6.19531 1.65151 5.92969 1.37778C5.66406 1.10405 5.32813 0.967207 4.92188 0.967207C4.51562 0.967207 4.17969 1.10405 3.91406 1.37778C3.64844 1.65151 3.51563 1.99769 3.51563 2.41631C3.51563 2.83495 3.64844 3.18112 3.91406 3.45485C4.17969 3.72857 4.51562 3.86544 4.92188 3.86544ZM0.9375 9.03392H8.90625V8.4865C8.90625 8.31474 8.86458 8.15374 8.78125 8.00346C8.69792 7.85319 8.56771 7.73511 8.39062 7.64924C7.67188 7.30574 7.0625 7.07493 6.5625 6.95689C6.0625 6.83878 5.51562 6.77977 4.92188 6.77977C4.32812 6.77977 3.78385 6.83878 3.28906 6.95689C2.79427 7.07493 2.17708 7.30574 1.4375 7.64924C1.28125 7.72436 1.15885 7.83976 1.07031 7.99541C0.981771 8.15105 0.9375 8.31474 0.9375 8.4865V9.03392Z" fill="white"/>
</svg>
