<svg width="18" height="9" viewBox="0 0 18 9" fill="none" xmlns="http://www.w3.org/2000/svg">
<path d="M0 9V8.00625C0 7.51875 0.2625 7.125 0.7875 6.825C1.3125 6.525 1.9875 6.375 2.8125 6.375C2.975 6.375 3.125 6.37813 3.2625 6.38437C3.4 6.39062 3.5375 6.40625 3.675 6.43125C3.575 6.64375 3.5 6.85937 3.45 7.07812C3.4 7.29688 3.375 7.53125 3.375 7.78125V9H0ZM4.5 9V7.78125C4.5 6.96875 4.91563 6.3125 5.74687 5.8125C6.57812 5.3125 7.6625 5.0625 9 5.0625C10.35 5.0625 11.4375 5.3125 12.2625 5.8125C13.0875 6.3125 13.5 6.96875 13.5 7.78125V9H4.5ZM14.625 9V7.78125C14.625 7.53125 14.6031 7.29688 14.5594 7.07812C14.5156 6.85937 14.4437 6.64375 14.3438 6.43125C14.4812 6.40625 14.6187 6.39062 14.7562 6.38437C14.8937 6.37813 15.0375 6.375 15.1875 6.375C16.0375 6.375 16.7188 6.525 17.2312 6.825C17.7437 7.125 18 7.51875 18 8.00625V9H14.625ZM2.8125 5.8125C2.45 5.8125 2.14062 5.68437 1.88437 5.42813C1.62813 5.17187 1.5 4.8625 1.5 4.5C1.5 4.1375 1.62813 3.82812 1.88437 3.57187C2.14062 3.31562 2.45 3.1875 2.8125 3.1875C3.175 3.1875 3.48438 3.31562 3.74062 3.57187C3.99688 3.82812 4.125 4.1375 4.125 4.5C4.125 4.8625 3.99688 5.17187 3.74062 5.42813C3.48438 5.68437 3.175 5.8125 2.8125 5.8125ZM15.1875 5.8125C14.825 5.8125 14.5156 5.68437 14.2594 5.42813C14.0031 5.17187 13.875 4.8625 13.875 4.5C13.875 4.1375 14.0031 3.82812 14.2594 3.57187C14.5156 3.31562 14.825 3.1875 15.1875 3.1875C15.55 3.1875 15.8594 3.31562 16.1156 3.57187C16.3719 3.82812 16.5 4.1375 16.5 4.5C16.5 4.8625 16.3719 5.17187 16.1156 5.42813C15.8594 5.68437 15.55 5.8125 15.1875 5.8125ZM9 4.5C8.375 4.5 7.84375 4.28125 7.40625 3.84375C6.96875 3.40625 6.75 2.875 6.75 2.25C6.75 1.6125 6.96875 1.07812 7.40625 0.646875C7.84375 0.215624 8.375 0 9 0C9.6375 0 10.1719 0.215624 10.6031 0.646875C11.0344 1.07812 11.25 1.6125 11.25 2.25C11.25 2.875 11.0344 3.40625 10.6031 3.84375C10.1719 4.28125 9.6375 4.5 9 4.5Z" fill="white"/>
</svg>
