<svg width="13" height="15" viewBox="0 0 13 15" fill="none" xmlns="http://www.w3.org/2000/svg">
<path d="M6.54872 0L0.390625 2.15623V6.53338C0.390625 10.163 3.01551 13.5483 6.54872 14.3749C10.0819 13.5483 12.7068 10.163 12.7068 6.53338V2.15623L6.54872 0ZM11.1673 6.53338C11.1673 9.40836 9.2044 12.0677 6.54872 12.8799C3.89304 12.0677 1.93015 9.41555 1.93015 6.53338V3.15529L6.54872 1.53811L11.1673 3.15529V6.53338ZM4.93992 4.67184L3.85455 5.68526L5.46335 7.18744L3.85455 8.68961L4.93992 9.70304L6.54872 8.20806L8.15752 9.70304L9.24288 8.68961L7.64178 7.18744L9.24288 5.68526L8.15752 4.67184L6.54872 6.17401L4.93992 4.67184Z" fill="#FE9A9A"/>
</svg>
