<svg width="14" height="15" viewBox="0 0 14 15" fill="none" xmlns="http://www.w3.org/2000/svg">
<path d="M5.38695 15L0 11.3949L1.06873 9.95898L5.37174 13.318L12.9008 9L14 9.23593L5.38695 15Z" fill="white"/>
<path d="M5.63359 11V0H6.46819V11H5.63359ZM8.04071 3.51914C7.99321 3.14388 7.79304 2.85169 7.4402 2.64258C7.09075 2.43346 6.63613 2.32891 6.07634 2.32891C5.68278 2.32891 5.34521 2.37904 5.06361 2.4793C4.78202 2.57956 4.56658 2.71562 4.4173 2.8875C4.26802 3.05938 4.19169 3.2556 4.1883 3.47617C4.1883 3.65951 4.23749 3.81849 4.33588 3.95312C4.43766 4.08776 4.57506 4.20234 4.74809 4.29687C4.92112 4.38854 5.11281 4.46589 5.32315 4.52891C5.5335 4.59193 5.74555 4.64492 5.95929 4.68789L6.93639 4.89414C7.32994 4.97148 7.70823 5.07604 8.07125 5.20781C8.43766 5.33958 8.76505 5.50573 9.05343 5.70625C9.34521 5.90677 9.57591 6.14883 9.74555 6.43242C9.91518 6.71601 10 7.04831 10 7.4293C10 7.94492 9.84394 8.39896 9.53181 8.79141C9.21968 9.18099 8.76845 9.48607 8.17812 9.70664C7.59118 9.92435 6.88041 10.0332 6.0458 10.0332C5.23494 10.0332 4.53096 9.92721 3.93384 9.71523C3.34012 9.50326 2.87532 9.19388 2.53944 8.78711C2.20695 8.38034 2.02714 7.88477 2 7.30039H3.85751C3.88465 7.6069 3.99661 7.86185 4.19338 8.06523C4.39016 8.26862 4.64631 8.42044 4.96183 8.5207C5.28075 8.62096 5.63698 8.67109 6.03053 8.67109C6.44105 8.67109 6.80068 8.61953 7.10941 8.51641C7.42154 8.41042 7.66582 8.26432 7.84224 8.07812C8.01866 7.88906 8.10857 7.66849 8.11196 7.41641C8.10857 7.18724 8.02884 6.99818 7.87277 6.84922C7.71671 6.6974 7.49788 6.57135 7.21628 6.47109C6.93808 6.36797 6.61238 6.2763 6.23919 6.19609L5.05344 5.93828C4.19508 5.75208 3.51654 5.46992 3.01781 5.0918C2.52248 4.71081 2.27481 4.20521 2.27481 3.575C2.27481 3.05651 2.44105 2.60247 2.77354 2.21289C3.10941 1.82331 3.56573 1.52109 4.14249 1.30625C4.71925 1.08854 5.37235 0.979688 6.10178 0.979688C6.84139 0.979688 7.4894 1.08854 8.0458 1.30625C8.6056 1.52109 9.04495 1.82044 9.36387 2.2043C9.68278 2.58529 9.84733 3.02357 9.85751 3.51914H8.04071Z" fill="white"/>
</svg>
