<svg width="8" height="10" viewBox="0 0 8 10" fill="none" xmlns="http://www.w3.org/2000/svg">
<path d="M1.95 9.25H6.05V7.6625C6.05 7.07917 5.85208 6.57708 5.45625 6.15625C5.06042 5.73542 4.575 5.525 4 5.525C3.425 5.525 2.93958 5.73542 2.54375 6.15625C2.14792 6.57708 1.95 7.07917 1.95 7.6625V9.25ZM0 10V9.25H1.2V7.6625C1.2 7.07917 1.35208 6.54375 1.65625 6.05625C1.96042 5.56875 2.38333 5.21667 2.925 5C2.38333 4.78333 1.96042 4.42917 1.65625 3.9375C1.35208 3.44583 1.2 2.90833 1.2 2.325V0.75H0V0H8V0.75H6.8V2.325C6.8 2.90833 6.64792 3.44583 6.34375 3.9375C6.03958 4.42917 5.61667 4.78333 5.075 5C5.61667 5.21667 6.03958 5.56875 6.34375 6.05625C6.64792 6.54375 6.8 7.07917 6.8 7.6625V9.25H8V10H0Z" fill="white"/>
</svg>
