<?xml version="1.0" encoding="utf-8"?>
<!-- Generator: Adobe Illustrator 27.2.0, SVG Export Plug-In . SVG Version: 6.00 Build 0)  -->
<svg version="1.1" id="Layer_1" xmlns="http://www.w3.org/2000/svg" xmlns:xlink="http://www.w3.org/1999/xlink" x="0px" y="0px"
	 viewBox="0 0 24 24" style="enable-background:new 0 0 24 24;" xml:space="preserve">
<style type="text/css">
	.st0{fill:#F59799;}
</style>
<g id="Group_37612" transform="translate(51.411)">
	<path id="Path_253887" class="st0" d="M-29.9,11.9c0,4.4-2.9,8.2-7.2,9.3c-0.9,0.2-1.9,0.3-2.8,0.2c-2.1-0.1-4-1-5.6-2.3
		c-0.3-0.2-0.4-0.5-0.3-0.8c0.1-0.4,0.5-0.7,1-0.6c0.1,0,0.2,0.1,0.3,0.2c0.7,0.6,1.5,1.1,2.4,1.5c4,1.5,8.5-0.5,10-4.6
		c0.1-0.3,0.2-0.7,0.3-1C-31,11-32,8-34.2,6.1c-1.1-1-2.5-1.7-4-1.9c-2.3-0.4-4.6,0.3-6.3,1.8c-0.3,0.3-0.7,0.3-1,0.1
		C-45.9,6-46,5.5-45.7,5.1c0-0.1,0.1-0.1,0.1-0.2c0.4-0.4,0.9-0.7,1.4-1c1-0.6,2.2-1,3.4-1.2c5.1-0.8,9.9,2.8,10.7,7.9
		C-30,11-29.9,11.5-29.9,11.9L-29.9,11.9z"/>
	<path id="Path_253888" class="st0" d="M-35.3,11.2c0,0,0,0.1,0,0.1c0,0.8,0,1.5,0,2.3c0,0.4-0.3,0.7-0.7,0.8
		c-0.4,0.1-0.7-0.1-0.9-0.5c0-0.1-0.1-0.2-0.1-0.4c0-0.3,0-0.5,0-0.8h-1.7v0.1c0,0.4,0,0.7,0,1.1c0,0.2-0.2,0.4-0.4,0.4
		c-0.2,0-0.4-0.1-0.5-0.3c0-0.1,0-0.1,0-0.2c0-0.3,0-0.7,0-1c0,0,0-0.1,0-0.1h-0.1c-0.8,0-1.7,0-2.5,0c-0.1,0-0.1,0-0.1,0.1
		c0,0,0,0,0,0c-0.3,1.3-1.4,2.2-2.7,2.4c-1.8,0.3-3.5-1-3.8-2.8c-0.3-1.8,1-3.5,2.8-3.8c1.7-0.3,3.3,0.8,3.7,2.4
		c0,0.1,0.1,0.1,0.2,0.1c0,0,0,0,0,0c2.2,0,4.5,0,6.7,0L-35.3,11.2z M-45.6,13.8c1,0,1.8-0.8,1.8-1.8c0-1-0.8-1.8-1.8-1.8
		s-1.8,0.8-1.8,1.8C-47.3,13-46.5,13.8-45.6,13.8z"/>
</g>
<g>
</g>
<g>
</g>
<g>
</g>
<g>
</g>
<g>
</g>
<g>
</g>
</svg>
