<?xml version="1.0" encoding="utf-8"?>
<!-- Generator: Adobe Illustrator 27.2.0, SVG Export Plug-In . SVG Version: 6.00 Build 0)  -->
<svg version="1.1" id="Layer_1" xmlns="http://www.w3.org/2000/svg" xmlns:xlink="http://www.w3.org/1999/xlink" x="0px" y="0px"
	 viewBox="0 0 16 29" style="enable-background:new 0 0 16 29;" xml:space="preserve">
<style type="text/css">
	.st0{fill:#838BA7;}
</style>
<path id="attach_file_FILL0_wght400_GRAD0_opsz48" class="st0" d="M8,29c-2.1,0-4.1-0.8-5.6-2.3C0.8,25.3,0,23.3,0,21.2V5.6
	c0-1.5,0.6-2.9,1.6-4c1-1.1,2.5-1.7,4-1.6c3.1,0,5.6,2.4,5.6,5.5c0,0,0,0.1,0,0.1v14.3c0,0.9-0.3,1.7-0.9,2.3c-0.6,0.6-1.4,1-2.3,1
	c-0.9,0-1.7-0.4-2.3-1c-0.6-0.7-1-1.5-0.9-2.4V5.5h1.5v14.3c0,0.5,0.2,1,0.5,1.4C7,21.6,7.5,21.8,8,21.8c0.5,0,1-0.2,1.3-0.5
	c0.3-0.3,0.5-0.8,0.5-1.3V5.6c0-1.1-0.4-2.2-1.2-2.9c-1.6-1.6-4.3-1.6-5.9,0C1.9,3.4,1.4,4.5,1.5,5.6v15.7c0,1.7,0.7,3.3,1.9,4.5
	c1.2,1.2,2.9,1.9,4.6,1.8c1.7,0,3.4-0.6,4.6-1.9c1.2-1.2,1.9-2.8,1.9-4.5V5.5H16v15.6c0,2.1-0.8,4.1-2.3,5.6C12.1,28.2,10.1,29,8,29
	z"/>
<g>
</g>
<g>
</g>
<g>
</g>
<g>
</g>
<g>
</g>
<g>
</g>
<g>
</g>
<g>
</g>
<g>
</g>
<g>
</g>
<g>
</g>
<g>
</g>
<g>
</g>
<g>
</g>
<g>
</g>
</svg>
