<svg width="20" height="20" viewBox="0 0 20 20" fill="none" xmlns="http://www.w3.org/2000/svg">
<path d="M13.7229 18.1818V16.3636H17.4152V7.27273H4.49211V10.9091H2.64596V3.63636C2.64596 3.13636 2.82673 2.70833 3.18827 2.35227C3.5498 1.99621 3.98442 1.81818 4.49211 1.81818H5.41519V0H7.26134V1.81818H14.646V0H16.4921V1.81818H17.4152C17.9229 1.81818 18.3575 1.99621 18.719 2.35227C19.0806 2.70833 19.2613 3.13636 19.2613 3.63636V16.3636C19.2613 16.8636 19.0806 17.2917 18.719 17.6477C18.3575 18.0038 17.9229 18.1818 17.4152 18.1818H13.7229ZM7.26134 20L5.96904 18.7273L8.34596 16.3636H0.799805V14.5455H8.34596L5.96904 12.1818L7.26134 10.9091L11.8767 15.4545L7.26134 20ZM4.49211 5.45455H17.4152V3.63636H4.49211V5.45455Z" fill="#6BBF8A"/>
</svg>
