<?xml version="1.0" encoding="utf-8"?>
<!-- Generator: Adobe Illustrator 27.5.0, SVG Export Plug-In . SVG Version: 6.00 Build 0)  -->
<svg version="1.1" id="Layer_1" xmlns="http://www.w3.org/2000/svg" xmlns:xlink="http://www.w3.org/1999/xlink" x="0px" y="0px"
	 viewBox="0 0 20.4 22.1" style="enable-background:new 0 0 20.4 22.1;" xml:space="preserve">
<style type="text/css">
	.st0{fill:#FF6C6C;}
</style>
<path id="notifications_active_FILL0_wght600_GRAD0_opsz48" class="st0" d="M0,9c0-1.5,0.3-3,0.9-4.3c0.6-1.4,1.5-2.6,2.7-3.5L5,2.6
	C3,4.2,1.9,6.5,1.9,9L0,9z M18.4,9c0-1.2-0.2-2.4-0.7-3.5c-0.5-1.1-1.2-2.1-2.2-2.9l1.3-1.4c1.1,1,2,2.2,2.7,3.5
	C20.1,6,20.4,7.5,20.4,9H18.4z M1,18.9v-2.1h2.4V9c0-1.5,0.5-3,1.4-4.3c0.9-1.2,2.2-2.1,3.7-2.4V1.7c0-0.5,0.2-0.9,0.5-1.2
	c0.7-0.6,1.8-0.6,2.5,0c0.3,0.3,0.5,0.7,0.5,1.2v0.7c1.5,0.3,2.8,1.2,3.7,2.4C16.5,6,17,7.5,17,9v7.7h2.3v2.1H1z M10.2,22.1
	c-0.6,0-1.2-0.2-1.6-0.7c-0.4-0.4-0.7-1-0.7-1.6h4.5c0,0.6-0.2,1.2-0.7,1.6C11.4,21.9,10.8,22.1,10.2,22.1z M5.5,16.7h9.4V9
	c0-1.3-0.5-2.5-1.4-3.4c-1.8-1.8-4.8-1.8-6.7,0c0,0,0,0,0,0C6,6.5,5.5,7.8,5.5,9L5.5,16.7z"/>
</svg>
