<?xml version="1.0" encoding="utf-8"?>
<!-- Generator: Adobe Illustrator 27.4.1, SVG Export Plug-In . SVG Version: 6.00 Build 0)  -->
<svg version="1.1" id="Layer_1" xmlns="http://www.w3.org/2000/svg" xmlns:xlink="http://www.w3.org/1999/xlink" x="0px" y="0px"
	 viewBox="0 0 19.4 21.3" style="enable-background:new 0 0 19.4 21.3;" xml:space="preserve">
<style type="text/css">
	.st0{fill:#FE9A9A;}
</style>
<path id="receipt_long_FILL0_wght400_GRAD0_opsz48_2_" class="st0" d="M2.8,21.3c-1.5,0-2.8-1.2-2.8-2.8c0,0,0,0,0,0v-3.3h3.4V0
	L5,1.6L6.6,0l1.6,1.6L9.8,0l1.6,1.6L13,0l1.6,1.6L16.2,0l1.6,1.6L19.4,0v18.5c0,1.5-1.2,2.8-2.8,2.8c0,0,0,0,0,0H2.8z M16.6,19.7
	c0.6,0,1.2-0.5,1.2-1.1c0,0,0-0.1,0-0.1V2.7H5v12.5h10.4v3.3c0,0.6,0.5,1.2,1.1,1.2C16.5,19.7,16.5,19.7,16.6,19.7L16.6,19.7z
	 M6.4,6.9V5.3h6.4v1.6H6.4z M6.4,10.5V8.9h6.4v1.6H6.4z M15.3,6.9c-0.5,0-0.8-0.3-0.8-0.8c0-0.5,0.3-0.8,0.8-0.8
	c0.5,0,0.8,0.3,0.8,0.8c0,0.2-0.1,0.4-0.2,0.6C15.7,6.8,15.5,6.9,15.3,6.9L15.3,6.9z M15.3,10.3c-0.5,0-0.8-0.3-0.8-0.8
	c0-0.5,0.3-0.8,0.8-0.8c0.5,0,0.8,0.3,0.8,0.8c0,0.2-0.1,0.4-0.2,0.6C15.7,10.2,15.5,10.3,15.3,10.3L15.3,10.3z M2.8,19.7h11v-2.9
	H1.6v1.7c0,0.3,0.1,0.6,0.3,0.9C2.2,19.6,2.5,19.7,2.8,19.7z M1.6,19.7L1.6,19.7z"/>
</svg>
