<?xml version="1.0" encoding="utf-8"?>
<!-- Generator: Adobe Illustrator 27.2.0, SVG Export Plug-In . SVG Version: 6.00 Build 0)  -->
<svg version="1.1" id="Layer_1" xmlns="http://www.w3.org/2000/svg" xmlns:xlink="http://www.w3.org/1999/xlink" x="0px" y="0px"
	 viewBox="0 0 66.3 66.7" style="enable-background:new 0 0 66.3 66.7;" xml:space="preserve">
<style type="text/css">
	.st0{clip-path:url(#SVGID_00000119808994031699765130000014447978558148482952_);}
	.st1{fill:#f15a22;}
	.st2{opacity:0.9;fill:#f15a22;enable-background:new    ;}
	.st3{opacity:0.8;fill:#f15a22;enable-background:new    ;}
	.st4{opacity:0.7;fill:#f15a22;enable-background:new    ;}
	.st5{opacity:0.6;fill:#f15a22;enable-background:new    ;}
	.st6{opacity:0.5;fill:#f15a22;enable-background:new    ;}
	.st7{opacity:0.4;fill:#f15a22;enable-background:new    ;}
	.st8{opacity:0.3;fill:#f15a22;enable-background:new    ;}
	.st9{opacity:0.2;fill:#f15a22;enable-background:new    ;}
	.st10{opacity:0.1;fill:#f15a22;enable-background:new    ;}
</style>
<g id="Group_37877" transform="translate(66.269 57.659) rotate(171)">
	<g>
		<defs>
			<rect id="SVGID_1_" x="0" y="0" transform="matrix(0.9877 -0.1564 0.1564 0.9877 -4.2101 4.8841)" width="57.8" height="58.4"/>
		</defs>
		<clipPath id="SVGID_00000055701425423115718520000000591161232869589387_">
			<use xlink:href="#SVGID_1_"  style="overflow:visible;"/>
		</clipPath>
		<g id="Group_37876" style="clip-path:url(#SVGID_00000055701425423115718520000000591161232869589387_);">
			<path id="Path_253886" class="st1" d="M23.9,0c3.4,0,6.2,2.8,6.2,6.2c0,3.4-2.8,6.2-6.2,6.2c-3.4,0-6.2-2.8-6.2-6.2
				c0,0,0-0.1,0-0.1C17.7,2.7,20.5,0,23.9,0"/>
			<path id="Path_253887" class="st1" d="M4.1,16.5c0-3.2,2.7-5.8,5.9-5.8c3.2,0,5.8,2.7,5.8,5.9c0,3.2-2.7,5.8-5.9,5.8
				C6.7,22.3,4.1,19.7,4.1,16.5"/>
			<path id="Path_253888" class="st1" d="M5.5,37.5C2.4,37.5,0,35,0,32s2.4-5.5,5.5-5.5c3,0,5.5,2.4,5.5,5.5
				C10.9,35,8.5,37.5,5.5,37.5C5.5,37.5,5.5,37.5,5.5,37.5"/>
			<path id="Path_253889" class="st2" d="M16.5,46.1c0,2.8-2.3,5.1-5.1,5.1c-2.8,0-5.1-2.3-5.1-5.1c0-2.8,2.3-5.1,5.1-5.1
				c0,0,0,0,0,0C14.2,41.1,16.5,43.3,16.5,46.1"/>
			<path id="Path_253890" class="st3" d="M29,53.7c0,2.6-2.1,4.7-4.7,4.7c-2.6,0-4.7-2.1-4.7-4.7c0-2.6,2.1-4.7,4.7-4.7c0,0,0,0,0,0
				C26.9,48.9,29,51.1,29,53.7"/>
			<path id="Path_253891" class="st4" d="M37.6,49.1c2.4,0,4.3,1.9,4.3,4.3c0,2.4-1.9,4.3-4.3,4.3s-4.3-1.9-4.3-4.3c0,0,0,0,0,0
				C33.2,51.1,35.2,49.1,37.6,49.1"/>
			<path id="Path_253892" class="st5" d="M43.2,46.8c0-2.2,1.8-4,4-4c2.2,0,4,1.8,4,4c0,2.2-1.8,4-4,4C45,50.8,43.2,49,43.2,46.8
				C43.2,46.8,43.2,46.8,43.2,46.8"/>
			<path id="Path_253893" class="st6" d="M53.2,42.1c-2,0-3.6-1.6-3.6-3.6c0-2,1.6-3.6,3.6-3.6c2,0,3.6,1.6,3.6,3.6c0,0,0,0,0,0
				C56.8,40.4,55.2,42,53.2,42.1"/>
			<path id="Path_253894" class="st7" d="M57.8,29.1c0,1.8-1.5,3.2-3.2,3.2c-1.8,0-3.2-1.5-3.2-3.2c0-1.8,1.5-3.2,3.2-3.2
				c0,0,0,0,0,0C56.4,25.9,57.8,27.3,57.8,29.1"/>
			<path id="Path_253895" class="st8" d="M52.8,23.6c-1.6,0-2.9-1.3-2.9-2.8c0-1.6,1.3-2.9,2.8-2.9c1.6,0,2.9,1.3,2.9,2.8
				C55.7,22.3,54.4,23.6,52.8,23.6C52.9,23.6,52.8,23.6,52.8,23.6"/>
			<path id="Path_253896" class="st9" d="M48.9,16.9c-1.4-0.1-2.4-1.3-2.4-2.6c0.1-1.3,1.1-2.3,2.4-2.4c1.4-0.1,2.6,1,2.6,2.4
				c0.1,1.4-1,2.6-2.4,2.6C49.1,16.9,49,16.9,48.9,16.9"/>
			<path id="Path_253897" class="st10" d="M43.8,11.8c-1.2,0-2.1-1-2.1-2.1c0-1.2,1-2.1,2.1-2.1c1.2,0,2.1,1,2.1,2.1c0,0,0,0,0,0
				C45.9,10.8,44.9,11.8,43.8,11.8"/>
		</g>
	</g>
</g>
<g>
</g>
<g>
</g>
<g>
</g>
<g>
</g>
<g>
</g>
<g>
</g>
<g>
</g>
<g>
</g>
<g>
</g>
<g>
</g>
<g>
</g>
<g>
</g>
<g>
</g>
<g>
</g>
<g>
</g>
</svg>
