<?xml version="1.0" encoding="utf-8"?>
<!-- Generator: Adobe Illustrator 27.3.1, SVG Export Plug-In . SVG Version: 6.00 Build 0)  -->
<svg version="1.1" id="Layer_1" xmlns="http://www.w3.org/2000/svg" xmlns:xlink="http://www.w3.org/1999/xlink" x="0px" y="0px"
	 viewBox="0 0 176.2 161" style="enable-background:new 0 0 176.2 161;" xml:space="preserve">
<style type="text/css">
	.st0{fill:#FFFFFF;}
</style>
<g id="Group_37774" transform="matrix(0.035, -0.999, 0.999, 0.035, 0, 166.561)">
	<g id="Group_37773">
		<path id="Path_253892" class="st0" d="M168.6,160.4c-6.7,2.7-13.6,5.2-20.3,7.7c-2.5,0.9-5,1.8-7.4,2.8c-1,0.4-2,0.7-3.1,0.7
			c-0.3,0-0.6,0-0.9-0.2c-0.1-0.1-0.6-0.3-0.9-1.2s-0.7-2,3.6-3.9c2.8-1.2,5.7-2.2,8.5-3.3c1.3-0.5,2.5-0.9,3.8-1.4l7.8-2.9l-8-2.4
			c-19-5.7-34-12.3-47.4-20.8C58.9,106.6,27.1,64.9,6.9,8C6.1,5.6,5.6,3.2,5.6,0.7C5.7,0.4,5.8,0.1,6-0.2c0.4,0.1,0.9,0.3,1.2,0.6
			c1,1.9,1.8,3.8,2.4,5.8c0.3,0.8,0.6,1.7,0.9,2.5c20.5,54.1,51.8,94.2,95.6,122.6c13.9,9,29.5,15.5,47.6,19.9l8.6,2.1l-5.8-6.7
			c-1.1-1.3-2.2-2.5-3.3-3.6c-2-1.9-3.8-4.1-5.3-6.5c-0.4-0.7-0.2-2.4-0.1-3.7v0h0c1-0.1,2,0,3,0.2c7.1,6.7,13.7,13.9,20,21.4
			c1.2,1.4,1.7,2.6,1.5,3.4C172.1,158.2,171.5,159.2,168.6,160.4"/>
	</g>
</g>
<g>
</g>
<g>
</g>
<g>
</g>
<g>
</g>
<g>
</g>
<g>
</g>
<g>
</g>
<g>
</g>
<g>
</g>
<g>
</g>
<g>
</g>
<g>
</g>
<g>
</g>
<g>
</g>
<g>
</g>
</svg>
