<?xml version="1.0" encoding="utf-8"?>
<!-- Generator: Adobe Illustrator 27.2.0, SVG Export Plug-In . SVG Version: 6.00 Build 0)  -->
<svg version="1.1" id="Layer_1" xmlns="http://www.w3.org/2000/svg" xmlns:xlink="http://www.w3.org/1999/xlink" x="0px" y="0px"
	 viewBox="0 0 185.5 144.4" style="enable-background:new 0 0 185.5 144.4;" xml:space="preserve">
<style type="text/css">
	.st0{fill:none;}
	.st1{opacity:0.1;}
	.st2{fill:#FF6C6C;}
	.st3{clip-path:url(#SVGID_00000127006881610130993960000011675006879659656586_);}
	.st4{fill:#10123A;}
</style>
<g id="Group_34201">
	<rect id="Rectangle_4041" x="58.9" y="48.2" class="st0" width="24" height="24"/>
</g>
<g id="Group_37567" transform="translate(867.25 214.58)" class="st1">
	<path id="Path_253839" class="st2" d="M-690.7-133.8c-4.4,0-8.9,0-13.3,0c-1.6,0-3.1-0.8-3.2-1.8c-0.4-2.5,0.7-4,3.1-4
		c3.4,0,6.9,0.3,10.3-0.2c1.2-0.3,2-1.3,2.1-2.5c0.1-1.3-0.8-2.7-1.8-2.9c-0.8-0.2-1.6-0.3-2.4-0.3c-3.9,0-7.7,0-11.6,0
		c-2.1,0-3.3-1-3.3-2.7c0-1.8,1.3-3,3.3-3c4.2,0,8.3,0,12.5,0c2.1,0,3-1,3-3c0-1.8-1-2.7-3-2.7c-6.2,0-12.4,0-18.6,0
		c-1.7,0.1-3.1-1.2-3.1-2.9c0-0.1,0-0.2,0-0.3c0-1.6,1.2-2.5,3-2.5c2.9,0,5.8,0,8.7,0c1.7,0,2.9-0.8,3.2-2c0.5-2.5-0.5-3.7-3-3.7
		c-5.2,0-10.3,0-15.5,0c-0.9,0-1.9-0.1-2.8-0.3c-1.1-0.3-1.9-1.2-2-2.4c-0.1-2.1,1.1-3.3,3.3-3.3c3.9,0,7.7,0,11.6,0
		c0.7,0.1,1.5-0.2,2-0.7c0.8-0.9,1.4-1.9,0.9-3.2c-0.4-1.2-1.6-1.9-2.8-1.9c-8.8,0-17.7,0-26.5,0c-2,0-3.1-1-3-3
		c0-1.9,1-2.8,3.1-2.8c3.4,0,6.8,0,10.2,0c1.2,0,2.5,0,3.2-1.2c0.9-1.5,0.5-3.4-1-4.3c-0.5-0.3-1.1-0.5-1.8-0.5
		c-9.2,0-18.3,0-27.5,0c-0.6,0.1-1.3,0-1.8-0.4c-1-0.7-1.4-1.9-1.1-3.1c0.4-1.3,1.5-2.2,2.9-2.2c0.9-0.1,1.7,0,2.6,0
		c1.7-0.2,2.6-1.4,2.5-3.3c-0.2-1.4-1.4-2.5-2.9-2.6c-3.1,0.3-6.2,0.1-9.4,0.1c-1.2,0.1-2.3-0.7-2.7-1.9c-0.6-1.5,0.2-3.1,1.6-3.7
		c0.4-0.2,0.8-0.2,1.3-0.2c1.6-0.1,2.8-1.4,2.8-3c0,0,0,0,0-0.1c0.1-1.4-0.9-2.6-2.3-2.7c-0.1,0-0.3,0-0.4,0c-5.9,0-11.8,0-17.7,0
		c-1.5,0-3,1.3-3,2.6c-0.1,1.7,1.2,3.1,2.9,3.2c0,0,0.1,0,0.1,0c1.9-0.1,3.8,0,5.7,0c1-0.1,1.9,0.3,2.4,1.1c0.6,1,0.7,2.2,0.1,3.2
		c-0.6,1-1.6,1.5-2.8,1.3c-12.4,0-24.7,0-37.1,0c-0.4,0-0.7,0-1.1,0c-1.7,0-3,1.4-2.9,3.1c0.1,1.6,1.5,2.7,3.1,2.6c1,0,2.1,0,3.1,0
		c1.9,0,3.3,1.2,3.3,2.9c0,2-1.2,3.1-3.3,3.1c-5.1,0-10.2,0-15.4,0c-2,0-3,0.8-3.1,2.4c-0.2,1.6,0.8,3,2.4,3.3c0.2,0,0.5,0,0.7,0
		c0.8,0,1.6,0,2.4,0c1.5,0.1,2.7,1.2,2.9,2.7c0.1,1.6-1.1,2.9-2.7,3c-0.1,0-0.1,0-0.2,0c-3.6,0-7.2,0-10.7,0c-1.7,0-3,1.4-2.9,3.1
		c0,0.1,0,0.2,0,0.3c0,1.1,1.6,2.3,2.9,2.3c2.4,0,4.7,0,7.1,0c2.1,0,3.5,1.1,3.5,2.9c0.1,1.5-1.4,2.9-3.4,3.1c-0.8,0.1-1.6,0-2.4,0
		c-4.8,0-9.6,0-14.4,0c-1.2-0.1-2.4,0.6-2.8,1.8c-0.5,1.2,0,2.6,1.1,3.4c0.8,0.5,1.8,0.7,2.7,0.6c2.9,0,5.7,0,8.6,0
		c1.9,0,3,0.9,3,2.7c0.1,1.6-1.1,2.9-2.7,3c-0.1,0-0.2,0-0.4,0c-2,0-4,0-6,0c-3.1,0-6.2,0-9.2,0c-1.6,0-2.9,1.3-2.9,2.9c0,0,0,0,0,0
		c-0.1,1.4,1.1,2.7,2.5,2.7c0.1,0,0.2,0,0.4,0c1,0,2-0.1,3,0c2.1,0.2,3.2,1.9,2.7,3.9c-0.4,1.7-1.6,1.7-2.9,1.8c-4.7,0-9.4,0-14.1,0
		c-1.6-0.2-3,1-3.2,2.6c-0.1,0.6,0.1,1.1,0.3,1.6c0.6,1.2,1.8,1.9,3.1,1.7c7.3,0,14.5,0,21.8,0c0.4-0.1,0.9,0,1.3,0.1
		c1.2,0.7,1.7,2.1,1.4,3.4c-0.3,1.4-1.6,2.3-3,2.1c-4.2,0-8.4,0-12.6,0c-0.5-0.1-1,0-1.4,0.3c-0.9,0.9-1.3,2.2-1,3.4
		c0.4,1.3,1.6,2.1,2.9,2c3,0,6,0,9,0c2,0,2.9,0.9,2.9,2.9c0,2.1-0.7,2.8-2.9,2.8c-4.2,0-8.3,0-12.5,0c-1.4,0-2.7,0.9-3,2.3
		c-0.4,1.6,0.6,3.2,2.2,3.6c0.5,0.1,1,0.1,1.5,0.1c9.3,0,18.7,0,28,0c1.5-0.1,2.8,1.1,2.9,2.7c0,0.5-0.1,1.1-0.4,1.5
		c-0.7,1.4-1.9,1.5-3.1,1.5c-1.8,0.1-3.6,0-5.4,0c-1.4-0.1-2.5,1-2.6,2.4c0,0.1,0,0.2,0,0.3c0,1.9,0.9,3,2.5,3
		c5.4,0,10.8-0.1,16.2,0.1c1.6,0.1,3.1,0.5,4.8-0.2c1-0.4,2.9,1.8,2.9,3.1c-0.1,1.6-1.4,2.8-3,2.8c-5.2,0-10.3,0-15.5,0
		c-2.5,0-3.9,2.1-2.9,4.2c0.6,1.2,1.8,1.9,3.1,1.7c7,0,14.1,0,21.1,0c1.6-0.1,2.9,1.1,2.9,2.7c0,0,0,0,0,0c0,1.7-1.4,3-3,3
		c-2,0-4,0-6,0c-1.2-0.2-2.3,0.5-2.7,1.6c-0.8,2.3,0.5,4.1,2.9,4.1c6.2,0,12.4,0,18.6,0c1.5-0.1,2.9,0.9,3.2,2.4
		c0.2,1.6-0.7,2.8-2.5,3.2c-0.7,0.1-1.4,0.3-2,0.7c-1,0.8-1.4,2.1-0.9,3.3c0.5,1.3,1.8,2.2,3.2,2c7.1,0,14.1,0,21.2,0
		c1.1,0,2.2-0.1,3.3-0.5c1-0.4,1.5-2.4,1.2-3.5c-0.6-1.1-1.7-1.9-3-2c-3.5,0-7.1,0-10.6,0c-2,0-3-0.9-3-2.7c0-2.1,0.9-3,3.1-3
		c16.2,0,32.5,0,48.7,0c0.5,0,1,0,1.5-0.1c1.3-0.5,2.1-1.8,2-3.2c-0.2-1.5-1.5-2.5-3-2.4c-7.8,0-15.7,0-23.5,0
		c-1.4,0.2-2.7-0.8-2.9-2.2c0-0.1,0-0.3,0-0.4c-6.1,0-12.1,0-18.2-0.1c6.1,0,12.1,0,18.2,0.1c3.2,0,6.3,0,9.5-0.1
		c2.3,0,3.8-1.1,4.2-3l0.2-0.2l0.1-0.1c10.2,0,20.5,0,30.7,0c0.5,0,1-0.1,1.4-0.4c1.3-1.1,1.4-2.9,0.4-4.2c-0.6-0.7-1.4-1.1-2.3-1.1
		c-6.1,0-12.1,0-18.2,0c-1.8,0-3.3-1.2-3.3-2.7c0-1.7,1.3-3,3-3c0.1,0,0.2,0,0.3,0c4.5,0,9,0,13.5,0c0.5,0,1-0.1,1.5-0.1
		c1.4-0.1,2.4-1.8,2.2-3.3c-0.4-1.3-1.5-2.2-2.8-2.3c-2.1,0-4.3,0-6.4,0c-2.1,0-3.1-1-3.1-2.9c0-2.1,0.7-2.8,3-2.8
		c4.5,0,9.1,0,13.6,0c1.2,0.1,2.3-0.1,3.4-0.6c1.1-0.6,1.5-1.9,1.1-3.1c-0.3-1.3-1.5-2.3-2.9-2.2c-2.7,0-5.3,0-8,0
		c-1.3,0-2.4-0.8-2.7-2.1c-0.4-1.2,0.1-2.5,1.1-3.1c0.7-0.4,1.5-0.6,2.3-0.6c7.3,0,14.6,0,21.9,0c1.6,0.1,3-1,3.1-2.6
		c0-0.2,0-0.3,0-0.5C-687.9-132.7-689.2-133.8-690.7-133.8 M-781.6-154L-781.6-154c-0.3,0.3-1.1-0.3-1.3,0.2
		C-782.7-154.3-781.9-153.7-781.6-154 M-781.8-154.3c-0.1-0.2-0.1-0.3,0-0.5C-781.9-154.7-781.9-154.5-781.8-154.3 M-788-162.4
		c0.9-0.2,1.7-0.4,2.5-0.7C-786.3-162.8-787.1-162.6-788-162.4 M-789.3-151.5c5,0,10.1,0,15.1,0
		C-779.3-151.5-784.3-151.5-789.3-151.5c-4.9,0-9.9,0-14.8,0C-799.2-151.5-794.3-151.5-789.3-151.5 M-784.9-118.8c0.1,0,0.2,0,0.3,0
		C-784.7-118.8-784.8-118.8-784.9-118.8 M-784.1-107.2C-784.1-107.2-784.1-107.3-784.1-107.2C-784.1-107.3-784.1-107.2-784.1-107.2
		 M-780.5-107.2c0,0-0.1,0-0.1,0C-780.5-107.2-780.5-107.2-780.5-107.2 M-780.4-107.3C-780.4-107.2-780.4-107.2-780.4-107.3
		C-780.4-107.2-780.4-107.2-780.4-107.3 M-780.2-107.8C-780.2-107.8-780.2-107.8-780.2-107.8C-780.2-107.8-780.2-107.8-780.2-107.8
		 M-779.9-108C-779.9-108-779.9-108-779.9-108C-779.9-108-779.9-108-779.9-108 M-779.5-108.6C-779.5-108.5-779.5-108.5-779.5-108.6
		C-779.5-108.5-779.5-108.5-779.5-108.6 M-779.4-108.6C-779.4-108.6-779.4-108.6-779.4-108.6C-779.4-108.6-779.4-108.6-779.4-108.6
		 M-779.2-108.7L-779.2-108.7L-779.2-108.7 M-779.2-109.1C-779.2-109.1-779.1-109.1-779.2-109.1
		C-779.1-109.1-779.2-109.1-779.2-109.1 M-779-112c0.4,0.6,0.5,1.3,0.2,2C-778.5-110.6-778.6-111.4-779-112 M-781.4-119.1
		c1.5,0,2.9,0.6,4,1.5C-778.5-118.6-779.9-119.1-781.4-119.1 M-776.1-116.3c0-0.1-0.1-0.1-0.2-0.1
		C-776.1-116.4-776.1-116.4-776.1-116.3L-776.1-116.3 M-776-116.3L-776-116.3L-776-116.3 M-775.8-116.1
		C-775.8-116.1-775.8-116.1-775.8-116.1C-775.8-116.1-775.8-116.1-775.8-116.1L-775.8-116.1 M-775.7-116L-775.7-116L-775.7-116
		 M-775.5-115.8c0-0.1-0.1-0.1-0.1-0.1C-775.6-115.9-775.5-115.9-775.5-115.8L-775.5-115.8 M-786.3-118l0.1-0.1L-786.3-118l-1,0.4
		L-786.3-118 M-784.5-107.9C-784.5-107.9-784.5-108-784.5-107.9C-784.5-108-784.5-107.9-784.5-107.9 M-775.3-115.5
		C-775.3-115.5-775.3-115.5-775.3-115.5C-775.3-115.5-775.3-115.5-775.3-115.5L-775.3-115.5 M-789.4-142.2c-5,0-10,0-14.9,0
		C-799.3-142.2-794.3-142.2-789.4-142.2c5,0,10,0,15.1,0C-779.3-142.2-784.3-142.2-789.4-142.2 M-775.2-104
		c-0.2,0.3-0.4,0.6-0.8,0.9C-775.6-103.4-775.4-103.7-775.2-104 M-775-104.4c0,0.1-0.1,0.2-0.1,0.3
		C-775.1-104.2-775.1-104.3-775-104.4 M-774.8-105.2c0.1,0,0.1-0.1,0.1-0.2C-774.7-105.3-774.7-105.2-774.8-105.2L-774.8-105.2
		 M-773.4-107.6c0.9-2.3,0.6-4.8-0.9-6.8C-772.9-112.4-772.5-109.8-773.4-107.6c-0.1,0.2-0.2,0.4-0.3,0.6
		C-773.6-107.1-773.5-107.3-773.4-107.6 M-768.2-175.5C-768.2-175.5-768.2-175.5-768.2-175.5C-768.2-175.5-768.2-175.5-768.2-175.5
		 M-765.3-168.1c0.6,1,1.2,2,1.8,3C-764.2-166.1-764.8-167.1-765.3-168.1 M-762-162.4c0,0.1,0,0.2,0,0.4
		C-762-162.1-762-162.3-762-162.4 M-757.7-162.3c0-0.1,0.1-0.3,0.3-0.3C-757.6-162.5-757.7-162.4-757.7-162.3 M-757.7-162.2
		c0,0,0-0.1,0-0.1C-757.7-162.2-757.7-162.2-757.7-162.2 M-757.8-161.8c-0.1,0-0.2,0-0.3,0.1C-758-161.8-757.9-161.8-757.8-161.8
		 M-758.1-161.3L-758.1-161.3c0,0-0.1,0-0.1,0.1C-758.2-161.3-758.2-161.3-758.1-161.3 M-757.6-161.9L-757.6-161.9L-757.6-161.9
		L-757.6-161.9z M-757.2-162.5c0,0,0-0.1-0.1-0.1l0.2-0.3l0,0l-0.2,0.3C-757.2-162.6-757.2-162.5-757.2-162.5 M-756.8-163.2
		L-756.8-163.2L-756.8-163.2L-756.8-163.2z M-756.2-164.8c-0.3,0.3-0.5,0.8-0.6,1.2C-756.7-164-756.5-164.4-756.2-164.8
		 M-754.4-167.2L-754.4-167.2L-754.4-167.2c-0.2,0.2-0.5,0.4-0.6,0.7C-754.9-166.8-754.7-167-754.4-167.2 M-752.4-170.8l-0.2,0.4
		L-752.4-170.8z M-751.4-173.1c0.2-0.3,0.4-0.6,0.5-0.9C-751.1-173.7-751.3-173.4-751.4-173.1 M-768.2-175.8L-768.2-175.8
		c-1.4,0.4-1.6,0.7-0.9,1.9l0,0C-769.8-175.1-769.6-175.5-768.2-175.8 M-761.9-161.7L-761.9-161.7
		C-761.9-161.8-761.9-161.8-761.9-161.7C-761.9-161.8-761.9-161.7-761.9-161.7 M-788.6-105.2c0.6,0.6,1.4,1.1,1.5,2.1l0,0
		C-787.2-104.1-788-104.6-788.6-105.2 M-787.6-103c0-0.2,0-0.3,0.2-0.2C-787.6-103.3-787.6-103.2-787.6-103 M-759.3-155.7
		c0,0,0.1-0.1,0.1-0.1c-0.9-0.3-1.9-0.4-2.8-0.8c0.9,0.3,1.9,0.4,2.8,0.8C-759.3-155.8-759.3-155.7-759.3-155.7"/>
	<path id="Path_253840" class="st2" d="M-857.8-133.8c-2.3-0.1-4.6-0.1-6.9,0c-1.8,0.1-2.6,1.3-2.5,3.3c0.1,1.4,1.3,2.5,2.7,2.4
		c1,0,2.1,0,3.1,0c1.2,0,2.4,0.1,3.5,0c1.6,0,2.8-1.3,2.8-2.9C-855.1-132.5-856.3-133.7-857.8-133.8"/>
	<path id="Path_253841" class="st2" d="M-840.6-110.7c-1.5-0.1-3,0-4.5,0c-1.1,0.1-2.1,0.8-2.4,1.9c-0.4,1-0.2,2.1,0.6,2.9
		c1.2,1.4,2.7,0.8,4,1c0.8,0,1.5,0,2.2,0c1.4,0.1,2.7-0.9,2.8-2.3c0-0.1,0-0.2,0-0.3C-837.7-109.2-838.9-110.5-840.6-110.7
		C-840.5-110.7-840.5-110.7-840.6-110.7"/>
	<path id="Path_253842" class="st2" d="M-836.3-186.1c1.3,0.4,2.7,0.6,4,0.3c1.1-0.1,2.1-0.8,2.4-1.9c0.4-1.1,0.1-2.2-0.7-3
		c-0.9-1-2.1-0.7-3-0.7c-0.8,0-1.4,0-2,0c-1.2,0.1-2.1,1-2.3,2.2C-838.2-188-837.5-186.6-836.3-186.1"/>
	<path id="Path_253843" class="st2" d="M-833.5-99.1c-1.1-0.4-2.2-0.4-3.3,0.1c-1.3,0.7-1.9,2.2-1.6,3.7c0.6,1.3,1.9,2,3.3,2
		c0.5-0.1,1.5-0.1,2.4-0.3c0.8-0.2,1.9-2.1,1.8-2.9C-831.2-98.3-831.7-98.6-833.5-99.1"/>
	<path id="Path_253844" class="st2" d="M-683.6-145.3c-1.4-0.6-4,0-4.8,1c-0.8,0.8-1,2-0.5,3c0.7,1.1,1.7,2.1,3.2,1.8
		c2.4,0,3.8-0.9,3.9-2.6C-681.5-143.5-682.3-144.8-683.6-145.3"/>
	<path id="Path_253845" class="st2" d="M-743.1-197.2c1.3,0.1,2.6-0.6,3.1-1.9c0.5-1.6,0.3-2.6-0.9-3.5c-0.9-0.6-2-0.8-3-0.6
		c-2.7,0.2-3.8,2.5-2.3,4.7C-745.4-197.5-744.3-197-743.1-197.2"/>
	<path id="Path_253846" class="st2" d="M-855.4-151.2c2.3,0,3.6-1,3.6-2.7c0-1.8-1.3-2.9-3.3-3c-2.5-0.1-3.2,1.3-3.5,3.1
		C-858.6-152.5-857.1-151.2-855.4-151.2"/>
</g>
<g id="Group_37868" transform="translate(912.527 241)">
	<g>
		<defs>
			<rect id="SVGID_1_" x="-867.2" y="-214.6" width="94.9" height="82"/>
		</defs>
		<clipPath id="SVGID_00000166652126185618355540000001053042141686586013_">
			<use xlink:href="#SVGID_1_"  style="overflow:visible;"/>
		</clipPath>
		<g id="Group_37867" style="clip-path:url(#SVGID_00000166652126185618355540000001053042141686586013_);">
			<path id="Path_253885" class="st4" d="M-819.8-214.6l47.5,82h-94.9L-819.8-214.6 M-819.8-197.4l-32.6,56.3h65.1L-819.8-197.4"/>
			<rect id="Rectangle_5079" x="-823.9" y="-179.9" class="st2" width="8.3" height="17.1"/>
			<rect id="Rectangle_5080" x="-823.9" y="-153.7" class="st2" width="8.3" height="8.3"/>
		</g>
	</g>
</g>
<g>
</g>
<g>
</g>
<g>
</g>
<g>
</g>
<g>
</g>
<g>
</g>
<g>
</g>
<g>
</g>
<g>
</g>
<g>
</g>
<g>
</g>
<g>
</g>
<g>
</g>
<g>
</g>
<g>
</g>
</svg>
