<?xml version="1.0" encoding="utf-8"?>
<!-- Generator: Adobe Illustrator 27.4.1, SVG Export Plug-In . SVG Version: 6.00 Build 0)  -->
<svg version="1.1" id="Layer_1" xmlns="http://www.w3.org/2000/svg" xmlns:xlink="http://www.w3.org/1999/xlink" x="0px" y="0px"
	 viewBox="0 0 48 48" style="enable-background:new 0 0 48 48;" xml:space="preserve">
<style type="text/css">
	.st0{clip-path:url(#SVGID_00000091701563183245473980000006944381084624836512_);fill:#FFFFFF;}
	.st1{clip-path:url(#SVGID_00000091701563183245473980000006944381084624836512_);}
	.st2{fill:#112D7C;}
	.st3{fill:#FFFFFF;stroke:#112D7C;stroke-miterlimit:10;}
</style>
<g>
	<defs>
		<circle id="SVGID_1_" cx="24.2" cy="23.3" r="21.6"/>
	</defs>
	<use xlink:href="#SVGID_1_"  style="overflow:visible;fill:#112D7C;"/>
	<clipPath id="SVGID_00000082334214955826097450000013278451078471754654_">
		<use xlink:href="#SVGID_1_"  style="overflow:visible;"/>
	</clipPath>
	<path style="clip-path:url(#SVGID_00000082334214955826097450000013278451078471754654_);fill:#FFFFFF;" d="M2.6,42.4v-5.2l4.7-4.7
		v9.9H2.6z M11.2,39.3V28.1l4.7-3.9v15.2H11.2z M19.8,39.3V24.1l4.7,3.9v11.3H19.8z M28.5,42.4V28.7l4.7-4.7v18.3H28.5z M37.1,42.4
		v-22l4.7-4.7v26.6H37.1z M2.6,31.1v-6.9L18,8.9l8.3,8.3L41.7,1.7v6.9L26.3,24.1L18,15.8L2.6,31.1z"/>
	<g style="clip-path:url(#SVGID_00000082334214955826097450000013278451078471754654_);">
		<circle class="st2" cx="32.7" cy="38.3" r="4.1"/>
		<path class="st3" d="M32.8,41c1,0,1.8-0.3,2.4-1c0.7-0.7,1-1.5,1-2.4c0-1-0.3-1.8-1-2.4c-0.7-0.7-1.5-1-2.4-1c-1,0-1.8,0.3-2.4,1
			c-0.7,0.7-1,1.5-1,2.4c0,1,0.3,1.8,1,2.4C31,40.7,31.8,41,32.8,41z M32.8,39.5c-0.5,0-1-0.2-1.4-0.6s-0.6-0.8-0.6-1.4
			s0.2-1,0.6-1.4c0.4-0.4,0.8-0.6,1.4-0.6s1,0.2,1.4,0.6c0.4,0.4,0.6,0.8,0.6,1.4s-0.2,1-0.6,1.4C33.8,39.4,33.3,39.5,32.8,39.5z
			 M32.8,44.1c-2.1,0-4-0.6-5.6-1.8c-0.9-0.7-1.7-1.4-2.3-2.3c-1.1-1.4-1.1-3.4,0-4.9c0.7-0.9,1.4-1.6,2.3-2.3
			c1.7-1.2,3.5-1.8,5.6-1.8s4,0.6,5.6,1.8c0.8,0.6,1.5,1.3,2.2,2.1c1.3,1.6,1.3,3.8,0,5.3c-0.6,0.8-1.3,1.5-2.2,2.1
			C36.7,43.5,34.9,44.1,32.8,44.1z"/>
	</g>
</g>
</svg>
