<?xml version="1.0" encoding="utf-8"?>
<!-- Generator: Adobe Illustrator 26.5.0, SVG Export Plug-In . SVG Version: 6.00 Build 0)  -->
<svg version="1.1" id="Layer_1" xmlns="http://www.w3.org/2000/svg" xmlns:xlink="http://www.w3.org/1999/xlink" x="0px" y="0px"
	 viewBox="0 0 49 49" style="enable-background:new 0 0 49 49;" xml:space="preserve">
<style type="text/css">
	.st0{fill:#FFFFFF;stroke:#FFFFFF;stroke-width:0.5;}
</style>
<g id="Group_34528" transform="translate(644.572 235.49)">
	<path id="Path_253516" class="st0" d="M-637.2-200.8c0-2.5,0-5.1,0-7.6c0-1.1,0.4-1.5,1.5-1.5c3.5,0,7,0,10.5,0
		c1,0,1.4,0.4,1.4,1.4c0,5.2,0,10.3,0,15.5c0.1,0.7-0.4,1.3-1,1.4c-0.1,0-0.3,0-0.4,0c-3.5,0-7,0-10.5,0c-1,0-1.4-0.4-1.4-1.5
		C-637.2-195.7-637.2-198.3-637.2-200.8 M-630.5-208.4c-1.5,0-3,0-4.5,0c-0.5,0-0.7,0.2-0.7,0.7c0,0.7,0,1.4,0,2.1
		c0,0.5,0.2,0.7,0.7,0.7c3,0,6,0,9,0c0.6,0,0.7-0.2,0.7-0.8c0-0.7,0-1.3,0-2c0-0.6-0.2-0.8-0.8-0.8
		C-627.6-208.4-629-208.4-630.5-208.4 M-626.7-193.1c1.3,0,1.3,0,1.3-1.2c0-1.6-0.1-1.4-1.4-1.4c-1.3,0-1.2,0-1.3,1.3
		C-628-192.9-627.9-193.2-626.7-193.1 M-626.6-199.6c-1.3,0-1.3,0-1.3,1.3c0,1.5,0,1.4,1.3,1.4s1.3,0,1.3-1.3
		C-625.3-199.8-625.4-199.6-626.6-199.6 M-634.4-197h0.3c1,0,1.1,0,1.1-1.1c0-0.1,0-0.1,0-0.2c0-1.5,0-1.4-1.4-1.4
		c-1.3,0-1.3,0-1.3,1.3C-635.7-196.8-635.7-197-634.4-197 M-634.4-193.1c1.2,0,1.4,0.3,1.3-1.3c0-1.3,0-1.3-1.3-1.3s-1.3,0-1.3,1.3
		C-635.7-192.8-635.6-193.2-634.4-193.1 M-630.5-199.6c-1.3,0-1.3,0-1.3,1.3c0,1.5-0.1,1.4,1.4,1.4c1.3,0,1.3,0.1,1.3-1.3
		C-629.2-199.7-629.1-199.6-630.5-199.6 M-630.5-193.1c1.3,0,1.3,0.2,1.3-1.3c0-1.4,0-1.3-1.3-1.3s-1.3,0-1.3,1.3
		C-631.9-193-631.8-193.1-630.5-193.1 M-634.4-200.8c1.4,0,1.4,0,1.4-1.3s0-1.3-1.3-1.3s-1.3,0-1.3,1.3
		C-635.7-200.8-635.7-200.8-634.4-200.8 M-629.2-202.1v-0.5c0-0.8,0-0.9-0.9-0.9c-0.3,0-0.7,0-1,0c-0.6,0-0.8,0.2-0.8,0.8
		c0,0.2,0,0.3,0,0.5c0,1.5-0.1,1.4,1.4,1.4C-629.2-200.8-629.2-200.8-629.2-202.1 M-626.7-200.8c1.4,0,1.4,0,1.4-1.3s0-1.3-1.3-1.3
		s-1.3,0-1.4,1.4C-628-200.8-628-200.8-626.7-200.8"/>
	<path id="Path_253517" class="st0" d="M-635.7-212.2v-0.3c0-4.6,0-9.1,0-13.7c0-2.2,1.7-4.1,3.9-4.1h0.1c7.5,0,15,0,22.4,0
		c2.2,0,4,1.7,4.1,3.9c0,0.1,0,0.1,0,0.2c0,1.4,0,2.7,0,4.1v0.4l-2.1-0.1v-0.3c0-1.3,0-2.6,0-3.9c0.1-1.1-0.8-2.1-1.9-2.1
		c-0.1,0-0.2,0-0.2,0c-7.4,0-14.8,0-22.2,0c-1.1-0.1-2,0.8-2.1,1.9c0,0.1,0,0.1,0,0.2c0,4.5,0,9,0,13.5v0.4L-635.7-212.2z"/>
	<path id="Path_253518" class="st0" d="M-621.1-196h11.7c1.1,0.1,2.1-0.7,2.2-1.8c0-0.1,0-0.2,0-0.3c0-1.3,0-2.6,0-3.9v-0.3l2.1-0.1
		v0.3c0,1.4,0,2.7,0,4.1c0,2.2-1.7,4.1-4,4.1h-0.1c-3.8,0-7.7,0-11.5,0h-0.3v-2.1H-621.1z"/>
	<path id="Path_253519" class="st0" d="M-620.5-221.5h-8.3c-0.6,0-0.9-0.2-0.9-0.7c0-0.4,0.3-0.7,0.9-0.7h16.6
		c0.5,0,0.8,0.2,0.8,0.7c0,0.3-0.3,0.6-0.6,0.7c-0.1,0-0.2,0-0.3,0H-620.5"/>
	<path id="Path_253520" class="st0" d="M-615.5-203.4h-3.8c-0.3,0-0.4-0.2-0.4-0.7c0-0.4,0.2-0.7,0.4-0.7h7.7c0.3,0,0.4,0.2,0.4,0.7
		c0,0.4-0.1,0.6-0.3,0.7c-0.1,0-0.1,0-0.2,0H-615.5"/>
	<path id="Path_253521" class="st0" d="M-615.5-198.9h-3.8c-0.3,0-0.4-0.2-0.4-0.7c0-0.4,0.2-0.7,0.4-0.7h7.7c0.3,0,0.4,0.2,0.4,0.7
		c0,0.4-0.1,0.6-0.3,0.7c-0.1,0-0.1,0-0.2,0H-615.5"/>
	<path id="Path_253522" class="st0" d="M-614-217.3c-0.3,0.4-0.5,0.9-0.7,1.3c0,0.1-0.2,0.1-0.3,0.1c-1,0-2,0-3.1,0h-10.6
		c-0.1,0-0.2,0-0.3,0c-0.4,0-0.7-0.3-0.7-0.7l0,0c0-0.4,0.3-0.7,0.7-0.7l0,0c4.9,0,9.9,0,14.8,0C-614.1-217.4-614-217.4-614-217.3"
		/>
	<path id="Path_253523" class="st0" d="M-603-213.9h-2c0-0.2-0.1-0.3-0.1-0.5c-0.1-0.8-0.8-1.3-1.6-1.2c-0.1,0-0.2,0-0.2,0.1
		c-0.5,0.1-0.9,0.6-0.9,1.1c-0.1,0.5,0.1,1.1,0.6,1.4c0.6,0.3,1.2,0.6,1.8,0.9c0.4,0.2,0.7,0.3,1.1,0.5c1,0.5,1.6,1.5,1.5,2.6
		c0.1,1.4-1,2.7-2.4,2.9c-0.7,0.2-0.7,0.2-0.7,0.9v0.7h-1.2c0-0.4,0-0.7,0-1.1c0-0.2-0.1-0.3-0.3-0.4c-0.6-0.2-1.2-0.4-1.8-0.7
		c-0.9-0.5-1.4-1.6-1.2-2.6h2c0,0.1,0,0.1,0.1,0.2c0.1,1.4,1.3,1.7,2.4,1.4c0.5-0.1,0.8-0.6,0.8-1.1c0.1-0.6-0.1-1.1-0.6-1.4
		c-0.6-0.3-1.2-0.6-1.8-0.9c-0.4-0.2-0.7-0.3-1.1-0.5c-1-0.6-1.6-1.7-1.4-2.8c0.1-1.1,0.8-2.1,1.9-2.4c0.4-0.1,0.9-0.2,1-0.4
		c0.2-0.3,0.1-0.7,0.1-1.1c0-0.1,0-0.2,0-0.3h1.1c0,0.4,0,0.7,0,1.1c0,0.3,0.1,0.5,0.4,0.6C-604.1-216.7-603-215.4-603-213.9
		C-603-214.1-603-214-603-213.9"/>
</g>
</svg>
