<?xml version="1.0" encoding="utf-8"?>
<!-- Generator: Adobe Illustrator 27.3.1, SVG Export Plug-In . SVG Version: 6.00 Build 0)  -->
<svg version="1.1" id="Layer_1" xmlns="http://www.w3.org/2000/svg" xmlns:xlink="http://www.w3.org/1999/xlink" x="0px" y="0px"
	 viewBox="0 0 16.9 21.1" style="enable-background:new 0 0 16.9 21.1;" xml:space="preserve">
<style type="text/css">
	.st0{fill:#FE9A9A;}
</style>
<path id="request_quote_FILL0_wght400_GRAD0_opsz48_1_" class="st0" d="M7.6,17.9h1.6v-1.1h1.6c0.4,0,0.8-0.3,0.8-0.7c0,0,0,0,0-0.1
	v-3.4c0-0.4-0.3-0.8-0.7-0.8c0,0,0,0-0.1,0h-4V10h4.7V8.4H9.2V7.4H7.6v1.1H6.1c-0.4,0-0.8,0.3-0.8,0.7c0,0,0,0,0,0.1v3.4
	c0,0.4,0.3,0.8,0.7,0.8c0,0,0,0,0.1,0h4v1.8H5.3v1.6h2.4V17.9z M1.6,21.1c-0.9,0-1.6-0.7-1.6-1.6V1.6c0-0.4,0.2-0.8,0.5-1.1
	C0.8,0.2,1.2,0,1.6,0h9.5l5.8,5.8v13.7c0,0.9-0.7,1.6-1.6,1.6L1.6,21.1z M9.8,5.8V1.6H1.6v17.9h13.7V5.8L9.8,5.8z M1.6,1.6L1.6,1.6z
	"/>
</svg>
