<svg width="12" height="12" viewBox="0 0 12 12" fill="none" xmlns="http://www.w3.org/2000/svg">
<path d="M0.664326 11.367V10.3163H2.94076L2.6781 10.1062C1.93096 9.51079 1.38812 8.86289 1.04957 8.16244C0.711022 7.462 0.541748 6.67984 0.541748 5.81596C0.541748 4.57851 0.906562 3.46656 1.63619 2.4801C2.36582 1.49364 3.32601 0.813628 4.51676 0.440058V1.52574C3.64121 1.86429 2.93493 2.42756 2.39792 3.21556C1.86091 4.00356 1.59241 4.87036 1.59241 5.81596C1.59241 6.55142 1.72958 7.19058 2.00392 7.73342C2.27826 8.27626 2.64891 8.74614 3.11588 9.14306L3.64121 9.51079V7.33942H4.69187V11.367H0.664326ZM7.79133 11.1043V10.0011C8.67856 9.66256 9.38484 9.09928 9.91017 8.31129C10.4355 7.52329 10.6982 6.65649 10.6982 5.71089C10.6982 5.15054 10.561 4.58143 10.2867 4.00356C10.0123 3.4257 9.65334 2.91496 9.20973 2.47134L8.70191 2.01605V4.18743H7.65124V0.159882H11.6788V1.21055H9.38484L9.64751 1.4557C10.3479 2.10945 10.8733 2.80989 11.2235 3.55703C11.5737 4.30417 11.7488 5.02212 11.7488 5.71089C11.7488 6.94834 11.3869 8.06321 10.6631 9.05551C9.93936 10.0478 8.98209 10.7307 7.79133 11.1043Z" fill="#FFCC00"/>
</svg>
