<?xml version="1.0" encoding="utf-8"?>
<!-- Generator: Adobe Illustrator 27.3.1, SVG Export Plug-In . SVG Version: 6.00 Build 0)  -->
<svg version="1.1" id="Layer_1" xmlns="http://www.w3.org/2000/svg" xmlns:xlink="http://www.w3.org/1999/xlink" x="0px" y="0px"
	 viewBox="0 0 501.1 445.8" style="enable-background:new 0 0 501.1 445.8;" xml:space="preserve">
<style type="text/css">
	.st0{clip-path:url(#SVGID_00000178177750968061186320000014645891644731541911_);}
	.st1{fill:#F1F4F7;}
	.st2{clip-path:url(#SVGID_00000178169119648328255560000016401815584125075618_);}
	.st3{fill:#10123A;}
	.st4{fill:#F15B22;}
	.st5{fill:#FFFFFF;}
</style>
<g id="Group_37745" transform="translate(4721 15505.979)">
	<g id="Group_37568" transform="translate(-4721 -15475.513)">
		<g>
			<defs>
				<rect id="SVGID_1_" x="10.2" y="40.2" width="477.8" height="372"/>
			</defs>
			<clipPath id="SVGID_00000008834869768229746110000003533931240167306889_">
				<use xlink:href="#SVGID_1_"  style="overflow:visible;"/>
			</clipPath>
			<g id="Group_37567" style="clip-path:url(#SVGID_00000008834869768229746110000003533931240167306889_);">
				<path id="Path_253839" class="st1" d="M464.9,248.3c-11.4,0-22.9,0-34.3,0c-4,0-7.9-2.1-8.4-4.5c-1.1-6.5,1.8-10.3,7.9-10.3
					c8.8,0.1,17.7,0.8,26.5-0.6c3-0.8,5.2-3.4,5.4-6.4c0.2-3.2-2-7-4.6-7.5c-2-0.5-4.1-0.8-6.2-0.8c-9.9,0.1-19.8,0.1-29.8,0
					c-5.4,0-8.5-2.6-8.4-7.1c0-4.7,3.3-7.6,8.5-7.6c10.7,0,21.5,0,32.2,0c5.4,0,7.7-2.5,7.6-7.7c-0.1-4.6-2.7-6.9-7.7-6.9
					c-16,0-32,0-48,0c-4.3,0.2-7.9-3.2-8.1-7.4c0-0.2,0-0.5,0-0.7c0.1-4.1,3-6.5,7.8-6.5c7.5,0,14.9,0,22.4,0c4.5,0,7.6-2,8.2-5.1
					c1.4-6.4-1.2-9.6-7.8-9.6c-13.3,0-26.6,0-39.9,0c-2.4,0-4.9-0.2-7.3-0.7c-2.9-0.7-5-3.2-5.2-6.1c-0.2-5.5,2.8-8.6,8.5-8.6
					c9.9,0,19.8,0,29.8,0c1.9,0.2,3.8-0.4,5.1-1.7c2.1-2.3,3.7-4.8,2.2-8.2c-1.1-3-4.1-5-7.3-4.8c-22.8,0-45.5,0.1-68.3,0
					c-5.3,0-7.9-2.6-7.8-7.6c0.1-4.8,2.6-7.1,7.9-7.1c8.8,0,17.5,0.1,26.3-0.1c3-0.1,6.5,0.1,8.4-3.1c2.3-3.7,1.2-8.6-2.5-11
					c-1.4-0.9-3-1.3-4.6-1.2c-23.6,0-47.2,0-70.7,0c-1.6,0.3-3.3-0.1-4.6-1c-2.4-2.2-3.9-4.5-2.9-7.9c1-3.3,4-5.7,7.5-5.7
					c2.2-0.1,4.4,0.1,6.7-0.1c4.3-0.4,6.7-3.7,6.3-8.5c-0.2-3.2-4.2-7-7.4-6.6c-8,0.9-16.1,0.2-24.1,0.4c-3.1,0.2-6-1.8-6.9-4.8
					c-1.5-5.6,1.6-9.7,7.5-9.9c4.1-0.2,7.3-3.6,7.1-7.7c0,0,0-0.1,0-0.1c0.3-3.5-2.4-6.6-5.9-6.9c-0.4,0-0.7,0-1.1,0
					c-15.2,0-30.3,0-45.5,0c-3.9,0-7.8,3.3-7.7,6.6c0.1,3.5,2.4,8.4,7.8,8.1c4.9-0.2,9.8-0.1,14.7,0c2.5-0.3,4.9,0.8,6.3,3
					c1.7,2.5,1.7,5.7,0.2,8.3c-1.5,2.5-4.2,3.8-7.1,3.5c-31.9,0-63.7,0-95.6,0c-0.9,0-1.9,0-2.8,0c-4.3,0.1-7.7,3.7-7.6,8
					c0.3,4,3.9,7,7.9,6.7c2.7,0,5.4,0,8.1,0c5,0,8.6,3.1,8.6,7.5c0,5-3.1,7.9-8.6,7.9c-13.2,0-26.4,0-39.6,0c-5.1,0-7.8,2.2-7.9,6.3
					c-0.1,5.3,2.6,8.2,7.9,8.4c2.1,0.1,4.2,0,6.3,0c3.8,0.1,7,3,7.5,6.8c0.2,4.1-2.9,7.6-7,7.8c-0.2,0-0.3,0-0.5,0
					c-9.2,0-18.4,0-27.7,0c-4.6,0-7.7,3.8-7.5,8.8c0.1,2.7,4.2,5.9,7.5,5.9c6.1,0,12.1,0,18.2,0c5.5,0,8.9,2.9,9.1,7.5
					c0.2,3.9-3.7,7.5-8.6,7.9c-2.1,0.2-4.2,0-6.3,0c-12.4,0-24.8,0-37.1,0c-3.1-0.3-6.1,1.5-7.2,4.5c-1.2,3.2,0,6.8,2.8,8.7
					c2.1,1.2,4.6,1.7,7,1.5c7.4,0,14.7,0,22.1,0c5,0,7.7,2.4,7.7,6.9c0.2,4.1-2.9,7.6-7,7.8c-0.3,0-0.6,0-0.9,0
					c-5.1,0-10.3,0-15.4,0c-7.9,0-15.9,0-23.8,0c-4.1,0-7.5,3.4-7.4,7.5c0,0,0,0.1,0,0.1c-0.2,3.7,2.7,6.9,6.5,7.1
					c0.3,0,0.6,0,0.9,0c2.6,0,5.1-0.1,7.7,0.1c5.5,0.4,8.2,4.8,6.9,10.1c-1.1,4.3-4.2,4.5-7.5,4.5c-12.1,0.1-24.3,0-36.4,0.1
					c-6.4,0-9.9,5.4-7.4,11c1.5,3.4,4.5,4.4,8,4.4c18.7,0,37.4,0,56,0c1.2-0.2,2.3-0.1,3.4,0.4c3,1.9,4.4,5.4,3.5,8.8
					c-0.8,3.6-4.2,5.9-7.9,5.5c-10.9,0-21.7,0-32.6,0c-1.3-0.2-2.6,0-3.7,0.7c-2.4,2.2-3.4,5.6-2.6,8.9c0.9,3.3,4.1,5.4,7.4,5.1
					c7.7,0,15.4,0,23.1,0c5.1,0,7.5,2.4,7.5,7.4c0,5.4-1.9,7.3-7.4,7.3c-10.7,0-21.5,0-32.2,0c-3.6-0.1-6.9,2.4-7.7,5.9
					c-1,4.1,1.5,8.2,5.6,9.2c1.3,0.3,2.5,0.4,3.8,0.3c24,0,48.1,0,72.1,0c5.9,0,8.9,5.5,6.4,10.8c-1.7,3.7-4.9,3.8-8,3.9
					c-4.7,0.2-9.3,0-14,0.1c-3.5-0.2-6.5,2.6-6.7,6.1c0,0.3,0,0.5,0,0.8c0,4.9,2.2,7.8,6.5,7.8c13.9,0.1,27.8-0.3,41.7,0.2
					c4.2,0.2,8,1.3,12.4-0.5c2.7-1.1,7.5,4.7,7.5,8c-0.2,4.1-3.7,7.3-7.8,7.2c-13.3,0-26.6,0-39.9,0c-6.4,0-10.1,5.4-7.5,10.9
					c1.5,3,4.7,4.8,8,4.5c18.1,0,36.2,0,54.3,0c4-0.2,7.4,2.9,7.6,6.9c0,0,0,0,0,0c0,4.3-3.5,7.7-7.8,7.8c-5.1,0-10.3,0-15.4,0
					c-3.1,0-5.7,0.8-6.9,4.1c-2.1,5.9,1.2,10.5,7.5,10.6c16,0,32,0,48,0c4-0.4,7.6,2.4,8.3,6.3c0.5,4.2-1.8,7.1-6.5,8.3
					c-1.9,0.1-3.6,0.7-5.2,1.7c-2.6,2-3.6,5.4-2.4,8.5c1.2,3.4,4.6,5.6,8.2,5.3c18.2,0.1,36.4,0,54.6,0c2.9,0.1,5.8-0.3,8.5-1.3
					c2.6-1.1,3.9-6.1,3.1-9c-1.4-2.9-4.4-4.9-7.6-5c-9.1,0-18.2,0-27.3,0c-5.1,0-7.7-2.4-7.7-6.9c0-5.4,2.4-7.8,7.9-7.8
					c41.8,0,83.6,0,125.4,0c1.3,0.1,2.6,0,3.8-0.3c3.4-1.2,5.5-4.6,5.1-8.2c-0.5-3.8-3.8-6.5-7.6-6.2c-20.2,0-40.4,0-60.6,0
					c-3.6,0.4-6.9-2.2-7.4-5.8c0-0.4-0.1-0.7,0-1.1c-15.6,0-31.2-0.1-46.9-0.1c15.6,0,31.2,0.1,46.9,0.1c8.2-0.1,16.3-0.1,24.5-0.2
					c6.1-0.1,9.8-2.8,10.7-7.7l0.4-0.5l0.2-0.2c26.4,0,52.8,0,79.1,0.1c1.3,0.1,2.5-0.3,3.5-1.1c3.3-2.7,3.7-7.6,1-10.9
					c-1.5-1.7-3.6-2.7-5.9-2.8c-15.6,0-31.3,0-46.9,0c-4.7,0-8.4-3-8.5-6.9c0-4.3,3.4-7.8,7.7-7.8c0.2,0,0.4,0,0.7,0
					c11.6,0,23.1,0,34.7,0c1.3,0,2.5-0.3,3.8-0.3c3.7-0.2,6.3-4.6,5.7-8.5c-1-3.3-3.8-5.6-7.2-5.9c-5.5,0-11,0-16.5,0
					c-5.3,0-7.9-2.5-7.9-7.5c0-5.5,1.8-7.2,7.8-7.2c11.7,0,23.4,0.1,35-0.1c3,0.3,6-0.2,8.7-1.6c2.7-1.6,3.9-5,2.8-8
					c-0.8-3.5-3.9-5.9-7.4-5.8c-6.9-0.1-13.8,0-20.7,0c-3.3,0-6.2-2.2-7-5.3c-1.1-3,0.2-6.3,2.9-8c1.8-1.1,3.9-1.6,6-1.5
					c18.8,0,37.6,0,56.4,0c4,0.4,7.6-2.6,8-6.7c0-0.4,0-0.9,0-1.4C472.1,251.1,468.8,248.2,464.9,248.3 M230.7,196.3L230.7,196.3
					c-0.8,0.8-2.7-0.8-3.3,0.4C228,195.4,230,197,230.7,196.3 M230.2,195.4c-0.2-0.4-0.3-0.9-0.1-1.3
					C229.9,194.5,229.9,195,230.2,195.4 M214.4,174.5c2.2-0.4,4.4-1,6.5-1.9C218.8,173.5,216.6,174.1,214.4,174.5 M210.9,202.7
					c13,0,25.9,0,38.9,0C236.8,202.7,223.8,202.7,210.9,202.7c-12.7,0-25.4,0-38.2,0C185.5,202.7,198.2,202.7,210.9,202.7
					 M222.2,286.9c0.3-0.1,0.6-0.1,0.8,0C222.7,286.8,222.5,286.8,222.2,286.9 M224.3,316.7C224.3,316.7,224.3,316.7,224.3,316.7
					C224.3,316.7,224.3,316.7,224.3,316.7 M233.7,316.7c-0.1,0-0.2,0-0.3,0C233.5,316.7,233.6,316.7,233.7,316.7 M233.9,316.6
					c0,0-0.1,0-0.1,0C233.8,316.7,233.8,316.7,233.9,316.6 M234.5,315.3c-0.1,0-0.2,0-0.2,0.1C234.3,315.3,234.4,315.3,234.5,315.3
					 M235.2,314.6c-0.1,0-0.1,0.1-0.2,0.1C235.1,314.7,235.1,314.7,235.2,314.6 M236.3,313.3c0,0.1-0.1,0.1,0,0.2
					C236.2,313.4,236.3,313.3,236.3,313.3 M236.5,313.2c-0.1,0-0.2,0-0.2,0.1C236.4,313.2,236.4,313.2,236.5,313.2 M237,313L237,313
					L237,313 M237.1,311.9c0-0.1,0.1-0.1,0.2-0.2C237.2,311.8,237.1,311.9,237.1,311.9 M237.6,304.5c1,1.5,1.2,3.4,0.5,5.1
					C238.8,307.9,238.6,306,237.6,304.5 M231.4,286.1c3.8,0.1,7.4,1.4,10.4,3.8C238.9,287.6,235.2,286.2,231.4,286.1 M245.1,293.3
					c-0.1-0.2-0.2-0.3-0.4-0.4C244.8,293,245,293.1,245.1,293.3L245.1,293.3 M245.3,293.3L245.3,293.3L245.3,293.3 M245.8,294
					c0-0.1-0.1-0.2-0.1-0.2C245.7,293.8,245.7,293.9,245.8,294L245.8,294 M246,294L246,294L246,294 M246.5,294.7
					c-0.1-0.2-0.2-0.3-0.4-0.4C246.3,294.4,246.4,294.5,246.5,294.7L246.5,294.7 M218.8,289l0.3-0.1L218.8,289l-2.5,1L218.8,289
					 M223.4,314.9c0-0.1,0-0.1-0.1-0.2C223.3,314.8,223.4,314.9,223.4,314.9 M247.1,295.5c0-0.1-0.1-0.2-0.1-0.3
					C247.1,295.3,247.1,295.4,247.1,295.5L247.1,295.5 M210.8,226.6c-12.8,0-25.6,0-38.5,0C185.2,226.6,198,226.6,210.8,226.6
					c12.9,0,25.9,0,38.8,0C236.7,226.6,223.8,226.6,210.8,226.6 M247.3,325c-0.5,0.9-1.2,1.7-1.9,2.3
					C246.1,326.7,246.8,325.9,247.3,325 M247.7,324.1c-0.1,0.3-0.2,0.5-0.4,0.8C247.5,324.6,247.6,324.4,247.7,324.1 M248.3,322
					c0.2,0,0.4-0.2,0.4-0.4C248.6,321.8,248.5,322,248.3,322L248.3,322 M251.8,315.9c2.3-5.8,1.4-12.4-2.3-17.5
					C253.3,303.5,254.1,310,251.8,315.9c-0.2,0.6-0.4,1.1-0.7,1.7C251.4,317,251.6,316.4,251.8,315.9 M265.3,140.9
					c0-0.1,0-0.2,0-0.3C265.3,140.7,265.3,140.8,265.3,140.9 M272.6,160c1.5,2.5,3,5.1,4.5,7.7C275.7,165.2,274.2,162.6,272.6,160
					 M281.3,174.7c0.1,0.3,0.1,0.6,0,0.9C281.4,175.3,281.4,175,281.3,174.7 M292.3,174.9c0-0.4,0.3-0.7,0.7-0.8
					C292.6,174.2,292.4,174.5,292.3,174.9 M292.3,175.2c0-0.1,0-0.2,0-0.3C292.3,175,292.3,175.1,292.3,175.2 M292,176.1
					c-0.2,0-0.5,0.1-0.7,0.2C291.5,176.2,291.7,176.1,292,176.1 M291.2,177.3L291.2,177.3c-0.1,0-0.2,0-0.3,0.1
					C291,177.4,291.1,177.3,291.2,177.3 M292.5,176L292.5,176l-0.2,0L292.5,176z M293.7,174.4c0-0.1-0.1-0.3-0.1-0.4l0.4-0.9l0,0
					l-0.4,0.9C293.6,174.2,293.6,174.3,293.7,174.4 M294.6,172.5L294.6,172.5l-0.2,0L294.6,172.5z M296.2,168.5
					c-0.8,0.9-1.3,2-1.5,3.2C294.8,170.5,295.4,169.4,296.2,168.5 M300.9,162.3L300.9,162.3L300.9,162.3c-0.6,0.5-1.2,1.1-1.7,1.7
					C299.7,163.4,300.2,162.8,300.9,162.3 M306.1,152.9l-0.5,0.9L306.1,152.9z M308.5,147.1c0.4-0.8,0.9-1.5,1.4-2.3
					C309.4,145.6,308.9,146.3,308.5,147.1 M265.2,140L265.2,140c-3.6,0.9-4,1.8-2.4,5l0,0C261.2,141.8,261.6,140.9,265.2,140
					 M281.5,176.4L281.5,176.4c0-0.1,0-0.2-0.1-0.2C281.5,176.2,281.5,176.3,281.5,176.4 M212.7,322c1.6,1.5,3.6,2.8,3.9,5.3l0,0
					C216.3,324.9,214.4,323.6,212.7,322 M215.3,327.5c0-0.4,0.1-0.7,0.5-0.6C215.4,326.8,215.3,327.1,215.3,327.5 M288.2,191.8
					c0.1-0.1,0.2-0.2,0.3-0.3c-2.3-0.9-4.8-1.2-7.1-2c2.3,0.9,4.8,1.1,7.1,2C288.3,191.7,288.2,191.8,288.2,191.8"/>
				<path id="Path_253840" class="st1" d="M34.5,248.3c-5.9-0.2-11.9-0.2-17.8,0c-4.6,0.2-6.7,3.2-6.5,8.6c0.3,3.6,3.4,6.3,7.1,6.1
					c2.7,0,5.4,0,8,0c3,0,6.1,0.1,9.1,0c4-0.1,7.2-3.5,7.1-7.5C41.4,251.6,38.3,248.5,34.5,248.3"/>
				<path id="Path_253841" class="st1" d="M78.9,307.8c-3.8-0.1-7.7-0.1-11.5,0c-2.9,0.2-5.4,2.1-6.3,4.8c-1.1,2.5-0.5,5.5,1.5,7.4
					c3.1,3.6,7.1,2.2,10.4,2.5c2.1,0,3.8,0,5.6,0c3.7,0.3,6.9-2.3,7.2-6c0-0.2,0-0.5,0-0.7C86.2,311.7,83.1,308.2,78.9,307.8
					C79,307.8,79,307.8,78.9,307.8"/>
				<path id="Path_253842" class="st1" d="M90,113.4c3.3,1.2,6.9,1.5,10.3,0.9c2.9-0.2,5.4-2.1,6.2-4.9c0.9-2.7,0.3-5.7-1.7-7.8
					c-2.3-2.6-5.4-1.7-7.8-1.9c-2,0-3.6-0.1-5.2,0c-3,0.3-5.4,2.6-5.9,5.6C85.3,109.5,86.7,112.1,90,113.4"/>
				<path id="Path_253843" class="st1" d="M97,337.7c-2.7-1.1-5.8-1-8.4,0.3c-3.3,1.9-5,5.7-4.1,9.4c0.6,2.5,4.5,5.2,8.5,5.2
					c1.4-0.2,3.8-0.4,6.2-0.8c2-0.4,4.9-5.4,4.5-7.5C102.9,339.7,101.8,339,97,337.7"/>
				<path id="Path_253844" class="st1" d="M483.1,218.6c-3.6-1.5-10.3-0.1-12.4,2.5c-2,2.1-2.5,5.2-1.2,7.8c1.7,2.9,4.5,5.4,8.3,4.7
					c6.2,0,9.7-2.4,10.2-6.6C488.6,223.3,486.5,219.8,483.1,218.6"/>
				<path id="Path_253845" class="st1" d="M330,85c3.4,0.3,6.7-1.7,8.1-4.8c1.3-4.1,0.7-6.7-2.3-9c-2.3-1.5-5-2-7.7-1.5
					c-6.9,0.4-9.8,6.5-5.9,12.2C324,84.3,327,85.5,330,85"/>
				<path id="Path_253846" class="st1" d="M40.8,203.4c5.8,0,9.3-2.6,9.3-7c0-4.6-3.4-7.5-8.4-7.7c-6.4-0.4-8.3,3.2-8.9,7.9
					C32.3,200.1,36.4,203.4,40.8,203.4"/>
			</g>
		</g>
	</g>
	<g id="Group_39068" transform="translate(-4698 -15505.979)">
		<g>
			<defs>
				<rect id="SVGID_00000113343323872081004030000000763627755793676474_" x="38.2" y="3" width="405.1" height="360.5"/>
			</defs>
			<clipPath id="SVGID_00000045597428537424878260000011327063264661074346_">
				<use xlink:href="#SVGID_00000113343323872081004030000000763627755793676474_"  style="overflow:visible;"/>
			</clipPath>
			<g id="Group_39065" style="clip-path:url(#SVGID_00000045597428537424878260000011327063264661074346_);">
				<path id="Path_254137" class="st3" d="M83,317V129.1c-0.5-10.3,6.7-19.4,16.8-21.4c1.6-0.3,3.2-0.4,4.8-0.4h270.7
					c12,0,20.4,6.8,22.2,17.8c0.2,1.2,0.2,2.3,0.2,3.5v188.4C292.9,317,187.9,317,83,317 M106,294.1h268.7V130.4H106L106,294.1z"/>
				<path id="Path_254138" class="st3" d="M38.2,329.1h149.3c1.8,8.3,5.5,11.2,14.1,11.2h77.9c8,0,12-3.4,13.5-11.2h149.1
					c0.4,4.5-0.5,8.9-2.4,12.9c-6.3,13.8-17.1,21.3-32.3,21.3c-44.1,0.2-88.1,0.1-132.2,0.1H73.6c-16.2,0.3-30.5-10.7-34.3-26.4
					C38.7,334.4,38.7,331.9,38.2,329.1"/>
				<path id="Path_254139" class="st4" d="M161.5,228.8c3.6,0,7.2,0.7,10.6,2c3.3,1.3,6.2,3.2,8.7,5.7c8,8.1,10.4,20.3,6,30.8
					c-1.4,3.3-3.4,6.2-6,8.7c-2.5,2.4-5.5,4.3-8.7,5.7c-3.4,1.3-7,2-10.6,2c-3.6,0-7.2-0.7-10.6-2c-3.3-1.3-6.2-3.2-8.7-5.7
					c-8-8.1-10.4-20.3-6-30.8c1.4-3.3,3.4-6.2,6-8.7c2.5-2.4,5.5-4.3,8.7-5.7C154.2,229.5,157.8,228.8,161.5,228.8 M161.5,239.1
					c-5.9-0.1-11.4,3.2-14.2,8.4c-2.8,5.5-2.8,12,0,17.5c1.3,2.5,3.4,4.7,5.8,6.1c2.5,1.5,5.5,2.3,8.4,2.3c3,0.1,5.9-0.7,8.4-2.3
					c2.4-1.5,4.5-3.6,5.8-6.1c1.4-2.7,2.1-5.7,2.1-8.7c0.1-3-0.7-6-2.1-8.7C172.9,242.3,167.4,239,161.5,239.1"/>
				<path id="Path_254140" class="st4" d="M223.4,228.8c3.6,0,7.2,0.7,10.6,2c3.3,1.3,6.2,3.2,8.7,5.7c8,8.1,10.4,20.3,6,30.8
					c-1.4,3.3-3.4,6.2-6,8.7c-2.5,2.4-5.5,4.3-8.7,5.7c-3.4,1.3-7,2-10.6,2c-3.6,0-7.2-0.7-10.6-2c-3.3-1.3-6.2-3.2-8.7-5.7
					c-8-8.1-10.4-20.3-6-30.8c1.4-3.3,3.4-6.2,6-8.7c2.5-2.4,5.5-4.3,8.7-5.7C216.2,229.5,219.8,228.8,223.4,228.8 M223.4,239.1
					c-5.9-0.1-11.4,3.2-14.2,8.4c-2.8,5.5-2.8,12,0,17.5c1.3,2.5,3.4,4.7,5.8,6.1c2.5,1.5,5.5,2.3,8.4,2.3c3,0.1,5.9-0.7,8.4-2.3
					c2.4-1.5,4.5-3.6,5.8-6.1c1.4-2.7,2.1-5.7,2.1-8.7c0.1-3-0.7-6-2.1-8.7C234.9,242.3,229.4,239,223.4,239.1"/>
				<path id="Path_254141" class="st4" d="M283.4,230c2.4,0,4.9,0.4,7.2,1.2c2.3,0.8,4.5,2.1,6.4,3.7c1.9,1.6,3.4,3.6,4.5,5.8
					c2.6,5.5,2.2,12-1,17.2c-1.8,2.8-4.3,5-7.2,6.5c-3,1.6-6.3,2.4-9.7,2.3c-2.1,0-4.2-0.2-6.3-0.7c-1.6-0.4-3.2-0.9-4.7-1.6v18
					h-10.9V230H283.4z M272.6,240.2v15.5c1.4,0.6,2.8,1,4.2,1.2c1.7,0.3,3.3,0.5,5,0.5c2.7,0.1,5.4-0.8,7.4-2.6
					c1.8-1.6,2.8-3.8,2.7-6.2c0.1-2.5-1.1-4.9-3.2-6.2c-2.2-1.4-4.8-2.1-7.4-2.1L272.6,240.2L272.6,240.2z"/>
				<path id="Path_254142" class="st4" d="M328.5,229c2.8,0,5.6,0.4,8.3,1.2c2.2,0.7,4.3,1.7,6.3,2.9v10.8c-1.9-1.1-3.9-2.2-6.1-3.2
					c-2.3-1-4.8-1.5-7.3-1.5c-1.4,0-2.7,0.2-4,0.6c-1.2,0.4-2.4,1-3.3,1.9c-1.8,1.8-1.7,4.7,0.1,6.4c0.3,0.3,0.6,0.5,0.9,0.7
					c1.8,1,3.7,1.9,5.6,2.7l6.4,2.7c3.1,1.2,5.9,3.2,8.1,5.7c1.7,2.2,2.6,4.9,2.6,7.7c0.1,3-0.9,5.9-2.7,8.2
					c-1.9,2.4-4.4,4.3-7.2,5.6c-3.1,1.4-6.5,2.1-9.9,2c-3,0-6-0.5-8.8-1.5c-2.6-1-5.1-2.2-7.4-3.8v-10.8c2.3,1.7,4.9,3.1,7.6,4.2
					c2.8,1.1,5.8,1.7,8.8,1.7c2,0.1,3.9-0.4,5.7-1.3c1.5-0.7,2.4-2.2,2.3-3.9c0-1.4-0.7-2.6-1.9-3.3c-1.3-0.9-2.7-1.6-4.2-2.2
					l-8.1-3.2c-3.4-1-6.3-3.2-8.2-6.1c-1.5-2.6-2.2-5.5-2.2-8.4c0-3,0.9-5.9,2.6-8.3c1.8-2.4,4.2-4.3,6.9-5.6
					C322.2,229.6,325.4,229,328.5,229"/>
				<path id="Path_254143" class="st4" d="M333.2,187.1l-27.9,29.8l69.7-29.8"/>
				<path id="Path_254144" class="st4" d="M336.1,199.3c-26.4,0-52.8,0.1-79.2,0c-24.5-0.1-33.2-14.6-21.3-35.9
					c27.1-48.5,54.2-97,81.4-145.5c0.2-0.3,0.4-0.6,0.6-1c10.9-18.5,27.7-18.8,38.3-0.1c23.2,40.8,45.9,81.8,68.9,122.7
					c4.6,8.2,9.2,16.4,13.8,24.7c2.9,4.6,4.5,9.9,4.8,15.3c0.1,11.1-8.6,19.5-21.3,19.6c-22.2,0.3-44.3,0.2-66.5,0.2
					C349.2,199.3,342.6,199.3,336.1,199.3"/>
				<path id="Path_254145" class="st5" d="M336.8,188.8c-14.9,0-25.2-9.4-25.2-21.9c0-13,10.4-22.2,25.6-22.2
					c15.1,0,25,9.1,25.2,22.2c0,12.5-9.9,21.9-25.2,21.9H336.8z M320.4,137.1l-6.5-94H360l-6.4,94H320.4z"/>
			</g>
		</g>
	</g>
</g>
</svg>
