<?xml version="1.0" encoding="utf-8"?>
<!-- Generator: Adobe Illustrator 27.5.0, SVG Export Plug-In . SVG Version: 6.00 Build 0)  -->
<svg version="1.1" id="Layer_1" xmlns="http://www.w3.org/2000/svg" xmlns:xlink="http://www.w3.org/1999/xlink" x="0px" y="0px"
	 viewBox="0 0 225.3 184.9" style="enable-background:new 0 0 225.3 184.9;" xml:space="preserve">
<style type="text/css">
	.st0{clip-path:url(#SVGID_00000057125771350928877430000015776510877768096659_);}
	.st1{fill:#F1F4F7;}
	.st2{fill:#FFFFFF;}
	.st3{fill:#6D778D;}
	.st4{fill:#10123A;}
	.st5{fill:#F15A22;}
	.st6{font-family:'Inter-ExtraBold';}
	.st7{font-size:46px;}
</style>
<g id="Group_39646" transform="translate(14428 19231.883)">
	<g id="Group_39645" transform="translate(-14428 -19222.4)">
		<g id="Group_39595" transform="translate(0 0)">
			<g id="Group_39171" transform="translate(0 0)">
				<g id="Group_37568">
					<g>
						<defs>
							<rect id="SVGID_1_" y="0" width="225.3" height="175.4"/>
						</defs>
						<clipPath id="SVGID_00000057120456055788963280000005051126648561238172_">
							<use xlink:href="#SVGID_1_"  style="overflow:visible;"/>
						</clipPath>
						<g id="Group_37567" style="clip-path:url(#SVGID_00000057120456055788963280000005051126648561238172_);">
							<path id="Path_253839" class="st1" d="M214.4,98.1c-5.4,0-10.8,0-16.2,0c-1.9,0-3.7-1-3.9-2.1c-0.5-3,0.9-4.9,3.7-4.8
								c4.2,0,8.4,0.4,12.5-0.3c1.4-0.4,2.4-1.6,2.5-3c0.1-1.5-0.9-3.3-2.2-3.5c-1-0.2-1.9-0.4-2.9-0.4c-4.7,0-9.4,0-14,0
								c-2.6,0-4-1.2-4-3.3c0-2.2,1.5-3.6,4-3.6c5.1,0,10.1,0,15.2,0c2.5,0,3.6-1.2,3.6-3.7c0-2.2-1.3-3.3-3.6-3.3
								c-7.5,0-15.1,0-22.6,0c-2,0.1-3.7-1.5-3.8-3.5c0-0.1,0-0.2,0-0.3c0-1.9,1.4-3.1,3.7-3.1c3.5,0,7,0,10.6,0
								c2.1,0,3.6-1,3.9-2.4c0.6-3-0.6-4.5-3.7-4.5c-6.3,0-12.6,0-18.8,0c-1.2,0-2.3-0.1-3.4-0.3c-1.4-0.3-2.3-1.5-2.4-2.9
								c-0.1-2.6,1.3-4,4-4.1c4.7,0,9.4,0,14,0c0.9,0.1,1.8-0.2,2.4-0.8c1-1.1,1.8-2.3,1-3.9c-0.5-1.4-1.9-2.4-3.5-2.3
								c-10.7,0-21.5,0-32.2,0c-2.5,0-3.7-1.2-3.7-3.6c0-2.2,1.2-3.3,3.7-3.3c4.1,0,8.3,0.1,12.4,0c1.4,0,3.1,0,3.9-1.5
								c1.1-1.8,0.6-4.1-1.2-5.2c-0.6-0.4-1.4-0.6-2.2-0.6c-11.1,0-22.2,0-33.4,0c-0.8,0.1-1.6,0-2.2-0.5c-1.1-1-1.9-2.1-1.4-3.7
								c0.5-1.6,1.9-2.7,3.5-2.7c1-0.1,2.1,0.1,3.1,0c2-0.2,3.1-1.7,3-4c-0.1-1.5-2-3.3-3.5-3.1c-3.8,0.4-7.6,0.1-11.4,0.2
								c-1.5,0.1-2.8-0.9-3.2-2.3c-0.7-2.7,0.8-4.6,3.5-4.6c1.9-0.1,3.4-1.7,3.4-3.6c0,0,0,0,0-0.1c0.1-1.7-1.1-3.1-2.8-3.3
								c-0.2,0-0.3,0-0.5,0c-7.2,0-14.3,0-21.5,0c-1.8,0-3.7,1.5-3.6,3.1c0.1,1.6,1.1,4,3.7,3.8c2.3-0.1,4.6,0,6.9,0
								c1.2-0.1,2.3,0.4,3,1.4c0.8,1.2,0.8,2.7,0.1,3.9c-0.7,1.2-2,1.8-3.3,1.6c-15,0-30.1,0-45.1,0c-0.4,0-0.9,0-1.3,0
								c-2,0.1-3.6,1.7-3.6,3.8c0,1.7,1.6,3.1,3.7,3.2c1.3,0,2.5,0,3.8,0c2.4,0,4,1.5,4,3.5c0,2.4-1.5,3.7-4,3.7
								c-6.2,0-12.4,0-18.7,0c-2.4,0-3.7,1-3.7,3c-0.1,2.5,1.2,3.9,3.7,4c1,0,2,0,3,0c1.8,0.1,3.3,1.4,3.5,3.2
								c0.1,1.9-1.4,3.6-3.3,3.7c-0.1,0-0.2,0-0.2,0c-4.3,0-8.7,0-13,0c-2.1,0-3.6,1.8-3.5,4.1c0.1,1.3,2,2.8,3.5,2.8
								c2.9,0,5.7,0,8.6,0c2.6,0,4.2,1.4,4.3,3.5c0.1,1.8-1.7,3.5-4.1,3.7c-1,0.1-2,0-3,0c-5.8,0-11.7,0-17.5,0
								c-1.5-0.2-2.9,0.7-3.4,2.1c-0.5,1.5,0,3.2,1.3,4.1c1,0.6,2.2,0.8,3.3,0.7c3.5,0,6.9,0,10.4,0c2.4,0,3.6,1.2,3.6,3.3
								c0.1,1.9-1.4,3.6-3.3,3.7c-0.1,0-0.3,0-0.4,0c-2.4,0-4.8,0-7.3,0c-3.7,0-7.5,0-11.2,0c-1.9,0-3.5,1.6-3.5,3.6c0,0,0,0,0,0
								c-0.1,1.8,1.3,3.3,3,3.3c0.1,0,0.3,0,0.4,0c1.2,0,2.4-0.1,3.6,0c2.6,0.2,3.9,2.3,3.3,4.8c-0.5,2-2,2.1-3.5,2.1
								c-5.7,0-11.5,0-17.2,0c-3,0-4.7,2.5-3.5,5.2c0.7,1.6,2.1,2.1,3.8,2.1c8.8,0,17.6,0,26.4,0c0.5-0.1,1.1,0,1.6,0.2
								c1.4,0.9,2.1,2.6,1.6,4.1c-0.4,1.7-2,2.8-3.7,2.6c-5.1,0-10.2,0-15.4,0c-0.6-0.1-1.2,0-1.7,0.3c-1.1,1.1-1.6,2.7-1.2,4.2
								c0.4,1.5,1.9,2.5,3.5,2.4c3.6,0,7.3,0,10.9,0c2.4,0,3.5,1.1,3.5,3.5c0,2.6-0.9,3.4-3.5,3.4c-5.1,0-10.1,0-15.2,0
								c-1.7,0-3.2,1.1-3.6,2.8c-0.5,1.9,0.7,3.8,2.6,4.3c0.6,0.1,1.2,0.2,1.8,0.1c11.3,0,22.7,0,34,0c2.8,0,4.2,2.6,3,5.1
								c-0.8,1.7-2.3,1.8-3.8,1.8c-2.2,0.1-4.4,0-6.6,0c-1.7-0.1-3.1,1.2-3.1,2.9c0,0.1,0,0.2,0,0.4c0,2.3,1.1,3.7,3,3.7
								c6.6,0,13.1-0.2,19.6,0.1c2,0.1,3.8,0.6,5.8-0.3c1.3-0.5,3.6,2.2,3.5,3.8c-0.1,1.9-1.7,3.5-3.7,3.4c-6.3,0-12.6,0-18.8,0
								c-3,0-4.8,2.5-3.6,5.1c0.7,1.4,2.2,2.3,3.8,2.1c8.5,0,17.1,0,25.6,0c1.9-0.1,3.5,1.4,3.6,3.3c0,0,0,0,0,0
								c0,2-1.7,3.6-3.7,3.7c-2.4,0-4.8,0-7.3,0c-1.4,0-2.7,0.4-3.3,2c-1,2.8,0.6,5,3.5,5c7.5,0,15.1,0,22.6,0c2.1,0,3.7,1.2,3.9,3
								c0.2,2-0.8,3.4-3.1,3.9c-0.9,0.1-1.7,0.3-2.5,0.8c-1.2,0.9-1.7,2.6-1.1,4c0.6,1.6,2.2,2.6,3.9,2.5c8.6,0,17.2,0,25.8,0
								c1.4,0.1,2.7-0.2,4-0.6c1.2-0.5,1.9-2.9,1.5-4.3c-0.7-1.4-2.1-2.3-3.6-2.4c-4.3,0-8.6,0-12.9,0c-2.4,0-3.6-1.1-3.7-3.2
								c0-2.5,1.1-3.7,3.7-3.7c19.7,0,39.4,0,59.1,0c0.6,0,1.2,0,1.8-0.1c1.6-0.6,2.6-2.2,2.4-3.9c-0.2-1.8-1.8-3.1-3.6-2.9
								c-9.5,0-19,0-28.6,0c-2.2,0-3.3-1.1-3.5-3.3c-7.4,0-14.7,0-22.1-0.1c7.4,0,14.7,0,22.1,0.1c3.8,0,7.7,0,11.5-0.1
								c2.9,0,4.6-1.3,5.1-3.6l0.2-0.3l0.1-0.1c12.4,0,24.9,0,37.3,0c0.6,0,1.2-0.1,1.7-0.5c1.5-1.3,1.7-3.6,0.5-5.1
								c-0.7-0.8-1.7-1.3-2.8-1.3c-7.4,0-14.8,0-22.1,0c-2.2,0-4-1.4-4-3.2c0-2,1.6-3.7,3.6-3.7c0.1,0,0.2,0,0.3,0
								c5.4,0,10.9,0,16.4,0c0.6,0,1.2-0.1,1.8-0.1c1.8-0.1,3-2.2,2.7-4c-0.5-1.5-1.8-2.6-3.4-2.8c-2.6,0-5.2,0-7.8,0
								c-2.5,0-3.7-1.2-3.7-3.5c0-2.6,0.9-3.4,3.7-3.4c5.5,0,11,0,16.5,0c1.4,0.1,2.8-0.1,4.1-0.7c1.3-0.8,1.8-2.4,1.3-3.8
								c-0.4-1.6-1.8-2.8-3.5-2.7c-3.2,0-6.5,0-9.7,0c-1.5,0-2.9-1-3.3-2.5c-0.5-1.4,0.1-3,1.4-3.8c0.8-0.5,1.8-0.8,2.8-0.7
								c8.9,0,17.7,0,26.6,0c1.9,0.2,3.6-1.2,3.8-3.1c0-0.2,0-0.4,0-0.6C217.8,99.4,216.2,98.1,214.4,98.1 M104,73.6L104,73.6
								c-0.4,0.4-1.3-0.4-1.5,0.2C102.7,73.2,103.7,74,104,73.6 M103.7,73.2c-0.1-0.2-0.1-0.4,0-0.6C103.6,72.8,103.6,73,103.7,73.2
								 M96.3,63.3c1.1-0.2,2.1-0.5,3.1-0.9C98.4,62.9,97.4,63.2,96.3,63.3 M94.6,76.6c6.1,0,12.2,0,18.3,0
								C106.9,76.6,100.8,76.6,94.6,76.6c-6,0-12,0-18,0C82.7,76.7,88.7,76.7,94.6,76.6 M100,116.3c0.1,0,0.3,0,0.4,0
								C100.2,116.3,100.1,116.3,100,116.3 M101,130.4C101,130.4,101,130.4,101,130.4C101,130.4,101,130.4,101,130.4 M105.4,130.4
								c0,0-0.1,0-0.1,0C105.3,130.4,105.4,130.4,105.4,130.4 M105.5,130.4C105.5,130.4,105.5,130.4,105.5,130.4
								C105.5,130.4,105.5,130.4,105.5,130.4 M105.8,129.7c0,0-0.1,0-0.1,0C105.7,129.8,105.7,129.7,105.8,129.7 M106.1,129.4
								C106.1,129.4,106,129.5,106.1,129.4C106,129.5,106.1,129.4,106.1,129.4 M106.6,128.8c0,0,0,0.1,0,0.1
								C106.6,128.8,106.6,128.8,106.6,128.8 M106.7,128.7C106.7,128.7,106.7,128.7,106.7,128.7
								C106.7,128.7,106.7,128.7,106.7,128.7 M107,128.6L107,128.6L107,128.6 M107,128.1C107,128.1,107,128.1,107,128.1
								C107,128.1,107,128.1,107,128.1 M107.2,124.7c0.5,0.7,0.6,1.6,0.3,2.4C107.8,126.3,107.7,125.4,107.2,124.7 M104.3,116
								c1.8,0,3.5,0.7,4.9,1.8C107.8,116.7,106.1,116,104.3,116 M110.8,119.3c0-0.1-0.1-0.1-0.2-0.2
								C110.7,119.2,110.7,119.3,110.8,119.3L110.8,119.3 M110.9,119.4L110.9,119.4L110.9,119.4 M111.1,119.7
								C111.1,119.6,111.1,119.6,111.1,119.7C111.1,119.6,111.1,119.6,111.1,119.7L111.1,119.7 M111.2,119.7L111.2,119.7
								L111.2,119.7 M111.4,120c0-0.1-0.1-0.1-0.2-0.2C111.3,119.9,111.4,119.9,111.4,120L111.4,120 M98.4,117.3l0.1-0.1L98.4,117.3
								l-1.2,0.5L98.4,117.3 M100.5,129.6C100.5,129.5,100.5,129.5,100.5,129.6C100.5,129.5,100.5,129.5,100.5,129.6 M111.7,120.4
								c0,0,0-0.1-0.1-0.1C111.7,120.3,111.7,120.3,111.7,120.4L111.7,120.4 M94.6,87.9c-6,0-12.1,0-18.1,0
								C82.5,87.9,88.6,87.9,94.6,87.9c6.1,0,12.2,0,18.3,0C106.8,87.9,100.7,87.9,94.6,87.9 M111.8,134.3c-0.2,0.4-0.5,0.8-0.9,1.1
								C111.3,135.1,111.6,134.7,111.8,134.3 M112,133.9c-0.1,0.1-0.1,0.2-0.2,0.4C111.9,134.1,112,134,112,133.9 M112.3,132.9
								c0.1,0,0.2-0.1,0.2-0.2C112.5,132.8,112.4,132.9,112.3,132.9L112.3,132.9 M114,130c1.1-2.8,0.7-5.9-1.1-8.2
								C114.6,124.1,115,127.3,114,130c-0.1,0.3-0.2,0.5-0.3,0.8C113.8,130.5,113.9,130.3,114,130 M120.3,47.5c0,0,0-0.1,0-0.1
								C120.3,47.4,120.3,47.5,120.3,47.5 M123.8,56.5c0.7,1.2,1.4,2.4,2.1,3.6C125.2,58.9,124.5,57.7,123.8,56.5 M127.9,63.4
								c0,0.1,0,0.3,0,0.4C127.9,63.7,127.9,63.6,127.9,63.4 M133.1,63.5c0-0.2,0.2-0.3,0.3-0.4C133.2,63.2,133.1,63.4,133.1,63.5
								 M133.1,63.7c0,0,0-0.1,0-0.1C133.1,63.6,133.1,63.6,133.1,63.7 M132.9,64.1c-0.1,0-0.2,0-0.3,0.1
								C132.7,64.1,132.8,64.1,132.9,64.1 M132.5,64.7L132.5,64.7c-0.1,0-0.1,0-0.1,0.1C132.4,64.7,132.5,64.7,132.5,64.7 M133.2,64
								L133.2,64L133.2,64L133.2,64z M133.7,63.3c0-0.1,0-0.1-0.1-0.2l0.2-0.4l0,0l-0.2,0.4C133.7,63.2,133.7,63.2,133.7,63.3
								 M134.2,62.4L134.2,62.4l-0.1,0L134.2,62.4z M134.9,60.5c-0.4,0.4-0.6,0.9-0.7,1.5C134.3,61.4,134.5,60.9,134.9,60.5
								 M137.1,57.6L137.1,57.6L137.1,57.6c-0.3,0.2-0.6,0.5-0.8,0.8C136.5,58.1,136.8,57.8,137.1,57.6 M139.5,53.1l-0.3,0.4
								L139.5,53.1z M140.7,50.4c0.2-0.4,0.4-0.7,0.7-1.1C141.1,49.7,140.9,50.1,140.7,50.4 M120.3,47.1L120.3,47.1
								c-1.7,0.4-1.9,0.9-1.1,2.3l0,0C118.4,47.9,118.6,47.5,120.3,47.1 M128,64.2L128,64.2c0,0,0-0.1,0-0.1
								C127.9,64.1,128,64.2,128,64.2 M95.5,132.9c0.8,0.7,1.7,1.3,1.8,2.5l0,0C97.2,134.2,96.3,133.6,95.5,132.9 M96.7,135.5
								c0-0.2,0.1-0.3,0.2-0.3C96.8,135.2,96.7,135.3,96.7,135.5 M131.1,71.5c0,0,0.1-0.1,0.1-0.1c-1.1-0.4-2.2-0.5-3.4-0.9
								c1.1,0.4,2.3,0.5,3.4,0.9C131.2,71.4,131.1,71.5,131.1,71.5"/>
							<path id="Path_253840" class="st1" d="M11.5,98.2c-2.8-0.1-5.6-0.1-8.4,0c-2.2,0.1-3.1,1.5-3.1,4c0.1,1.7,1.6,3,3.3,2.9
								c1.3,0,2.5,0,3.8,0c1.4,0,2.9,0.1,4.3,0c1.9,0,3.4-1.6,3.4-3.5C14.7,99.7,13.3,98.2,11.5,98.2"/>
							<path id="Path_253841" class="st1" d="M32.4,126.2c-1.8-0.1-3.6-0.1-5.4,0c-1.4,0.1-2.5,1-3,2.3c-0.5,1.2-0.2,2.6,0.7,3.5
								c1.4,1.7,3.3,1,4.9,1.2c1,0,1.8,0,2.6,0c1.7,0.2,3.2-1.1,3.4-2.8c0-0.1,0-0.2,0-0.3C35.8,128.1,34.4,126.4,32.4,126.2
								C32.5,126.2,32.4,126.2,32.4,126.2"/>
							<path id="Path_253842" class="st1" d="M37.7,34.5c1.6,0.5,3.2,0.7,4.9,0.4c1.4-0.1,2.5-1,2.9-2.3c0.4-1.3,0.1-2.7-0.8-3.7
								c-1.1-1.2-2.5-0.8-3.7-0.9c-0.9,0-1.7,0-2.5,0c-1.4,0.1-2.6,1.2-2.8,2.6C35.4,32.7,36.1,33.9,37.7,34.5"/>
							<path id="Path_253843" class="st1" d="M41,140.3c-1.3-0.5-2.7-0.5-4,0.1c-1.6,0.9-2.4,2.7-1.9,4.5c0.3,1.2,2.1,2.4,4,2.4
								c0.7-0.1,1.8-0.2,2.9-0.4c0.9-0.2,2.3-2.6,2.1-3.5C43.7,141.3,43.2,140.9,41,140.3"/>
							<path id="Path_253844" class="st1" d="M223,84.1c-1.7-0.7-4.8,0-5.8,1.2c-1,1-1.2,2.4-0.6,3.7c0.8,1.4,2.1,2.6,3.9,2.2
								c2.9,0,4.6-1.1,4.8-3.1C225.6,86.4,224.6,84.7,223,84.1"/>
							<path id="Path_253845" class="st1" d="M150.8,21.2c1.6,0.1,3.1-0.8,3.8-2.3c0.6-2,0.3-3.2-1.1-4.3c-1.1-0.7-2.4-1-3.6-0.7
								c-3.2,0.2-4.6,3.1-2.8,5.7C148,20.8,149.4,21.4,150.8,21.2"/>
							<path id="Path_253846" class="st1" d="M14.4,77c2.7,0,4.4-1.2,4.4-3.3c0-2.2-1.6-3.5-4-3.7c-3-0.2-3.9,1.5-4.2,3.7
								C10.4,75.4,12.4,77,14.4,77"/>
						</g>
					</g>
				</g>
			</g>
		</g>
	</g>
	<g transform="matrix(1, 0, 0, 1, -14428, -19231.88)">
		<g id="Path_254180-2" transform="translate(71.27 28.1)">
			<path class="st2" d="M86.3,124.9H13.4c-3.2,0-6.2-1.2-8.4-3.5c-2.2-2.2-3.5-5.2-3.5-8.4V13.4C1.5,10.2,2.7,7.2,5,5
				c2.2-2.2,5.2-3.5,8.4-3.5h56.3c7.6,8.3,9.5,10.7,11.6,13.3c2.4,3,5.1,6.4,16.9,19.3v79c0,3.2-1.2,6.2-3.5,8.4
				C92.4,123.7,89.4,124.9,86.3,124.9z"/>
			<path class="st3" d="M13.4,3C7.7,3,3,7.7,3,13.4V113c0,5.7,4.7,10.4,10.4,10.4h72.9c5.7,0,10.4-4.7,10.4-10.4V34.6
				C85.1,22,82.4,18.7,80.1,15.7c-2-2.5-3.9-4.9-11.1-12.7H13.4 M13.4,0h56.9c17.1,18.6,6.6,8.6,29.3,33.5V113
				c0,7.4-6,13.4-13.4,13.4H13.4C6,126.4,0,120.4,0,113V13.4C0,6,6,0,13.4,0z"/>
		</g>
	</g>
	<path id="zoom_in_FILL0_wght700_GRAD0_opsz48" class="st4" d="M-14245.5-19056.7l-39.4-39.2c-3,2.3-6.4,4.1-10,5.3
		c-4,1.3-8.3,1.9-12.5,1.9c-10.7,0.2-21.1-4-28.6-11.7c-7.6-7.4-11.9-17.6-11.7-28.3c-0.2-10.6,4.1-20.9,11.7-28.3
		c7.4-7.7,17.7-11.9,28.3-11.7c10.6-0.2,20.9,4.1,28.3,11.7c7.6,7.4,11.8,17.7,11.6,28.3c0,4.1-0.6,8.3-1.8,12.2
		c-1.2,3.8-3.1,7.4-5.5,10.6l39.5,39.2L-14245.5-19056.7z M-14307.5-19102.6c7,0.1,13.7-2.6,18.5-7.7c4.9-4.9,7.7-11.6,7.5-18.6
		c0.1-7-2.6-13.7-7.5-18.6c-4.8-5-11.5-7.8-18.5-7.7c-7-0.1-13.8,2.6-18.7,7.7c-5,4.9-7.8,11.6-7.7,18.6c-0.1,7,2.7,13.7,7.7,18.6
		C-14321.4-19105.2-14314.6-19102.4-14307.5-19102.6L-14307.5-19102.6z"/>
	<text transform="matrix(1 0 0 1 -14320.7871 -19112)" class="st5 st6 st7">?</text>
	<path id="Rectangle_5167" class="st3" d="M-14384.5-19195h23c0.8,0,1.5,0.7,1.5,1.5l0,0c0,0.8-0.7,1.5-1.5,1.5h-23
		c-0.8,0-1.5-0.7-1.5-1.5l0,0C-14386-19194.3-14385.3-19195-14384.5-19195z"/>
	<path id="Rectangle_5168" class="st3" d="M-14351.2-19230.2v22.4c0,1-0.8,1.7-1.7,1.7h0c-1,0-1.7-0.8-1.7-1.7v-22.4
		c0-1,0.8-1.7,1.7-1.7h0C-14351.9-19231.9-14351.2-19231.1-14351.2-19230.2z"/>
	<path id="Rectangle_5169" class="st3" d="M-14373.8-19219.8l15.9,15.9c0.7,0.7,0.7,1.8,0,2.4l0,0c-0.7,0.7-1.8,0.7-2.4,0
		l-15.9-15.9c-0.7-0.7-0.7-1.8,0-2.4l0,0C-14375.6-19220.5-14374.5-19220.5-14373.8-19219.8z"/>
</g>
</svg>
