<?xml version="1.0" encoding="utf-8"?>
<!-- Generator: Adobe Illustrator 26.5.0, SVG Export Plug-In . SVG Version: 6.00 Build 0)  -->
<svg version="1.1" id="Layer_1" xmlns="http://www.w3.org/2000/svg" xmlns:xlink="http://www.w3.org/1999/xlink" x="0px" y="0px"
	 viewBox="0 0 48.7 48.8" style="enable-background:new 0 0 48.7 48.8;" xml:space="preserve">
<style type="text/css">
	.st0{fill:#F7A8AA;}
</style>
<g id="total-due" transform="translate(-1.291 -1.291)">
	<path id="Path_253361" class="st0" d="M26.9,27.4V17.2c0-0.7-0.6-1.2-1.2-1.2s-1.2,0.6-1.2,1.2v10.2c0,0.7,0.6,1.2,1.2,1.2
		S26.9,28,26.9,27.4z"/>
	<path id="Path_253362" class="st0" d="M25,26.3l-6.8,3.9c-0.6,0.3-0.8,1.1-0.5,1.7c0.3,0.6,1.1,0.8,1.7,0.5l6.8-3.9
		c0.6-0.3,0.8-1.1,0.5-1.7S25.6,25.9,25,26.3z"/>
	<path id="Path_253363" class="st0" d="M32.7,24.7c-2.8,5.5-7.5,14.9-10,20c-0.9,1.8-0.2,4.1,1.7,5c0.5,0.3,1.1,0.4,1.7,0.4h20
		c2.1,0,3.7-1.7,3.7-3.7c0-0.6-0.1-1.1-0.4-1.7c-2.6-5.1-7.2-14.5-10-20c-0.9-1.8-3.2-2.6-5-1.7C33.6,23.4,33.1,24,32.7,24.7
		L32.7,24.7z M34.9,25.8c0.3-0.6,1.1-0.9,1.7-0.6c0.2,0.1,0.4,0.3,0.6,0.6c2.8,5.5,7.5,14.9,10,20c0.3,0.6,0.1,1.4-0.6,1.7
		c-0.2,0.1-0.4,0.1-0.6,0.1H26c-0.7,0-1.2-0.6-1.2-1.2c0-0.2,0-0.4,0.1-0.6L34.9,25.8z"/>
	<path id="Path_253364" class="st0" d="M25.4,50c0.7,0,1.2-0.5,1.3-1.2c0-0.6-0.4-1.1-1-1.2c-0.3-0.1-0.6-0.3-0.8-0.6
		c-0.2-0.4-0.2-0.8-0.1-1.2l1-2c0.3-0.6,0.1-1.4-0.5-1.7C25.2,42.1,25,42,24.8,42c-9-0.5-16-8.1-15.5-17.2s8.1-16,17.2-15.5
		s16,8.1,15.5,17.2c-0.1,1.9-0.5,3.8-1.3,5.6c-0.1,0.3-0.1,0.7,0,1l3,6c0.3,0.6,1.1,0.9,1.7,0.6c0.2-0.1,0.4-0.2,0.5-0.4
		c7.5-11.2,4.5-26.3-6.7-33.8S12.9,0.9,5.4,12.1s-4.5,26.3,6.7,33.8C16.1,48.5,20.7,50,25.4,50z M22.4,47.3
		C10.5,45.5,2.2,34.4,4,22.4S17,2.2,28.9,4S49.1,17,47.3,28.9c-0.4,2.5-1.2,4.8-2.3,7l-1.7-3.4c3.8-9.7-1.1-20.7-10.8-24.4
		S11.8,9.1,8.1,18.8s1.1,20.7,10.8,24.4c1.3,0.5,2.7,0.9,4,1.1l-0.2,0.4C22.3,45.5,22.2,46.4,22.4,47.3L22.4,47.3z"/>
	<path id="Path_253365" class="st0" d="M34.7,32.2v8.3c0,0.7,0.6,1.2,1.2,1.2c0.7,0,1.2-0.6,1.2-1.2c0,0,0,0,0,0v-8.3
		c0-0.7-0.6-1.2-1.2-1.2C35.2,30.9,34.7,31.5,34.7,32.2C34.7,32.2,34.7,32.2,34.7,32.2z"/>
	<circle id="Ellipse_4" class="st0" cx="35.9" cy="44.2" r="1.2"/>
</g>
<g>
</g>
<g>
</g>
<g>
</g>
<g>
</g>
<g>
</g>
<g>
</g>
</svg>
