<svg width="25" height="18" viewBox="0 0 25 18" fill="none" xmlns="http://www.w3.org/2000/svg">
<path d="M7.39428 12.8107C5.9909 9.06984 6.61669 5.75804 9.37262 2.81389C9.21917 2.81389 9.11792 2.81395 9.01666 2.81389C7.75744 2.81334 6.49816 2.81096 5.23889 2.81401C4.99511 2.81462 4.77014 2.74379 4.69201 2.51558C4.63635 2.35301 4.64898 2.13316 4.71337 1.9716C4.80523 1.74083 5.04187 1.70473 5.27893 1.70512C7.05163 1.70821 8.82421 1.70976 10.5969 1.70146C10.7526 1.70079 10.926 1.65801 11.0608 1.58122C16.3145 -1.41176 22.8728 1.54021 24.1074 7.45836C25.1388 12.4019 21.6876 17.2928 16.6558 17.9175C13.1147 18.357 10.2938 17.0361 8.20141 14.1566C8.07092 13.9771 7.9436 13.9115 7.72668 13.9127C6.18652 13.9216 4.64624 13.9239 3.10626 13.909C2.92114 13.9072 2.66998 13.8402 2.57104 13.7106C2.46466 13.5712 2.44299 13.3068 2.49108 13.1252C2.55139 12.8974 2.77703 12.8095 3.02526 12.8102C4.21679 12.8136 5.4082 12.8111 6.59961 12.8108C6.85754 12.8107 7.11535 12.8107 7.39428 12.8107ZM23.1143 9.23079C23.1926 5.16972 19.7982 1.6812 15.7174 1.5659C11.4451 1.44524 7.9331 4.82311 7.84045 8.97527C7.74523 13.2438 11.052 16.7512 15.2295 16.8367C19.5983 16.9261 23.0297 13.6161 23.1143 9.23079Z" fill="#10123A"/>
<path d="M9.28691 16.0712C9.87681 16.0714 10.4668 16.0688 11.0567 16.0724C11.4394 16.0747 11.6952 16.3073 11.6897 16.6372C11.6842 16.9621 11.449 17.1752 11.0647 17.1769C9.88487 17.1824 8.705 17.1827 7.52513 17.1793C7.13389 17.1782 6.88206 16.9464 6.89085 16.6167C6.89951 16.2918 7.1583 16.0734 7.54612 16.0716C8.12632 16.0691 8.70664 16.071 9.28691 16.0712Z" fill="#10123A"/>
<path d="M3.64908 5.32969C4.1326 5.33005 4.61612 5.32651 5.09964 5.33118C5.49259 5.33503 5.74003 5.55137 5.74698 5.88437C5.75382 6.21354 5.5026 6.44999 5.11441 6.45224C4.13773 6.45783 3.16092 6.45835 2.1843 6.45069C1.78373 6.44755 1.55143 6.22544 1.55472 5.88419C1.55802 5.54984 1.80423 5.33368 2.19852 5.3303C2.68204 5.32605 3.16556 5.32926 3.64908 5.32969Z" fill="#10123A"/>
<path d="M4.48784 9.20484C4.8355 9.2049 5.18327 9.20014 5.53081 9.20624C5.89122 9.2125 6.132 9.44959 6.12389 9.77725C6.11607 10.0883 5.87901 10.3071 5.52318 10.3099C4.81822 10.3154 4.11314 10.3159 3.40831 10.3092C3.06114 10.306 2.81651 10.0751 2.81065 9.77008C2.80455 9.45258 3.05882 9.211 3.41588 9.20593C3.77312 9.20081 4.13054 9.20477 4.48784 9.20484Z" fill="#10123A"/>
<path d="M5.76708 9.20484C6.11479 9.2049 6.46251 9.20014 6.81011 9.20624C7.17052 9.2125 7.4113 9.44959 7.40312 9.77725C7.39537 10.0883 7.15831 10.3071 6.80248 10.3099C6.09752 10.3154 5.39244 10.3159 4.68749 10.3092C4.34044 10.306 4.09581 10.0751 4.08995 9.77008C4.08385 9.45258 4.33812 9.211 4.69518 9.20593C5.05241 9.20081 5.40978 9.20477 5.76708 9.20484Z" fill="#10123A"/>
<path d="M1.068 10.3081C0.875008 10.3081 0.680733 10.3221 0.489327 10.3049C0.191353 10.278 -0.00145656 10.0514 8.28853e-06 9.75868C0.0014121 9.4742 0.206307 9.22957 0.495736 9.21602C0.871224 9.19853 1.24897 9.19875 1.6244 9.21718C1.90772 9.23116 2.12049 9.48888 2.11756 9.76561C2.11451 10.0498 1.9073 10.2835 1.61781 10.3067C1.43562 10.3214 1.25135 10.3094 1.068 10.3094V10.3081Z" fill="#10123A"/>
<path d="M5.37074 17.1753C5.17774 17.1753 4.98347 17.1893 4.79206 17.172C4.49421 17.1452 4.30134 16.9186 4.30274 16.6259C4.30427 16.3413 4.5091 16.0967 4.79853 16.0832C5.17408 16.0657 5.5517 16.0659 5.92719 16.0844C6.21046 16.0983 6.42329 16.356 6.42036 16.6328C6.4173 16.9169 6.21015 17.1507 5.9206 17.1739C5.73841 17.1885 5.55415 17.1766 5.37074 17.1766V17.1753Z" fill="#10123A"/>
<path d="M7.41163 6.44091C7.21864 6.44091 7.02448 6.45492 6.83302 6.43768C6.5351 6.41082 6.34229 6.18423 6.34376 5.8915C6.34516 5.60693 6.55006 5.36233 6.83949 5.34884C7.21497 5.33135 7.59266 5.33154 7.96815 5.35003C8.25141 5.36395 8.46418 5.6217 8.46131 5.89843C8.45826 6.18255 8.25105 6.41628 7.96156 6.43951C7.77937 6.45416 7.59504 6.44225 7.41175 6.44225L7.41163 6.44091Z" fill="#10123A"/>
<path d="M20.8351 8.82098C20.591 8.83607 20.3736 8.84927 20.0988 8.86624C20.0988 9.98847 20.0682 11.0994 20.1276 12.2056C20.1381 12.3989 20.5288 12.5715 20.7432 12.7535C20.7806 12.7214 20.817 12.6884 20.8543 12.6563V13.9059H10.0922V12.6809C10.75 12.563 10.8266 12.4696 10.8266 11.7868C10.8266 10.8306 10.8266 9.87436 10.8266 8.8719C10.5757 8.85587 10.3459 8.84173 10.0874 8.82475V8.04297H20.8351V8.82192V8.82098ZM14.8509 8.85964C14.8509 9.95357 14.8566 11.0003 14.848 12.0471C14.8451 12.447 15.0587 12.6205 15.4273 12.6233C15.8017 12.6262 16.0726 12.4828 16.0698 12.0518C16.0659 11.5351 16.0698 11.0183 16.0698 10.5015C16.0698 9.95829 16.0698 9.41604 16.0698 8.8587H14.8509V8.85964ZM17.4524 8.8719C17.4524 9.99412 17.4275 11.089 17.4801 12.1801C17.4878 12.3385 17.866 12.5847 18.0833 12.596C18.2739 12.6064 18.6444 12.3498 18.6511 12.1999C18.7 11.0947 18.6779 9.98564 18.6779 8.8719H17.4524ZM12.2341 8.8653C12.2341 9.98092 12.235 11.0466 12.2341 12.1113C12.2341 12.4753 12.4725 12.5988 12.7818 12.6243C13.0929 12.6497 13.3993 12.5535 13.408 12.2084C13.4357 11.1013 13.4185 9.99318 13.4185 8.8653H12.2341Z" fill="#10123A"/>
<path d="M21.1616 7.32891H9.76758C11.7103 5.97281 13.5621 4.68179 15.4454 3.36719C17.3135 4.66198 19.1815 5.95584 21.1616 7.32891Z" fill="#10123A"/>
</svg>
