<?xml version="1.0" encoding="utf-8"?>
<!-- Generator: Adobe Illustrator 27.2.0, SVG Export Plug-In . SVG Version: 6.00 Build 0)  -->
<svg version="1.1" id="Layer_1" xmlns="http://www.w3.org/2000/svg" xmlns:xlink="http://www.w3.org/1999/xlink" x="0px" y="0px"
	 viewBox="0 0 11.8 9.2" style="enable-background:new 0 0 11.8 9.2;" xml:space="preserve">
<style type="text/css">
	.st0{fill:#868DAA;}
</style>
<g>
	<path class="st0" d="M6.7,8.4H5l0-1.3h1V6.3H5V5h1V4.2H5V2.9h4.5v1.1c0.3,0,0.5,0.1,0.8,0.1v-2H5V0H0v9.2l7.3,0
		C7,8.9,6.8,8.7,6.7,8.4z M2.1,8.4H0.8V7.1h1.3V8.4z M2.1,6.3H0.8V5h1.3V6.3z M2.1,4.2H0.8V2.9h1.3V4.2z M2.1,2.1H0.8V0.8h1.3V2.1z
		 M4.2,8.4H2.9l0-1.3h1.3V8.4z M4.2,6.3H2.9l0-1.3h1.3V6.3z M4.2,4.2H2.9l0-1.3h1.3V4.2z M4.2,2.1H2.9l0-1.3h1.3V2.1z"/>
	<path id="manage_accounts_FILL1_wght400_GRAD0_opsz48" class="st0" d="M9.7,9.2L9.4,8.4c-0.1,0-0.3,0-0.4-0.1
		c-0.1,0-0.3-0.1-0.4-0.2L7.9,8.4L7.5,8L8,7.3C7.9,7.2,7.9,7,7.9,6.8L7.2,6.3l0.2-0.5l0.7,0c0.1-0.1,0.2-0.2,0.3-0.3
		c0.1-0.1,0.2-0.2,0.4-0.2l0-0.8l0.6-0.1l0.3,0.8c0.1,0,0.3,0,0.4,0.1c0.1,0,0.3,0.1,0.4,0.2l0.6-0.3l0.4,0.4l-0.5,0.6
		c0.1,0.2,0.1,0.4,0.1,0.6l0.7,0.4l-0.2,0.5l-0.7,0c-0.1,0.1-0.2,0.2-0.3,0.3c-0.1,0.1-0.2,0.2-0.4,0.2l0,0.8L9.7,9.2z M9.7,7.7
		c0.5-0.1,0.8-0.6,0.7-1.1S9.7,5.8,9.3,5.9C8.8,6,8.5,6.5,8.6,7C8.7,7.2,8.8,7.4,9,7.6C9.2,7.7,9.5,7.7,9.7,7.7L9.7,7.7z"/>
</g>
<g>
</g>
<g>
</g>
<g>
</g>
<g>
</g>
<g>
</g>
<g>
</g>
<g>
</g>
<g>
</g>
<g>
</g>
<g>
</g>
<g>
</g>
<g>
</g>
<g>
</g>
<g>
</g>
<g>
</g>
</svg>
