<?xml version="1.0" encoding="utf-8"?>
<!-- Generator: Adobe Illustrator 27.5.0, SVG Export Plug-In . SVG Version: 6.00 Build 0)  -->
<svg version="1.1" id="Layer_1" xmlns="http://www.w3.org/2000/svg" xmlns:xlink="http://www.w3.org/1999/xlink" x="0px" y="0px"
	 viewBox="0 0 19 9.5" style="enable-background:new 0 0 19 9.5;" xml:space="preserve">
<style type="text/css">
	.st0{fill:#FF6A6A;}
</style>
<path id="link_FILL1_wght400_GRAD0_opsz48" class="st0" d="M8.8,9.5h-4C3.5,9.5,2.3,9,1.4,8.1c-1.9-1.9-1.9-4.9,0-6.7
	C2.3,0.5,3.5,0,4.8,0h4v1.4h-4c-1.8,0-3.3,1.5-3.3,3.3c0,0.9,0.4,1.7,1,2.4c0.6,0.6,1.5,1,2.4,1h4V9.5z M5.8,5.5V4h7.4v1.4L5.8,5.5z
	 M10.2,9.5V8.1h4c1.8,0,3.3-1.5,3.3-3.3c0-0.9-0.4-1.7-1-2.4c-0.6-0.6-1.5-1-2.4-1h-4V0h4C16.9,0,19,2.1,19,4.7c0,0,0,0,0,0
	c0,2.6-2.1,4.8-4.7,4.8c0,0,0,0,0,0L10.2,9.5z"/>
</svg>
