<?xml version="1.0" encoding="utf-8"?>
<!-- Generator: Adobe Illustrator 26.5.0, SVG Export Plug-In . SVG Version: 6.00 Build 0)  -->
<svg version="1.1" id="Layer_1" xmlns="http://www.w3.org/2000/svg" xmlns:xlink="http://www.w3.org/1999/xlink" x="0px" y="0px"
	 viewBox="0 0 19 19" style="enable-background:new 0 0 19 19;" xml:space="preserve">
<style type="text/css">
	.st0{fill:#ffffff;}
</style>
<path id="sync_FILL0_wght400_GRAD0_opsz48" class="st0" d="M0.2,19v-1.8h3.9l-0.4-0.4c-1.2-0.9-2.1-2-2.8-3.3C0.3,12.3,0,10.9,0,9.6
	c0-2,0.6-4,1.9-5.6c1.2-1.6,2.9-2.9,4.9-3.5v1.8C5.3,2.9,4,3.9,3.1,5.2C2.2,6.5,1.8,8,1.8,9.6c0,1.1,0.2,2.2,0.7,3.2
	c0.5,0.9,1.1,1.7,1.9,2.4l0.9,0.6v-3.7H7V19L0.2,19z M12.3,18.5v-1.9c1.5-0.5,2.7-1.5,3.6-2.9c0.9-1.3,1.3-2.8,1.3-4.4
	c0-1-0.3-2-0.7-2.9c-0.5-1-1.1-1.8-1.8-2.6l-0.9-0.8v3.7H12V0h6.8v1.8H15l0.4,0.4c1.1,1,2,2.2,2.7,3.6c0.6,1.1,0.9,2.4,0.9,3.6
	C19,13.6,16.3,17.3,12.3,18.5L12.3,18.5z"/>
</svg>
