<?xml version="1.0" encoding="utf-8"?>
<!-- Generator: Adobe Illustrator 26.5.0, SVG Export Plug-In . SVG Version: 6.00 Build 0)  -->
<svg version="1.1" id="Layer_1" xmlns="http://www.w3.org/2000/svg" xmlns:xlink="http://www.w3.org/1999/xlink" x="0px" y="0px"
	 viewBox="0 0 45 45" style="enable-background:new 0 0 45 45;" xml:space="preserve">
<style type="text/css">
	.st0{fill:#728FB4;}
	.st1{fill:#FFFFFF;}
</style>
<g id="Group_37426" transform="translate(-1821 -1025)">
	<path id="Rectangle_4795" class="st0" d="M1831,1025h25c5.5,0,10,4.5,10,10v25c0,5.5-4.5,10-10,10h-25c-5.5,0-10-4.5-10-10v-25
		C1821,1029.5,1825.5,1025,1831,1025z"/>
	<path id="download_FILL0_wght400_GRAD0_opsz48" class="st1" d="M1834.2,1059.3c-1.2,0-2.2-1-2.2-2.2v-5.2h2.2v5.2h18.9v-5.2h2.2
		v5.2c0,1.2-1,2.2-2.2,2.2H1834.2z M1843.6,1053.7l-7-7l1.6-1.6l4.4,4.4V1036h2.2v13.5l4.4-4.4l1.6,1.6L1843.6,1053.7z"/>
</g>
<g>
</g>
<g>
</g>
<g>
</g>
<g>
</g>
<g>
</g>
<g>
</g>
</svg>
