<svg width="19" height="20" viewBox="0 0 19 20" fill="none" xmlns="http://www.w3.org/2000/svg">
<path d="M6.30078 14.5C5.60078 14.5 5.00911 14.2583 4.52578 13.775C4.04245 13.2917 3.80078 12.7 3.80078 12C3.80078 11.3 4.04245 10.7083 4.52578 10.225C5.00911 9.74167 5.60078 9.5 6.30078 9.5C7.00078 9.5 7.59245 9.74167 8.07578 10.225C8.55911 10.7083 8.80078 11.3 8.80078 12C8.80078 12.7 8.55911 13.2917 8.07578 13.775C7.59245 14.2583 7.00078 14.5 6.30078 14.5ZM2.30078 20C1.75078 20 1.27995 19.8042 0.888281 19.4125C0.496615 19.0208 0.300781 18.55 0.300781 18V4C0.300781 3.45 0.496615 2.97917 0.888281 2.5875C1.27995 2.19583 1.75078 2 2.30078 2H3.30078V0H5.30078V2H13.3008V0H15.3008V2H16.3008C16.8508 2 17.3216 2.19583 17.7133 2.5875C18.1049 2.97917 18.3008 3.45 18.3008 4V18C18.3008 18.55 18.1049 19.0208 17.7133 19.4125C17.3216 19.8042 16.8508 20 16.3008 20H2.30078ZM2.30078 18H16.3008V8H2.30078V18ZM2.30078 6H16.3008V4H2.30078V6Z" fill="#868DAA"/>
<circle cx="6.9002" cy="12.401" r="3.2" fill="#868DAA"/>
</svg>
