<?xml version="1.0" encoding="utf-8"?>
<!-- Generator: Adobe Illustrator 26.5.0, SVG Export Plug-In . SVG Version: 6.00 Build 0)  -->
<svg version="1.1" id="Layer_1" xmlns="http://www.w3.org/2000/svg" xmlns:xlink="http://www.w3.org/1999/xlink" x="0px" y="0px"
	 viewBox="0 0 19.1 18" style="enable-background:new 0 0 19.1 18;" xml:space="preserve">
<style type="text/css">
	.st0{fill:#021040;}
</style>
<path id="settings_suggest_FILL0_wght400_GRAD0_opsz48" class="st0" d="M15.1,6.2l-1-2.1l-2.1-1l2.1-1l1-2.1l1,2.1l2.1,1l-2.1,1
	L15.1,6.2z M17,12.7l-0.7-1.4l-1.4-0.7l1.4-0.7L17,8.5l0.7,1.4l1.4,0.7l-1.4,0.7L17,12.7z M5.2,18L5,15.9c-0.5-0.1-0.9-0.3-1.2-0.6
	L2,16.1l-2-3.2l1.7-1.1c-0.2-0.4-0.2-0.9,0-1.4L0,9.2L2,6l1.8,0.7C4.1,6.4,4.5,6.2,5,6.2l0.2-2.1H9l0.2,2.1c0.5,0.1,0.9,0.3,1.2,0.6
	L12.2,6l2,3.2l-1.7,1.1c0.2,0.4,0.2,0.9,0,1.4l1.7,1.1l-2,3.2l-1.8-0.7c-0.3,0.3-0.8,0.5-1.2,0.6L9,18H5.2z M7.1,13.6
	c1.4,0,2.5-1,2.6-2.4c0-0.1,0-0.1,0-0.2c0-1.4-1-2.5-2.4-2.6c-0.1,0-0.1,0-0.2,0c-1.4,0-2.5,1-2.6,2.4c0,0.1,0,0.1,0,0.2
	c0,1.4,1,2.5,2.4,2.6C7,13.6,7,13.6,7.1,13.6z M7.1,12.3c-0.7,0-1.2-0.6-1.1-1.2S6.6,9.9,7.2,10s1.2,0.6,1.1,1.2
	c0,0.3-0.1,0.6-0.3,0.8C7.7,12.2,7.4,12.3,7.1,12.3z M6.3,16.6h1.5L8,14.9c0.4-0.1,0.8-0.2,1.2-0.5c0.4-0.2,0.7-0.5,1-0.8l1.5,0.7
	l0.7-1.2l-1.4-1c0.3-0.7,0.3-1.6,0-2.3l1.4-1l-0.7-1.2l-1.5,0.7C9.9,8,9.6,7.7,9.2,7.5C8.8,7.4,8.4,7.3,8,7.2L7.9,5.4H6.3L6.1,7.2
	C5.7,7.3,5.3,7.4,5,7.6C4.6,7.8,4.2,8.1,4,8.4L2.5,7.7L1.8,8.9l1.4,1c-0.3,0.7-0.3,1.6,0,2.3l-1.4,1l0.7,1.2L4,13.7
	c0.3,0.3,0.6,0.6,1,0.8s0.8,0.4,1.2,0.5L6.3,16.6z"/>
</svg>
