<svg width="14" height="10" viewBox="0 0 14 10" fill="none" xmlns="http://www.w3.org/2000/svg">
<path d="M12.5238 2.1436L5.52384 9.1436C5.46288 9.20478 5.39043 9.25332 5.31066 9.28644C5.23089 9.31957 5.14537 9.33662 5.059 9.33662C4.97263 9.33662 4.88711 9.31957 4.80734 9.28644C4.72757 9.25332 4.65512 9.20478 4.59416 9.1436L1.53166 6.0811C1.47061 6.02006 1.42219 5.94759 1.38915 5.86783C1.35612 5.78807 1.33911 5.70259 1.33911 5.61626C1.33911 5.52993 1.35612 5.44444 1.38915 5.36468C1.42219 5.28493 1.47061 5.21246 1.53166 5.15141C1.5927 5.09037 1.66517 5.04194 1.74493 5.00891C1.82469 4.97587 1.91017 4.95887 1.9965 4.95887C2.08283 4.95887 2.16831 4.97587 2.24807 5.00891C2.32783 5.04194 2.4003 5.09037 2.46134 5.15141L5.05955 7.74962L11.5952 1.21501C11.7185 1.09172 11.8857 1.02246 12.0601 1.02246C12.2344 1.02246 12.4017 1.09172 12.5249 1.21501C12.6482 1.33829 12.7175 1.5055 12.7175 1.67985C12.7175 1.8542 12.6482 2.02141 12.5249 2.14469L12.5238 2.1436Z" fill="#6BBF8A" stroke="#6BBF8A"/>
</svg>
