<?xml version="1.0" encoding="utf-8"?>
<!-- Generator: Adobe Illustrator 26.5.0, SVG Export Plug-In . SVG Version: 6.00 Build 0)  -->
<svg version="1.1" id="Layer_1" xmlns="http://www.w3.org/2000/svg" xmlns:xlink="http://www.w3.org/1999/xlink" x="0px" y="0px"
	 viewBox="0 0 20 18" style="enable-background:new 0 0 20 18;" xml:space="preserve">
<style type="text/css">
	.st0{fill:#021040;}
</style>
<path id="support_agent_FILL0_wght400_GRAD0_opsz48" class="st0" d="M9,18v-1.5h8.5V8.9c0-1-0.2-1.9-0.6-2.8s-1-1.7-1.7-2.4
	s-1.5-1.2-2.4-1.6C11,1.3,9,1.3,7.2,2.1c-0.9,0.4-1.7,1-2.4,1.6C4.1,4.4,3.5,5.2,3.1,6.1S2.5,7.9,2.5,8.9V15H2c-1.1,0-2-0.9-2-2v-2
	c0-0.4,0.1-0.7,0.3-1S0.7,9.5,1,9.3L1.1,8c0.1-1.2,0.5-2.3,1-3.3s1.2-1.8,2-2.5S5.8,1,6.8,0.6c2-0.8,4.3-0.8,6.3,0
	c1,0.4,1.9,0.9,2.7,1.6s1.5,1.6,2,2.5c0.6,1,0.9,2.1,1,3.3L19,9.2c0.6,0.3,1,0.9,1,1.6v2.3c0,0.3-0.1,0.7-0.3,1
	c-0.2,0.3-0.4,0.5-0.7,0.6v1.7c0,0.8-0.7,1.5-1.5,1.5l0,0L9,18L9,18z M7,10.8c-0.2,0-0.4-0.1-0.5-0.2c-0.1-0.1-0.2-0.3-0.2-0.6
	c0-0.2,0.1-0.4,0.2-0.5C6.6,9.3,6.8,9.2,7,9.3c0.2,0,0.4,0.1,0.5,0.2C7.7,9.6,7.8,9.8,7.8,10s-0.1,0.4-0.2,0.5
	C7.4,10.7,7.2,10.8,7,10.8z M13,10.8c-0.2,0-0.4-0.1-0.5-0.2c-0.1-0.1-0.2-0.3-0.2-0.6c0-0.2,0.1-0.4,0.2-0.5
	c0.1-0.1,0.3-0.2,0.5-0.2s0.4,0.1,0.5,0.2c0.1,0.1,0.2,0.3,0.2,0.5s-0.1,0.4-0.2,0.5C13.4,10.7,13.2,10.8,13,10.8z M4,9.5
	c-0.1-1,0.1-1.9,0.4-2.7s0.8-1.5,1.4-2C7,3.6,8.5,3,10.1,3c1.4,0,2.8,0.5,3.8,1.4s1.7,2.2,1.9,3.6c-1.5,0-2.9-0.4-4.1-1.3
	c-1.2-0.8-2.1-1.9-2.8-3.2C8.6,4.9,8,6.1,7.2,7.1C6.3,8.2,5.3,9,4,9.5z"/>
</svg>
