<?xml version="1.0" encoding="utf-8"?>
<!-- Generator: Adobe Illustrator 26.5.0, SVG Export Plug-In . SVG Version: 6.00 Build 0)  -->
<svg version="1.1" id="Layer_1" xmlns="http://www.w3.org/2000/svg" xmlns:xlink="http://www.w3.org/1999/xlink" x="0px" y="0px"
	 viewBox="0 0 45 45" style="enable-background:new 0 0 45 45;" xml:space="preserve">
<style type="text/css">
	.st0{fill:#728EB4;}
	.st1{fill:none;}
	.st2{fill:none;stroke:#728EB4;}
</style>
<path id="refresh_FILL0_wght400_GRAD0_opsz48_1_" class="st0" d="M22.5,34c-3.1,0.1-6-1.2-8.1-3.4c-2.2-2.1-3.4-5.1-3.4-8.1
	c-0.1-3.1,1.2-6,3.4-8.1c2.1-2.2,5.1-3.4,8.1-3.4c1.9,0,3.7,0.4,5.4,1.2c1.6,0.8,2.9,2,4,3.4V11H34v9.1h-9.1V18h6
	c-0.9-1.4-2.1-2.6-3.5-3.5c-1.5-0.9-3.2-1.4-4.9-1.3c-5.1,0-9.3,4.1-9.3,9.2c0,0.1,0,0.1,0,0.2c0,5.1,4.1,9.3,9.2,9.3
	c0.1,0,0.1,0,0.2,0c2,0,3.9-0.6,5.5-1.7c1.6-1.1,2.8-2.7,3.5-4.5h2.2c-0.6,2.4-2.1,4.6-4.1,6.1C27.5,33.2,25,34,22.5,34z"/>
<g id="Rectangle_4794">
	<path class="st1" d="M10,0h25c5.5,0,10,4.5,10,10v25c0,5.5-4.5,10-10,10H10C4.5,45,0,40.5,0,35V10C0,4.5,4.5,0,10,0z"/>
	<path class="st2" d="M10,0.5h25c5.2,0,9.5,4.3,9.5,9.5v25c0,5.2-4.3,9.5-9.5,9.5H10c-5.2,0-9.5-4.3-9.5-9.5V10
		C0.5,4.8,4.8,0.5,10,0.5z"/>
</g>
<g>
</g>
<g>
</g>
<g>
</g>
<g>
</g>
<g>
</g>
<g>
</g>
</svg>
