<?xml version="1.0" encoding="utf-8"?>
<!-- Generator: Adobe Illustrator 27.5.0, SVG Export Plug-In . SVG Version: 6.00 Build 0)  -->
<svg version="1.1" id="Layer_1" xmlns="http://www.w3.org/2000/svg" xmlns:xlink="http://www.w3.org/1999/xlink" x="0px" y="0px"
	 viewBox="0 0 25.3 12.7" style="enable-background:new 0 0 25.3 12.7;" xml:space="preserve">
<style type="text/css">
	.st0{fill:#868DAA;}
</style>
<path id="groups_FILL1_wght400_GRAD0_opsz48" class="st0" d="M0,12.7v-1.4c0-0.7,0.5-1.4,1.1-1.7C2,9.1,3,8.9,4,9c0.2,0,0.4,0,0.6,0
	C4.8,9,5,9,5.2,9c-0.3,0.6-0.4,1.2-0.4,1.9v1.7L0,12.7z M6.3,12.7v-1.7c0-1.2,0.7-2.2,1.8-2.8c1.4-0.8,3-1.1,4.6-1.1
	c1.6-0.1,3.2,0.3,4.6,1.1c1.1,0.5,1.7,1.6,1.7,2.8v1.7H6.3z M20.6,12.7v-1.7c0-0.3,0-0.7-0.1-1c-0.1-0.3-0.2-0.6-0.3-0.9
	C20.4,9,20.6,9,20.8,9c0.2,0,0.4,0,0.6,0c1,0,2,0.2,2.9,0.6c0.6,0.3,1.1,0.9,1.1,1.7v1.4L20.6,12.7z M4,8.2C3.5,8.2,3,8,2.7,7.6
	C1.9,6.9,1.9,5.7,2.7,5c0,0,0,0,0,0C3,4.7,3.5,4.5,4,4.5c1,0,1.8,0.8,1.8,1.8C5.8,7.3,5,8.2,4,8.2C4,8.2,4,8.2,4,8.2L4,8.2z
	 M21.4,8.2c-1,0-1.8-0.8-1.8-1.8s0.8-1.8,1.8-1.8s1.8,0.8,1.8,1.8c0,0.5-0.2,1-0.5,1.3C22.3,8,21.9,8.2,21.4,8.2z M12.7,6.3
	c-1.7,0-3.2-1.4-3.2-3.1c0,0,0,0,0,0c0-0.8,0.3-1.7,0.9-2.3C11,0.3,11.8,0,12.7,0c1.7,0,3.1,1.3,3.2,3c0,0,0,0.1,0,0.1
	c0,0.8-0.3,1.7-0.9,2.2C14.3,6,13.5,6.4,12.7,6.3L12.7,6.3z"/>
</svg>
