<?xml version="1.0" encoding="utf-8"?>
<!-- Generator: Adobe Illustrator 27.2.0, SVG Export Plug-In . SVG Version: 6.00 Build 0)  -->
<svg version="1.1" id="Layer_1" xmlns="http://www.w3.org/2000/svg" xmlns:xlink="http://www.w3.org/1999/xlink" x="0px" y="0px"
	 viewBox="0 0 12.4 15.6" style="enable-background:new 0 0 12.4 15.6;" xml:space="preserve">
<style type="text/css">
	.st0{opacity:0.6;fill:#FF8F8F;enable-background:new    ;}
	.st1{fill:#FF8F8F;}
	.st2{fill:none;}
	.st3{fill:#FFFFFF;}
</style>
<g>
	<path id="Path_253813" class="st0" d="M0.8,0.6H8l4,3.8l-0.2,10.1l-2.2,0.6l-9.1-0.2L0.8,0.6z"/>
	<g id="Group_34681">
		<path id="task_FILL0_wght400_GRAD0_opsz48" class="st1" d="M1.2,15.6C0.5,15.5,0,15,0,14.4V1.2C0,0.5,0.5,0,1.2,0h7l4.3,4.3v10.1
			c0,0.6-0.5,1.1-1.2,1.2H1.2z M7.6,4.8V1.2H1.2v13.2h10.1V4.8H7.6z M1.2,1.2L1.2,1.2z"/>
	</g>
	<g id="Group_34682" transform="translate(2.67 6.778)">
		<rect id="Rectangle_1895" x="0" y="-1" class="st2" width="7.3" height="7.3"/>
		<path id="close" class="st3" d="M4.6,2.6l1.9-1.9c0.2-0.2,0.2-0.5,0-0.8L6.2-0.2C6-0.5,5.7-0.5,5.5-0.2L3.6,1.6L1.7-0.2
			C1.5-0.5,1.2-0.5,1-0.2L0.7,0c-0.2,0.2-0.2,0.5,0,0.8l1.9,1.9L0.7,4.5c-0.2,0.2-0.2,0.5,0,0.8L1,5.5c0.2,0.2,0.5,0.2,0.8,0
			l1.9-1.9l1.9,1.9c0.2,0.2,0.5,0.2,0.8,0l0.3-0.3c0.2-0.2,0.2-0.5,0-0.8L4.6,2.6z"/>
	</g>
</g>
<g>
</g>
<g>
</g>
<g>
</g>
<g>
</g>
<g>
</g>
<g>
</g>
<g>
</g>
<g>
</g>
<g>
</g>
<g>
</g>
<g>
</g>
<g>
</g>
<g>
</g>
<g>
</g>
<g>
</g>
</svg>
