<?xml version="1.0" encoding="utf-8"?>
<!-- Generator: Adobe Illustrator 27.5.0, SVG Export Plug-In . SVG Version: 6.00 Build 0)  -->
<svg version="1.1" id="Layer_1" xmlns="http://www.w3.org/2000/svg" xmlns:xlink="http://www.w3.org/1999/xlink" x="0px" y="0px"
	 viewBox="0 0 128 128.1" style="enable-background:new 0 0 128 128.1;" xml:space="preserve">
<style type="text/css">
	.st0{fill:#868DAA;}
	.st1{fill:#F95916;}
	.st2{fill:#637499;}
	.st3{fill:#FFFFFF;}
	.st4{font-family:'Inter-SemiBold';}
	.st5{font-size:30px;}
</style>
<g id="Group_37758" transform="translate(-727 -430)">
	<g id="Group_35477" transform="translate(-281 -10.967)">
		<g id="Group_26960" transform="translate(89 182.014)">
			<g id="add-user" transform="translate(918.961 258.954)">
				<path id="Path_252446" class="st0" d="M57.4,75.7l7.5-7.5c-0.2-0.6-0.3-1.3-0.3-2v-1.8H50.1v1.8c0,0.6-0.1,1.3-0.3,1.9
					L57.4,75.7z"/>
				<path id="Path_252447" class="st0" d="M57.3,18.8L57.3,18.8c-9.7,0-17.6,7.9-17.6,17.6v0v4.2h8.6c5.7,0,11.2-2.5,14.8-6.9l0,0
					l11.8,6.9v-4.2C74.9,26.7,67,18.8,57.3,18.8z"/>
				<path id="Path_252449" class="st0" d="M63.2,96.8l-5.8-22l-5.8,22l5.8,6.6L63.2,96.8z"/>
				<circle id="Ellipse_1449" class="st1" cx="103.3" cy="103.3" r="22.3"/>
				<path id="Path_252453" class="st0" d="M89.5,117.5c-1-1-2.6-0.9-3.5,0.1c-1,1-0.9,2.6,0.1,3.5l0,0l0.1,0.1c1,1,2.6,0.9,3.5-0.1
					C90.6,120.1,90.5,118.5,89.5,117.5L89.5,117.5L89.5,117.5z"/>
				<path id="Path_252454" class="st0" d="M110.1,79.4c7.2-17.3,5.6-37.1-4.5-52.9c-0.7-1.2-2.3-1.5-3.5-0.8s-1.5,2.3-0.8,3.5
					c9.3,14.8,10.7,33.3,3.7,49.3c-0.6,0-1.2-0.1-1.8-0.1c-4,0-8,1-11.6,2.9c-2.7-5-7.5-8.4-13.1-9.4l-8-1.5c-2-0.4-3.5-2.1-3.5-4.2
					v-0.4c6.4-3.5,10.4-10.3,10.4-17.6V36.4c0-11.1-9-20.2-20.1-20.2s-20.2,9-20.2,20.2l0,0v11.7c0,7.3,4,14.1,10.4,17.6v0.4
					c0,2.1-1.5,3.8-3.5,4.2l-8,1.5c-9,1.7-15.5,9.5-15.5,18.6v4c-0.1-0.1-0.2-0.2-0.3-0.3c-20.4-20.4-20.4-53.5,0-73.9
					C37.2,3.5,63.3,0.1,83.8,12.2c1.2,0.7,2.7,0.3,3.4-0.9s0.3-2.7-0.9-3.4C59-8.1,23.9,1,7.9,28.3S1,90.7,28.3,106.7
					c15.5,9.1,34.5,10.4,51.1,3.4c0.2,0.6,0.4,1.2,0.6,1.7c0.5,1.3,1.9,2,3.2,1.5s2-1.9,1.5-3.2c-3.8-10.2,1.5-21.6,11.7-25.4
					s21.6,1.5,25.4,11.7c3.8,10.2-1.5,21.6-11.7,25.4c-4.1,1.5-8.5,1.6-12.6,0.4c-1.3-0.4-2.7,0.3-3.1,1.7c-0.4,1.3,0.3,2.7,1.7,3.1
					c13.1,4,27-3.4,31-16.5c4-13.1-3.4-27-16.5-31C110.4,79.5,110.3,79.5,110.1,79.4L110.1,79.4z M57.4,84.6l3,11.5l-3,3.5l-3-3.5
					L57.4,84.6z M57.4,72.1l-4.3-4.3c2.8,0.6,5.7,0.6,8.5,0L57.4,72.1z M42.2,36.4c0-8.4,6.8-15.1,15.2-15.1c8.3,0,15,6.7,15.1,15
					l-8-4.7c-1.1-0.6-2.4-0.4-3.2,0.6c-3.2,3.8-7.9,6-12.9,6h-6.1L42.2,36.4L42.2,36.4z M42.2,48.2v-5h6.1c5.7,0,11.2-2.2,15.3-6.3
					l8.8,5.2v6.1c0.1,8.4-6.7,15.2-15,15.3c-8.4,0.1-15.2-6.7-15.3-15C42.2,48.3,42.2,48.3,42.2,48.2L42.2,48.2z M78.5,103.3
					c0,0.6,0,1.2,0.1,1.8c-17.5,7.7-37.7,5.4-52.9-6.2v-8.4c0-6.7,4.8-12.5,11.4-13.7l8-1.5c2.1-0.4,4-1.5,5.4-3.1l4,4l-5.3,20
					c-0.2,0.8,0,1.7,0.5,2.3l5.8,6.6c0.9,1,2.5,1.1,3.5,0.2c0.1-0.1,0.2-0.1,0.2-0.2l5.8-6.6c0.5-0.6,0.8-1.5,0.5-2.3l-5.3-20l4-4
					c1.4,1.6,3.3,2.7,5.3,3.1l8,1.5c4.2,0.8,7.9,3.5,9.8,7.3C81.8,88.8,78.5,95.9,78.5,103.3L78.5,103.3z"/>
				<path id="Path_252456" class="st2" d="M94.3,20.4c1,1,2.6,1,3.5,0c1-1,1-2.6,0-3.5l-0.1-0.1c-1-1-2.6-1-3.5,0
					C93.3,17.8,93.3,19.3,94.3,20.4L94.3,20.4L94.3,20.4z"/>
			</g>
		</g>
	</g>
	<text transform="matrix(1 0 0 1 825.9675 542.9844)" class="st3 st4 st5">!</text>
</g>
</svg>
