<svg width="59" height="31" viewBox="0 0 59 31" fill="none" xmlns="http://www.w3.org/2000/svg">
<path d="M6.22 7.22L13.22 0.22C13.3605 0.0793075 13.5512 0.000175052 13.75 0H25.75C26.2141 0 26.6592 0.184375 26.9874 0.512563C27.3156 0.840752 27.5 1.28587 27.5 1.75V23.75C27.5 24.2141 27.3156 24.6592 26.9874 24.9874C26.6592 25.3156 26.2141 25.5 25.75 25.5H7.75C7.28587 25.5 6.84075 25.3156 6.51256 24.9874C6.18438 24.6592 6 24.2141 6 23.75V7.75C6.00018 7.55115 6.07931 7.36052 6.22 7.22ZM13 2.56L8.56 7H13V2.56ZM7.75 24H25.75C25.8163 24 25.8799 23.9737 25.9268 23.9268C25.9737 23.8799 26 23.8163 26 23.75V1.75C26 1.6837 25.9737 1.62011 25.9268 1.57322C25.8799 1.52634 25.8163 1.5 25.75 1.5H14.5V7.75C14.5 7.94891 14.421 8.13968 14.2803 8.28033C14.1397 8.42098 13.9489 8.5 13.75 8.5H7.5V23.75C7.5 23.8163 7.52634 23.8799 7.57322 23.9268C7.62011 23.9737 7.6837 24 7.75 24Z" fill="#A5A5A5"/>
<path d="M20.8685 16.8223C20.8685 16.6235 20.7896 16.4329 20.6492 16.2923C20.5085 16.1518 20.3179 16.0729 20.1192 16.0729C19.9204 16.0729 19.7298 16.1518 19.5892 16.2923L17.8692 18.011V11.8223C17.8692 11.6234 17.7902 11.4326 17.6495 11.2919C17.5088 11.1513 17.3181 11.0723 17.1192 11.0723C16.9203 11.0723 16.7295 11.1513 16.5888 11.2919C16.4482 11.4326 16.3692 11.6234 16.3692 11.8223V18.011L14.6492 16.2923C14.507 16.1598 14.3189 16.0877 14.1246 16.0911C13.9303 16.0945 13.745 16.1732 13.6075 16.3106C13.4701 16.4481 13.3914 16.6334 13.388 16.8277C13.3846 17.022 13.4567 17.2101 13.5892 17.3523L16.5892 20.3523C16.7298 20.4927 16.9204 20.5716 17.1192 20.5716C17.3179 20.5716 17.5085 20.4927 17.6492 20.3523L20.6492 17.3523C20.7896 17.2116 20.8685 17.021 20.8685 16.8223Z" fill="#AF3C59"/>
<path fill-rule="evenodd" clip-rule="evenodd" d="M36.0481 22.5481C36.6576 21.9386 37 21.112 37 20.25C37 19.388 36.6576 18.5614 36.0481 17.9519C35.4386 17.3424 34.612 17 33.75 17H31.75C31.5511 17 31.3603 17.079 31.2197 17.2197C31.079 17.3603 31 17.5511 31 17.75V24.75C31 24.9489 31.079 25.1397 31.2197 25.2803C31.3603 25.421 31.5511 25.5 31.75 25.5C31.9489 25.5 32.1397 25.421 32.2803 25.2803C32.421 25.1397 32.5 24.9489 32.5 24.75V23.5H33.75C34.612 23.5 35.4386 23.1576 36.0481 22.5481ZM34.9874 19.0126C35.3156 19.3408 35.5 19.7859 35.5 20.25C35.5 20.7141 35.3156 21.1592 34.9874 21.4874C34.6592 21.8156 34.2141 22 33.75 22H32.5V18.5H33.75C34.2141 18.5 34.6592 18.6844 34.9874 19.0126ZM46 21.25C46 22.3772 45.5522 23.4582 44.7552 24.2552C43.9582 25.0522 42.8772 25.5 41.75 25.5H39.75C39.5511 25.5 39.3603 25.421 39.2197 25.2803C39.079 25.1397 39 24.9489 39 24.75V17.75C39 17.5511 39.079 17.3603 39.2197 17.2197C39.3603 17.079 39.5511 17 39.75 17H41.75C42.8772 17 43.9582 17.4478 44.7552 18.2448C45.5522 19.0418 46 20.1228 46 21.25ZM44.5 21.25C44.5 20.5207 44.2103 19.8212 43.6945 19.3055C43.1788 18.7897 42.4793 18.5 41.75 18.5H40.5V24H41.75C42.4793 24 43.1788 23.7103 43.6945 23.1945C44.2103 22.6788 44.5 21.9793 44.5 21.25ZM53.2803 18.2803C53.421 18.1397 53.5 17.9489 53.5 17.75C53.5 17.5511 53.421 17.3603 53.2803 17.2197C53.1397 17.079 52.9489 17 52.75 17H48.75C48.5511 17 48.3603 17.079 48.2197 17.2197C48.079 17.3603 48 17.5511 48 17.75V24.75C48 24.9489 48.079 25.1397 48.2197 25.2803C48.3603 25.421 48.5511 25.5 48.75 25.5C48.9489 25.5 49.1397 25.421 49.2803 25.2803C49.421 25.1397 49.5 24.9489 49.5 24.75V22.5H51.75C51.9489 22.5 52.1397 22.421 52.2803 22.2803C52.421 22.1397 52.5 21.9489 52.5 21.75C52.5 21.5511 52.421 21.3603 52.2803 21.2197C52.1397 21.079 51.9489 21 51.75 21H49.5V18.5H52.75C52.9489 18.5 53.1397 18.421 53.2803 18.2803Z" fill="#A5A5A5"/>
<path fill-rule="evenodd" clip-rule="evenodd" d="M0.75 14.5C0.75 12.9812 1.98122 11.75 3.5 11.75H4.5C4.91421 11.75 5.25 12.0858 5.25 12.5C5.25 12.9142 4.91421 13.25 4.5 13.25H3.5C2.80964 13.25 2.25 13.8096 2.25 14.5V27.5C2.25 28.1904 2.80964 28.75 3.5 28.75H56C56.6904 28.75 57.25 28.1904 57.25 27.5V14.5C57.25 13.8096 56.6904 13.25 56 13.25H31C30.5858 13.25 30.25 12.9142 30.25 12.5C30.25 12.0858 30.5858 11.75 31 11.75H56C57.5188 11.75 58.75 12.9812 58.75 14.5V27.5C58.75 29.0188 57.5188 30.25 56 30.25H3.5C1.98122 30.25 0.75 29.0188 0.75 27.5V14.5Z" fill="#A5A5A5"/>
</svg>
