<svg xmlns="http://www.w3.org/2000/svg" xmlns:xlink="http://www.w3.org/1999/xlink" width="201.647" height="156.992" viewBox="0 0 201.647 156.992">
  <defs>
    <clipPath id="clip-path">
      <rect id="Rectangle_4991" data-name="Rectangle 4991" width="201.647" height="156.992" fill="#f5f5f5"/>
    </clipPath>
    <clipPath id="clip-path-2">
      <rect id="Rectangle_4996" data-name="Rectangle 4996" width="110.313" height="132.857" fill="none"/>
    </clipPath>
    <clipPath id="clip-path-3">
      <rect id="Rectangle_4994" data-name="Rectangle 4994" width="53.313" height="47.212" fill="none"/>
    </clipPath>
  </defs>
  <g id="Group_37772" data-name="Group 37772" transform="translate(8006.814 17314)">
    <g id="Group_37568" data-name="Group 37568" transform="translate(-8006.814 -17314)">
      <g id="Group_37567" data-name="Group 37567" clip-path="url(#clip-path)">
        <path id="Path_253839" data-name="Path 253839" d="M207.344,87.815c-4.828-.016-9.657,0-14.485-.012-1.7,0-3.353-.871-3.524-1.908-.451-2.725.771-4.358,3.322-4.337,3.73.031,7.476.34,11.2-.246a3.028,3.028,0,0,0,2.275-2.72c.068-1.361-.839-2.95-1.931-3.15a13.581,13.581,0,0,0-2.618-.355c-4.188.042-8.376.022-12.564.017-2.282,0-3.568-1.088-3.563-2.986.005-1.979,1.372-3.217,3.573-3.22,4.533-.005,9.065.016,13.6-.013,2.259-.014,3.264-1.076,3.224-3.269-.035-1.935-1.128-2.929-3.251-2.931q-10.125-.007-20.249-.006a3.27,3.27,0,0,1-3.4-3.444c.035-1.729,1.254-2.758,3.288-2.761,3.153,0,6.307.013,9.46-.009,1.882-.013,3.2-.855,3.477-2.152.58-2.693-.514-4.05-3.289-4.052q-8.425-.008-16.85.007a13.877,13.877,0,0,1-3.068-.294,2.851,2.851,0,0,1-2.184-2.575c-.076-2.323,1.174-3.617,3.58-3.629q6.282-.029,12.564,0a2.676,2.676,0,0,0,2.16-.736c.893-.983,1.569-2.042.936-3.454a3.107,3.107,0,0,0-3.088-2.039q-14.411.031-28.822,0c-2.218,0-3.327-1.11-3.3-3.212.022-2.013,1.108-2.989,3.339-2.991,3.7,0,7.392.055,11.085-.032,1.268-.03,2.738.041,3.532-1.305a3.364,3.364,0,0,0-3-5.156q-14.928-.018-29.857-.009a2.512,2.512,0,0,1-1.952-.431c-.994-.92-1.663-1.917-1.237-3.345a3.332,3.332,0,0,1,3.149-2.416c.933-.06,1.878.049,2.806-.038,1.8-.169,2.814-1.563,2.672-3.566a3.349,3.349,0,0,0-3.123-2.8c-3.389.373-6.782.084-10.173.161a2.844,2.844,0,0,1-2.9-2.04c-.62-2.381.677-4.095,3.151-4.161a3.124,3.124,0,0,0,3-3.3A2.7,2.7,0,0,0,131.374.006q-9.608-.009-19.215,0c-1.642,0-3.3,1.387-3.246,2.795.053,1.469,1.02,3.541,3.279,3.431,2.064-.1,4.138-.036,6.207-.01a2.728,2.728,0,0,1,2.648,1.249,3.3,3.3,0,0,1,.1,3.493,3.033,3.033,0,0,1-2.994,1.463q-20.176,0-40.351,0c-.394,0-.789-.019-1.182,0a3.3,3.3,0,0,0-3.2,3.367,3.107,3.107,0,0,0,3.329,2.837c1.133.012,2.266,0,3.4,0,2.116.006,3.621,1.323,3.612,3.158-.009,2.113-1.319,3.328-3.614,3.33q-8.351.008-16.7,0c-2.146,0-3.3.92-3.344,2.65-.059,2.245,1.083,3.476,3.335,3.558.886.032,1.774,0,2.66.009a3.3,3.3,0,0,1,3.153,2.89A3.125,3.125,0,0,1,66.1,37.55c-3.892.009-7.785-.011-11.677.012a3.26,3.26,0,0,0-3.147,3.7c.049,1.143,1.759,2.5,3.176,2.5,2.562.006,5.124-.013,7.686.009,2.329.02,3.76,1.212,3.849,3.154.076,1.646-1.553,3.159-3.643,3.317-.882.067-1.773.017-2.66.017q-7.834,0-15.668,0A2.883,2.883,0,0,0,41,52.165a3.131,3.131,0,0,0,1.2,3.664,5.37,5.37,0,0,0,2.965.637c3.1.015,6.208,0,9.312.008,2.112,0,3.247,1.03,3.261,2.926a3.131,3.131,0,0,1-3.364,3.279c-2.168.013-4.336,0-6.5,0-3.35,0-6.7-.017-10.051.01a3.159,3.159,0,0,0-3.137,3.225A2.856,2.856,0,0,0,37.8,68.893c1.084.01,2.172-.055,3.251.021,2.327.164,3.475,2.019,2.911,4.273-.454,1.815-1.79,1.895-3.171,1.9-5.124.034-10.248-.012-15.372.024-2.693.019-4.2,2.274-3.121,4.639a3.309,3.309,0,0,0,3.393,1.852q11.824-.02,23.649,0a2.482,2.482,0,0,1,1.442.162,3.375,3.375,0,0,1,1.472,3.713,3.051,3.051,0,0,1-3.316,2.32c-4.582.006-9.164,0-13.746.009a2.138,2.138,0,0,0-1.548.312,3.806,3.806,0,0,0-1.1,3.736,2.991,2.991,0,0,0,3.136,2.154c3.252.009,6.5-.006,9.755.006,2.142.007,3.149,1.026,3.148,3.144,0,2.29-.784,3.065-3.128,3.067-4.533,0-9.066-.014-13.6.01a3.289,3.289,0,0,0-3.264,2.493A3.215,3.215,0,0,0,30.95,106.6a5.863,5.863,0,0,0,1.607.122q15.224.01,30.448.011c2.484,0,3.753,2.3,2.7,4.543-.737,1.563-2.072,1.584-3.391,1.641-1.967.084-3.941,0-5.911.032a2.686,2.686,0,0,0-2.8,2.888c-.01,2.058.949,3.293,2.725,3.3,5.862.025,11.73-.144,17.584.072,1.777.065,3.386.546,5.217-.228,1.133-.479,3.181,1.976,3.15,3.357a3.158,3.158,0,0,1-3.283,3.021c-5.616,0-11.233-.02-16.85.009-2.693.014-4.25,2.26-3.19,4.606a3.351,3.351,0,0,0,3.39,1.884q11.455-.008,22.91,0a3.064,3.064,0,0,1,3.205,2.928,3.3,3.3,0,0,1-3.288,3.274c-2.168.015-4.336-.017-6.5.013-1.29.018-2.425.333-2.93,1.747-.883,2.476.492,4.45,3.166,4.454,6.75.011,13.5,0,20.249.007a3.27,3.27,0,0,1,3.508,2.663c.222,1.768-.756,3-2.759,3.521a4.85,4.85,0,0,0-2.2.72,3.112,3.112,0,0,0-1.026,3.573,3.35,3.35,0,0,0,3.462,2.217q11.529.033,23.058-.014a9.874,9.874,0,0,0,3.583-.531c1.111-.451,1.658-2.588,1.3-3.814a3.818,3.818,0,0,0-3.216-2.122c-3.843,0-7.686.012-11.529-.009-2.157-.012-3.254-1.01-3.267-2.892-.015-2.272,1.023-3.312,3.332-3.313q26.458,0,52.915-.006a5.87,5.87,0,0,0,1.606-.128,3.277,3.277,0,0,0,2.154-3.476,2.979,2.979,0,0,0-3.22-2.6q-12.785-.02-25.571-.01a2.8,2.8,0,0,1-3.129-2.915q-9.888-.03-19.775-.058,9.888.02,19.775.058c3.444-.022,6.887-.033,10.33-.071,2.554-.028,4.129-1.17,4.537-3.241l.181-.225.067-.065q16.7.014,33.4.03a2.092,2.092,0,0,0,1.493-.472,3.253,3.253,0,0,0-2.061-5.75q-9.9.025-19.806.006c-1.99,0-3.558-1.276-3.589-2.905a3.287,3.287,0,0,1,3.54-3.3c4.878,0,9.755,0,14.633-.008.536,0,1.071-.108,1.608-.134,1.574-.075,2.654-1.928,2.387-3.593a3.456,3.456,0,0,0-3.05-2.476c-2.316-.012-4.631.009-6.947-.008-2.232-.017-3.321-1.071-3.319-3.167,0-2.314.77-3.029,3.306-3.034,4.927-.008,9.854.021,14.78-.023a6.731,6.731,0,0,0,3.688-.667,2.77,2.77,0,0,0,1.165-3.366,3.108,3.108,0,0,0-3.135-2.428c-2.906-.042-5.813-.01-8.72-.016a3.043,3.043,0,0,1-2.969-2.246,2.821,2.821,0,0,1,1.22-3.357,4.031,4.031,0,0,1,2.526-.616q11.9.019,23.8,0a3.1,3.1,0,0,0,3.363-3.38,3.176,3.176,0,0,0-3.225-2.822m-98.81-21.944h0c-.322.318-1.142-.356-1.386.175.244-.53,1.064.144,1.386-.175m-.244-.374a.6.6,0,0,1-.03-.537.6.6,0,0,0,.03.537m-6.657-8.808a13.077,13.077,0,0,0,2.758-.815,13.088,13.088,0,0,1-2.758.815m-1.475,11.9c5.466,0,10.931-.005,16.4.008q-8.2-.02-16.4-.007-8.05,0-16.1,0,8.051.014,16.1,0m4.763,35.512a.841.841,0,0,1,.358-.02.841.841,0,0,0-.358.02m.887,12.58a.259.259,0,0,1-.015-.025.259.259,0,0,0,.015.025m3.97,0a.447.447,0,0,1-.109-.008.447.447,0,0,0,.109.008m.084-.019a.248.248,0,0,1-.059.013.248.248,0,0,0,.059-.013m.25-.561a.152.152,0,0,0-.1.038.152.152,0,0,1,.1-.038m.309-.286a.233.233,0,0,0-.088.052.233.233,0,0,1,.088-.052m.462-.577a.124.124,0,0,0-.02.09.121.121,0,0,1,.02-.09m.088-.038a.122.122,0,0,0-.088.038.121.121,0,0,1,.088-.038m.206-.1-.009.008.009-.008m.028-.431a.17.17,0,0,1,.077-.068.169.169,0,0,0-.077.068m.217-3.119a2.352,2.352,0,0,1,.227,2.139,2.353,2.353,0,0,0-.227-2.139m-2.6-7.775a7.286,7.286,0,0,1,4.382,1.613,7.289,7.289,0,0,0-4.382-1.613m5.756,3.023a.257.257,0,0,0-.171-.151.259.259,0,0,1,.171.151h0m.1.016.02,0-.02,0m.194.279a.3.3,0,0,0-.062-.093.3.3,0,0,1,.063.093h0m.1.015.024,0-.024,0m.2.281a.281.281,0,0,0-.157-.158.286.286,0,0,1,.158.158h0m-11.667-2.386.119-.058-.118.058-1.066.431,1.065-.431m1.921,10.934a.231.231,0,0,0-.03-.079.231.231,0,0,1,.03.079m10.02-8.208a.325.325,0,0,0-.05-.111.337.337,0,0,1,.05.111h0M100.131,78.651q-8.117,0-16.234-.005,8.117.014,16.234,0,8.191,0,16.382,0-8.19.012-16.382,0m15.392,41.558a3.453,3.453,0,0,1-.82.973,3.458,3.458,0,0,0,.82-.973m.19-.4a3.38,3.38,0,0,1-.158.328,3.38,3.38,0,0,0,.158-.328m.224-.886a.178.178,0,0,0,.151-.174.179.179,0,0,1-.151.174h0m1.5-2.584a7.759,7.759,0,0,0-.951-7.378,7.759,7.759,0,0,1,.951,7.378q-.134.355-.3.706.168-.35.3-.706m5.677-73.837c0-.034-.006-.07-.008-.106,0,.036,0,.072.008.106m3.108,8.076c.644,1.075,1.278,2.156,1.911,3.238-.632-1.082-1.266-2.163-1.911-3.238m3.658,6.178a.748.748,0,0,1,0,.388.748.748,0,0,0,0-.388m4.644.1a.376.376,0,0,1,.3-.33.376.376,0,0,0-.3.33m0,.133a.577.577,0,0,1,0-.123.6.6,0,0,0,0,.123m-.14.383a.3.3,0,0,0-.276.1.3.3,0,0,1,.276-.1m-.32.5h0a.131.131,0,0,0-.13.063.131.131,0,0,1,.13-.063m.549-.575h0l-.078.012Zm.491-.657c-.015-.052-.034-.106-.054-.161l.184-.377h0l-.184.377c.02.055.039.108.054.161m.4-.827h0l-.1.013Zm.643-1.675a2.416,2.416,0,0,0-.614,1.353,2.412,2.412,0,0,1,.614-1.353m1.979-2.608L138.1,51.5l.039.038a3.249,3.249,0,0,0-.7.728,3.249,3.249,0,0,1,.7-.728m2.192-3.977-.231.381Zm1.024-2.438c.187-.323.383-.642.583-.957-.2.316-.4.634-.583.957m-18.268-3.008h0c-1.506.39-1.688.763-1.024,2.094h0c-.664-1.33-.482-1.7,1.024-2.094m6.873,15.351h0a.163.163,0,0,0-.024-.1.167.167,0,0,1,.024.1m-29.018,61.479c.686.65,1.505,1.194,1.646,2.246h0c-.141-1.052-.96-1.6-1.646-2.246m1.069,2.3c.009-.163.052-.294.2-.271-.15-.023-.192.109-.2.271M132.763,64q.054-.056.106-.121c-.973-.373-2.013-.485-3-.845.988.36,2.028.472,3,.845-.035.043-.071.084-.107.121" transform="translate(-15.455 0)" fill="#f5f5f5"/>
        <path id="Path_253840" data-name="Path 253840" d="M10.253,296.9c-2.5-.08-5.013-.1-7.513.006-1.939.084-2.817,1.362-2.734,3.606a2.818,2.818,0,0,0,2.982,2.569c1.129.016,2.259,0,3.389,0,1.277,0,2.557.056,3.83-.018a3.084,3.084,0,0,0,.046-6.166" transform="translate(0 -209.06)" fill="#f5f5f5"/>
        <path id="Path_253841" data-name="Path 253841" d="M79.664,381.9c-1.619-.058-3.243-.05-4.862,0a2.985,2.985,0,0,0-2.66,2.028,2.8,2.8,0,0,0,.627,3.114c1.287,1.514,2.98.917,4.393,1.056.883,0,1.62.008,2.356,0a2.8,2.8,0,0,0,3.06-2.834,3.129,3.129,0,0,0-2.915-3.363" transform="translate(-50.643 -268.943)" fill="#f5f5f5"/>
        <path id="Path_253842" data-name="Path 253842" d="M109.65,90.748a8.768,8.768,0,0,0,4.359.366,2.89,2.89,0,0,0,2.616-2.073,3.266,3.266,0,0,0-.72-3.283c-.962-1.1-2.261-.723-3.31-.789-.837,0-1.528-.041-2.213.009a2.778,2.778,0,0,0-2.485,2.34c-.249,1.773.357,2.859,1.753,3.429" transform="translate(-75.953 -59.832)" fill="#f5f5f5"/>
        <path id="Path_253843" data-name="Path 253843" d="M111.115,423.813a4.219,4.219,0,0,0-3.543.125,3.588,3.588,0,0,0-1.727,3.987c.267,1.046,1.9,2.187,3.572,2.191.593-.077,1.619-.157,2.621-.355.842-.166,2.072-2.289,1.917-3.16-.344-1.931-.836-2.223-2.84-2.788" transform="translate(-74.47 -298.261)" fill="#f5f5f5"/>
        <path id="Path_253844" data-name="Path 253844" d="M660.555,253.985c-1.535-.621-4.33-.041-5.218,1.055a2.884,2.884,0,0,0-.527,3.282c.738,1.238,1.885,2.3,3.488,1.98,2.6,0,4.114-1.015,4.289-2.787a3.2,3.2,0,0,0-2.033-3.53" transform="translate(-460.963 -178.703)" fill="#f5f5f5"/>
        <path id="Path_253845" data-name="Path 253845" d="M446.762,48.469a3.409,3.409,0,0,0,3.4-2.03c.561-1.746.288-2.83-.975-3.817a4.473,4.473,0,0,0-3.248-.643c-2.908.192-4.155,2.763-2.479,5.145a3.419,3.419,0,0,0,3.3,1.345" transform="translate(-311.8 -29.54)" fill="#f5f5f5"/>
        <path id="Path_253846" data-name="Path 253846" d="M35.616,218.123c2.453.016,3.938-1.1,3.94-2.963,0-1.93-1.425-3.15-3.534-3.27-2.72-.154-3.515,1.364-3.769,3.323-.194,1.5,1.517,2.9,3.364,2.909" transform="translate(-22.705 -149.227)" fill="#f5f5f5"/>
      </g>
    </g>
    <g id="Group_37578" data-name="Group 37578" transform="translate(-7961.147 -17299.746)">
      <g id="Group_37577" data-name="Group 37577" clip-path="url(#clip-path-2)">
        <path id="Path_253865" data-name="Path 253865" d="M50.4,132.819a13.774,13.774,0,0,1-5.887-1.851c-1.967-1.315-4.233-2.182-6.212-3.481-2.689-1.764-5.762-2.763-8.405-4.67a46.951,46.951,0,0,0-7.855-4.136,25.762,25.762,0,0,1-2.5-1.494c-3.649-2.208-7.566-3.951-11.042-6.467a29.293,29.293,0,0,0-3.292-1.5C1.113,107.012-1.512,100.953.956,96.1,3.044,91.992,5.328,88,7.542,83.959,9.2,80.941,10.864,77.924,12.51,74.9c.776-1.427,1.78-2.737,2.491-4.192.544-1.113,1.026-2.243,1.6-3.351,2.405-4.611,5.042-9.09,7.522-13.656,3.148-5.8,6.338-11.569,9.5-17.359,2.786-5.1,5.482-10.26,8.356-15.314,2.024-3.561,3.9-7.2,6.093-10.677,1.15-1.826,1.971-3.885,3.136-5.739a10.237,10.237,0,0,1,13.039-3.58c4.988,2.464,9.678,5.459,14.6,8.04,4.429,2.324,8.886,4.59,13.229,7.077,3.943,2.258,7.847,4.608,11.919,6.609a10.97,10.97,0,0,1,6.17,8.283,8.34,8.34,0,0,1-1,5.676c-3.112,5.993-6.139,12.031-9.568,17.86-2.384,4.051-4.444,8.292-6.713,12.412-2.7,4.9-5.595,9.686-8.162,14.648-2.592,5.009-5.17,10.038-8.055,14.867-3.3,5.531-5.81,11.5-9.474,16.83a11.511,11.511,0,0,0-1.773,3.562c-.6,2.373-2.425,4.015-3.46,6.134-.682,1.4-1.385,2.821-2.216,4.163-1.425,2.3-3.128,4.181-5.926,4.8-1.134.252-2.144,1.044-3.42.825M98.967,44.326c-1.915-1.126-3.819-2.27-5.746-3.375-7.178-4.117-14.612-7.766-21.771-11.923-3.4-1.975-6.881-3.817-10.379-5.628-3.989-2.065-7.865-4.353-11.763-6.589-.832-.478-1.25-.418-1.735.472-1.779,3.271-3.669,6.481-5.47,9.739-3.381,6.119-6.439,12.415-10.072,18.4-3.519,5.794-6.184,12.054-9.905,17.758A74.236,74.236,0,0,0,17.8,71.387c-1.176,2.425-2.753,4.645-3.717,7.183-1.453,2.423-2.872,4.867-4.374,7.26-.727,1.157-.471,1.792.716,2.392,2.856,1.446,5.69,2.94,8.479,4.509,5.713,3.214,11.327,6.61,17.111,9.686,2.654,1.411,5.366,2.7,7.986,4.2,5.706,3.271,11.453,6.478,17.356,9.393.691.341.95.247,1.372-.435,2.621-4.239,4.826-8.711,7.279-13.042,2.818-4.974,5.338-10.124,8.208-15.081,4.144-7.156,7.7-14.631,11.918-21.752,3.592-6.069,6.627-12.448,10.151-18.56,1.242-2.155,1.2-1.727-1.321-2.817M50.228,129.811a7.969,7.969,0,0,0,4.4-1.4c3-2.2,4.162-5.641,5.883-8.7.247-.438-.064-.8-.533-1.059-3.258-1.78-6.526-3.544-9.742-5.4-3.631-2.093-7.449-3.826-11.074-5.94-1.961-1.144-3.893-2.368-5.933-3.407a25.488,25.488,0,0,1-3.25-1.591,64.794,64.794,0,0,0-6.059-3.441,32.824,32.824,0,0,1-4.007-2.1,40.516,40.516,0,0,0-5.189-3.087c-1.879-1-3.885-1.782-5.7-2.954-.833-.539-1.614-.765-2.194.537a49.862,49.862,0,0,1-2.438,4.354c-2.838,4.955-1.419,9.2,3.407,11.921,3.295,1.86,6.546,3.8,9.925,5.53a55.517,55.517,0,0,1,7.128,3.933c2.211,1.574,4.891,2.472,7.285,3.81,5.14,2.873,10.34,5.632,15.547,8.38a4.325,4.325,0,0,0,2.544.613m56.849-97.537a6.734,6.734,0,0,0-3.677-6.536c-2.786-1.537-5.633-2.961-8.415-4.505-5.57-3.092-11.094-6.269-16.675-9.342-4.447-2.449-8.949-4.8-13.43-7.183a13.671,13.671,0,0,0-2.7-1.353c-3.923-1.052-6.729.117-8.812,3.308-1.227,1.879-2.25,3.891-3.364,5.844-.417.731-.366,1.235.518,1.635,1.077.487,2.066,1.168,3.116,1.721,4.93,2.6,9.69,5.5,14.668,8.02,3.9,1.975,7.673,4.212,11.472,6.384,6.769,3.87,13.81,7.244,20.487,11.281,2.211,1.337,2.223,1.316,3.537-.935.1-.171.263-.307.348-.482,1.213-2.5,3.068-4.76,2.932-7.856" transform="translate(0 0)" fill="#041242"/>
        <path id="Path_253866" data-name="Path 253866" d="M120.695,147.813c2.523,1.09,2.563.662,1.321,2.817-3.524,6.113-6.559,12.491-10.151,18.56-4.215,7.12-7.774,14.6-11.918,21.752-2.87,4.956-5.39,10.106-8.208,15.081-2.453,4.331-4.658,8.8-7.279,13.042-.422.683-.681.777-1.372.435-5.9-2.915-11.65-6.122-17.356-9.393-2.62-1.5-5.332-2.793-7.986-4.2-5.785-3.076-11.4-6.472-17.111-9.686-2.79-1.569-5.624-3.063-8.479-4.509-1.187-.6-1.442-1.235-.716-2.392,1.5-2.392,2.921-4.837,4.374-7.26a15.8,15.8,0,0,0,1.719-.483q13.574-5.481,27.138-10.987,20.843-8.424,41.69-16.837c4.793-1.942,9.556-3.956,14.333-5.937" transform="translate(-21.727 -103.486)" fill="#dfedff"/>
        <path id="Path_253867" data-name="Path 253867" d="M131.854,82.885c-4.777,1.981-9.541,4-14.333,5.937q-20.836,8.441-41.69,16.837-13.573,5.485-27.138,10.987a15.734,15.734,0,0,1-1.719.483c.964-2.537,2.54-4.757,3.716-7.182a74.211,74.211,0,0,1,4.324-8.209c3.722-5.7,6.386-11.964,9.905-17.758C68.552,78,71.61,71.7,74.991,65.583c1.8-3.259,3.691-6.469,5.47-9.739.484-.891.9-.95,1.735-.473,3.9,2.237,7.774,4.524,11.763,6.589,3.5,1.811,6.977,3.652,10.379,5.628,7.159,4.157,14.593,7.806,21.771,11.923,1.927,1.105,3.831,2.249,5.746,3.375" transform="translate(-32.886 -38.559)" fill="#b0c5e1"/>
        <path id="Path_253868" data-name="Path 253868" d="M57.092,340.641a4.326,4.326,0,0,1-2.544-.613c-5.208-2.748-10.407-5.507-15.547-8.38-2.394-1.338-5.074-2.236-7.285-3.81a55.52,55.52,0,0,0-7.128-3.933c-3.379-1.73-6.631-3.669-9.925-5.53-4.826-2.725-6.245-6.966-3.407-11.921a49.858,49.858,0,0,0,2.438-4.354c.58-1.3,1.361-1.076,2.194-.537,1.811,1.172,3.817,1.952,5.7,2.954a40.514,40.514,0,0,1,5.189,3.087,32.825,32.825,0,0,0,4.007,2.1,64.8,64.8,0,0,1,6.059,3.441,25.492,25.492,0,0,0,3.25,1.591c2.04,1.039,3.972,2.263,5.933,3.407,3.625,2.114,7.443,3.848,11.074,5.94,3.216,1.854,6.484,3.618,9.742,5.4.468.256.779.621.533,1.059-1.722,3.058-2.882,6.495-5.883,8.7a7.969,7.969,0,0,1-4.4,1.4M37.51,319.021a3.252,3.252,0,0,0-3.381,3.094c.034,1.624,1.749,3.486,3.211,3.487a3.842,3.842,0,0,0,3.426-3.574c0-1.85-1.246-3-3.256-3.007" transform="translate(-6.864 -210.83)" fill="#041242"/>
        <path id="Path_253869" data-name="Path 253869" d="M223.22,39.227c.135,3.1-1.719,5.356-2.932,7.856-.085.175-.249.312-.348.482-1.314,2.251-1.325,2.272-3.537.935-6.677-4.037-13.718-7.412-20.487-11.281-3.8-2.172-7.57-4.41-11.472-6.384-4.977-2.519-9.738-5.422-14.668-8.02-1.05-.553-2.038-1.234-3.116-1.721-.885-.4-.935-.9-.519-1.635,1.114-1.953,2.137-3.965,3.364-5.844,2.084-3.19,4.889-4.36,8.812-3.308a13.672,13.672,0,0,1,2.7,1.353c4.481,2.387,8.983,4.735,13.43,7.183,5.581,3.073,11.1,6.25,16.675,9.342,2.781,1.544,5.629,2.969,8.414,4.505a6.735,6.735,0,0,1,3.677,6.536M198.048,31.2c.894.268,1.077-.392,1.325-.933a1.063,1.063,0,0,0-.541-1.475c-1.74-1.021-3.471-2.061-5.244-3.022-2.543-1.377-4.895-3.1-7.556-4.256-.816-.355-1.733-.591-2.223.589-.42,1.012.112,1.511.919,1.976,2.95,1.7,5.847,3.491,8.828,5.131a13.757,13.757,0,0,0,4.493,1.989m6.034.318a1.26,1.26,0,0,0-1.51.709,1.121,1.121,0,0,0,.222,1.486,12.059,12.059,0,0,0,2.474,1.54,1.746,1.746,0,0,0,1.839-.478,1.387,1.387,0,0,0-.058-1.787,4.956,4.956,0,0,0-2.967-1.469" transform="translate(-116.142 -6.953)" fill="#041242"/>
        <path id="Path_253870" data-name="Path 253870" d="M92.236,96.6c.135-.323-.3-.816.3-1,.038.376.456.863-.3,1" transform="translate(-64.557 -66.934)" fill="#ff6242"/>
        <path id="Path_253871" data-name="Path 253871" d="M94.3,360.776c2.01.006,3.257,1.157,3.256,3.007a3.842,3.842,0,0,1-3.426,3.574c-1.462,0-3.176-1.863-3.211-3.487a3.252,3.252,0,0,1,3.381-3.094" transform="translate(-63.654 -252.585)" fill="#fff"/>
        <path id="Path_253872" data-name="Path 253872" d="M239.537,57.587a13.746,13.746,0,0,1-4.493-1.989c-2.981-1.64-5.878-3.432-8.828-5.13-.808-.465-1.34-.964-.919-1.977.49-1.179,1.406-.943,2.223-.588,2.661,1.157,5.012,2.878,7.556,4.256,1.774.96,3.5,2,5.244,3.022a1.063,1.063,0,0,1,.541,1.475c-.248.54-.431,1.2-1.325.933" transform="translate(-157.631 -33.335)" fill="#fff"/>
        <path id="Path_253873" data-name="Path 253873" d="M289.306,81.836a4.956,4.956,0,0,1,2.967,1.469,1.387,1.387,0,0,1,.058,1.787,1.746,1.746,0,0,1-1.839.478,12.059,12.059,0,0,1-2.474-1.54,1.121,1.121,0,0,1-.222-1.486,1.26,1.26,0,0,1,1.51-.709" transform="translate(-201.366 -57.266)" fill="#fff"/>
      </g>
    </g>
    <g id="Rectangle_4997" data-name="Rectangle 4997" transform="translate(-7920.844 -17220.188)" fill="#f95916" stroke="#fff" stroke-width="2">
      <rect width="70" height="26" rx="12" stroke="none"/>
      <rect x="1" y="1" width="68" height="24" rx="11" fill="none"/>
    </g>
    <g id="Group_37579" data-name="Group 37579" transform="translate(-7910.226 -17212.543)">
      <circle id="Ellipse_574" data-name="Ellipse 574" cx="5" cy="5" r="5" transform="translate(0.382 0.355)" fill="#fff"/>
      <circle id="Ellipse_575" data-name="Ellipse 575" cx="5" cy="5" r="5" transform="translate(13.382 0.355)" fill="#fff"/>
      <circle id="Ellipse_576" data-name="Ellipse 576" cx="5" cy="5" r="5" transform="translate(26.382 0.355)" fill="#fff"/>
      <ellipse id="Ellipse_577" data-name="Ellipse 577" cx="5.5" cy="5" rx="5.5" ry="5" transform="translate(38.382 0.355)" fill="#fff"/>
    </g>
    <g id="Group_37771" data-name="Group 37771" transform="translate(-7952.501 -17288.043)">
      <g id="Group_37573" data-name="Group 37573" clip-path="url(#clip-path-3)">
        <path id="Path_253855" data-name="Path 253855" d="M139.646,159.934c.208.121.292.25.031.407-.243-.118-.1-.265-.031-.407" transform="translate(-113.047 -129.567)" fill="#e8f4fa"/>
        <path id="Path_253856" data-name="Path 253856" d="M138.608,159.584v-.02l-.186,0,.185.016" transform="translate(-112.141 -129.267)" fill="#e8f4fa"/>
        <path id="Path_253857" data-name="Path 253857" d="M53.313,11.147a12.681,12.681,0,0,1-7.791,2.66A12.873,12.873,0,0,1,32.816.919c0-.308.011-.614.032-.919h-2.28a2.24,2.24,0,0,1-.516.037q-8.065-.013-16.13,0c-2.878,0-5.758.06-8.634-.017A5.105,5.105,0,0,0,0,5.247C.161,10.3.046,15.366.046,20.427H.092c0,4.9-.011,9.8.012,14.707A4.822,4.822,0,0,0,.4,37.476a5.051,5.051,0,0,0,4.774,3.012c6.041-.025,12.082.006,18.123-.026a2.266,2.266,0,0,1,1.813.767c1.618,1.69,3.256,3.362,4.942,4.982a2.907,2.907,0,0,0,3.14.826A3.165,3.165,0,0,0,35.4,44.825a11.591,11.591,0,0,0,.164-3.377c-.012-.806.236-.993,1.013-.985,3.985.039,7.971.051,11.955,0a4.593,4.593,0,0,0,4.315-2.611,4.78,4.78,0,0,0,.465-1.535ZM51.376,36.1c.182.748-.623,1.847-1.646,2.253a4.137,4.137,0,0,1-1.565.246q-6.449-.014-12.9,0c-1.349,0-1.576.236-1.578,1.616,0,1.106-.021,2.213.006,3.319a1.751,1.751,0,0,1-1.084,1.786c-.658.276-1.085-.269-1.515-.694-1.82-1.8-3.661-3.571-5.475-5.373a2.137,2.137,0,0,0-1.651-.673c-6.259.03-12.518-.006-18.777.034a2.983,2.983,0,0,1-3.057-1.95c-.243-.118-.1-.265-.031-.407a.155.155,0,0,1-.131-.07h0q-.021-15.405-.04-30.81c0-1.771.637-2.758,2.046-3.283A3.353,3.353,0,0,1,5.189,1.93q12.427-.005,24.854-.016c.659,0,.922.125.979.862a13.313,13.313,0,0,0,3.781,8.1,13.811,13.811,0,0,0,7.142,4.32,13.918,13.918,0,0,0,8.525-.434c1.128-.458,1.132-.478,1.132.692q0,9.486,0,18.973c0,.347-.024.694-.036,1.042.025.236.29.544-.189.629" transform="translate(0)" fill="#fff"/>
        <path id="Path_253858" data-name="Path 253858" d="M53.227,11.21c0-1.989.021-3.976.083-5.963A5.105,5.105,0,0,0,48.026.016c-2.876.076-5.756.016-8.634.016l-6.547,0c0-.011,0-.022,0-.033h-2.28a1.44,1.44,0,0,1-.3.034H27Q20.461.029,13.92.032c-2.878,0-5.758.06-8.634-.016A5.105,5.105,0,0,0,0,5.247C.16,10.3.045,15.366.045,20.427H.091c0,4.9-.011,9.8.011,14.707a4.822,4.822,0,0,0,.292,2.342,5.051,5.051,0,0,0,4.774,3.012c6.041-.025,12.082.006,18.123-.026a2.266,2.266,0,0,1,1.813.767c1.618,1.69,3.256,3.362,4.942,4.983a2.907,2.907,0,0,0,3.14.826A3.164,3.164,0,0,0,35.4,44.825a11.6,11.6,0,0,0,.165-3.378c-.013-.805.236-.993,1.013-.985,3.985.039,7.971.051,11.955,0a4.593,4.593,0,0,0,4.315-2.611,4.784,4.784,0,0,0,.464-1.535V11.147l-.085.063m-5.1-9.28a3.357,3.357,0,0,1,1.208.159c1.409.525,2.048,1.512,2.046,3.283q0,3.5-.009,7.007a12.412,12.412,0,0,1-5.847,1.428A12.858,12.858,0,0,1,32.863,1.924q7.631.005,15.261.006M48.164,38.6q-6.449-.014-12.9,0c-1.349,0-1.576.236-1.578,1.616,0,1.106-.021,2.213.006,3.319a1.75,1.75,0,0,1-1.084,1.786c-.658.277-1.085-.269-1.515-.693-1.82-1.8-3.661-3.571-5.475-5.373a2.137,2.137,0,0,0-1.651-.673c-6.259.03-12.518-.006-18.777.034a2.983,2.983,0,0,1-3.057-1.95c-.243-.118-.1-.265-.031-.407a.155.155,0,0,1-.131-.07h0q-.021-15.405-.04-30.81c0-1.771.637-2.758,2.046-3.283A3.357,3.357,0,0,1,5.188,1.93q10.773,0,21.545-.012l3.544,0c.488.034.694.213.744.855a13.311,13.311,0,0,0,3.781,8.1,13.809,13.809,0,0,0,7.142,4.32,13.919,13.919,0,0,0,8.525-.434,2.8,2.8,0,0,1,.9-.288q-.014,10.854-.028,21.708h0a.155.155,0,0,1-.131.07c.065.141.212.289-.031.407a2.92,2.92,0,0,1-1.893,1.8v.03a4.87,4.87,0,0,1-1.118.108" transform="translate(0)" fill="#fff"/>
        <path id="Path_253859" data-name="Path 253859" d="M59.856,13.541c0-1.771-.637-2.758-2.046-3.283A3.354,3.354,0,0,0,56.6,10.1q-9.031,0-18.063-.008c-.074-.006-.155-.008-.243-.008-1.091,0-2.183,0-3.274,0s-2.183,0-3.274,0c-.088,0-.169,0-.243.008q-9.031.009-18.063.008a3.353,3.353,0,0,0-1.208.16c-1.409.525-2.048,1.511-2.046,3.283q.005,4.748.012,9.5c-.011.148-.012.339-.012.587q0,9.486,0,18.973c0,.347.024.694.036,1.039h0q0,.367,0,.733v-.02a.155.155,0,0,0,.131.07l.031.02a1.238,1.238,0,0,0,.041.358c-.014.01-.025.019-.041.029a2.983,2.983,0,0,0,3.057,1.95c6.259-.04,12.518,0,18.777-.034a2.137,2.137,0,0,1,1.651.673c1.814,1.8,3.654,3.578,5.475,5.373.43.425.857.97,1.515.694A1.751,1.751,0,0,0,41.949,51.7c-.026-1.106-.008-2.213-.006-3.319,0-1.38.229-1.615,1.578-1.615q6.449,0,12.9,0a4.134,4.134,0,0,0,1.565-.246,2.906,2.906,0,0,0,1.559-1.5h.024c.03-.062.06-.123.088-.188-.016-.01-.028-.019-.041-.029a1.23,1.23,0,0,0,.04-.357l.033-.021a.155.155,0,0,0,.131-.07v.02q0-.367,0-.733h0c.012-.345.035-.692.036-1.039q0-9.486,0-18.973c0-.247,0-.439-.012-.587q.006-4.748.012-9.5m-20.917,24H31.1l-9.084,0a1.062,1.062,0,0,1-.149-.028c-.477-.129-.832-.38-.776-.987a.854.854,0,0,1,.825-.856c.049-.007.1-.011.148-.014H47.976c.049,0,.1.007.148.014a.855.855,0,0,1,.826.856c.055.607-.3.858-.777.987a1.057,1.057,0,0,1-.149.028l-9.084,0M29.414,22.1a.993.993,0,0,1,.655-.2h9.906a.958.958,0,0,1,.959,1.313c-.147.455-.557.563-1,.563l-4.916,0-4.916,0c-.44,0-.849-.108-1-.563a1,1,0,0,1,.3-1.117m7.568,8.54H23.125c-.318,0-.637,0-.955-.006-.884-.008-1.335-.607-1.037-1.349.244-.607.812-.509,1.305-.51q6.292,0,12.584,0t12.584,0c.493,0,1.061-.1,1.305.51.3.741-.153,1.34-1.037,1.349-.318,0-.637,0-.955.006H36.982m14.863-8.7c.422.159.777.385.79.93a.767.767,0,0,1-.624.822q-.906-.117-1.813-.325a12.763,12.763,0,0,1-3.656-1.46h4.739a1.657,1.657,0,0,1,.564.034m-33.647,0a1.657,1.657,0,0,1,.564-.034H23.5a12.763,12.763,0,0,1-3.656,1.46q-.907.207-1.813.325a.767.767,0,0,1-.624-.822c.013-.544.368-.77.79-.93" transform="translate(-8.254 -8.168)" fill="#c2ccd6"/>
        <path id="Path_253860" data-name="Path 253860" d="M65.816,146.633q-7.832,0-15.664,0a5.14,5.14,0,0,1-1.051-.056c-.512-.109-.876-.376-.873-.917,0-.557.413-.773.917-.873a4.952,4.952,0,0,1,.949-.038q15.823,0,31.646,0a5.887,5.887,0,0,1,.74.015.9.9,0,0,1,.921.856c.062.607-.334.858-.866.987a4.136,4.136,0,0,1-.948.029H65.816" transform="translate(-39.07 -117.259)" fill="#fff"/>
        <path id="Path_253861" data-name="Path 253861" d="M65.939,110.356q-7.875,0-15.75,0a5.263,5.263,0,0,1-.948-.029c-.537-.1-1.011-.3-1-.908.015-.593.46-.807,1.012-.9a4.273,4.273,0,0,1,.738-.032q15.961,0,31.922.01c.549,0,1.183-.1,1.456.51.332.741-.171,1.34-1.157,1.349-2.184.018-4.369.006-6.554.006H65.939" transform="translate(-39.085 -87.883)" fill="#fff"/>
        <path id="Path_253862" data-name="Path 253862" d="M65.939,73.888q-7.875,0-15.75,0a5.261,5.261,0,0,1-.948-.029c-.537-.1-1.011-.3-1-.908.015-.593.46-.807,1.012-.9A4.271,4.271,0,0,1,50,72.014q15.961,0,31.922.01c.549,0,1.183-.1,1.456.51.332.741-.171,1.34-1.157,1.349-2.184.018-4.369.006-6.554.006H65.939" transform="translate(-39.085 -58.34)" fill="#fff"/>
        <path id="Path_253863" data-name="Path 253863" d="M60.024,74.2q-5.074,0-10.148,0a4,4,0,0,1-.85-.04c-.452-.1-.828-.291-.814-.872.013-.544.368-.77.79-.93a1.663,1.663,0,0,1,.564-.034l20.961,0a1.315,1.315,0,0,1,.906.2,1,1,0,0,1,.3,1.117c-.147.455-.557.563-1,.563l-5.217,0h-5.5" transform="translate(-39.058 -58.587)" fill="#fff"/>
      </g>
    </g>
  </g>
</svg>
