<?xml version="1.0" encoding="utf-8"?>
<!-- Generator: Adobe Illustrator 27.4.1, SVG Export Plug-In . SVG Version: 6.00 Build 0)  -->
<svg version="1.1" id="Layer_1" xmlns="http://www.w3.org/2000/svg" xmlns:xlink="http://www.w3.org/1999/xlink" x="0px" y="0px"
	 viewBox="0 0 47.4 51.8" style="enable-background:new 0 0 47.4 51.8;" xml:space="preserve">
<style type="text/css">
	.st0{fill:#6BBF8A;}
</style>
<g id="Group_39574" transform="translate(-665.441 -448.002)">
	<path id="volunteer_activism_FILL0_wght400_GRAD0_opsz48" class="st0" d="M690.9,499.8l-15-4.3v2.8h-10.4v-19h14.9l12.3,4.6
		c0.9,0.3,1.6,0.9,2.2,1.6c0.7,0.9,1,2,0.9,3.1h5.5c1.3,0,2.5,0.5,3.4,1.5c0.9,1.1,1.4,2.5,1.4,3.9v1.3L690.9,499.8z M668.3,495.4
		h4.5v-13.2h-4.5V495.4z M690.7,496.8L703,493c-0.1-0.5-0.4-0.9-0.7-1.3c-0.3-0.2-0.6-0.3-1-0.3h-10c-1.7,0-3.4-0.2-5-0.7l-3.9-1.2
		l1.1-2.8l3.5,1.2c0.7,0.2,1.5,0.4,2.3,0.5c1.1,0.1,2.3,0.2,3.5,0.1c0-0.4-0.1-0.8-0.2-1.1c-0.1-0.4-0.4-0.6-0.7-0.8l-11.8-4.5h-4.1
		v10.3L690.7,496.8z"/>
	<path id="paid_FILL1_wght400_GRAD0_opsz48_2_" class="st0" d="M699.8,481.3h1.7v-1.6c1.1-0.1,2.1-0.5,2.9-1.1
		c0.7-0.6,1.1-1.5,1-2.5c0-0.9-0.3-1.8-0.9-2.5c-0.8-0.8-1.9-1.4-3-1.8c-0.9-0.3-1.7-0.8-2.5-1.3c-0.5-0.3-0.8-0.9-0.8-1.5
		c0-0.6,0.2-1.1,0.7-1.5c0.5-0.4,1.2-0.6,1.9-0.5c0.6,0,1.1,0.1,1.6,0.4c0.5,0.3,0.9,0.8,1.1,1.3l1.5-0.7c-0.3-0.7-0.8-1.2-1.4-1.7
		c-0.6-0.4-1.3-0.7-2-0.7V464h-1.7v1.5c-0.9,0.1-1.8,0.5-2.4,1.1c-0.6,0.6-0.9,1.4-0.9,2.3c0,0.9,0.3,1.7,0.9,2.4
		c0.8,0.7,1.7,1.3,2.7,1.6c1,0.4,1.9,0.9,2.8,1.5c0.5,0.4,0.8,1,0.8,1.7c0,0.6-0.3,1.2-0.8,1.6c-0.6,0.4-1.3,0.6-2,0.6
		c-0.8,0-1.5-0.2-2.1-0.7c-0.6-0.4-1.1-1.1-1.3-1.8l-1.5,0.5c0.4,0.8,0.9,1.6,1.6,2.2c0.7,0.6,1.4,1,2.3,1.2V481.3z M700.7,484.7
		c-1.6,0-3.2-0.3-4.7-1c-2.9-1.2-5.2-3.5-6.5-6.4c-1.3-3-1.3-6.4,0-9.4c0.6-1.4,1.5-2.7,2.6-3.8c1.1-1.1,2.4-2,3.8-2.6
		c3-1.3,6.4-1.3,9.4,0c2.9,1.2,5.2,3.5,6.4,6.4c1.3,3,1.3,6.4,0,9.4c-0.6,1.4-1.5,2.7-2.6,3.9c-1.1,1.1-2.4,2-3.8,2.6
		C703.9,484.4,702.3,484.8,700.7,484.7z"/>
	<path id="paid_FILL1_wght400_GRAD0_opsz48_2_2" class="st0" d="M681.3,461.2h1.1v-1c0.7,0,1.3-0.3,1.8-0.7c0.4-0.4,0.7-1,0.7-1.6
		c0-0.6-0.2-1.2-0.6-1.6c-0.5-0.5-1.2-0.9-1.9-1.2c-0.6-0.2-1.1-0.5-1.6-0.8c-0.3-0.2-0.5-0.6-0.5-1c0-0.4,0.1-0.7,0.4-0.9
		c0.3-0.2,0.8-0.4,1.2-0.3c0.4,0,0.7,0.1,1,0.3c0.3,0.2,0.5,0.5,0.7,0.8l0.9-0.4c-0.2-0.4-0.5-0.8-0.9-1.1c-0.4-0.3-0.8-0.4-1.3-0.5
		v-1h-1.1v1c-0.6,0.1-1.1,0.3-1.6,0.7c-0.4,0.4-0.6,0.9-0.6,1.5c0,0.6,0.2,1.1,0.6,1.5c0.5,0.5,1.1,0.8,1.7,1c0.6,0.2,1.2,0.6,1.8,1
		c0.3,0.3,0.5,0.7,0.5,1.1c0,0.4-0.2,0.8-0.5,1c-0.4,0.3-0.8,0.4-1.3,0.4c-0.5,0-1-0.1-1.3-0.4c-0.4-0.3-0.7-0.7-0.8-1.2l-1,0.3
		c0.2,0.5,0.6,1,1,1.4c0.4,0.4,0.9,0.6,1.5,0.7V461.2z M681.9,463.4c-1,0-2-0.2-3-0.6c-1.9-0.8-3.3-2.3-4.1-4.1
		c-0.8-1.9-0.8-4.1,0-6c0.4-0.9,1-1.7,1.7-2.4c0.7-0.7,1.5-1.3,2.5-1.6c1.9-0.8,4.1-0.8,6,0c1.8,0.8,3.3,2.3,4.1,4.1
		c0.8,1.9,0.8,4.1,0,6c-0.4,0.9-0.9,1.7-1.6,2.5c-0.7,0.7-1.5,1.3-2.4,1.7C684,463.2,682.9,463.4,681.9,463.4z"/>
</g>
</svg>
