<?xml version="1.0" encoding="utf-8"?>
<!-- Generator: Adobe Illustrator 16.0.0, SVG Export Plug-In . SVG Version: 6.00 Build 0)  -->
<!DOCTYPE svg PUBLIC "-//W3C//DTD SVG 1.1//EN" "http://www.w3.org/Graphics/SVG/1.1/DTD/svg11.dtd">
<svg version="1.1" id="Layer_1" xmlns="http://www.w3.org/2000/svg" xmlns:xlink="http://www.w3.org/1999/xlink" x="0px" y="0px"
	 width="150.078px" height="150.099px" viewBox="0 0 150.078 150.099" enable-background="new 0 0 150.078 150.099"
	 xml:space="preserve">
<rect x="-0.457" y="-0.453" fill="#FFFFFF" width="150" height="149.998"/>
<g>
	<g>
		<g>
			<path fill-rule="evenodd" clip-rule="evenodd" fill="#3774BA" d="M0.043,74.789c0-24.323,0.014-48.646-0.036-72.97
				C0.004,0.396,0.209-0.002,1.768,0c48.813,0.056,97.627,0.057,146.439,0c1.656-0.002,1.869,0.49,1.867,1.958
				c-0.038,48.73-0.039,97.46,0.004,146.189c0.001,1.502-0.264,1.943-1.885,1.942c-48.73-0.054-97.46-0.058-146.189,0.009
				c-1.789,0.002-2.008-0.461-2.004-2.09C0.063,123.603,0.043,99.195,0.043,74.789z M20.049,95.804
				c0,10.578,0.04,21.157-0.037,31.735c-0.014,1.838,0.295,2.563,2.396,2.554c20.49-0.09,40.981-0.001,61.473-0.072
				c25.413-0.088,46.045-20.704,46.135-46.104c0.072-20.491-0.016-40.981,0.069-61.473c0.009-2.048-0.63-2.435-2.521-2.429
				c-19.99,0.065-39.982,0.025-59.974,0.046c-27.237,0.027-47.505,20.287-47.542,47.505C20.036,76.979,20.047,86.391,20.049,95.804z
				"/>
			<path fill-rule="evenodd" clip-rule="evenodd" fill="#FEFEFF" d="M20.048,95.804c-0.001-9.413-0.012-18.825,0.001-28.238
				c0.037-27.218,20.305-47.478,47.542-47.505c19.991-0.021,39.983,0.02,59.974-0.046c1.891-0.006,2.529,0.381,2.521,2.429
				c-0.085,20.491,0.003,40.981-0.069,61.473c-0.09,25.4-20.722,46.017-46.135,46.104c-20.491,0.071-40.982-0.018-61.473,0.072
				c-2.102,0.01-2.41-0.716-2.396-2.554C20.089,116.961,20.049,106.382,20.048,95.804z M72.832,45.56
				c0-2.852-0.067-5.707,0.027-8.556c0.05-1.515-0.445-2.024-1.986-1.996c-4.665,0.087-9.332,0.073-13.998,0.002
				c-1.369-0.021-1.872,0.328-1.869,1.795c0.04,24.829,0.04,49.659-0.002,74.489c-0.003,1.47,0.502,1.813,1.87,1.791
				c4.498-0.074,9.002-0.134,13.496,0.015c2.036,0.067,2.687-0.458,2.655-2.584c-0.123-8.581,0.019-17.165-0.098-25.745
				c-0.028-2.116,0.398-2.888,2.704-2.813c5.659,0.186,11.33,0.016,16.995,0.092c1.521,0.021,2.037-0.43,1.991-1.977
				c-0.104-3.497-0.153-7.004,0.006-10.496c0.093-2.031-0.436-2.735-2.583-2.678c-5.661,0.152-11.33,0.012-16.996,0.075
				c-1.533,0.018-2.308-0.325-2.246-2.062c0.107-2.995,0.104-6-0.002-8.996c-0.057-1.625,0.648-1.934,2.082-1.909
				c4.164,0.072,8.331,0.026,12.498,0.024c10.662-0.003,17.117-6.751,16.707-17.352c-0.052-1.346-0.463-1.684-1.73-1.668
				c-5.082,0.063-10.166,0-15.247,0.061c-1.929,0.023-3.764,0.583-5.524,1.397C77.533,38.345,74.95,41.551,72.832,45.56z"/>
			<path fill-rule="evenodd" clip-rule="evenodd" fill="#3874BA" d="M72.832,45.56c2.118-4.009,4.701-7.215,8.75-9.089
				c1.761-0.814,3.596-1.374,5.524-1.397c5.081-0.061,10.165,0.003,15.247-0.061c1.268-0.016,1.679,0.322,1.73,1.668
				c0.41,10.601-6.045,17.349-16.707,17.352c-4.167,0.002-8.334,0.048-12.498-0.024c-1.434-0.024-2.139,0.284-2.082,1.909
				c0.106,2.996,0.109,6.001,0.002,8.996c-0.062,1.736,0.713,2.079,2.246,2.062c5.666-0.063,11.335,0.077,16.996-0.075
				c2.147-0.058,2.676,0.646,2.583,2.678c-0.159,3.492-0.109,6.999-0.006,10.496c0.046,1.547-0.471,1.998-1.991,1.977
				c-5.665-0.076-11.336,0.094-16.995-0.092c-2.306-0.075-2.732,0.696-2.704,2.813c0.116,8.58-0.025,17.164,0.098,25.745
				c0.031,2.126-0.619,2.651-2.655,2.584c-4.494-0.148-8.998-0.089-13.496-0.015c-1.368,0.021-1.873-0.321-1.87-1.791
				c0.042-24.83,0.042-49.66,0.002-74.489c-0.003-1.467,0.5-1.815,1.869-1.795c4.666,0.071,9.333,0.085,13.998-0.002
				c1.541-0.028,2.036,0.481,1.986,1.996C72.765,39.853,72.832,42.708,72.832,45.56z"/>
		</g>
	</g>
</g>
</svg>
