<?xml version="1.0" encoding="utf-8"?>
<!-- Generator: Adobe Illustrator 26.2.1, SVG Export Plug-In . SVG Version: 6.00 Build 0)  -->
<svg version="1.1" baseProfile="basic" id="Layer_1"
	 xmlns="http://www.w3.org/2000/svg" xmlns:xlink="http://www.w3.org/1999/xlink" x="0px" y="0px" viewBox="0 0 113.43 112.08"
	 xml:space="preserve">
<g id="surface1_00000143608505481348593090000012639331919005202314_">
	<g>
		<defs>
			<rect id="SVGID_1_" x="6.71" y="6.04" width="100" height="100"/>
		</defs>
		<clipPath id="SVGID_00000088107012072768366530000012581566017766700443_">
			<use xlink:href="#SVGID_1_"  overflow="visible"/>
		</clipPath>
		<g clip-path="url(#SVGID_00000088107012072768366530000012581566017766700443_)">
			<path fill="#2CA01C" d="M6.71,56.04c0-27.62,22.39-50,50-50c27.62,0,50,22.39,50,50c0,27.61-22.38,50-50,50
				C29.1,106.04,6.71,83.65,6.71,56.04"/>
		</g>
	</g>
	<path fill="#FFFFFF" d="M20.6,56.04c0,10.74,8.71,19.44,19.45,19.44h2.78v-7.22h-2.78c-6.74,0-12.22-5.48-12.22-12.22
		c0-6.74,5.48-12.22,12.22-12.22h6.67v37.78c0,3.99,3.23,7.22,7.22,7.22V36.59h-13.9C29.3,36.59,20.6,45.3,20.6,56.04 M73.39,36.6
		h-2.78v7.22h2.78c6.74,0,12.22,5.48,12.22,12.22c0,6.74-5.48,12.22-12.22,12.22h-6.67V30.48c0-3.99-3.24-7.22-7.22-7.22v52.22h13.9
		c10.74,0,19.45-8.7,19.45-19.44S84.12,36.6,73.39,36.6"/>
</g>
<g>
</g>
<g>
</g>
<g>
</g>
<g>
</g>
<g>
</g>
<g>
</g>
</svg>
