<?xml version="1.0" encoding="UTF-8"?>
<svg id="Layer_1" data-name="Layer 1" xmlns="http://www.w3.org/2000/svg" version="1.1" viewBox="0 0 140.2 140.2">
  <defs>
    <style>
      .cls-1 {
        fill: #236eb4;
      }

      .cls-1, .cls-2 {
        stroke-width: 0px;
      }

      .cls-2 {
        fill: #fff;
      }
    </style>
  </defs>
  <circle class="cls-2" cx="70.1" cy="70.1" r="70.1"/>
  <g>
    <path class="cls-1" d="M89.8,116.5H26.4c-1.5,0-2.7-1.2-2.7-2.7v-23c0-5,3.2-9.5,8-11.1l70.3-24.1c5.5-1.9,9.1-7,9.1-12.8s-6.1-13.5-13.5-13.5H29.1v44.9c0,1.5-1.2,2.7-2.7,2.7s-2.7-1.2-2.7-2.7V26.4c0-1.5,1.2-2.7,2.7-2.7h71.1c10.5,0,19,8.5,19,19s-5.2,15.3-12.8,18l-70.3,24.1c-2.6.9-4.3,3.3-4.3,6v20.3h60.7c5.7,0,11-2.2,15-6.2,4-4,6.2-9.3,6.2-15s-1.1-7.9-3.3-11.3c-2.1-3.4-5.1-6.1-8.7-7.8-1.4-.7-1.9-2.3-1.3-3.6,0,0,0,0,0,0,.7-1.4,2.3-1.9,3.6-1.3,0,0,0,0,0,0,4.5,2.2,8.3,5.6,10.9,9.8,2.7,4.3,4.1,9.2,4.1,14.2,0,7.1-2.8,13.8-7.8,18.9-5,5-11.7,7.8-18.9,7.8h0Z"/>
    <path class="cls-1" d="M54.6,61.8c-6,0-10.9-4.9-10.9-10.9s4.9-10.9,10.9-10.9,10.9,4.9,10.9,10.9-4.9,10.9-10.9,10.9ZM54.6,45.4c-3,0-5.4,2.4-5.4,5.4s2.4,5.4,5.4,5.4,5.4-2.4,5.4-5.4-2.4-5.4-5.4-5.4ZM81.9,100.2c-6,0-10.9-4.9-10.9-10.9s4.9-10.9,10.9-10.9,10.9,4.9,10.9,10.9-4.9,10.9-10.9,10.9ZM81.9,83.8c-3,0-5.4,2.4-5.4,5.4s2.4,5.4,5.4,5.4,5.4-2.4,5.4-5.4-2.4-5.4-5.4-5.4Z"/>
  </g>
</svg>