<?xml version="1.0" encoding="utf-8"?>
<!-- Generator: Adobe Illustrator 27.3.1, SVG Export Plug-In . SVG Version: 6.00 Build 0)  -->
<svg version="1.1" id="Layer_1" xmlns="http://www.w3.org/2000/svg" xmlns:xlink="http://www.w3.org/1999/xlink" x="0px" y="0px"
	 viewBox="0 0 37.7 32.6" style="enable-background:new 0 0 37.7 32.6;" xml:space="preserve">
<style type="text/css">
	.st0{fill:#10123A;}
</style>
<path id="manage_accounts_FILL1_wght700_GRAD0_opsz48" class="st0" d="M27.5,32.6l-0.4-3c-0.5-0.1-0.9-0.3-1.3-0.6
	c-0.4-0.2-0.8-0.5-1.1-0.9l-2.6,0.6l-1.5-2.6l2.2-2c-0.1-0.3-0.1-0.6-0.1-0.9c0-0.3,0-0.6,0.1-0.9l-2.2-2.1l1.5-2.6l2.6,0.6
	c0.3-0.3,0.7-0.6,1.1-0.8c0.4-0.2,0.9-0.4,1.3-0.5l0.4-3.1h3.2l0.5,3.1c0.5,0.1,0.9,0.3,1.3,0.5c0.4,0.2,0.8,0.5,1.1,0.8l2.6-0.6
	l1.5,2.6l-2.2,2.1c0.1,0.3,0.2,0.6,0.2,0.9c0,0.3,0,0.6-0.2,0.9l2.2,2l-1.5,2.6l-2.6-0.6c-0.3,0.4-0.7,0.6-1.1,0.9
	c-0.4,0.2-0.9,0.4-1.3,0.6l-0.5,3L27.5,32.6z M0,31.2v-5.3c0-1.2,0.3-2.5,1.1-3.5c0.7-0.9,1.5-1.7,2.5-2.2c2-0.9,4-1.6,6.1-2.1
	c1.8-0.4,3.6-0.6,5.5-0.7h1.7c-1.1,2.2-1.7,4.7-1.5,7.1c-0.1,2.4,0.8,4.7,2.3,6.6L0,31.2z M29.1,26.5c0.9,0,1.7-0.3,2.4-0.9
	c0.6-0.6,0.9-1.5,0.9-2.4c0.1-1.7-1.2-3.2-2.9-3.3c-0.1,0-0.2,0-0.3,0c-0.9,0-1.7,0.3-2.4,0.9c-0.6,0.6-1,1.5-0.9,2.4
	c0,0.9,0.3,1.8,0.9,2.4C27.3,26.2,28.2,26.6,29.1,26.5z M15.2,14.9c-4.1-0.2-7.3-3.7-7.1-7.8C8.3,3,11.8-0.2,15.9,0
	C20,0.2,23.1,3.7,23,7.8c-0.1,1.9-0.9,3.6-2.2,4.9C19.3,14.2,17.3,14.9,15.2,14.9z"/>
<g>
</g>
<g>
</g>
<g>
</g>
<g>
</g>
<g>
</g>
<g>
</g>
<g>
</g>
<g>
</g>
<g>
</g>
<g>
</g>
<g>
</g>
<g>
</g>
<g>
</g>
<g>
</g>
<g>
</g>
</svg>
