<?xml version="1.0" encoding="utf-8"?>
<!-- Generator: Adobe Illustrator 27.3.1, SVG Export Plug-In . SVG Version: 6.00 Build 0)  -->
<svg version="1.1" id="Layer_1" xmlns="http://www.w3.org/2000/svg" xmlns:xlink="http://www.w3.org/1999/xlink" x="0px" y="0px"
	 viewBox="0 0 32 40" style="enable-background:new 0 0 32 40;" xml:space="preserve">
<style type="text/css">
	.st0{fill:#6A8D49;}
</style>
<path id="security_FILL1_wght400_GRAD0_opsz48" class="st0" d="M16,40c-4.7-1.2-8.8-4.1-11.5-8.1c-2.9-4.1-4.5-9-4.5-14V6l16-6l16,6
	v11.9c0,5-1.6,9.9-4.5,14C24.8,35.9,20.7,38.8,16,40z M16,36.9c3.5-1.2,6.6-3.4,8.8-6.4c2.3-3.1,3.7-6.7,4.1-10.5H16V3.2L3,8.1v9.8
	c0,0.4,0,0.7,0,1c0,0.3,0.1,0.6,0.1,1.1H16V36.9z"/>
<g>
</g>
<g>
</g>
<g>
</g>
<g>
</g>
<g>
</g>
<g>
</g>
<g>
</g>
<g>
</g>
<g>
</g>
<g>
</g>
<g>
</g>
<g>
</g>
<g>
</g>
<g>
</g>
<g>
</g>
</svg>
