<?xml version="1.0" encoding="utf-8"?>
<!-- Generator: Adobe Illustrator 27.3.1, SVG Export Plug-In . SVG Version: 6.00 Build 0)  -->
<svg version="1.1" id="Layer_1" xmlns="http://www.w3.org/2000/svg" xmlns:xlink="http://www.w3.org/1999/xlink" x="0px" y="0px"
	 viewBox="0 0 146 113.6" style="enable-background:new 0 0 146 113.6;" xml:space="preserve">
<style type="text/css">
	.st0{clip-path:url(#SVGID_00000183221017966002913910000008712557914573320592_);}
	.st1{fill:#F1F4F7;}
	.st2{clip-path:url(#SVGID_00000060027692037788951070000003192951304581575833_);}
	.st3{fill:#041242;}
	.st4{clip-path:url(#SVGID_00000127752244968721330280000000139279524082881706_);}
	.st5{fill:#FFFFFF;}
	.st6{fill:#C2CCD6;}
	.st7{fill:#F95916;}
	.st8{fill:none;stroke:#FFFFFF;stroke-width:2;}
</style>
<g id="Group_37738" transform="translate(10009 11889)">
	<g id="Group_37568" transform="translate(-10009 -11889)">
		<g>
			<defs>
				<rect id="SVGID_1_" width="146" height="113.6"/>
			</defs>
			<clipPath id="SVGID_00000084510751789441269610000006372550382156504242_">
				<use xlink:href="#SVGID_1_"  style="overflow:visible;"/>
			</clipPath>
			<g id="Group_37567" style="clip-path:url(#SVGID_00000084510751789441269610000006372550382156504242_);">
				<path id="Path_253839" class="st1" d="M138.9,63.6c-3.5,0-7,0-10.5,0c-1.2,0-2.4-0.6-2.6-1.4c-0.3-2,0.6-3.2,2.4-3.1
					c2.7,0.2,5.4,0.1,8.1-0.2c0.9-0.2,1.6-1,1.6-2c0.1-1-0.5-1.9-1.4-2.3c-0.6-0.1-1.3-0.2-1.9-0.3c-3,0-6.1,0-9.1,0
					c-1.7,0-2.6-0.8-2.6-2.2c0-1.3,1-2.3,2.3-2.3c0.1,0,0.2,0,0.3,0c3.3,0,6.6,0,9.8,0c1.6,0,2.4-0.8,2.3-2.4c0-1.4-0.8-2.1-2.4-2.1
					c-4.9,0-9.8,0-14.7,0c-1.3,0.1-2.4-1-2.5-2.3c0-0.1,0-0.1,0-0.2c0-1.3,0.9-2,2.4-2c2.3,0,4.6,0,6.8,0c1.4,0,2.3-0.6,2.5-1.6
					c0.4-1.9-0.4-2.9-2.4-2.9c-4.1,0-8.1,0-12.2,0c-0.7,0-1.5-0.1-2.2-0.2c-0.9-0.2-1.5-1-1.6-1.9c-0.2-1.3,0.7-2.4,1.9-2.6
					c0.2,0,0.4,0,0.6,0c3,0,6.1,0,9.1,0c0.6,0.1,1.1-0.1,1.6-0.5c0.8-0.6,1-1.6,0.7-2.5c-0.3-0.9-1.2-1.5-2.2-1.5
					c-7,0-13.9,0-20.9,0c-1.1,0.2-2.2-0.6-2.4-1.7c0-0.2,0-0.4,0-0.6c0-1.5,0.8-2.2,2.4-2.2c2.7,0,5.4,0,8,0c0.9,0,2,0,2.6-0.9
					c0.7-1.1,0.4-2.6-0.8-3.4c-0.4-0.3-0.9-0.4-1.4-0.4c-7.2,0-14.4,0-21.6,0c-0.5,0.1-1,0-1.4-0.3c-0.8-0.5-1.1-1.5-0.9-2.4
					c0.3-1,1.2-1.7,2.3-1.7c0.7,0,1.4,0,2,0c1.2-0.1,2.1-1.1,2-2.3c0-0.1,0-0.2,0-0.2c-0.2-1.1-1.1-2-2.3-2
					c-2.5,0.3-4.9,0.1-7.4,0.1c-1,0.1-1.8-0.6-2.1-1.5c-0.4-1.2,0.1-2.4,1.3-2.9c0.3-0.1,0.7-0.2,1-0.1c1.2,0,2.2-1.1,2.2-2.3
					c0,0,0,0,0,0c0.1-1.1-0.7-2-1.8-2.1c-0.1,0-0.2,0-0.3,0C79.3,0,74.6,0,70,0c-1.2,0-2.2,0.9-2.3,2c-0.1,1.3,1,2.4,2.3,2.5
					c0,0,0.1,0,0.1,0c1.5-0.1,3,0,4.5,0c0.8-0.1,1.5,0.3,1.9,0.9c0.5,0.8,0.5,1.7,0.1,2.5c-0.4,0.8-1.3,1.2-2.2,1.1
					c-9.7,0-19.5,0-29.2,0c-0.3,0-0.6,0-0.9,0c-1.3,0-2.3,1.1-2.3,2.4c0.1,1.2,1.2,2.1,2.4,2.1c0.8,0,1.6,0,2.5,0
					c1.3-0.1,2.5,0.8,2.6,2.1c0,0.1,0,0.1,0,0.2c0.1,1.3-0.9,2.4-2.2,2.4c-0.2,0-0.3,0-0.5,0c-4,0-8.1,0-12.1,0
					c-1.6,0-2.4,0.7-2.4,1.9c-0.2,1.2,0.7,2.4,1.9,2.6c0.2,0,0.4,0,0.5,0c0.6,0,1.3,0,1.9,0c1.2,0,2.1,0.9,2.3,2.1
					c0.1,1.2-0.9,2.3-2.1,2.4c-0.1,0-0.1,0-0.2,0c-2.8,0-5.6,0-8.5,0c-1.3,0-2.3,1.1-2.3,2.4c0,0.1,0,0.2,0,0.3
					c0.3,1,1.2,1.8,2.3,1.8c1.9,0,3.7,0,5.6,0c1.7,0,2.7,0.9,2.8,2.3c-0.1,1.4-1.3,2.4-2.6,2.4c-0.6,0-1.3,0-1.9,0
					c-3.8,0-7.6,0-11.3,0c-1-0.1-1.9,0.5-2.2,1.4c-0.4,1,0,2.1,0.9,2.7c0.7,0.4,1.4,0.5,2.1,0.5c2.2,0,4.5,0,6.7,0
					c1.5,0,2.4,0.7,2.4,2.1c0.1,1.2-0.9,2.3-2.1,2.4c-0.1,0-0.2,0-0.3,0c-1.6,0-3.1,0-4.7,0c-2.4,0-4.9,0-7.3,0
					c-1.3,0-2.3,1-2.3,2.3c0,0,0,0,0,0c-0.1,1.1,0.8,2.1,2,2.2c0.1,0,0.2,0,0.3,0c0.8,0,1.6,0,2.4,0c1.3,0,2.3,1.1,2.3,2.3
					c0,0.3-0.1,0.5-0.1,0.8c-0.3,1.3-1.3,1.4-2.3,1.4c-3.7,0-7.4,0-11.1,0c-1.3-0.1-2.4,0.8-2.5,2.1c0,0.4,0,0.9,0.3,1.3
					c0.4,0.9,1.4,1.5,2.5,1.3c5.7,0,11.4,0,17.1,0c0.4-0.1,0.7,0,1,0.1c0.9,0.6,1.3,1.7,1.1,2.7c-0.3,1.1-1.3,1.8-2.4,1.7
					c-3.3,0-6.6,0-10,0c-0.4-0.1-0.8,0-1.1,0.2c-0.7,0.7-1,1.7-0.8,2.7c0.3,1,1.2,1.7,2.3,1.6c2.4,0,4.7,0,7.1,0
					c1.1-0.2,2.1,0.6,2.3,1.7c0,0.2,0,0.4,0,0.6c0,1.7-0.6,2.2-2.3,2.2c-3.3,0-6.6,0-9.8,0c-1.1,0-2.1,0.7-2.4,1.8
					c-0.3,1.2,0.5,2.5,1.7,2.8c0.4,0.1,0.8,0.1,1.2,0.1c7.3,0,14.7,0,22,0c1.2,0,2.2,0.9,2.3,2.1c0,0.4-0.1,0.8-0.3,1.2
					c-0.5,1.1-1.5,1.1-2.5,1.2c-1.4,0.1-2.9,0-4.3,0c-1.1,0-2,0.8-2,1.9c0,0.1,0,0.2,0,0.2c0,1.5,0.7,2.4,2,2.4
					c4.2,0,8.5-0.1,12.7,0.1c1.3,0,2.5,0.4,3.8-0.2c0.8-0.3,2.3,1.4,2.3,2.4c-0.1,1.3-1.1,2.2-2.4,2.2c-4.1,0-8.1,0-12.2,0
					c-1.3-0.1-2.4,0.8-2.5,2.1c0,0.4,0,0.9,0.2,1.3c0.4,0.9,1.4,1.5,2.5,1.4c5.5,0,11.1,0,16.6,0c1.2-0.1,2.3,0.9,2.3,2.1
					c0,0,0,0,0,0c0,1.3-1.1,2.4-2.4,2.4c-1.6,0-3.1,0-4.7,0c-0.9-0.1-1.8,0.4-2.1,1.3c-0.5,1.1-0.1,2.5,1,3c0.4,0.2,0.8,0.3,1.3,0.2
					c4.9,0,9.8,0,14.7,0c1.2-0.1,2.3,0.7,2.5,1.9c0.2,1.3-0.5,2.2-2,2.5c-0.6,0-1.1,0.2-1.6,0.5c-0.8,0.6-1.1,1.7-0.7,2.6
					c0.4,1,1.4,1.7,2.5,1.6c5.6,0,11.1,0,16.7,0c0.9,0,1.8-0.1,2.6-0.4c0.8-0.3,1.2-1.9,0.9-2.8c-0.4-0.9-1.3-1.5-2.3-1.5
					c-2.8,0-5.6,0-8.3,0c-1.6,0-2.4-0.7-2.4-2.1c0-1.6,0.7-2.4,2.4-2.4c12.8,0,25.5,0,38.3,0c0.4,0,0.8,0,1.2-0.1
					c1-0.4,1.7-1.4,1.6-2.5c-0.1-1.2-1.2-2-2.3-1.9c-6.2,0-12.3,0-18.5,0c-1.1,0.1-2.1-0.7-2.3-1.8c0-0.1,0-0.2,0-0.3
					c-4.8,0-9.5,0-14.3,0c4.8,0,9.5,0,14.3,0c2.5,0,5,0,7.5-0.1c1.8,0,3-0.8,3.3-2.3l0.1-0.2l0,0c8.1,0,16.1,0,24.2,0
					c0.4,0,0.8-0.1,1.1-0.3c1-0.8,1.1-2.3,0.3-3.3c-0.4-0.5-1.1-0.8-1.8-0.8c-4.8,0-9.6,0-14.3,0c-1.2,0.2-2.4-0.7-2.6-1.9
					s0.7-2.4,1.9-2.6c0.2,0,0.4,0,0.6,0c3.5,0,7.1,0,10.6,0c0.4,0,0.8-0.1,1.2-0.1c1.2-0.2,2-1.4,1.7-2.6c0,0,0,0,0,0
					c-0.3-1-1.2-1.7-2.2-1.8c-1.7,0-3.4,0-5,0c-1.6,0-2.4-0.8-2.4-2.3c0-1.7,0.6-2.2,2.4-2.2c3.6,0,7.1,0,10.7,0
					c0.9,0.1,1.8-0.1,2.7-0.5c0.8-0.5,1.2-1.5,0.8-2.4c-0.2-1.1-1.2-1.8-2.3-1.8c-2.1,0-4.2,0-6.3,0c-1,0-1.9-0.7-2.1-1.6
					c-0.3-0.9,0.1-1.9,0.9-2.4c0.5-0.3,1.2-0.5,1.8-0.4c5.7,0,11.5,0,17.2,0c1.2,0.1,2.3-0.8,2.4-2c0-0.1,0-0.3,0-0.4
					C141.1,64.4,140.1,63.5,138.9,63.6 M67.4,47.7L67.4,47.7c-0.2,0.2-0.8-0.3-1,0.1C66.6,47.4,67.2,47.9,67.4,47.7 M67.2,47.4
					c-0.1-0.1-0.1-0.3,0-0.4C67.1,47.1,67.1,47.3,67.2,47.4 M62.4,41c0.7-0.1,1.4-0.3,2-0.6C63.7,40.7,63.1,40.9,62.4,41 M61.3,49.7
					c4,0,7.9,0,11.9,0C69.2,49.7,65.3,49.7,61.3,49.7c-3.9,0-7.8,0-11.7,0C53.5,49.7,57.4,49.7,61.3,49.7 M64.8,75.4
					c0.1,0,0.2,0,0.3,0C64.9,75.3,64.8,75.3,64.8,75.4 M65.4,84.5C65.4,84.5,65.4,84.5,65.4,84.5C65.4,84.5,65.4,84.5,65.4,84.5
					 M68.3,84.5C68.3,84.5,68.2,84.5,68.3,84.5C68.2,84.5,68.3,84.5,68.3,84.5 M68.3,84.5C68.3,84.5,68.3,84.5,68.3,84.5
					C68.3,84.5,68.3,84.5,68.3,84.5 M68.5,84.1C68.5,84.1,68.5,84.1,68.5,84.1C68.5,84.1,68.5,84.1,68.5,84.1 M68.7,83.8
					C68.7,83.9,68.7,83.9,68.7,83.8C68.7,83.9,68.7,83.9,68.7,83.8 M69.1,83.4C69.1,83.4,69.1,83.5,69.1,83.4
					C69.1,83.5,69.1,83.4,69.1,83.4 M69.1,83.4C69.1,83.4,69.1,83.4,69.1,83.4C69.1,83.4,69.1,83.4,69.1,83.4 M69.3,83.3L69.3,83.3
					L69.3,83.3 M69.3,83C69.3,83,69.3,83,69.3,83C69.3,83,69.3,83,69.3,83 M69.5,80.8c0.3,0.5,0.4,1,0.2,1.5
					C69.8,81.8,69.8,81.2,69.5,80.8 M67.6,75.1c1.2,0,2.3,0.4,3.2,1.2C69.9,75.6,68.7,75.2,67.6,75.1 M71.8,77.3
					c0-0.1-0.1-0.1-0.1-0.1C71.7,77.2,71.7,77.3,71.8,77.3L71.8,77.3 M71.8,77.3L71.8,77.3L71.8,77.3 M72,77.5
					C72,77.5,71.9,77.5,72,77.5C71.9,77.5,72,77.5,72,77.5L72,77.5 M72,77.5L72,77.5L72,77.5 M72.2,77.7c0-0.1-0.1-0.1-0.1-0.1
					C72.1,77.7,72.2,77.7,72.2,77.7L72.2,77.7 M63.7,76L63.7,76L63.7,76L63,76.3L63.7,76 M65.1,83.9C65.1,83.9,65.1,83.9,65.1,83.9
					C65.1,83.9,65.1,83.9,65.1,83.9 M72.4,78C72.4,78,72.4,77.9,72.4,78C72.4,77.9,72.4,78,72.4,78L72.4,78 M61.3,56.9
					c-3.9,0-7.8,0-11.8,0C53.5,56.9,57.4,56.9,61.3,56.9c4,0,7.9,0,11.9,0C69.2,56.9,65.3,56.9,61.3,56.9 M72.4,87
					c-0.2,0.3-0.4,0.5-0.6,0.7C72.1,87.5,72.3,87.3,72.4,87 M72.6,86.7c0,0.1-0.1,0.2-0.1,0.2C72.5,86.9,72.5,86.8,72.6,86.7
					 M72.7,86.1c0.1,0,0.1-0.1,0.1-0.1C72.8,86,72.8,86.1,72.7,86.1L72.7,86.1 M73.8,84.2c0.7-1.8,0.4-3.8-0.7-5.3
					C74.3,80.4,74.5,82.4,73.8,84.2c-0.1,0.2-0.1,0.3-0.2,0.5C73.7,84.6,73.8,84.4,73.8,84.2 M77.9,30.8
					C77.9,30.7,77.9,30.7,77.9,30.8C77.9,30.7,77.9,30.7,77.9,30.8 M80.2,36.6c0.5,0.8,0.9,1.6,1.4,2.3
					C81.1,38.2,80.7,37.4,80.2,36.6 M82.8,41.1c0,0.1,0,0.2,0,0.3C82.9,41.3,82.9,41.2,82.8,41.1 M86.2,41.2c0-0.1,0.1-0.2,0.2-0.2
					C86.3,40.9,86.2,41,86.2,41.2 M86.2,41.3C86.2,41.2,86.2,41.2,86.2,41.3C86.2,41.2,86.2,41.2,86.2,41.3 M86.1,41.5
					c-0.1,0-0.2,0-0.2,0.1C85.9,41.6,86,41.5,86.1,41.5 M85.9,41.9L85.9,41.9C85.8,41.9,85.8,41.9,85.9,41.9
					C85.8,41.9,85.8,41.9,85.9,41.9 M86.3,41.5L86.3,41.5L86.3,41.5L86.3,41.5z M86.6,41c0,0,0-0.1,0-0.1l0.1-0.3l0,0l-0.1,0.3
					C86.6,40.9,86.6,41,86.6,41 M86.9,40.4L86.9,40.4L86.9,40.4L86.9,40.4z M87.4,39.2c-0.2,0.3-0.4,0.6-0.4,1
					C87,39.8,87.1,39.5,87.4,39.2 M88.8,37.3L88.8,37.3L88.8,37.3c-0.2,0.1-0.4,0.3-0.5,0.5C88.4,37.6,88.6,37.5,88.8,37.3
					 M90.4,34.4l-0.2,0.3L90.4,34.4z M91.1,32.7c0.1-0.2,0.3-0.5,0.4-0.7C91.4,32.2,91.3,32.4,91.1,32.7 M77.9,30.5L77.9,30.5
					c-1.1,0.3-1.2,0.6-0.7,1.5l0,0C76.7,31,76.8,30.8,77.9,30.5 M82.9,41.6L82.9,41.6C82.9,41.6,82.9,41.5,82.9,41.6
					C82.9,41.5,82.9,41.6,82.9,41.6 M61.9,86.1c0.5,0.5,1.1,0.9,1.2,1.6l0,0C63,87,62.4,86.6,61.9,86.1 M62.7,87.8
					c0-0.1,0-0.2,0.1-0.2C62.7,87.6,62.7,87.6,62.7,87.8 M84.9,46.3C84.9,46.3,85,46.3,84.9,46.3c-0.6-0.4-1.4-0.4-2.1-0.7
					C83.5,45.9,84.3,46,84.9,46.3C85,46.3,84.9,46.3,84.9,46.3"/>
				<path id="Path_253840" class="st1" d="M7.4,63.6c-1.8-0.1-3.6-0.1-5.4,0c-1.4,0.1-2,1-2,2.6c0.1,1.1,1.1,1.9,2.2,1.9
					c0.8,0,1.6,0,2.5,0c0.9,0,1.9,0,2.8,0c1.2,0,2.2-1,2.2-2.3C9.5,64.6,8.6,63.6,7.4,63.6"/>
				<path id="Path_253841" class="st1" d="M21,81.8c-1.2,0-2.3,0-3.5,0c-0.9,0.1-1.6,0.6-1.9,1.5c-0.3,0.8-0.2,1.7,0.5,2.3
					c0.9,1.1,2.2,0.7,3.2,0.8c0.6,0,1.2,0,1.7,0c1.1,0.1,2.1-0.7,2.2-1.8c0-0.1,0-0.1,0-0.2C23.2,83,22.3,81.9,21,81.8
					C21,81.8,21,81.8,21,81.8"/>
				<path id="Path_253842" class="st1" d="M24.4,22.4c1,0.4,2.1,0.4,3.2,0.3c0.9,0,1.6-0.6,1.9-1.5c0.3-0.8,0.1-1.7-0.5-2.4
					c-0.7-0.8-1.6-0.5-2.4-0.6c-0.6,0-1.1,0-1.6,0c-0.9,0.1-1.7,0.8-1.8,1.7C22.8,20.9,23.4,22,24.4,22.4"/>
				<path id="Path_253843" class="st1" d="M26.5,90.9c-0.8-0.3-1.8-0.3-2.6,0.1c-1,0.6-1.5,1.8-1.2,2.9c0.5,1,1.5,1.6,2.6,1.6
					c0.4-0.1,1.2-0.1,1.9-0.3c0.8-0.5,1.3-1.3,1.4-2.3C28.3,91.5,28,91.3,26.5,90.9"/>
				<path id="Path_253844" class="st1" d="M144.5,54.5c-1.3-0.4-2.7-0.1-3.8,0.8c-0.6,0.6-0.8,1.6-0.4,2.4c0.4,1,1.5,1.6,2.5,1.4
					c1.9,0,3-0.7,3.1-2C146.1,56,145.5,54.9,144.5,54.5"/>
				<path id="Path_253845" class="st1" d="M97.7,13.7c1,0.1,2-0.5,2.5-1.5c0.5-1,0.2-2.1-0.7-2.8C98.8,9,97.9,8.9,97.1,9
					c-1.2-0.1-2.3,0.9-2.4,2.1c0,0.6,0.2,1.2,0.6,1.6C95.9,13.5,96.8,13.9,97.7,13.7"/>
				<path id="Path_253846" class="st1" d="M9.3,49.9c1.8,0,2.8-0.8,2.9-2.1c0-1.3-1.1-2.4-2.4-2.4c0,0-0.1,0-0.1,0
					c-2-0.1-2.5,1-2.7,2.4C6.8,48.9,8,49.9,9.3,49.9"/>
			</g>
		</g>
	</g>
	<g id="Group_37737" transform="translate(-9988.73 -11873.701)">
		<g id="Group_37735" transform="translate(29.934) rotate(21)">
			<g>
				<defs>
					
						<rect id="SVGID_00000100340559444357624200000017141243934193870241_" x="-1.3" y="1.3" transform="matrix(0.3584 -0.9336 0.9336 0.3584 -11.0009 53.7577)" width="69.8" height="67.2"/>
				</defs>
				<clipPath id="SVGID_00000152259290467958995170000010319482691002271891_">
					<use xlink:href="#SVGID_00000100340559444357624200000017141243934193870241_"  style="overflow:visible;"/>
				</clipPath>
				<g id="Group_37734" style="clip-path:url(#SVGID_00000152259290467958995170000010319482691002271891_);">
					<path id="Path_253898" class="st3" d="M33.2,50.9c-3.9-3.4-7.7-6.9-11.6-10.3C16.5,36,11.4,31.3,6.2,26.8
						c-1.1-0.8-1.7-2.2-1.6-3.5c0.1-7.1,0-14.2,0-21.2l0-1.9C5.3,0.1,5.8,0,6.4,0C18.9,0,31.4,0,44,0c0.9,0,1.8,0.4,2.4,1
						c4.4,4.5,8.8,9,13.2,13.6c1.9,1.9,3,4.5,3,7.1c0.2,2.4-0.8,4.8-2.8,6.2c-8.8,7.4-17.3,15-26,22.6
						C33.6,50.7,33.4,50.8,33.2,50.9 M34.6,28.3c0.8,1.8,3.4,1.6,5.6,0.9c4.6-1.6,7.8-5.8,7.9-10.7c0.3-5.2-2.9-10.1-7.8-11.8
						c-4.3-1.6-9.1-1.4-13.4,0.5c-6.1,2.6-9.4,8.5-9,16.1c0.1,5.2,3.3,9.9,8.2,11.8c4,1.7,8.4,2.1,12.6,1.2c2.2-0.5,4.3-1.3,6.3-2.4
						c1.7-1,3-2.5,3.7-4.3c-2-0.3-3.5-0.2-4.8,1.4c-0.7,0.7-1.6,1.2-2.6,1.5c-4,1.6-8.5,1.8-12.6,0.5c-3.9-1-6.9-4.1-7.7-8
						c-0.8-3.6-0.2-7.3,1.8-10.5c2.9-4.8,9-6.9,15.3-5.4c4,0.8,7,4.3,7,8.5c0.2,3.4-1.4,6.6-4.3,8.4c-0.5,0.2-1.1,0.3-1.7,0.4
						c-0.1-0.5-0.2-1-0.2-1.6c0.1-1,0.4-2,0.6-2.9c0.6-3,1.2-5.9,1.9-9.3c-1.8,0.7-3.8-1.1-4.7,1.6c-3.2-2.6-6.6-2.4-9.5,0.5
						c-2.5,2.5-3.7,6-3.3,9.5c0.2,3.1,2.7,5.6,5.9,5.5C31.4,29.5,32.9,28.8,34.6,28.3"/>
					<path id="Path_253899" class="st3" d="M42.1,47.7l25.1,22L0,69.8L24.9,48c2.2,1.9,4.3,3.8,6.4,5.7c1.8,1.6,2.1,1.6,3.9,0.1
						C37.5,51.8,39.7,49.8,42.1,47.7"/>
					<path id="Path_253900" class="st3" d="M44.6,45.5L67,26l0,39.1L44.6,45.5"/>
					<path id="Path_253901" class="st3" d="M0.4,26.1l22,19.6l-22,19.2L0.4,26.1z"/>
					<path id="Path_253902" class="st3" d="M36,19.6c0-2.5-0.7-3.9-2.1-4.4c-1.5-0.5-3.1,0.2-4.2,1.9c-1.3,1.9-1.8,4.2-1.6,6.5
						c0,1.4,0.9,2.6,2.2,3c1.3,0.3,2.7-0.2,3.5-1.4C35.1,23.6,35.9,21.6,36,19.6"/>
					<path id="Path_253903" class="st3" d="M36,19.6c-0.1,2.1-0.9,4.1-2.2,5.7c-0.8,1.1-2.2,1.7-3.5,1.3c-1.3-0.4-2.2-1.6-2.2-3
						c-0.3-2.3,0.3-4.6,1.6-6.5c1.2-1.7,2.8-2.4,4.2-1.9C35.3,15.7,36,17,36,19.6"/>
				</g>
			</g>
		</g>
		<g id="Group_37574" transform="translate(0 3.207)">
			<g>
				<defs>
					<rect id="SVGID_00000085934593988415305690000002524195270748876422_" x="0" y="0" width="38.6" height="34.2"/>
				</defs>
				<clipPath id="SVGID_00000169529052462254542200000000530547751793121152_">
					<use xlink:href="#SVGID_00000085934593988415305690000002524195270748876422_"  style="overflow:visible;"/>
				</clipPath>
				<g id="Group_37573" style="clip-path:url(#SVGID_00000169529052462254542200000000530547751793121152_);">
					<path id="Path_253855" class="st5" d="M19.3,22c0.1,0.1,0.2,0.2,0,0.3C19.1,22.2,19.2,22.1,19.3,22"/>
					<path id="Path_253856" class="st5" d="M19.2,21.9L19.2,21.9l-0.1,0L19.2,21.9"/>
					<path id="Path_253857" class="st5" d="M38.6,8.1C37,9.3,35,10,33,10c-5.1-0.1-9.2-4.2-9.2-9.3c0-0.2,0-0.4,0-0.7h-1.6
						c-0.1,0-0.2,0-0.4,0C17.9,0,14,0,10.1,0C8,0,5.9,0.1,3.8,0C1.8-0.1,0.1,1.5,0,3.6c0,0.1,0,0.1,0,0.2c0.1,3.7,0,7.3,0,11h0
						c0,3.5,0,7.1,0,10.6c-0.1,0.6,0,1.2,0.2,1.7c0.6,1.4,2,2.2,3.5,2.2c4.4,0,8.7,0,13.1,0c0.5,0,1,0.2,1.3,0.6
						c1.2,1.2,2.4,2.4,3.6,3.6c0.6,0.6,1.5,0.9,2.3,0.6c0.8-0.2,1.4-0.8,1.6-1.6c0.2-0.8,0.2-1.6,0.1-2.5c0-0.6,0.2-0.7,0.7-0.7
						c2.9,0,5.8,0,8.7,0c1.3,0,2.6-0.7,3.1-1.9c0.2-0.3,0.3-0.7,0.3-1.1V8.1z M37.2,26.1c0.1,0.5-0.5,1.3-1.2,1.6
						c-0.4,0.1-0.7,0.2-1.1,0.2c-3.1,0-6.2,0-9.3,0c-1,0-1.1,0.2-1.1,1.2c0,0.8,0,1.6,0,2.4c0.1,0.6-0.3,1.1-0.8,1.3
						c-0.5,0.2-0.8-0.2-1.1-0.5c-1.3-1.3-2.6-2.6-4-3.9c-0.3-0.3-0.7-0.5-1.2-0.5c-4.5,0-9.1,0-13.6,0c-1,0.1-1.9-0.5-2.2-1.4
						c-0.2-0.1-0.1-0.2,0-0.3c0,0-0.1,0-0.1-0.1l0,0c0-7.4,0-14.9,0-22.3c-0.1-1,0.5-2,1.5-2.4c0.3-0.1,0.6-0.1,0.9-0.1
						c6,0,12,0,18,0c0.5,0,0.7,0.1,0.7,0.6c0.2,2.2,1.2,4.3,2.7,5.9c1.4,1.5,3.2,2.6,5.2,3.1c2,0.5,4.2,0.4,6.2-0.3
						c0.8-0.3,0.8-0.3,0.8,0.5c0,4.6,0,9.2,0,13.7c0,0.3,0,0.5,0,0.8C37.3,25.8,37.5,26.1,37.2,26.1"/>
					<path id="Path_253858" class="st5" d="M38.5,8.1c0-1.4,0-2.9,0.1-4.3c0-2-1.6-3.7-3.6-3.8c-0.1,0-0.1,0-0.2,0
						c-2.1,0.1-4.2,0-6.2,0h-4.7c0,0,0,0,0,0h-1.6c-0.1,0-0.1,0-0.2,0h-2.4c-3.2,0-6.3,0-9.5,0C8,0,5.9,0.1,3.8,0
						C1.8-0.1,0.1,1.5,0,3.6c0,0.1,0,0.1,0,0.2c0.1,3.7,0,7.3,0,11h0c0,3.5,0,7.1,0,10.6c-0.1,0.6,0,1.2,0.2,1.7
						c0.6,1.4,2,2.2,3.5,2.2c4.4,0,8.7,0,13.1,0c0.5,0,1,0.2,1.3,0.6c1.2,1.2,2.4,2.4,3.6,3.6c0.6,0.6,1.5,0.9,2.3,0.6
						c0.8-0.2,1.4-0.8,1.6-1.6c0.2-0.8,0.2-1.6,0.1-2.5c0-0.6,0.2-0.7,0.7-0.7c2.9,0,5.8,0,8.7,0c1.3,0,2.6-0.7,3.1-1.9
						c0.2-0.3,0.3-0.7,0.3-1.1L38.5,8.1L38.5,8.1 M34.8,1.4c0.3,0,0.6,0,0.9,0.1c1,0.3,1.6,1.3,1.5,2.4c0,1.7,0,3.4,0,5.1
						c-1.3,0.7-2.8,1-4.2,1c-4.8-0.1-8.8-3.8-9.2-8.6L34.8,1.4 M34.9,27.9c-3.1,0-6.2,0-9.3,0c-1,0-1.1,0.2-1.1,1.2
						c0,0.8,0,1.6,0,2.4c0.1,0.6-0.3,1.1-0.8,1.3c-0.5,0.2-0.8-0.2-1.1-0.5c-1.3-1.3-2.6-2.6-4-3.9c-0.3-0.3-0.7-0.5-1.2-0.5
						c-4.5,0-9.1,0-13.6,0c-1,0.1-1.9-0.5-2.2-1.4c-0.2-0.1-0.1-0.2,0-0.3c0,0-0.1,0-0.1-0.1l0,0c0-7.4,0-14.9,0-22.3
						c-0.1-1,0.5-2,1.5-2.4c0.3-0.1,0.6-0.1,0.9-0.1c5.2,0,10.4,0,15.6,0h2.6c0.4,0,0.5,0.2,0.5,0.6c0.2,2.2,1.2,4.3,2.7,5.9
						c1.4,1.5,3.2,2.6,5.2,3.1c2,0.5,4.2,0.4,6.2-0.3c0.2-0.1,0.4-0.2,0.6-0.2c0,5.2,0,10.5,0,15.7l0,0c0,0-0.1,0.1-0.1,0.1
						c0,0.1,0.2,0.2,0,0.3c-0.2,0.6-0.7,1.1-1.4,1.3v0C35.4,27.9,35.1,27.9,34.9,27.9"/>
					<path id="Path_253859" class="st6" d="M37.4,3.9c0.1-1-0.5-2-1.5-2.4c-0.3-0.1-0.6-0.1-0.9-0.1c-4.4,0-8.7,0-13.1,0
						c-0.1,0-0.1,0-0.2,0c-0.8,0-1.6,0-2.4,0s-1.6,0-2.4,0c-0.1,0-0.1,0-0.2,0c-4.4,0-8.7,0-13.1,0c-0.3,0-0.6,0-0.9,0.1
						c-1,0.3-1.6,1.3-1.5,2.4c0,2.3,0,4.6,0,6.9c0,0.1,0,0.2,0,0.4c0,4.6,0,9.2,0,13.7c0,0.3,0,0.5,0,0.8l0,0c0,0.2,0,0.4,0,0.5v0
						c0,0,0.1,0.1,0.1,0.1l0,0c0,0.1,0,0.2,0,0.3c0,0,0,0,0,0c0.3,0.9,1.2,1.5,2.2,1.4c4.5,0,9.1,0,13.6,0c0.5,0,0.9,0.2,1.2,0.5
						c1.3,1.3,2.6,2.6,4,3.9c0.3,0.3,0.6,0.7,1.1,0.5c0.5-0.2,0.8-0.7,0.8-1.3c0-0.8,0-1.6,0-2.4c0-1,0.2-1.2,1.1-1.2
						c3.1,0,6.2,0,9.3,0c0.4,0,0.8,0,1.1-0.2c0.5-0.2,0.9-0.6,1.1-1.1h0c0,0,0-0.1,0.1-0.1c0,0,0,0,0,0c0-0.1,0-0.2,0-0.3l0,0
						c0,0,0.1,0,0.1-0.1v-0.5l0,0c0-0.2,0-0.5,0-0.8c0-4.6,0-9.2,0-13.7c0-0.2,0-0.3,0-0.4C37.4,8.5,37.4,6.2,37.4,3.9 M22.2,21.3
						H10c0,0-0.1,0-0.1,0c-0.3-0.1-0.6-0.3-0.6-0.7c0-0.3,0.3-0.6,0.6-0.6c0,0,0.1,0,0.1,0h18.8c0,0,0.1,0,0.1,0
						c0.3,0,0.6,0.3,0.6,0.6c0,0.4-0.2,0.6-0.6,0.7c0,0-0.1,0-0.1,0H22.2 M15.3,10.1c0.1-0.1,0.3-0.2,0.5-0.1H23
						c0.4,0,0.7,0.3,0.7,0.6c0,0.1,0,0.2,0,0.3c-0.1,0.3-0.4,0.4-0.7,0.4h-7.1c-0.3,0-0.6-0.1-0.7-0.4C15,10.6,15.1,10.3,15.3,10.1
						 M20.8,16.3h-10h-0.7c-0.6,0-1-0.4-0.8-1c0.2-0.4,0.6-0.4,0.9-0.4c3,0,6.1,0,9.1,0s6.1,0,9.1,0c0.4,0,0.8-0.1,0.9,0.4
						c0.2,0.5-0.1,1-0.8,1H28H20.8 M31.6,10c0.3,0.1,0.6,0.3,0.6,0.7c0,0.3-0.2,0.5-0.5,0.6c-0.4-0.1-0.9-0.1-1.3-0.2
						c-0.9-0.2-1.8-0.6-2.7-1.1h3.4C31.3,9.9,31.4,9.9,31.6,10 M7.2,10c0.1,0,0.3,0,0.4,0H11c-0.8,0.5-1.7,0.8-2.6,1.1
						c-0.4,0.1-0.9,0.2-1.3,0.2c-0.3-0.1-0.5-0.3-0.5-0.6C6.6,10.2,6.9,10.1,7.2,10"/>
					<path id="Path_253860" class="st5" d="M19.4,21.3c-3.8,0-7.6,0-11.3,0c-0.3,0-0.5,0-0.8,0c-0.4-0.1-0.6-0.3-0.6-0.7
						s0.3-0.6,0.7-0.6c0.2,0,0.5,0,0.7,0h22.9c0.2,0,0.4,0,0.5,0c0.4,0,0.6,0.3,0.7,0.6c0,0.4-0.2,0.6-0.6,0.7c-0.2,0-0.5,0-0.7,0
						L19.4,21.3"/>
					<path id="Path_253861" class="st5" d="M19.4,16.3H8c-0.2,0-0.5,0-0.7,0C7,16.2,6.6,16,6.6,15.6S7,15,7.4,14.9
						c0.2,0,0.4,0,0.5,0c7.7,0,15.4,0,23.1,0c0.4,0,0.9-0.1,1.1,0.4c0.2,0.5-0.1,1-0.8,1c-1.6,0-3.2,0-4.7,0L19.4,16.3"/>
					<path id="Path_253862" class="st5" d="M19.4,11.3H8c-0.2,0-0.5,0-0.7,0C7,11.2,6.6,11,6.6,10.6S7,10,7.4,9.9c0.2,0,0.4,0,0.5,0
						c7.7,0,15.4,0,23.1,0c0.4,0,0.9-0.1,1.1,0.4c0.2,0.5-0.1,1-0.8,1c-1.6,0-3.2,0-4.7,0L19.4,11.3"/>
					<path id="Path_253863" class="st5" d="M15.2,11.3c-2.4,0-4.9,0-7.3,0c-0.2,0-0.4,0-0.6,0c-0.3-0.1-0.6-0.2-0.6-0.6
						c0-0.4,0.3-0.6,0.6-0.7c0.1,0,0.3,0,0.4,0h15.2c0.2,0,0.5,0,0.7,0.1c0.2,0.2,0.3,0.5,0.2,0.8c-0.1,0.3-0.4,0.4-0.7,0.4
						L15.2,11.3"/>
				</g>
			</g>
		</g>
		<g id="Group_37736" transform="translate(54.91 52.611)">
			<g id="Rectangle_4997">
				<path class="st7" d="M9.4,0h31.9c5.2,0,9.4,4.2,9.4,9.4l0,0c0,5.2-4.2,9.4-9.4,9.4H9.4C4.2,18.8,0,14.6,0,9.4l0,0
					C0,4.2,4.2,0,9.4,0z"/>
				<path class="st8" d="M9.4,1h31.9c4.6,0,8.4,3.8,8.4,8.4l0,0c0,4.6-3.8,8.4-8.4,8.4H9.4C4.8,17.8,1,14.1,1,9.4l0,0
					C1,4.8,4.8,1,9.4,1z"/>
			</g>
			<g id="Group_37579" transform="translate(7.963 5.791)">
				<circle id="Ellipse_574" class="st5" cx="3.6" cy="3.6" r="3.6"/>
				<circle id="Ellipse_575" class="st5" cx="13" cy="3.6" r="3.6"/>
				<circle id="Ellipse_576" class="st5" cx="22.4" cy="3.6" r="3.6"/>
				<ellipse id="Ellipse_577" class="st5" cx="31.5" cy="3.6" rx="4" ry="3.6"/>
			</g>
		</g>
	</g>
</g>
<g>
</g>
<g>
</g>
<g>
</g>
<g>
</g>
<g>
</g>
<g>
</g>
<g>
</g>
<g>
</g>
<g>
</g>
<g>
</g>
<g>
</g>
<g>
</g>
<g>
</g>
<g>
</g>
<g>
</g>
</svg>
