<?xml version="1.0" encoding="utf-8"?>
<!-- Generator: Adobe Illustrator 27.3.1, SVG Export Plug-In . SVG Version: 6.00 Build 0)  -->
<svg version="1.1" id="Layer_1" xmlns="http://www.w3.org/2000/svg" xmlns:xlink="http://www.w3.org/1999/xlink" x="0px" y="0px"
	 viewBox="0 0 28 39.2" style="enable-background:new 0 0 28 39.2;" xml:space="preserve">
<style type="text/css">
	.st0{fill:#10123A;}
</style>
<g id="Group_39061" transform="translate(20512.237 15688.564)">
	<path id="price_check_FILL1_wght700_GRAD0_opsz48" class="st0" d="M-20502.4-15666.2v-2.4h-4.7v-3.6h9.4v-3.4h-7.5
		c-0.5,0-0.9-0.2-1.3-0.5c-0.4-0.3-0.6-0.8-0.6-1.3v-7c0-0.5,0.2-0.9,0.5-1.3c0.3-0.3,0.8-0.5,1.3-0.5h2.9v-2.4h3.5v2.4h4.7v3.6
		h-9.4v3.4h7.6c0.5,0,0.9,0.2,1.3,0.5c0.3,0.3,0.5,0.8,0.5,1.3v7c0,0.5-0.2,0.9-0.5,1.3c-0.3,0.4-0.8,0.5-1.3,0.5h-2.9v2.4
		L-20502.4-15666.2z"/>
	<path id="Path_254136" class="st0" d="M-20501.4-15649.4l-10.8-10.5l4.3-4.2l6.5,6.3l12.9-12.6l4.4,4.2L-20501.4-15649.4z"/>
</g>
<g>
</g>
<g>
</g>
<g>
</g>
<g>
</g>
<g>
</g>
<g>
</g>
<g>
</g>
<g>
</g>
<g>
</g>
<g>
</g>
<g>
</g>
<g>
</g>
<g>
</g>
<g>
</g>
<g>
</g>
</svg>
