<?xml version="1.0" encoding="utf-8"?>
<!-- Generator: Adobe Illustrator 27.3.1, SVG Export Plug-In . SVG Version: 6.00 Build 0)  -->
<svg version="1.1" id="Layer_1" xmlns="http://www.w3.org/2000/svg" xmlns:xlink="http://www.w3.org/1999/xlink" x="0px" y="0px"
	 viewBox="0 0 29.6 29.6" style="enable-background:new 0 0 29.6 29.6;" xml:space="preserve">
<style type="text/css">
	.st0{fill:#FFAAAA;}
	.st1{enable-background:new    ;}
	.st2{fill:#FFFFFF;}
</style>
<g id="Group_39272" transform="translate(20454 15726.178)">
	<g id="Group_39216" transform="translate(-20454.268 -15724.686)">
		<circle id="Ellipse_573" class="st0" cx="15.1" cy="13.3" r="14.8"/>
		<g class="st1">
			<path class="st2" d="M15,23.4c-0.5,0-0.9-0.2-1.2-0.5c-0.3-0.3-0.5-0.7-0.5-1.2s0.2-0.9,0.5-1.2c0.3-0.3,0.7-0.5,1.2-0.5
				c0.5,0,0.9,0.2,1.2,0.5c0.3,0.3,0.5,0.7,0.5,1.2c0,0.3-0.1,0.6-0.2,0.9c-0.2,0.3-0.4,0.5-0.6,0.6C15.6,23.3,15.3,23.4,15,23.4z
				 M16.3,3.6l-0.2,14.1h-2.2L13.7,3.6H16.3z"/>
		</g>
	</g>
</g>
</svg>
