<?xml version="1.0" encoding="utf-8"?>
<!-- Generator: Adobe Illustrator 27.3.1, SVG Export Plug-In . SVG Version: 6.00 Build 0)  -->
<svg version="1.1" id="Layer_1" xmlns="http://www.w3.org/2000/svg" xmlns:xlink="http://www.w3.org/1999/xlink" x="0px" y="0px"
	 viewBox="0 0 181.7 60.2" style="enable-background:new 0 0 181.7 60.2;" xml:space="preserve">
<style type="text/css">
	.st0{enable-background:new    ;}
	.st1{fill:#111111;}
	.st2{fill:#F8951D;}
	.st3{fill:#F15A22;}
</style>
<g>
	<g id="Group_34399" transform="translate(62.999)">
		<g class="st0">
			<path d="M14.7,34.9H2.5v-7h12.3V15.6h7V28H34v7H21.7v12.2h-7V34.9z"/>
		</g>
	</g>
	<g id="plaid" transform="translate(122.044 14.645)">
		<path id="Path_253511" class="st1" d="M23.6-14.6L5.2-9.8L0.1,8.7l6.4,6.5L0,21.7l4.8,18.6l18.4,5.1l6.5-6.4l6.4,6.5l18.5-4.8
			l5.1-18.6l-6.4-6.5l6.5-6.4L54.8-9.4l-18.4-5.1L30-8.1L23.6-14.6z M12.3-6.3L22-8.8l4.3,4.4l-6.2,6.2L12.3-6.3z M33.6-4.4l4.3-4.3
			l9.7,2.7l-7.9,7.9C39.7,1.9,33.6-4.4,33.6-4.4L33.6-4.4z M5.9,7.2l2.7-9.8l7.8,8l-6.2,6.1L5.9,7.2L5.9,7.2z M43.4,5.6l7.9-7.9
			l2.5,9.8l-4.3,4.3C49.5,11.9,43.4,5.6,43.4,5.6z M23.7,5.5l6.2-6.1L36,5.6l-6.2,6.1L23.7,5.5z M13.8,15.3L20,9.2l6.1,6.3l-6.2,6.2
			L13.8,15.3z M33.5,15.5l6.2-6.1l6.1,6.3l-6.2,6.2C39.6,21.8,33.5,15.5,33.5,15.5L33.5,15.5z M5.8,23.3l4.3-4.3l6.1,6.3l-7.9,7.9
			C8.3,33.1,5.8,23.3,5.8,23.3z M23.6,25.3l6.2-6.2l6.1,6.3l-6.2,6.2L23.6,25.3z M43.2,25.5l6.2-6.2l4.3,4.4L51,33.5
			C51,33.5,43.2,25.5,43.2,25.5L43.2,25.5z M12,36.9l7.9-7.9l6.1,6.3l-4.3,4.3L12,36.9z M33.3,35.3l6.2-6.2l7.8,8l-9.7,2.6
			L33.3,35.3z"/>
	</g>
	<g id="Group_37127" transform="translate(0 21.155)">
		<path id="Path_253830" class="st2" d="M20.7,32.5L6.1,32.4L0,32.5L20.7,8.9h20.7L20.7,32.5z"/>
		<path id="Path_253831" class="st3" d="M20.7-14.6L6.1-14.5L0-14.6L20.7,8.9h20.7L20.7-14.6z"/>
	</g>
</g>
</svg>
