<?xml version="1.0" encoding="UTF-8"?><svg id="a" xmlns="http://www.w3.org/2000/svg" xmlns:xlink="http://www.w3.org/1999/xlink" viewBox="0 0 1377.62 1071.9"><defs><clipPath id="c"><rect width="1377.62" height="1071.9" fill="none"/></clipPath><filter id="m" filterUnits="userSpaceOnUse"><feOffset dx="1" dy="1"/><feGaussianBlur result="n" stdDeviation="6"/><feFlood flood-color="#000" flood-opacity=".06"/><feComposite in2="n" operator="in"/><feComposite in="SourceGraphic"/></filter></defs><g id="b"><g clip-path="url(#c)" fill="none"><g id="d"><path id="e" d="m1310.63,600.11h-99.08c-11.32,0-22.65-5.66-24.53-13.21-2.83-18.87,5.66-30.19,22.65-29.25,25.48,1.89,50.95.94,76.43-1.89,8.49-1.89,15.1-9.44,15.1-18.87.94-9.44-4.72-17.93-13.21-21.7-5.66-.94-12.27-1.89-17.93-2.83h-85.87c-16.04,0-24.53-7.55-24.53-20.76,0-12.27,9.44-21.7,21.7-21.7h95.3c15.1,0,22.65-7.55,21.7-22.65,0-13.21-7.55-19.82-22.65-19.82h-138.71c-12.27.94-22.65-9.44-23.59-21.7v-1.89c0-12.27,8.49-18.87,22.65-18.87h64.16c13.21,0,21.7-5.66,23.59-15.1,3.77-17.93-3.77-27.36-22.65-27.36h-115.12c-6.61,0-14.15-.94-20.76-1.89-8.49-1.89-14.15-9.44-15.1-17.93-1.89-12.27,6.61-22.65,17.93-24.53h91.53c5.66.94,10.38-.94,15.1-4.72,7.55-5.66,9.44-15.1,6.61-23.59-2.83-8.49-11.32-14.15-20.76-14.15h-197.21c-10.38,1.89-20.76-5.66-22.65-16.04v-5.66c0-14.15,7.55-20.76,22.65-20.76h75.49c8.49,0,18.87,0,24.53-8.49,6.61-10.38,3.77-24.53-7.55-32.08-3.77-2.83-8.49-3.77-13.21-3.77h-203.81c-4.72.94-9.44,0-13.21-2.83-7.55-4.72-10.38-14.15-8.49-22.65,2.83-9.44,11.32-16.04,21.7-16.04h18.87c11.32-.94,19.82-10.38,18.87-21.7v-1.89c-1.89-10.38-10.38-18.87-21.7-18.87-23.59,2.83-46.24.94-69.82.94-9.44.94-16.98-5.66-19.82-14.15-3.77-11.32.94-22.65,12.27-27.36,2.83-.94,6.61-1.89,9.44-.94,11.32,0,20.76-10.38,20.76-21.7h0c.94-10.38-6.61-18.87-16.98-19.82h-133.99c-11.32,0-20.76,8.49-22.65,18.87-.94,12.27,9.44,22.65,21.7,23.59h.94c14.15-.94,28.31,0,42.46,0,10.38-2.83,17.93.94,21.7,6.61,4.72,7.55,4.72,16.04.94,23.59-3.77,7.55-12.27,11.32-20.76,10.38h-284.02c-12.27,0-21.7,10.38-21.7,22.65.94,11.32,11.32,19.82,22.65,19.82h23.59c12.27-.94,23.59,7.55,24.53,19.82v1.89c.94,12.27-8.49,22.65-20.76,22.65h-118.89c-15.1,0-22.65,6.61-22.65,17.93-1.89,11.32,6.61,22.65,17.93,24.53h22.65c11.32,0,19.82,8.49,21.7,19.82.94,11.32-8.49,21.7-19.82,22.65h-82.09c-12.27,0-21.7,10.38-21.7,22.65v2.83c2.83,9.44,11.32,16.98,21.7,16.98h52.84c16.04,0,25.48,8.49,26.42,21.7-.94,13.21-12.27,22.65-24.53,22.65h-124.55c-9.44-.94-17.93,4.72-20.76,13.21-3.77,9.44,0,19.82,8.49,25.48,6.61,3.77,13.21,4.72,19.82,4.72h63.22c14.15,0,22.65,6.61,22.65,19.82.94,11.32-8.49,21.7-19.82,22.65h-116.06c-12.27,0-21.7,9.44-21.7,21.7h0c-.94,10.38,7.55,19.82,18.87,20.76h25.48c12.27,0,21.7,10.38,21.7,21.7,0,2.83-.94,4.72-.94,7.55-2.83,12.27-12.27,13.21-21.7,13.21h-104.74c-12.27-.94-22.65,7.55-23.59,19.82,0,3.77,0,8.49,2.83,12.27,3.77,8.49,13.21,14.15,23.59,12.27h161.35c3.77-.94,6.61,0,9.44.94,8.49,5.66,12.27,16.04,10.38,25.48-2.83,10.38-12.27,16.98-22.65,16.04h-94.36c-3.77-.94-7.55,0-10.38,1.89-6.61,6.61-9.44,16.04-7.55,25.48,2.83,9.44,11.32,16.04,21.7,15.1h66.99c10.38-1.89,19.82,5.66,21.7,16.04v5.66c0,16.04-5.66,20.76-21.7,20.76h-92.47c-10.38,0-19.82,6.61-22.65,16.98-4.72,10.38,1.89,22.65,14.15,25.48,3.77.94,7.55.94,11.32.94h207.59c11.32,0,20.76,8.49,21.7,19.82,0,3.77-.94,7.55-2.83,11.32-4.72,10.38-14.15,10.38-23.59,11.32-13.21.94-27.36,0-40.57,0-10.38,0-18.87,7.55-18.87,17.93v1.89c0,14.15,6.61,22.65,18.87,22.65,39.63,0,80.2-.94,119.83.94,12.27,0,23.59,3.77,35.86-1.89,7.55-2.83,21.7,13.21,21.7,22.65-.94,11.32-11.32,20.76-22.65,19.82h-115.12c-12.27-.94-22.65,7.55-23.59,19.82,0,3.77,0,8.49,1.89,12.27,3.77,8.49,13.21,14.15,23.59,13.21h156.63c11.32-.94,21.7,8.49,21.7,19.82h0c0,12.27-10.38,22.65-22.65,22.65h-44.35c-8.49-.94-16.98,3.77-19.82,12.27-4.72,10.38-.94,23.59,9.44,28.31,3.77,1.89,7.55,2.83,12.27,1.89h138.71c11.32-.94,21.7,6.61,23.59,17.93,1.89,12.27-4.72,20.76-18.87,23.59-5.66,0-10.38,1.89-15.1,4.72-7.55,5.66-10.38,16.04-6.61,24.53,3.77,9.44,13.21,16.04,23.59,15.1h157.58c8.49,0,16.98-.94,24.53-3.77,7.55-2.83,11.32-17.93,8.49-26.42-3.77-8.49-12.27-14.15-21.7-14.15h-78.32c-15.1,0-22.65-6.61-22.65-19.82,0-15.1,6.61-22.65,22.65-22.65h361.39c3.77,0,7.55,0,11.32-.94,9.44-3.77,16.04-13.21,15.1-23.59-.94-11.32-11.32-18.87-21.7-17.93h-174.56c-10.38.94-19.82-6.61-21.7-16.98v-2.83h-134.93,134.93c23.59,0,47.18,0,70.77-.94,16.98,0,28.31-7.55,31.14-21.7l.94-1.89h228.35c3.77,0,7.55-.94,10.38-2.83,9.44-7.55,10.38-21.7,2.83-31.14-3.77-4.72-10.38-7.55-16.98-7.55h-134.93c-11.32,1.89-22.65-6.61-24.53-17.93-1.89-11.32,6.61-22.65,17.93-24.53h105.68c3.77,0,7.55-.94,11.32-.94,11.32-1.89,18.87-13.21,16.04-24.53h0c-2.83-9.44-11.32-16.04-20.76-16.98h-47.18c-15.1,0-22.65-7.55-22.65-21.7,0-16.04,5.66-20.76,22.65-20.76h100.96c8.49.94,16.98-.94,25.48-4.72,7.55-4.72,11.32-14.15,7.55-22.65-1.89-10.38-11.32-16.98-21.7-16.98h-59.45c-9.44,0-17.93-6.61-19.82-15.1-2.83-8.49.94-17.93,8.49-22.65,4.72-2.83,11.32-4.72,16.98-3.77h162.3c11.32.94,21.7-7.55,22.65-18.87v-3.77c-2.83-13.21-12.27-21.7-23.59-20.76m-675.6-150.03h0c-1.89,1.89-7.55-2.83-9.44.94,1.89-3.77,7.55.94,9.44-.94m-.94-2.83c-.94-.94-.94-2.83,0-3.77-.94,1.89-.94,2.83,0,3.77m-46.24-60.39c6.61-.94,13.21-2.83,18.87-5.66-5.66,2.83-12.27,4.72-18.87,5.66m-9.44,82.09h112.29-222.68,110.4m32.08,242.5h2.83c-.94-.94-1.89,0-2.83,0m6.61,85.87h0m26.42,0h0m.94,0h0m1.89-3.77s-.94,0,0,0c-.94,0,0,0,0,0m1.89-1.89h0m2.83-4.72q0,.94,0,0,0,.94,0,0m.94,0h0m1.89-.94h0m0-2.83h0m.94-20.76c2.83,4.72,3.77,9.44,1.89,14.15,1.89-4.72.94-10.38-1.89-14.15m-16.98-53.78c11.32,0,21.7,3.77,30.19,11.32-9.44-6.61-19.82-10.38-30.19-11.32m38.69,20.76c0-.94-.94-.94-.94-.94.94,0,.94.94.94.94h0m.94,0h0m.94,1.89h0m.94.94h0m1.89,1.89c0-.94-.94-.94-.94-.94l.94.94h0m-80.2-16.98h0l-7.55,2.83,7.55-2.83m13.21,74.54h0m68.88-55.67c-.94,0-.94-.94,0,0-.94-.94-.94,0,0,0h0m-104.74-199.09h-111.34,223.63-112.29m104.74,284.02c-1.89,2.83-3.77,4.72-5.66,6.61,2.83-1.89,4.72-3.77,5.66-6.61m.94-2.83c0,.94-.94,1.89-.94,1.89.94,0,.94-.94.94-1.89m1.89-5.66c.94,0,.94-.94.94-.94,0,0,0,.94-.94.94h0m10.38-17.93c6.61-16.98,3.77-35.86-6.61-50.01,10.38,14.15,13.21,33.03,6.61,50.01-.94,1.89-.94,2.83-1.89,4.72.94-.94.94-2.83,1.89-4.72m38.69-503.87q0-.94,0,0,0-.94,0,0m21.7,54.73c4.72,7.55,8.49,15.1,13.21,21.7-4.72-6.61-9.44-14.15-13.21-21.7m24.53,42.46v2.83-2.83m32.08.94c0-.94.94-1.89,1.89-1.89-.94,0-1.89,0-1.89,1.89m0,.94q0-.94,0,0,0-.94,0,0m-.94,1.89c-.94,0-1.89,0-1.89.94,0,0,.94-.94,1.89-.94m-2.83,3.77h0m3.77-3.77h0Zm3.77-4.72v-.94l.94-2.83h0l-.94,2.83v.94m2.83-5.66h0Zm3.77-11.32c-1.89,2.83-3.77,5.66-3.77,9.44,0-3.77,1.89-6.61,3.77-9.44m14.15-17.93h0c-1.89.94-3.77,2.83-4.72,4.72.94-1.89,2.83-2.83,4.72-4.72m15.1-27.36l-1.89,2.83,1.89-2.83Zm6.61-16.04c.94-1.89,2.83-4.72,3.77-6.61-.94,1.89-2.83,3.77-3.77,6.61m-124.55-20.76h0c-10.38,2.83-11.32,5.66-6.61,14.15h0c-4.72-9.44-3.77-11.32,6.61-14.15m47.18,104.74h0m-199.09,419.89c4.72,4.72,10.38,8.49,11.32,15.1h0c-.94-6.61-6.61-10.38-11.32-15.1m7.55,16.04c0-.94,0-1.89.94-1.89,0,0-.94.94-.94,1.89m210.42-391.58h0c-5.66-3.77-13.21-3.77-19.82-6.61,6.61,2.83,14.15,3.77,19.82,6.61h0" fill="#f1f4f7"/><path id="f" d="m69.82,600.11c-16.98-.94-33.97-.94-50.95,0C5.66,601.06,0,609.55,0,624.65c.94,10.38,10.38,17.93,20.76,17.93h50.01c11.32,0,20.76-9.44,20.76-21.7-1.89-11.32-10.38-20.76-21.7-20.76" fill="#f1f4f7"/><path id="g" d="m198.15,771.85h-33.03c-8.49.94-15.1,5.66-17.93,14.15-2.83,7.55-1.89,16.04,4.72,21.7,8.49,10.38,20.76,6.61,30.19,7.55h16.04c10.38.94,19.82-6.61,20.76-16.98v-1.89c0-13.21-9.44-23.59-20.76-24.53h0" fill="#f1f4f7"/><path id="h" d="m230.23,211.36c9.44,3.77,19.82,3.77,30.19,2.83,8.49,0,15.1-5.66,17.93-14.15,2.83-7.55.94-16.04-4.72-22.65-6.61-7.55-15.1-4.72-22.65-5.66h-15.1c-8.49.94-16.04,7.55-16.98,16.04-3.77,9.44.94,19.82,11.32,23.59" fill="#f1f4f7"/><path id="i" d="m250.05,857.71c-7.55-2.83-16.98-2.83-24.53.94-9.44,5.66-14.15,16.98-11.32,27.36,4.72,9.44,14.15,15.1,24.53,15.1,3.77-.94,11.32-.94,17.93-2.83,7.55-4.72,12.27-12.27,13.21-21.7-2.83-13.21-5.66-15.1-19.82-18.87" fill="#f1f4f7"/><path id="j" d="m1362.52,514.25c-12.27-3.77-25.48-.94-35.86,7.55-5.66,5.66-7.55,15.1-3.77,22.65,3.77,9.44,14.15,15.1,23.59,13.21,17.93,0,28.31-6.61,29.25-18.87,2.83-10.38-2.83-20.76-13.21-24.53" fill="#f1f4f7"/><path id="k" d="m921.87,129.27c9.44.94,18.87-4.72,23.59-14.15,4.72-9.44,1.89-19.82-6.61-26.42-6.61-3.77-14.15-5.66-22.65-4.72-11.32-.94-21.7,8.49-22.65,19.82,0,5.66,1.89,11.32,5.66,15.1,4.72,8.49,13.21,12.27,22.65,10.38" fill="#f1f4f7"/><path id="l" d="m87.75,470.84c16.98,0,26.42-7.55,27.36-19.82,0-12.27-10.38-22.65-22.65-22.65h-.94c-18.87-.94-23.59,9.44-25.48,22.65-2.83,10.38,9.44,19.82,21.7,19.82" fill="#f1f4f7"/></g></g></g><path d="m886.81,684.15v152.82c0,4.06-3.29,7.34-7.34,7.34h-381.31c-4.06,0-7.34-3.29-7.34-7.34V228.18c0-4.06,3.29-7.34,7.34-7.34h381.31c4.06,0,7.34,3.29,7.34,7.34v159.87h47.84v-161.51c0-53.19-43.12-96.31-96.31-96.31h-299.07c-53.19,0-96.31,43.12-96.31,96.31v618.82c0,53.19,43.12,96.31,96.31,96.31h299.07c53.19,0,96.31-43.12,96.31-96.31v-161.21h-47.84Zm-246.74-514.22c0-3.31,2.69-6,6-6h130.84c3.31,0,6,2.69,6,6v19.35c0,3.31-2.69,6-6,6h-130.84c-3.31,0-6-2.69-6-6v-19.35Zm-45.35,9.68c0-8.66,7.02-15.68,15.68-15.68s15.68,7.02,15.68,15.68h0c0,8.66-7.02,15.68-15.68,15.68s-15.68-7.02-15.68-15.68h0Zm94.1,741.35c-15.71,0-28.45-12.74-28.45-28.45s12.74-28.45,28.45-28.45,28.45,12.74,28.45,28.45-12.74,28.45-28.45,28.45Z" fill="#041242"/><path d="m1123.99,426.05h-358.33c-30.06,0-54.52,24.45-54.52,54.51v110.78c0,30.06,24.46,54.51,54.52,54.51h358.33c30.06,0,54.51-24.45,54.51-54.51v-110.78c0-30.06-24.45-54.51-54.51-54.51Zm36.51,165.29c0,20.17-16.35,36.51-36.51,36.51h-358.33c-20.17,0-36.52-16.34-36.52-36.51v-110.78c0-20.17,16.35-36.51,36.52-36.51h358.33c20.16,0,36.51,16.34,36.51,36.51v110.78Z" fill="#fff" filter="url(#m)"/><path d="m1160.5,480.56v110.78c0,20.17-16.35,36.51-36.51,36.51h-358.33c-20.17,0-36.52-16.34-36.52-36.51v-110.78c0-20.17,16.35-36.51,36.52-36.51h358.33c20.16,0,36.51,16.34,36.51,36.51Z" fill="#f95916"/><polygon points="865.6 514.82 837.05 527.54 839.26 496.39 820.66 496.39 822.86 527.54 794.31 514.82 787.94 532.38 817.97 540.96 796.21 563.38 810.5 575.43 829.96 548.52 849.41 575.43 863.71 563.38 841.94 540.96 871.97 532.38 865.6 514.82" fill="#fff"/><polygon points="976.39 514.82 947.84 527.54 950.05 496.39 931.45 496.39 933.66 527.54 905.1 514.82 898.73 532.38 928.76 540.96 907 563.38 921.29 575.43 940.75 548.52 960.21 575.43 974.5 563.38 952.73 540.96 982.76 532.38 976.39 514.82" fill="#fff"/><polygon points="1093.56 532.38 1087.19 514.82 1058.63 527.54 1060.84 496.39 1042.24 496.39 1044.45 527.54 1015.9 514.82 1009.52 532.38 1039.56 540.96 1017.79 563.38 1032.08 575.43 1051.54 548.52 1071 575.43 1085.29 563.38 1063.52 540.96 1093.56 532.38" fill="#fff"/></svg>