<?xml version="1.0" encoding="utf-8"?>
<!-- Generator: Adobe Illustrator 27.7.0, SVG Export Plug-In . SVG Version: 6.00 Build 0)  -->
<svg version="1.1" id="Layer_1" xmlns="http://www.w3.org/2000/svg" xmlns:xlink="http://www.w3.org/1999/xlink" x="0px" y="0px"
	 viewBox="0 0 37.6 37.6" style="enable-background:new 0 0 37.6 37.6;" xml:space="preserve">
<style type="text/css">
	.st0{fill:#FFFFFF;}
	.st1{fill:#1AB4D7;}
</style>
<g id="Group_39686" transform="translate(-1221.994 -620.292)">
	<path id="path20" class="st0" d="M1240.8,657.8c10.4,0,18.8-8.4,18.8-18.8s-8.4-18.8-18.8-18.8c-10.4,0-18.8,8.4-18.8,18.8
		S1230.4,657.8,1240.8,657.8"/>
	<g id="Group_39685" transform="translate(1225.973 634.806)">
		<path id="path22" class="st1" d="M5,4.2L8.2,1c0.1-0.1,0.2-0.3,0.2-0.4C8.4,0.3,8.1,0,7.8,0C7.7,0,7.5,0.1,7.4,0.2L4.2,3.4L1,0.2
			C0.9,0.1,0.7,0,0.6,0C0.3,0,0,0.3,0,0.6C0,0.8,0.1,0.9,0.2,1l3.2,3.2L0.2,7.4C0.1,7.5,0,7.7,0,7.8c0,0.3,0.3,0.6,0.6,0.6l0,0
			c0.2,0,0.3-0.1,0.4-0.2L4.2,5l3.2,3.2c0.1,0.1,0.3,0.2,0.4,0.2c0.3,0,0.6-0.3,0.6-0.6c0-0.2-0.1-0.3-0.2-0.4L5,4.2z"/>
		<path id="path24" class="st1" d="M24.1,4.2c0,0.6,0.5,1,1,1c0.6,0,1-0.5,1-1c0-0.6-0.5-1-1-1C24.5,3.2,24.1,3.6,24.1,4.2"/>
		<path id="path26" class="st1" d="M22.1,4.2c0-1.7,1.4-3,3-3c1.7,0,3,1.4,3,3c0,1.7-1.4,3-3,3C23.4,7.2,22.1,5.9,22.1,4.2
			 M20.9,4.2c0,2.3,1.9,4.2,4.2,4.2c2.3,0,4.2-1.9,4.2-4.2c0-2.3-1.9-4.2-4.2-4.2C22.8,0,20.9,1.9,20.9,4.2"/>
		<path id="path28" class="st1" d="M20.6,0.1h-0.2c-0.5,0-1,0.2-1.5,0.5c-0.1-0.3-0.3-0.5-0.6-0.5c-0.3,0-0.6,0.3-0.6,0.6
			c0,0,0,0,0,0v7.1c0,0.3,0.3,0.6,0.6,0.6c0.3,0,0.6-0.3,0.6-0.6V3.4c0-1.5,0.1-2,1.4-2.2c0.1,0,0.2,0,0.2,0c0.3,0,0.6-0.2,0.6-0.5
			c0,0,0,0,0,0C21.2,0.3,20.9,0.1,20.6,0.1"/>
		<path id="path30" class="st1" d="M9.6,3.5C9.6,3.5,9.6,3.5,9.6,3.5c0.3-1.4,1.6-2.3,2.9-2.3c1.4,0,2.6,1,3,2.3H9.6z M16.7,3.4
			c-0.2-1.1-0.9-2.1-1.9-2.8c-1.4-0.9-3.3-0.9-4.7,0.1C9,1.6,8.3,2.9,8.3,4.2c0,0.3,0,0.7,0.1,1c0.4,1.7,1.9,2.9,3.6,3.1
			c0.5,0.1,1,0,1.5-0.1C14,8.2,14.4,8,14.8,7.8c0.4-0.3,0.8-0.6,1.1-1l0,0c0.2-0.3,0.2-0.7-0.1-0.9c-0.2-0.2-0.6-0.2-0.8,0.1
			c0,0,0,0,0,0.1c-0.1,0.1-0.1,0.2-0.2,0.3c-0.2,0.3-0.5,0.5-0.8,0.7c-0.4,0.2-0.9,0.4-1.4,0.4c-1.3,0-2.4-0.8-2.9-2
			C9.6,5.1,9.6,4.9,9.5,4.8c0,0,0-0.1,0-0.1h6c0.6,0.1,1.1-0.4,1.2-1C16.7,3.6,16.7,3.5,16.7,3.4"/>
	</g>
</g>
</svg>
